<?xml version="1.0" encoding="UTF-8" standalone="no"?>
<!DOCTYPE svg PUBLIC "-//W3C//DTD SVG 1.1//EN"
 "http://www.w3.org/Graphics/SVG/1.1/DTD/svg11.dtd">
<!-- Generated by graphviz version 8.0.5 (0)
 -->
<!-- Title: ElevationChartItem Pages: 1 -->
<svg width="1038pt" height="522pt"
 viewBox="0.00 0.00 1038.25 522.24" xmlns="http://www.w3.org/2000/svg" xmlns:xlink="http://www.w3.org/1999/xlink">
<g id="graph0" class="graph" transform="scale(1 1) rotate(0) translate(4 518.24)">
<title>ElevationChartItem</title>
<!-- Node1 -->
<g id="Node000001" class="node">
<title>Node1</title>
<g id="a_Node000001"><a xlink:title="Основной класс библиотеки.">
<polygon fill="#999999" stroke="#666666" points="1030.25,-275.25 922,-275.25 922,-253.75 1030.25,-253.75 1030.25,-275.25"/>
<text text-anchor="middle" x="976.12" y="-260.8" font-family="Arial" font-size="11.00">ElevationChartItem</text>
</a>
</g>
</g>
<!-- Node2 -->
<g id="Node000002" class="node">
<title>Node2</title>
<g id="a_Node000002"><a xlink:href="../../d6/d6b/classSG_1_1ScenegraphObject.html" target="_top" xlink:title="Базовый класс для объектов Qt Quick Scenegraph.">
<polygon fill="white" stroke="#666666" points="611.25,-494.25 506,-494.25 506,-472.75 611.25,-472.75 611.25,-494.25"/>
<text text-anchor="middle" x="558.62" y="-479.8" font-family="Arial" font-size="11.00">ScenegraphObject</text>
</a>
</g>
</g>
<!-- Node2&#45;&gt;Node1 -->
<g id="edge1_Node000001_Node000002" class="edge">
<title>Node2&#45;&gt;Node1</title>
<g id="a_edge1_Node000001_Node000002"><a xlink:title=" ">
<path fill="none" stroke="#63b8ff" d="M608.32,-497.2C680.98,-514.47 818.39,-534.44 904,-467.5 966.66,-418.5 974.29,-310.51 975.08,-275.61"/>
<polygon fill="#63b8ff" stroke="#63b8ff" points="609.63,-493.68 599.08,-494.69 607.96,-500.47 609.63,-493.68"/>
</a>
</g>
</g>
<!-- Node3 -->
<g id="Node000003" class="node">
<title>Node3</title>
<g id="a_Node000003"><a xlink:href="../../d7/d4d/classQQuickItem.html" target="_top" xlink:title=" ">
<polygon fill="white" stroke="#bfbfbf" points="185.25,-460.25 113,-460.25 113,-438.75 185.25,-438.75 185.25,-460.25"/>
<text text-anchor="middle" x="149.12" y="-445.8" font-family="Arial" font-size="11.00">QQuickItem</text>
</a>
</g>
</g>
<!-- Node3&#45;&gt;Node2 -->
<g id="edge2_Node000002_Node000003" class="edge">
<title>Node3&#45;&gt;Node2</title>
<g id="a_edge2_Node000002_Node000003"><a xlink:title=" ">
<path fill="none" stroke="#63b8ff" d="M196.29,-453.35C272.79,-459.73 425.32,-472.46 505.54,-479.15"/>
<polygon fill="#63b8ff" stroke="#63b8ff" points="196.83,-449.8 186.58,-452.46 196.25,-456.78 196.83,-449.8"/>
</a>
</g>
</g>
<!-- Node4 -->
<g id="Node000004" class="node">
<title>Node4</title>
<g id="a_Node000004"><a xlink:title=" ">
<polygon fill="white" stroke="#bfbfbf" points="55,-375.25 0,-375.25 0,-353.75 55,-353.75 55,-375.25"/>
<text text-anchor="middle" x="27.5" y="-360.8" font-family="Arial" font-size="11.00">QObject</text>
</a>
</g>
</g>
<!-- Node4&#45;&gt;Node3 -->
<g id="edge3_Node000003_Node000004" class="edge">
<title>Node4&#45;&gt;Node3</title>
<g id="a_edge3_Node000003_Node000004"><a xlink:title=" ">
<path fill="none" stroke="#63b8ff" d="M52.94,-381.87C76.75,-398.79 112.24,-424 132.48,-438.39"/>
<polygon fill="#63b8ff" stroke="#63b8ff" points="55.32,-378.55 45.14,-375.61 51.26,-384.26 55.32,-378.55"/>
</a>
</g>
</g>
<!-- Node7 -->
<g id="Node000007" class="node">
<title>Node7</title>
<g id="a_Node000007"><a xlink:href="../../df/d15/classElevationChart_1_1Researcher.html" target="_top" xlink:title=" ">
<polygon fill="white" stroke="#bfbfbf" points="296.5,-375.25 224.25,-375.25 224.25,-353.75 296.5,-353.75 296.5,-375.25"/>
<text text-anchor="middle" x="260.38" y="-360.8" font-family="Arial" font-size="11.00">Researcher</text>
</a>
</g>
</g>
<!-- Node4&#45;&gt;Node7 -->
<g id="edge7_Node000007_Node000004" class="edge">
<title>Node4&#45;&gt;Node7</title>
<g id="a_edge7_Node000007_Node000004"><a xlink:title=" ">
<path fill="none" stroke="#63b8ff" d="M66.17,-364.5C109.84,-364.5 181.26,-364.5 223.95,-364.5"/>
<polygon fill="#63b8ff" stroke="#63b8ff" points="66.44,-361 56.44,-364.5 66.44,-368 66.44,-361"/>
</a>
</g>
</g>
<!-- Node13 -->
<g id="Node000013" class="node">
<title>Node13</title>
<g id="a_Node000013"><a xlink:title=" ">
<polygon fill="white" stroke="#bfbfbf" points="206.25,-300.25 92,-300.25 92,-278.75 206.25,-278.75 206.25,-300.25"/>
<text text-anchor="middle" x="149.12" y="-285.8" font-family="Arial" font-size="11.00">QAbstractItemModel</text>
</a>
</g>
</g>
<!-- Node4&#45;&gt;Node13 -->
<g id="edge14_Node000013_Node000004" class="edge">
<title>Node4&#45;&gt;Node13</title>
<g id="a_edge14_Node000013_Node000004"><a xlink:title=" ">
<path fill="none" stroke="#63b8ff" d="M55.61,-347.5C78.55,-333.12 110.75,-312.93 130.48,-300.56"/>
<polygon fill="#63b8ff" stroke="#63b8ff" points="54.02,-344.99 47.41,-353.27 57.74,-350.93 54.02,-344.99"/>
</a>
</g>
</g>
<!-- Node5 -->
<g id="Node000005" class="node">
<title>Node5</title>
<g id="a_Node000005"><a xlink:title=" ">
<polygon fill="white" stroke="#bfbfbf" points="808,-467 629.25,-467 629.25,-432 808,-432 808,-467"/>
<text text-anchor="start" x="637.25" y="-452.55" font-family="Arial" font-size="11.00">map&lt; NodeTypes, QSGGeometry</text>
<text text-anchor="middle" x="718.62" y="-439.05" font-family="Arial" font-size="11.00">Node * &gt;</text>
</a>
</g>
</g>
<!-- Node5&#45;&gt;Node1 -->
<g id="edge4_Node000001_Node000005" class="edge">
<title>Node5&#45;&gt;Node1</title>
<g id="a_edge4_Node000001_Node000005"><a xlink:title=" ">
<path fill="none" stroke="#9a32cd" stroke-dasharray="5,2" d="M818.99,-452.07C848.76,-448.44 879.86,-439.78 904,-421.5 953.38,-384.11 969.41,-304.54 973.73,-275.44"/>
<polygon fill="#9a32cd" stroke="#9a32cd" points="818.69,-448.68 809.1,-453.19 819.41,-455.65 818.69,-448.68"/>
</a>
</g>
<text text-anchor="middle" x="865" y="-452.55" font-family="Arial" font-size="11.00" fill="grey"> m_tree</text>
</g>
<!-- Node6 -->
<g id="Node000006" class="node">
<title>Node6</title>
<g id="a_Node000006"><a xlink:href="../../d8/d37/classSG_1_1BasicPalette.html" target="_top" xlink:title="Простейшая палитра цветов.">
<polygon fill="white" stroke="#666666" points="756.62,-414.25 680.62,-414.25 680.62,-392.75 756.62,-392.75 756.62,-414.25"/>
<text text-anchor="middle" x="718.62" y="-399.8" font-family="Arial" font-size="11.00">BasicPalette</text>
</a>
</g>
</g>
<!-- Node6&#45;&gt;Node1 -->
<g id="edge5_Node000001_Node000006" class="edge">
<title>Node6&#45;&gt;Node1</title>
<g id="a_edge5_Node000001_Node000006"><a xlink:title=" ">
<path fill="none" stroke="#9a32cd" stroke-dasharray="5,2" d="M768.04,-407.74C807.65,-408.82 863.54,-404.65 904,-378.5 942.79,-353.42 964.12,-298.94 971.8,-275.54"/>
<polygon fill="#9a32cd" stroke="#9a32cd" points="768.21,-404.2 758.07,-407.3 767.92,-411.2 768.21,-404.2"/>
</a>
</g>
<text text-anchor="middle" x="865" y="-406.55" font-family="Arial" font-size="11.00" fill="grey"> m_palette</text>
</g>
<!-- Node7&#45;&gt;Node1 -->
<g id="edge6_Node000001_Node000007" class="edge">
<title>Node7&#45;&gt;Node1</title>
<g id="a_edge6_Node000001_Node000007"><a xlink:title=" ">
<path fill="none" stroke="#9a32cd" stroke-dasharray="5,2" d="M307.87,-365.08C402.38,-365.78 623.56,-364.94 808,-345.5 851.09,-340.96 865.06,-347.5 904,-328.5 930.27,-315.68 954.04,-290.24 966.33,-275.59"/>
<polygon fill="#9a32cd" stroke="#9a32cd" points="308.02,-361.57 297.99,-364.99 307.96,-368.57 308.02,-361.57"/>
</a>
</g>
<text text-anchor="middle" x="558.62" y="-365.55" font-family="Arial" font-size="11.00" fill="grey"> m_researcher</text>
</g>
<!-- Node8 -->
<g id="Node000008" class="node">
<title>Node8</title>
<g id="a_Node000008"><a xlink:href="../../d6/d1e/classElevationChart_1_1Bounds.html" target="_top" xlink:title="Класс&#45;гаджет, хранящий предельные значения осей X и Y.">
<polygon fill="white" stroke="#666666" points="745,-336.25 692.25,-336.25 692.25,-314.75 745,-314.75 745,-336.25"/>
<text text-anchor="middle" x="718.62" y="-321.8" font-family="Arial" font-size="11.00">Bounds</text>
</a>
</g>
</g>
<!-- Node8&#45;&gt;Node1 -->
<g id="edge8_Node000001_Node000008" class="edge">
<title>Node8&#45;&gt;Node1</title>
<g id="a_edge8_Node000001_Node000008"><a xlink:title=" ">
<path fill="none" stroke="#9a32cd" stroke-dasharray="5,2" d="M756.28,-321.5C793.87,-316.85 853.77,-307.92 904,-293.5 920.28,-288.83 937.91,-281.65 951.55,-275.61"/>
<polygon fill="#9a32cd" stroke="#9a32cd" points="755.88,-318.14 746.37,-322.81 756.71,-325.09 755.88,-318.14"/>
</a>
</g>
<text text-anchor="middle" x="865" y="-313.55" font-family="Arial" font-size="11.00" fill="grey"> m_bounds</text>
</g>
<!-- Node9 -->
<g id="Node000009" class="node">
<title>Node9</title>
<g id="a_Node000009"><a xlink:href="../../de/d39/classElevationChart_1_1Route.html" target="_top" xlink:title="Набор последовательных точек на карте.">
<polygon fill="white" stroke="#666666" points="741.25,-296.25 696,-296.25 696,-274.75 741.25,-274.75 741.25,-296.25"/>
<text text-anchor="middle" x="718.62" y="-281.8" font-family="Arial" font-size="11.00">Route</text>
</a>
</g>
</g>
<!-- Node9&#45;&gt;Node1 -->
<g id="edge9_Node000001_Node000009" class="edge">
<title>Node9&#45;&gt;Node1</title>
<g id="a_edge9_Node000001_Node000009"><a xlink:title=" ">
<path fill="none" stroke="#9a32cd" stroke-dasharray="5,2" d="M752.29,-282.81C795.03,-279.3 870.46,-273.1 921.6,-268.9"/>
<polygon fill="#9a32cd" stroke="#9a32cd" points="752.09,-279.4 742.41,-283.71 752.66,-286.38 752.09,-279.4"/>
</a>
</g>
<text text-anchor="middle" x="865" y="-278.55" font-family="Arial" font-size="11.00" fill="grey"> m_route</text>
</g>
<!-- Node10 -->
<g id="Node000010" class="node">
<title>Node10</title>
<g id="a_Node000010"><a xlink:title=" ">
<polygon fill="white" stroke="#bfbfbf" points="464.38,-303 338.12,-303 338.12,-268 464.38,-268 464.38,-303"/>
<text text-anchor="start" x="346.12" y="-288.55" font-family="Arial" font-size="11.00">vector&lt; ElevationChart</text>
<text text-anchor="middle" x="401.25" y="-275.05" font-family="Arial" font-size="11.00">::RoutePoint &gt;</text>
</a>
</g>
</g>
<!-- Node10&#45;&gt;Node9 -->
<g id="edge10_Node000009_Node000010" class="edge">
<title>Node10&#45;&gt;Node9</title>
<g id="a_edge10_Node000009_Node000010"><a xlink:title=" ">
<path fill="none" stroke="#9a32cd" stroke-dasharray="5,2" d="M475.28,-285.5C546.69,-285.5 651.02,-285.5 695.84,-285.5"/>
<polygon fill="#9a32cd" stroke="#9a32cd" points="475.56,-282 465.56,-285.5 475.56,-289 475.56,-282"/>
</a>
</g>
<text text-anchor="middle" x="558.62" y="-288.55" font-family="Arial" font-size="11.00" fill="grey"> m_vec</text>
</g>
<!-- Node11 -->
<g id="Node000011" class="node">
<title>Node11</title>
<g id="a_Node000011"><a xlink:href="../../d6/de1/classElevationChart_1_1RouteModel.html" target="_top" xlink:title="Модель точек пути для профиля высот.">
<polygon fill="white" stroke="#666666" points="755.88,-207.25 681.38,-207.25 681.38,-185.75 755.88,-185.75 755.88,-207.25"/>
<text text-anchor="middle" x="718.62" y="-192.8" font-family="Arial" font-size="11.00">RouteModel</text>
</a>
</g>
</g>
<!-- Node11&#45;&gt;Node1 -->
<g id="edge11_Node000001_Node000011" class="edge">
<title>Node11&#45;&gt;Node1</title>
<g id="a_edge11_Node000001_Node000011"><a xlink:title=" ">
<path fill="none" stroke="#9a32cd" stroke-dasharray="5,2" d="M766.93,-195.22C805.05,-195.66 859.45,-199.64 904,-216 927.01,-224.45 949.73,-241.98 963.08,-253.48"/>
<polygon fill="#9a32cd" stroke="#9a32cd" points="767.16,-191.72 757.15,-195.19 767.14,-198.72 767.16,-191.72"/>
</a>
</g>
<text text-anchor="middle" x="865" y="-218.55" font-family="Arial" font-size="11.00" fill="grey"> m_model</text>
</g>
<!-- Node12 -->
<g id="Node000012" class="node">
<title>Node12</title>
<g id="a_Node000012"><a xlink:title=" ">
<polygon fill="white" stroke="#bfbfbf" points="456.12,-192.25 346.38,-192.25 346.38,-170.75 456.12,-170.75 456.12,-192.25"/>
<text text-anchor="middle" x="401.25" y="-177.8" font-family="Arial" font-size="11.00">QAbstractListModel</text>
</a>
</g>
</g>
<!-- Node12&#45;&gt;Node11 -->
<g id="edge12_Node000011_Node000012" class="edge">
<title>Node12&#45;&gt;Node11</title>
<g id="a_edge12_Node000011_Node000012"><a xlink:title=" ">
<path fill="none" stroke="#63b8ff" d="M467.36,-184.6C532.12,-187.68 629.12,-192.29 681.3,-194.77"/>
<polygon fill="#63b8ff" stroke="#63b8ff" points="467.62,-181.06 457.46,-184.08 467.29,-188.05 467.62,-181.06"/>
</a>
</g>
</g>
<!-- Node15 -->
<g id="Node000015" class="node">
<title>Node15</title>
<g id="a_Node000015"><a xlink:href="../../d4/d99/classElevationChart_1_1NotificationModel.html" target="_top" xlink:title="Модель оповещений об ошибках в маршруте.">
<polygon fill="white" stroke="#666666" points="767.88,-167.25 669.38,-167.25 669.38,-145.75 767.88,-145.75 767.88,-167.25"/>
<text text-anchor="middle" x="718.62" y="-152.8" font-family="Arial" font-size="11.00">NotificationModel</text>
</a>
</g>
</g>
<!-- Node12&#45;&gt;Node15 -->
<g id="edge17_Node000015_Node000012" class="edge">
<title>Node12&#45;&gt;Node15</title>
<g id="a_edge17_Node000015_Node000012"><a xlink:title=" ">
<path fill="none" stroke="#63b8ff" d="M467.33,-176.34C527.3,-171.59 614.95,-164.64 669.03,-160.35"/>
<polygon fill="#63b8ff" stroke="#63b8ff" points="467.16,-172.92 457.46,-177.2 467.71,-179.9 467.16,-172.92"/>
</a>
</g>
</g>
<!-- Node13&#45;&gt;Node12 -->
<g id="edge13_Node000012_Node000013" class="edge">
<title>Node13&#45;&gt;Node12</title>
<g id="a_edge13_Node000012_Node000013"><a xlink:title=" ">
<path fill="none" stroke="#63b8ff" d="M177.4,-273.07C209.33,-254.39 264.28,-223.96 314.5,-204.5 326.14,-199.99 339,-196.03 351.14,-192.73"/>
<polygon fill="#63b8ff" stroke="#63b8ff" points="176.09,-270.37 169.25,-278.47 179.64,-276.4 176.09,-270.37"/>
</a>
</g>
</g>
<!-- Node14 -->
<g id="Node000014" class="node">
<title>Node14</title>
<g id="a_Node000014"><a xlink:title=" ">
<polygon fill="white" stroke="#bfbfbf" points="464.38,-248 338.12,-248 338.12,-213 464.38,-213 464.38,-248"/>
<text text-anchor="start" x="346.12" y="-233.55" font-family="Arial" font-size="11.00">vector&lt; ElevationChart</text>
<text text-anchor="middle" x="401.25" y="-220.05" font-family="Arial" font-size="11.00">::ElevationPoint &gt;</text>
</a>
</g>
</g>
<!-- Node14&#45;&gt;Node1 -->
<g id="edge22_Node000001_Node000014" class="edge">
<title>Node14&#45;&gt;Node1</title>
<g id="a_edge22_Node000001_Node000014"><a xlink:title=" ">
<path fill="none" stroke="#9a32cd" stroke-dasharray="5,2" d="M475.45,-233.9C556.72,-237.79 691.78,-244.58 808,-252 846.04,-254.43 888.91,-257.65 921.71,-260.21"/>
<polygon fill="#9a32cd" stroke="#9a32cd" points="475.99,-230.37 465.83,-233.39 475.66,-237.37 475.99,-230.37"/>
</a>
</g>
<text text-anchor="middle" x="718.62" y="-254.55" font-family="Arial" font-size="11.00" fill="grey"> m_profile</text>
</g>
<!-- Node14&#45;&gt;Node11 -->
<g id="edge15_Node000011_Node000014" class="edge">
<title>Node14&#45;&gt;Node11</title>
<g id="a_edge15_Node000011_Node000014"><a xlink:title=" ">
<path fill="none" stroke="#9a32cd" stroke-dasharray="5,2" d="M475.36,-219.84C485.64,-218.47 496.08,-217.15 506,-216 567.39,-208.89 639.04,-202.73 681.25,-199.33"/>
<polygon fill="#9a32cd" stroke="#9a32cd" points="475.17,-216.47 465.73,-221.28 476.11,-223.41 475.17,-216.47"/>
</a>
</g>
<text text-anchor="middle" x="558.62" y="-218.55" font-family="Arial" font-size="11.00" fill="grey"> m_storage</text>
</g>
<!-- Node15&#45;&gt;Node1 -->
<g id="edge16_Node000001_Node000015" class="edge">
<title>Node15&#45;&gt;Node1</title>
<g id="a_edge16_Node000001_Node000015"><a xlink:title=" ">
<path fill="none" stroke="#9a32cd" stroke-dasharray="5,2" d="M779.23,-153.79C817.08,-154.54 865.93,-160.27 904,-181 935.27,-198.03 958.81,-234.74 969.22,-253.28"/>
<polygon fill="#9a32cd" stroke="#9a32cd" points="779.4,-150.28 769.37,-153.7 779.34,-157.28 779.4,-150.28"/>
</a>
</g>
<text text-anchor="middle" x="865" y="-183.55" font-family="Arial" font-size="11.00" fill="grey"> m_notifications</text>
</g>
<!-- Node16 -->
<g id="Node000016" class="node">
<title>Node16</title>
<g id="a_Node000016"><a xlink:title=" ">
<polygon fill="white" stroke="#bfbfbf" points="488,-92 314.5,-92 314.5,-57 488,-57 488,-92"/>
<text text-anchor="start" x="322.5" y="-77.55" font-family="Arial" font-size="11.00">vector&lt; ElevationChart</text>
<text text-anchor="middle" x="401.25" y="-64.05" font-family="Arial" font-size="11.00">::NotificationModel::Notification &gt;</text>
</a>
</g>
</g>
<!-- Node16&#45;&gt;Node15 -->
<g id="edge18_Node000015_Node000016" class="edge">
<title>Node16&#45;&gt;Node15</title>
<g id="a_edge18_Node000015_Node000016"><a xlink:title=" ">
<path fill="none" stroke="#9a32cd" stroke-dasharray="5,2" d="M499.07,-84.7C535.69,-91.3 576.82,-102.15 611.25,-120 620.89,-124.99 619.64,-131.47 629.25,-136.5 641.51,-142.92 655.79,-147.29 669.24,-150.26"/>
<polygon fill="#9a32cd" stroke="#9a32cd" points="499.81,-81.1 489.36,-82.86 498.63,-88 499.81,-81.1"/>
</a>
</g>
<text text-anchor="middle" x="558.62" y="-122.55" font-family="Arial" font-size="11.00" fill="grey"> m_storage</text>
</g>
<!-- Node17 -->
<g id="Node000017" class="node">
<title>Node17</title>
<g id="a_Node000017"><a xlink:title=" ">
<polygon fill="white" stroke="#bfbfbf" points="464.38,-145 338.12,-145 338.12,-110 464.38,-110 464.38,-145"/>
<text text-anchor="start" x="346.12" y="-130.55" font-family="Arial" font-size="11.00">map&lt; NotificationType,</text>
<text text-anchor="middle" x="401.25" y="-117.05" font-family="Arial" font-size="11.00"> QString &gt;</text>
</a>
</g>
</g>
<!-- Node17&#45;&gt;Node15 -->
<g id="edge19_Node000015_Node000017" class="edge">
<title>Node17&#45;&gt;Node15</title>
<g id="a_edge19_Node000015_Node000017"><a xlink:title=" ">
<path fill="none" stroke="#9a32cd" stroke-dasharray="5,2" d="M475.42,-134.23C535.1,-139.72 617.69,-147.31 669.36,-152.06"/>
<polygon fill="#9a32cd" stroke="#9a32cd" points="475.84,-130.66 465.56,-133.23 475.2,-137.63 475.84,-130.66"/>
</a>
</g>
<text text-anchor="middle" x="558.62" y="-148.55" font-family="Arial" font-size="11.00" fill="grey"> m_dictionary</text>
</g>
<!-- Node18 -->
<g id="Node000018" class="node">
<title>Node18</title>
<g id="a_Node000018"><a xlink:href="../../dc/da9/classElevationChart_1_1Metrics.html" target="_top" xlink:title="Класс&#45;гаджет, хранящий входные данные для расчета коррекции по ЛТХ.">
<polygon fill="white" stroke="#666666" points="743.88,-127.25 693.38,-127.25 693.38,-105.75 743.88,-105.75 743.88,-127.25"/>
<text text-anchor="middle" x="718.62" y="-112.8" font-family="Arial" font-size="11.00">Metrics</text>
</a>
</g>
</g>
<!-- Node18&#45;&gt;Node1 -->
<g id="edge20_Node000001_Node000018" class="edge">
<title>Node18&#45;&gt;Node1</title>
<g id="a_edge20_Node000001_Node000018"><a xlink:title=" ">
<path fill="none" stroke="#9a32cd" stroke-dasharray="5,2" d="M754.8,-112.18C794.45,-109.18 859.22,-110.07 904,-140 945.6,-167.81 965.72,-228.7 972.45,-253.58"/>
<polygon fill="#9a32cd" stroke="#9a32cd" points="754.73,-108.76 745.08,-113.14 755.35,-115.74 754.73,-108.76"/>
</a>
</g>
<text text-anchor="middle" x="865" y="-142.55" font-family="Arial" font-size="11.00" fill="grey"> m_metrics</text>
</g>
<!-- Node19 -->
<g id="Node000019" class="node">
<title>Node19</title>
<g id="a_Node000019"><a xlink:title=" ">
<polygon fill="white" stroke="#bfbfbf" points="792.62,-88 644.62,-88 644.62,-53 792.62,-53 792.62,-88"/>
<text text-anchor="start" x="652.62" y="-73.55" font-family="Arial" font-size="11.00">unique_ptr&lt; ElevationChart</text>
<text text-anchor="middle" x="718.62" y="-60.05" font-family="Arial" font-size="11.00">::IElevationDataProvider &gt;</text>
</a>
</g>
</g>
<!-- Node19&#45;&gt;Node1 -->
<g id="edge21_Node000001_Node000019" class="edge">
<title>Node19&#45;&gt;Node1</title>
<g id="a_edge21_Node000001_Node000019"><a xlink:title=" ">
<path fill="none" stroke="#9a32cd" stroke-dasharray="5,2" d="M803.95,-64.83C838.04,-66.66 875.89,-74.44 904,-96 956.65,-136.39 970.74,-223.14 974.14,-253.63"/>
<polygon fill="#9a32cd" stroke="#9a32cd" points="804.15,-61.3 794.03,-64.43 803.9,-68.29 804.15,-61.3"/>
</a>
</g>
<text text-anchor="middle" x="865" y="-98.55" font-family="Arial" font-size="11.00" fill="grey"> m_provider</text>
</g>
<!-- Node20 -->
<g id="Node000020" class="node">
<title>Node20</title>
<g id="a_Node000020"><a xlink:title=" ">
<polygon fill="white" stroke="#bfbfbf" points="781.75,-35 655.5,-35 655.5,0 781.75,0 781.75,-35"/>
<text text-anchor="start" x="663.5" y="-20.55" font-family="Arial" font-size="11.00">vector&lt; ElevationChart</text>
<text text-anchor="middle" x="718.62" y="-7.05" font-family="Arial" font-size="11.00">::IntersectionPoint &gt;</text>
</a>
</g>
</g>
<!-- Node20&#45;&gt;Node1 -->
<g id="edge23_Node000001_Node000020" class="edge">
<title>Node20&#45;&gt;Node1</title>
<g id="a_edge23_Node000001_Node000020"><a xlink:title=" ">
<path fill="none" stroke="#9a32cd" stroke-dasharray="5,2" d="M792.81,-13.08C830.07,-14.67 873.76,-22.97 904,-49 967.91,-104 974.67,-217.64 975.17,-253.44"/>
<polygon fill="#9a32cd" stroke="#9a32cd" points="793.08,-9.56 782.99,-12.79 792.89,-16.56 793.08,-9.56"/>
</a>
</g>
<text text-anchor="middle" x="865" y="-52.55" font-family="Arial" font-size="11.00" fill="grey"> m_intersections</text>
</g>
</g>
</svg>
