<?xml version="1.0" encoding="UTF-8" standalone="no"?>
<!DOCTYPE svg PUBLIC "-//W3C//DTD SVG 1.1//EN"
 "http://www.w3.org/Graphics/SVG/1.1/DTD/svg11.dtd">
<!-- Generated by graphviz version 8.0.5 (0)
 -->
<!-- Title: ElevationChartItem Pages: 1 -->
<!--zoomable 401 -->

<svg id="main" version="1.1" xmlns="http://www.w3.org/2000/svg" xmlns:xlink="http://www.w3.org/1999/xlink" xml:space="preserve" onload="init(evt)">
<style type="text/css"><![CDATA[
.node, .edge {opacity: 0.7;}
.node.selected, .edge.selected {opacity: 1;}
.edge:hover path { stroke: red; }
.edge:hover polygon { stroke: red; fill: red; }
]]></style>

<defs>
  <circle id="rim" cx="0" cy="0" r="7"/>
  <circle id="rim2" cx="0" cy="0" r="3.5"/>
  <g id="zoomPlus">
    <use xlink:href="#rim" fill="#404040"><set attributeName="fill" to="#808080" begin="zoomplus.mouseover" end="zoomplus.mouseout"/></use>
    <path d="M-4,0h8M0,-4v8" fill="none" stroke="white" stroke-width="1.5" pointer-events="none"/>
  </g>
  <g id="zoomMin">
    <use xlink:href="#rim" fill="#404040"><set attributeName="fill" to="#808080" begin="zoomminus.mouseover" end="zoomminus.mouseout"/></use>
    <path d="M-4,0h8" fill="none" stroke="white" stroke-width="1.5" pointer-events="none"/>
  </g>
  <g id="arrowUp" transform="translate(30 24)">
    <use xlink:href="#rim"/>
    <path pointer-events="none" fill="none" stroke="white" stroke-width="1.5" d="M0,-3.0v7 M-2.5,-0.5L0,-3.0L2.5,-0.5"/>
  </g>
  <g id="arrowRight" transform="rotate(90) translate(36 -43)">
    <use xlink:href="#rim"/>
    <path pointer-events="none" fill="none" stroke="white" stroke-width="1.5" d="M0,-3.0v7 M-2.5,-0.5L0,-3.0L2.5,-0.5"/>
  </g>
  <g id="arrowDown" transform="rotate(180) translate(-30 -48)">
    <use xlink:href="#rim"/>
    <path pointer-events="none" fill="none" stroke="white" stroke-width="1.5" d="M0,-3.0v7 M-2.5,-0.5L0,-3.0L2.5,-0.5"/>
  </g>
  <g id="arrowLeft" transform="rotate(270) translate(-36 17)">
    <use xlink:href="#rim"/>
    <path pointer-events="none" fill="none" stroke="white" stroke-width="1.5" d="M0,-3.0v7 M-2.5,-0.5L0,-3.0L2.5,-0.5"/>
  </g>
  <g id="resetDef">
    <use xlink:href="#rim2" fill="#404040"><set attributeName="fill" to="#808080" begin="reset.mouseover" end="reset.mouseout"/></use>
  </g>
</defs>
<script type="application/ecmascript">
var viewWidth = 899;
var viewHeight = 401;
var sectionId = 'dynsection-1';
</script>
<script type="application/ecmascript" xlink:href="../../svg.min.js"/>
<svg id="graph" class="graph">
<g id="viewport">
<title>ElevationChartItem</title>
<!-- Node1 -->
<g id="Node000001" class="node">
<title>Node1</title>
<g id="a_Node000001"><a xlink:title="Основной класс библиотеки.">
<polygon fill="#999999" stroke="#666666" points="890.75,-194.25 782.5,-194.25 782.5,-172.75 890.75,-172.75 890.75,-194.25"/>
<text text-anchor="middle" x="836.62" y="-179.8" font-family="Arial" font-size="11.00">ElevationChartItem</text>
</a>
</g>
</g>
<!-- Node2 -->
<g id="Node000002" class="node">
<title>Node2</title>
<g id="a_Node000002"><a xlink:href="../../d6/d6b/classSG_1_1ScenegraphObject.html" target="_top" xlink:title="Базовый класс для объектов Qt Quick Scenegraph.">
<polygon fill="white" stroke="#666666" points="492.75,-388.25 387.5,-388.25 387.5,-366.75 492.75,-366.75 492.75,-388.25"/>
<text text-anchor="middle" x="440.12" y="-373.8" font-family="Arial" font-size="11.00">ScenegraphObject</text>
</a>
</g>
</g>
<!-- Node2&#45;&gt;Node1 -->
<g id="edge1_Node000001_Node000002" class="edge">
<title>Node2&#45;&gt;Node1</title>
<g id="a_edge1_Node000001_Node000002"><a xlink:title=" ">
<path fill="none" stroke="#63b8ff" d="M504.06,-386.6C574.4,-393.25 688.39,-393.07 764.5,-337.5 813.5,-301.73 829.7,-223.81 834.15,-194.74"/>
<polygon fill="#63b8ff" stroke="#63b8ff" points="504.46,-383.03 494.16,-385.49 503.75,-389.99 504.46,-383.03"/>
</a>
</g>
</g>
<!-- Node3 -->
<g id="Node000003" class="node">
<title>Node3</title>
<g id="a_Node000003"><a xlink:href="../../d7/d4d/classQQuickItem.html" target="_top" xlink:title=" ">
<polygon fill="white" stroke="#bfbfbf" points="185.25,-393.25 113,-393.25 113,-371.75 185.25,-371.75 185.25,-393.25"/>
<text text-anchor="middle" x="149.12" y="-378.8" font-family="Arial" font-size="11.00">QQuickItem</text>
</a>
</g>
</g>
<!-- Node3&#45;&gt;Node2 -->
<g id="edge2_Node000002_Node000003" class="edge">
<title>Node3&#45;&gt;Node2</title>
<g id="a_edge2_Node000002_Node000003"><a xlink:title=" ">
<path fill="none" stroke="#63b8ff" d="M196.47,-381.7C248.5,-380.8 332.73,-379.34 387.01,-378.4"/>
<polygon fill="#63b8ff" stroke="#63b8ff" points="196.5,-378.21 186.56,-381.89 196.62,-385.21 196.5,-378.21"/>
</a>
</g>
</g>
<!-- Node4 -->
<g id="Node000004" class="node">
<title>Node4</title>
<g id="a_Node000004"><a xlink:title=" ">
<polygon fill="white" stroke="#bfbfbf" points="55,-372.25 0,-372.25 0,-350.75 55,-350.75 55,-372.25"/>
<text text-anchor="middle" x="27.5" y="-357.8" font-family="Arial" font-size="11.00">QObject</text>
</a>
</g>
</g>
<!-- Node4&#45;&gt;Node3 -->
<g id="edge3_Node000003_Node000004" class="edge">
<title>Node4&#45;&gt;Node3</title>
<g id="a_edge3_Node000003_Node000004"><a xlink:title=" ">
<path fill="none" stroke="#63b8ff" d="M65.8,-368.05C80.78,-370.68 97.96,-373.69 112.74,-376.29"/>
<polygon fill="#63b8ff" stroke="#63b8ff" points="66.8,-364.49 56.35,-366.21 65.59,-371.39 66.8,-364.49"/>
</a>
</g>
</g>
<!-- Node12 -->
<g id="Node000012" class="node">
<title>Node12</title>
<g id="a_Node000012"><a xlink:href="../../d0/d5a/classQAbstractItemModel.html" target="_top" xlink:title=" ">
<polygon fill="white" stroke="#bfbfbf" points="206.25,-353.25 92,-353.25 92,-331.75 206.25,-331.75 206.25,-353.25"/>
<text text-anchor="middle" x="149.12" y="-338.8" font-family="Arial" font-size="11.00">QAbstractItemModel</text>
</a>
</g>
</g>
<!-- Node4&#45;&gt;Node12 -->
<g id="edge12_Node000012_Node000004" class="edge">
<title>Node4&#45;&gt;Node12</title>
<g id="a_edge12_Node000012_Node000004"><a xlink:title=" ">
<path fill="none" stroke="#63b8ff" d="M65.96,-355.55C74.08,-354.26 82.85,-352.87 91.52,-351.49"/>
<polygon fill="#63b8ff" stroke="#63b8ff" points="65.67,-352.21 56.35,-357.24 66.77,-359.12 65.67,-352.21"/>
</a>
</g>
</g>
<!-- Node5 -->
<g id="Node000005" class="node">
<title>Node5</title>
<g id="a_Node000005"><a xlink:title=" ">
<polygon fill="white" stroke="#bfbfbf" points="689.5,-247 510.75,-247 510.75,-212 689.5,-212 689.5,-247"/>
<text text-anchor="start" x="518.75" y="-232.55" font-family="Arial" font-size="11.00">map&lt; NodeTypes, QSGGeometry</text>
<text text-anchor="middle" x="600.12" y="-219.05" font-family="Arial" font-size="11.00">Node * &gt;</text>
</a>
</g>
</g>
<!-- Node5&#45;&gt;Node1 -->
<g id="edge4_Node000001_Node000005" class="edge">
<title>Node5&#45;&gt;Node1</title>
<g id="a_edge4_Node000001_Node000005"><a xlink:title=" ">
<path fill="none" stroke="#9a32cd" stroke-dasharray="5,2" d="M700.59,-213.73C721.75,-210.02 743.91,-205.86 764.5,-201.5 773.97,-199.49 784.09,-197.09 793.63,-194.71"/>
<polygon fill="#9a32cd" stroke="#9a32cd" points="700.23,-210.41 690.97,-215.57 701.42,-217.31 700.23,-210.41"/>
</a>
</g>
<text text-anchor="middle" x="736" y="-214.55" font-family="Arial" font-size="11.00" fill="grey"> m_tree</text>
</g>
<!-- Node6 -->
<g id="Node000006" class="node">
<title>Node6</title>
<g id="a_Node000006"><a xlink:href="../../d8/d37/classSG_1_1BasicPalette.html" target="_top" xlink:title="Простейшая палитра цветов.">
<polygon fill="white" stroke="#666666" points="638.12,-194.25 562.12,-194.25 562.12,-172.75 638.12,-172.75 638.12,-194.25"/>
<text text-anchor="middle" x="600.12" y="-179.8" font-family="Arial" font-size="11.00">BasicPalette</text>
</a>
</g>
</g>
<!-- Node6&#45;&gt;Node1 -->
<g id="edge5_Node000001_Node000006" class="edge">
<title>Node6&#45;&gt;Node1</title>
<g id="a_edge5_Node000001_Node000006"><a xlink:title=" ">
<path fill="none" stroke="#9a32cd" stroke-dasharray="5,2" d="M649.51,-183.5C688.16,-183.5 742.27,-183.5 782.19,-183.5"/>
<polygon fill="#9a32cd" stroke="#9a32cd" points="649.54,-180 639.54,-183.5 649.54,-187 649.54,-180"/>
</a>
</g>
<text text-anchor="middle" x="736" y="-186.55" font-family="Arial" font-size="11.00" fill="grey"> m_palette</text>
</g>
<!-- Node7 -->
<g id="Node000007" class="node">
<title>Node7</title>
<g id="a_Node000007"><a xlink:href="../../d6/d1e/classElevationChart_1_1Bounds.html" target="_top" xlink:title="Класс&#45;гаджет, хранящий предельные значения осей X и Y.">
<polygon fill="white" stroke="#666666" points="626.5,-154.25 573.75,-154.25 573.75,-132.75 626.5,-132.75 626.5,-154.25"/>
<text text-anchor="middle" x="600.12" y="-139.8" font-family="Arial" font-size="11.00">Bounds</text>
</a>
</g>
</g>
<!-- Node7&#45;&gt;Node1 -->
<g id="edge6_Node000001_Node000007" class="edge">
<title>Node7&#45;&gt;Node1</title>
<g id="a_edge6_Node000001_Node000007"><a xlink:title=" ">
<path fill="none" stroke="#9a32cd" stroke-dasharray="5,2" d="M637.3,-147.38C670.52,-151.21 721.04,-157.69 764.5,-166 773.87,-167.79 783.85,-170.04 793.29,-172.31"/>
<polygon fill="#9a32cd" stroke="#9a32cd" points="638.06,-143.83 627.73,-146.19 637.27,-150.79 638.06,-143.83"/>
</a>
</g>
<text text-anchor="middle" x="736" y="-168.55" font-family="Arial" font-size="11.00" fill="grey"> m_bounds</text>
</g>
<!-- Node8 -->
<g id="Node000008" class="node">
<title>Node8</title>
<g id="a_Node000008"><a xlink:href="../../de/d39/classElevationChart_1_1Route.html" target="_top" xlink:title="Набор последовательных точек на карте.">
<polygon fill="white" stroke="#666666" points="622.75,-114.25 577.5,-114.25 577.5,-92.75 622.75,-92.75 622.75,-114.25"/>
<text text-anchor="middle" x="600.12" y="-99.8" font-family="Arial" font-size="11.00">Route</text>
</a>
</g>
</g>
<!-- Node8&#45;&gt;Node1 -->
<g id="edge7_Node000001_Node000008" class="edge">
<title>Node8&#45;&gt;Node1</title>
<g id="a_edge7_Node000001_Node000008"><a xlink:title=" ">
<path fill="none" stroke="#9a32cd" stroke-dasharray="5,2" d="M633.87,-107.24C667.58,-111.85 721.14,-121.35 764.5,-139 785.55,-147.57 807.35,-162.22 821.18,-172.36"/>
<polygon fill="#9a32cd" stroke="#9a32cd" points="634.61,-103.67 624.25,-105.85 633.71,-110.62 634.61,-103.67"/>
</a>
</g>
<text text-anchor="middle" x="736" y="-141.55" font-family="Arial" font-size="11.00" fill="grey"> m_route</text>
</g>
<!-- Node9 -->
<g id="Node000009" class="node">
<title>Node9</title>
<g id="a_Node000009"><a xlink:title=" ">
<polygon fill="white" stroke="#bfbfbf" points="369.5,-121 243.25,-121 243.25,-86 369.5,-86 369.5,-121"/>
<text text-anchor="start" x="251.25" y="-106.55" font-family="Arial" font-size="11.00">vector&lt; ElevationChart</text>
<text text-anchor="middle" x="306.38" y="-93.05" font-family="Arial" font-size="11.00">::RoutePoint &gt;</text>
</a>
</g>
</g>
<!-- Node9&#45;&gt;Node8 -->
<g id="edge8_Node000008_Node000009" class="edge">
<title>Node9&#45;&gt;Node8</title>
<g id="a_edge8_Node000008_Node000009"><a xlink:title=" ">
<path fill="none" stroke="#9a32cd" stroke-dasharray="5,2" d="M380.93,-103.5C445.7,-103.5 535.92,-103.5 577.08,-103.5"/>
<polygon fill="#9a32cd" stroke="#9a32cd" points="380.96,-100 370.96,-103.5 380.96,-107 380.96,-100"/>
</a>
</g>
<text text-anchor="middle" x="440.12" y="-106.55" font-family="Arial" font-size="11.00" fill="grey"> m_vec</text>
</g>
<!-- Node10 -->
<g id="Node000010" class="node">
<title>Node10</title>
<g id="a_Node000010"><a xlink:href="../../d6/de1/classElevationChart_1_1RouteModel.html" target="_top" xlink:title="Модель точек пути для профиля высот.">
<polygon fill="white" stroke="#666666" points="637.38,-336.25 562.88,-336.25 562.88,-314.75 637.38,-314.75 637.38,-336.25"/>
<text text-anchor="middle" x="600.12" y="-321.8" font-family="Arial" font-size="11.00">RouteModel</text>
</a>
</g>
</g>
<!-- Node10&#45;&gt;Node1 -->
<g id="edge9_Node000001_Node000010" class="edge">
<title>Node10&#45;&gt;Node1</title>
<g id="a_edge9_Node000001_Node000010"><a xlink:title=" ">
<path fill="none" stroke="#9a32cd" stroke-dasharray="5,2" d="M648.53,-327.36C683.35,-326.49 730.33,-320.45 764.5,-297.5 802.85,-271.75 824.42,-217.64 832.23,-194.44"/>
<polygon fill="#9a32cd" stroke="#9a32cd" points="648.65,-323.87 638.69,-327.47 648.73,-330.87 648.65,-323.87"/>
</a>
</g>
<text text-anchor="middle" x="736" y="-322.55" font-family="Arial" font-size="11.00" fill="grey"> m_model</text>
</g>
<!-- Node11 -->
<g id="Node000011" class="node">
<title>Node11</title>
<g id="a_Node000011"><a xlink:href="../../d5/d2d/classQAbstractListModel.html" target="_top" xlink:title=" ">
<polygon fill="white" stroke="#bfbfbf" points="361.25,-353.25 251.5,-353.25 251.5,-331.75 361.25,-331.75 361.25,-353.25"/>
<text text-anchor="middle" x="306.38" y="-338.8" font-family="Arial" font-size="11.00">QAbstractListModel</text>
</a>
</g>
</g>
<!-- Node11&#45;&gt;Node10 -->
<g id="edge10_Node000010_Node000011" class="edge">
<title>Node11&#45;&gt;Node10</title>
<g id="a_edge10_Node000010_Node000011"><a xlink:title=" ">
<path fill="none" stroke="#63b8ff" d="M372.21,-338.72C430.86,-335.3 515.13,-330.39 562.74,-327.62"/>
<polygon fill="#63b8ff" stroke="#63b8ff" points="372.35,-335.27 362.57,-339.34 372.75,-342.25 372.35,-335.27"/>
</a>
</g>
</g>
<!-- Node12&#45;&gt;Node11 -->
<g id="edge11_Node000011_Node000012" class="edge">
<title>Node12&#45;&gt;Node11</title>
<g id="a_edge11_Node000011_Node000012"><a xlink:title=" ">
<path fill="none" stroke="#63b8ff" d="M217.29,-342.5C228.55,-342.5 240.11,-342.5 251,-342.5"/>
<polygon fill="#63b8ff" stroke="#63b8ff" points="217.61,-339 207.61,-342.5 217.61,-346 217.61,-339"/>
</a>
</g>
</g>
<!-- Node13 -->
<g id="Node000013" class="node">
<title>Node13</title>
<g id="a_Node000013"><a xlink:title=" ">
<polygon fill="white" stroke="#bfbfbf" points="369.5,-306 243.25,-306 243.25,-271 369.5,-271 369.5,-306"/>
<text text-anchor="start" x="251.25" y="-291.55" font-family="Arial" font-size="11.00">vector&lt; ElevationChart</text>
<text text-anchor="middle" x="306.38" y="-278.05" font-family="Arial" font-size="11.00">::ElevationPoint &gt;</text>
</a>
</g>
</g>
<!-- Node13&#45;&gt;Node1 -->
<g id="edge16_Node000001_Node000013" class="edge">
<title>Node13&#45;&gt;Node1</title>
<g id="a_edge16_Node000001_Node000013"><a xlink:title=" ">
<path fill="none" stroke="#9a32cd" stroke-dasharray="5,2" d="M380.62,-288.03C458.16,-286.23 583.73,-279.55 689.5,-256.5 724.12,-248.96 732.75,-245.22 764.5,-229.5 784.93,-219.38 806.69,-204.65 820.69,-194.61"/>
<polygon fill="#9a32cd" stroke="#9a32cd" points="380.92,-284.55 371,-288.26 381.07,-291.55 380.92,-284.55"/>
</a>
</g>
<text text-anchor="middle" x="600.12" y="-283.55" font-family="Arial" font-size="11.00" fill="grey"> m_profile</text>
</g>
<!-- Node13&#45;&gt;Node10 -->
<g id="edge13_Node000010_Node000013" class="edge">
<title>Node13&#45;&gt;Node10</title>
<g id="a_edge13_Node000010_Node000013"><a xlink:title=" ">
<path fill="none" stroke="#9a32cd" stroke-dasharray="5,2" d="M380.53,-297.78C438.46,-305.12 516.96,-315.08 562.42,-320.84"/>
<polygon fill="#9a32cd" stroke="#9a32cd" points="381.32,-294.22 370.96,-296.44 380.44,-301.17 381.32,-294.22"/>
</a>
</g>
<text text-anchor="middle" x="440.12" y="-313.55" font-family="Arial" font-size="11.00" fill="grey"> m_storage</text>
</g>
<!-- Node14 -->
<g id="Node000014" class="node">
<title>Node14</title>
<g id="a_Node000014"><a xlink:href="../../dc/da9/classElevationChart_1_1Metrics.html" target="_top" xlink:title="Класс&#45;гаджет, хранящий входные данные для расчета коррекции по ЛТХ.">
<polygon fill="white" stroke="#666666" points="625.38,-74.25 574.88,-74.25 574.88,-52.75 625.38,-52.75 625.38,-74.25"/>
<text text-anchor="middle" x="600.12" y="-59.8" font-family="Arial" font-size="11.00">Metrics</text>
</a>
</g>
</g>
<!-- Node14&#45;&gt;Node1 -->
<g id="edge14_Node000001_Node000014" class="edge">
<title>Node14&#45;&gt;Node1</title>
<g id="a_edge14_Node000001_Node000014"><a xlink:title=" ">
<path fill="none" stroke="#9a32cd" stroke-dasharray="5,2" d="M636.22,-65.71C671.03,-69.28 724.79,-78.61 764.5,-103 793.9,-121.06 817.95,-155.05 829.03,-172.53"/>
<polygon fill="#9a32cd" stroke="#9a32cd" points="636.9,-62.17 626.62,-64.74 636.26,-69.14 636.9,-62.17"/>
</a>
</g>
<text text-anchor="middle" x="736" y="-105.55" font-family="Arial" font-size="11.00" fill="grey"> m_metrics</text>
</g>
<!-- Node15 -->
<g id="Node000015" class="node">
<title>Node15</title>
<g id="a_Node000015"><a xlink:title=" ">
<polygon fill="white" stroke="#bfbfbf" points="674.12,-35 526.12,-35 526.12,0 674.12,0 674.12,-35"/>
<text text-anchor="start" x="534.12" y="-20.55" font-family="Arial" font-size="11.00">unique_ptr&lt; ElevationChart</text>
<text text-anchor="middle" x="600.12" y="-7.05" font-family="Arial" font-size="11.00">::IElevationDataProvider &gt;</text>
</a>
</g>
</g>
<!-- Node15&#45;&gt;Node1 -->
<g id="edge15_Node000001_Node000015" class="edge">
<title>Node15&#45;&gt;Node1</title>
<g id="a_edge15_Node000001_Node000015"><a xlink:title=" ">
<path fill="none" stroke="#9a32cd" stroke-dasharray="5,2" d="M684.88,-27.42C712.34,-33.86 741.63,-44.49 764.5,-62 803.12,-91.57 824.67,-148.59 832.36,-172.51"/>
<polygon fill="#9a32cd" stroke="#9a32cd" points="685.98,-23.86 675.47,-25.14 684.49,-30.69 685.98,-23.86"/>
</a>
</g>
<text text-anchor="middle" x="736" y="-64.55" font-family="Arial" font-size="11.00" fill="grey"> m_provider</text>
</g>
</g>
</svg>

<g id="navigator" transform="translate(0 0)" fill="#404254">
  <rect fill="#f2f5e9" fill-opacity="0.5" stroke="#606060" stroke-width=".5" x="0" y="0" width="60" height="60"/>
  <use id="zoomplus" xlink:href="#zoomPlus" x="17" y="9" onmousedown="handleZoom(evt,'in')"/>
  <use id="zoomminus" xlink:href="#zoomMin" x="42" y="9" onmousedown="handleZoom(evt,'out')"/>
  <use id="reset" xlink:href="#resetDef" x="30" y="36" onmousedown="handleReset()"/>
   <use id="arrowup" xlink:href="#arrowUp" x="0" y="0" onmousedown="handlePan(0,-1)"/>
  <use id="arrowright" xlink:href="#arrowRight" x="0" y="0" onmousedown="handlePan(1,0)"/>
  <use id="arrowdown" xlink:href="#arrowDown" x="0" y="0" onmousedown="handlePan(0,1)"/>
  <use id="arrowleft" xlink:href="#arrowLeft" x="0" y="0" onmousedown="handlePan(-1,0)"/>
</g>
<svg viewBox="0 0 15 15" width="100%" height="30px" preserveAspectRatio="xMaxYMin meet">
 <g id="arrow_out" transform="scale(0.3 0.3)">
  <a xlink:href="classElevationChart_1_1ElevationChartItem__coll__graph_org.svg" target="_base">
   <rect id="button" ry="5" rx="5" y="6" x="6" height="38" width="38"
        fill="#f2f5e9" fill-opacity="0.5" stroke="#606060" stroke-width="1.0"/>
   <path id="arrow"
     d="M 11.500037,31.436501 C 11.940474,20.09759 22.043105,11.32322 32.158766,21.979434 L 37.068811,17.246167 C 37.068811,17.246167 37.088388,32 37.088388,32 L 22.160133,31.978069 C 22.160133,31.978069 26.997745,27.140456 26.997745,27.140456 C 18.528582,18.264221 13.291696,25.230495 11.500037,31.436501 z"
     style="fill:#404040;"/>
  </a>
 </g>
</svg>

<style type='text/css'>
<![CDATA[
[data-mouse-over-selected='false'] { opacity: 0.7; }
[data-mouse-over-selected='true']  { opacity: 1.0; }
]]>
</style>
<script type="application/ecmascript"><![CDATA[
document.addEventListener('DOMContentLoaded', (event) => {
  highlightEdges();
  highlightAdjacentNodes();
});
]]></script>
</svg>
