<?xml version="1.0" encoding="UTF-8" standalone="no"?>
<!DOCTYPE svg PUBLIC "-//W3C//DTD SVG 1.1//EN"
 "http://www.w3.org/Graphics/SVG/1.1/DTD/svg11.dtd">
<!-- Generated by graphviz version 8.0.5 (0)
 -->
<!-- Title: ElevationChartItem Pages: 1 -->
<svg width="931pt" height="365pt"
 viewBox="0.00 0.00 930.75 364.90" xmlns="http://www.w3.org/2000/svg" xmlns:xlink="http://www.w3.org/1999/xlink">
<g id="graph0" class="graph" transform="scale(1 1) rotate(0) translate(4 360.9)">
<title>ElevationChartItem</title>
<!-- Node1 -->
<g id="Node000001" class="node">
<title>Node1</title>
<g id="a_Node000001"><a xlink:title="Основной класс библиотеки.">
<polygon fill="#999999" stroke="#666666" points="922.75,-174.25 814.5,-174.25 814.5,-152.75 922.75,-152.75 922.75,-174.25"/>
<text text-anchor="middle" x="868.62" y="-159.8" font-family="Arial" font-size="11.00">ElevationChartItem</text>
</a>
</g>
</g>
<!-- Node2 -->
<g id="Node000002" class="node">
<title>Node2</title>
<g id="a_Node000002"><a xlink:href="../../d7/d4d/classQQuickItem.html" target="_top" xlink:title=" ">
<polygon fill="white" stroke="#bfbfbf" points="296.5,-335.25 224.25,-335.25 224.25,-313.75 296.5,-313.75 296.5,-335.25"/>
<text text-anchor="middle" x="260.38" y="-320.8" font-family="Arial" font-size="11.00">QQuickItem</text>
</a>
</g>
</g>
<!-- Node2&#45;&gt;Node1 -->
<g id="edge1_Node000001_Node000002" class="edge">
<title>Node2&#45;&gt;Node1</title>
<g id="a_edge1_Node000001_Node000002"><a xlink:title=" ">
<path fill="none" stroke="#63b8ff" d="M307.49,-335.07C405.96,-354.93 640.52,-387.53 796.5,-289.5 839.25,-262.63 858.71,-200.28 865.11,-174.73"/>
<polygon fill="#63b8ff" stroke="#63b8ff" points="308.22,-331.44 297.72,-332.84 306.8,-338.29 308.22,-331.44"/>
</a>
</g>
</g>
<!-- Node3 -->
<g id="Node000003" class="node">
<title>Node3</title>
<g id="a_Node000003"><a xlink:title=" ">
<polygon fill="white" stroke="#bfbfbf" points="55,-315.25 0,-315.25 0,-293.75 55,-293.75 55,-315.25"/>
<text text-anchor="middle" x="27.5" y="-300.8" font-family="Arial" font-size="11.00">QObject</text>
</a>
</g>
</g>
<!-- Node3&#45;&gt;Node2 -->
<g id="edge2_Node000002_Node000003" class="edge">
<title>Node3&#45;&gt;Node2</title>
<g id="a_edge2_Node000002_Node000003"><a xlink:title=" ">
<path fill="none" stroke="#63b8ff" d="M66.14,-309.73C68.46,-310.01 70.76,-310.26 73,-310.5 125.44,-316 186.4,-320.16 223.94,-322.46"/>
<polygon fill="#63b8ff" stroke="#63b8ff" points="66.65,-306.15 56.3,-308.37 65.78,-313.09 66.65,-306.15"/>
</a>
</g>
</g>
<!-- Node10 -->
<g id="Node000010" class="node">
<title>Node10</title>
<g id="a_Node000010"><a xlink:href="../../d0/d5a/classQAbstractItemModel.html" target="_top" xlink:title=" ">
<polygon fill="white" stroke="#bfbfbf" points="206.25,-296.25 92,-296.25 92,-274.75 206.25,-274.75 206.25,-296.25"/>
<text text-anchor="middle" x="149.12" y="-281.8" font-family="Arial" font-size="11.00">QAbstractItemModel</text>
</a>
</g>
</g>
<!-- Node3&#45;&gt;Node10 -->
<g id="edge10_Node000010_Node000003" class="edge">
<title>Node3&#45;&gt;Node10</title>
<g id="a_edge10_Node000010_Node000003"><a xlink:title=" ">
<path fill="none" stroke="#63b8ff" d="M65.96,-298.55C74.08,-297.26 82.85,-295.87 91.52,-294.49"/>
<polygon fill="#63b8ff" stroke="#63b8ff" points="65.67,-295.21 56.35,-300.24 66.77,-302.12 65.67,-295.21"/>
</a>
</g>
</g>
<!-- Node4 -->
<g id="Node000004" class="node">
<title>Node4</title>
<g id="a_Node000004"><a xlink:href="../../d8/d37/classSG_1_1BasicPalette.html" target="_top" xlink:title="Простейшая палитра цветов.">
<polygon fill="white" stroke="#666666" points="642.75,-194.25 566.75,-194.25 566.75,-172.75 642.75,-172.75 642.75,-194.25"/>
<text text-anchor="middle" x="604.75" y="-179.8" font-family="Arial" font-size="11.00">BasicPalette</text>
</a>
</g>
</g>
<!-- Node4&#45;&gt;Node1 -->
<g id="edge3_Node000001_Node000004" class="edge">
<title>Node4&#45;&gt;Node1</title>
<g id="a_edge3_Node000001_Node000004"><a xlink:title=" ">
<path fill="none" stroke="#9a32cd" stroke-dasharray="5,2" d="M653.73,-179.84C699.11,-176.37 767.08,-171.18 814.17,-167.58"/>
<polygon fill="#9a32cd" stroke="#9a32cd" points="653.7,-176.4 643.99,-180.66 654.23,-183.38 653.7,-176.4"/>
</a>
</g>
<text text-anchor="middle" x="746.62" y="-178.55" font-family="Arial" font-size="11.00" fill="grey"> m_palette</text>
</g>
<!-- Node5 -->
<g id="Node000005" class="node">
<title>Node5</title>
<g id="a_Node000005"><a xlink:href="../../d6/d1e/classElevationChart_1_1Bounds.html" target="_top" xlink:title="Класс&#45;гаджет, хранящий предельные значения осей X и Y.">
<polygon fill="white" stroke="#666666" points="631.12,-154.25 578.38,-154.25 578.38,-132.75 631.12,-132.75 631.12,-154.25"/>
<text text-anchor="middle" x="604.75" y="-139.8" font-family="Arial" font-size="11.00">Bounds</text>
</a>
</g>
</g>
<!-- Node5&#45;&gt;Node1 -->
<g id="edge4_Node000001_Node000005" class="edge">
<title>Node5&#45;&gt;Node1</title>
<g id="a_edge4_Node000001_Node000005"><a xlink:title=" ">
<path fill="none" stroke="#9a32cd" stroke-dasharray="5,2" d="M642.1,-143.48C680.55,-143.79 742.96,-145.27 796.5,-151 802.23,-151.61 808.2,-152.41 814.14,-153.3"/>
<polygon fill="#9a32cd" stroke="#9a32cd" points="642.46,-139.97 632.44,-143.41 642.42,-146.97 642.46,-139.97"/>
</a>
</g>
<text text-anchor="middle" x="746.62" y="-153.55" font-family="Arial" font-size="11.00" fill="grey"> m_bounds</text>
</g>
<!-- Node6 -->
<g id="Node000006" class="node">
<title>Node6</title>
<g id="a_Node000006"><a xlink:href="../../de/d39/classElevationChart_1_1Route.html" target="_top" xlink:title="Набор последовательных точек на карте.">
<polygon fill="white" stroke="#666666" points="627.38,-114.25 582.12,-114.25 582.12,-92.75 627.38,-92.75 627.38,-114.25"/>
<text text-anchor="middle" x="604.75" y="-99.8" font-family="Arial" font-size="11.00">Route</text>
</a>
</g>
</g>
<!-- Node6&#45;&gt;Node1 -->
<g id="edge5_Node000001_Node000006" class="edge">
<title>Node6&#45;&gt;Node1</title>
<g id="a_edge5_Node000001_Node000006"><a xlink:title=" ">
<path fill="none" stroke="#9a32cd" stroke-dasharray="5,2" d="M638.31,-104.06C676.87,-105.5 742.65,-110.44 796.5,-127 815.87,-132.96 836.28,-143.99 850.24,-152.37"/>
<polygon fill="#9a32cd" stroke="#9a32cd" points="638.83,-100.54 628.72,-103.73 638.61,-107.54 638.83,-100.54"/>
</a>
</g>
<text text-anchor="middle" x="746.62" y="-129.55" font-family="Arial" font-size="11.00" fill="grey"> m_route</text>
</g>
<!-- Node7 -->
<g id="Node000007" class="node">
<title>Node7</title>
<g id="a_Node000007"><a xlink:title=" ">
<polygon fill="white" stroke="#bfbfbf" points="440.75,-121 314.5,-121 314.5,-86 440.75,-86 440.75,-121"/>
<text text-anchor="start" x="322.5" y="-106.55" font-family="Arial" font-size="11.00">vector&lt; ElevationChart</text>
<text text-anchor="middle" x="377.62" y="-93.05" font-family="Arial" font-size="11.00">::RoutePoint &gt;</text>
</a>
</g>
</g>
<!-- Node7&#45;&gt;Node6 -->
<g id="edge6_Node000006_Node000007" class="edge">
<title>Node7&#45;&gt;Node6</title>
<g id="a_edge6_Node000006_Node000007"><a xlink:title=" ">
<path fill="none" stroke="#9a32cd" stroke-dasharray="5,2" d="M451.98,-103.5C497.07,-103.5 551.76,-103.5 581.63,-103.5"/>
<polygon fill="#9a32cd" stroke="#9a32cd" points="452.04,-100 442.04,-103.5 452.04,-107 452.04,-100"/>
</a>
</g>
<text text-anchor="middle" x="485.75" y="-106.55" font-family="Arial" font-size="11.00" fill="grey"> m_vec</text>
</g>
<!-- Node8 -->
<g id="Node000008" class="node">
<title>Node8</title>
<g id="a_Node000008"><a xlink:href="../../d6/de1/classElevationChart_1_1RouteModel.html" target="_top" xlink:title="Модель точек пути для профиля высот.">
<polygon fill="white" stroke="#666666" points="642,-283.25 567.5,-283.25 567.5,-261.75 642,-261.75 642,-283.25"/>
<text text-anchor="middle" x="604.75" y="-268.8" font-family="Arial" font-size="11.00">RouteModel</text>
</a>
</g>
</g>
<!-- Node8&#45;&gt;Node1 -->
<g id="edge7_Node000001_Node000008" class="edge">
<title>Node8&#45;&gt;Node1</title>
<g id="a_edge7_Node000001_Node000008"><a xlink:title=" ">
<path fill="none" stroke="#9a32cd" stroke-dasharray="5,2" d="M653.06,-274.42C693.5,-274.06 752.02,-268.69 796.5,-244.5 827.08,-227.87 850.77,-192.65 861.44,-174.63"/>
<polygon fill="#9a32cd" stroke="#9a32cd" points="653.17,-270.92 643.17,-274.4 653.16,-277.92 653.17,-270.92"/>
</a>
</g>
<text text-anchor="middle" x="746.62" y="-274.55" font-family="Arial" font-size="11.00" fill="grey"> m_model</text>
</g>
<!-- Node9 -->
<g id="Node000009" class="node">
<title>Node9</title>
<g id="a_Node000009"><a xlink:href="../../d5/d2d/classQAbstractListModel.html" target="_top" xlink:title=" ">
<polygon fill="white" stroke="#bfbfbf" points="432.5,-296.25 322.75,-296.25 322.75,-274.75 432.5,-274.75 432.5,-296.25"/>
<text text-anchor="middle" x="377.62" y="-281.8" font-family="Arial" font-size="11.00">QAbstractListModel</text>
</a>
</g>
</g>
<!-- Node9&#45;&gt;Node8 -->
<g id="edge8_Node000008_Node000009" class="edge">
<title>Node9&#45;&gt;Node8</title>
<g id="a_edge8_Node000008_Node000009"><a xlink:title=" ">
<path fill="none" stroke="#63b8ff" d="M443.67,-282.28C465.62,-281.15 490.25,-279.83 512.75,-278.5 530.61,-277.45 550.43,-276.15 567.01,-275.04"/>
<polygon fill="#63b8ff" stroke="#63b8ff" points="443.61,-278.83 433.8,-282.84 443.97,-285.83 443.61,-278.83"/>
</a>
</g>
</g>
<!-- Node10&#45;&gt;Node9 -->
<g id="edge9_Node000009_Node000010" class="edge">
<title>Node10&#45;&gt;Node9</title>
<g id="a_edge9_Node000009_Node000010"><a xlink:title=" ">
<path fill="none" stroke="#63b8ff" d="M217.33,-285.5C250.83,-285.5 290.81,-285.5 322.33,-285.5"/>
<polygon fill="#63b8ff" stroke="#63b8ff" points="217.7,-282 207.7,-285.5 217.7,-289 217.7,-282"/>
</a>
</g>
</g>
<!-- Node11 -->
<g id="Node000011" class="node">
<title>Node11</title>
<g id="a_Node000011"><a xlink:title=" ">
<polygon fill="white" stroke="#bfbfbf" points="440.75,-256 314.5,-256 314.5,-221 440.75,-221 440.75,-256"/>
<text text-anchor="start" x="322.5" y="-241.55" font-family="Arial" font-size="11.00">vector&lt; ElevationChart</text>
<text text-anchor="middle" x="377.62" y="-228.05" font-family="Arial" font-size="11.00">::ElevationPoint &gt;</text>
</a>
</g>
</g>
<!-- Node11&#45;&gt;Node1 -->
<g id="edge14_Node000001_Node000011" class="edge">
<title>Node11&#45;&gt;Node1</title>
<g id="a_edge14_Node000001_Node000011"><a xlink:title=" ">
<path fill="none" stroke="#9a32cd" stroke-dasharray="5,2" d="M451.99,-237.04C536.35,-233.9 678.41,-224.06 796.5,-193.5 813.63,-189.07 832,-181.23 845.78,-174.68"/>
<polygon fill="#9a32cd" stroke="#9a32cd" points="452.11,-233.57 442.24,-237.42 452.35,-240.57 452.11,-233.57"/>
</a>
</g>
<text text-anchor="middle" x="604.75" y="-235.55" font-family="Arial" font-size="11.00" fill="grey"> m_profile</text>
</g>
<!-- Node11&#45;&gt;Node8 -->
<g id="edge11_Node000008_Node000011" class="edge">
<title>Node11&#45;&gt;Node8</title>
<g id="a_edge11_Node000008_Node000011"><a xlink:title=" ">
<path fill="none" stroke="#9a32cd" stroke-dasharray="5,2" d="M451.73,-249.54C490.36,-255.38 536.1,-262.28 567.25,-266.99"/>
<polygon fill="#9a32cd" stroke="#9a32cd" points="452.45,-245.96 442.04,-247.93 451.4,-252.88 452.45,-245.96"/>
</a>
</g>
<text text-anchor="middle" x="485.75" y="-261.55" font-family="Arial" font-size="11.00" fill="grey"> m_storage</text>
</g>
<!-- Node12 -->
<g id="Node000012" class="node">
<title>Node12</title>
<g id="a_Node000012"><a xlink:href="../../dc/da9/classElevationChart_1_1Metrics.html" target="_top" xlink:title="Класс&#45;гаджет, хранящий входные данные для расчета коррекции по ЛТХ.">
<polygon fill="white" stroke="#666666" points="630,-74.25 579.5,-74.25 579.5,-52.75 630,-52.75 630,-74.25"/>
<text text-anchor="middle" x="604.75" y="-59.8" font-family="Arial" font-size="11.00">Metrics</text>
</a>
</g>
</g>
<!-- Node12&#45;&gt;Node1 -->
<g id="edge12_Node000001_Node000012" class="edge">
<title>Node12&#45;&gt;Node1</title>
<g id="a_edge12_Node000001_Node000012"><a xlink:title=" ">
<path fill="none" stroke="#9a32cd" stroke-dasharray="5,2" d="M641.22,-61.71C681.14,-61.17 746.88,-64.8 796.5,-90 825.31,-104.63 849.11,-135.61 860.45,-152.29"/>
<polygon fill="#9a32cd" stroke="#9a32cd" points="641.35,-58.23 631.44,-61.97 641.52,-65.23 641.35,-58.23"/>
</a>
</g>
<text text-anchor="middle" x="746.62" y="-92.55" font-family="Arial" font-size="11.00" fill="grey"> m_metrics</text>
</g>
<!-- Node13 -->
<g id="Node000013" class="node">
<title>Node13</title>
<g id="a_Node000013"><a xlink:title=" ">
<polygon fill="white" stroke="#bfbfbf" points="678.75,-35 530.75,-35 530.75,0 678.75,0 678.75,-35"/>
<text text-anchor="start" x="538.75" y="-20.55" font-family="Arial" font-size="11.00">unique_ptr&lt; ElevationChart</text>
<text text-anchor="middle" x="604.75" y="-7.05" font-family="Arial" font-size="11.00">::RandomDataProvider &gt;</text>
</a>
</g>
</g>
<!-- Node13&#45;&gt;Node1 -->
<g id="edge13_Node000001_Node000013" class="edge">
<title>Node13&#45;&gt;Node1</title>
<g id="a_edge13_Node000001_Node000013"><a xlink:title=" ">
<path fill="none" stroke="#9a32cd" stroke-dasharray="5,2" d="M689.79,-14.72C725.25,-17.24 765.43,-25.32 796.5,-46 836,-72.3 857.07,-128.71 864.49,-152.53"/>
<polygon fill="#9a32cd" stroke="#9a32cd" points="690.13,-11.17 679.95,-14.1 689.74,-18.16 690.13,-11.17"/>
</a>
</g>
<text text-anchor="middle" x="746.62" y="-49.55" font-family="Arial" font-size="11.00" fill="grey"> m_random_provider</text>
</g>
</g>
</svg>
