<?xml version="1.0" encoding="UTF-8" standalone="no"?>
<!DOCTYPE svg PUBLIC "-//W3C//DTD SVG 1.1//EN"
 "http://www.w3.org/Graphics/SVG/1.1/DTD/svg11.dtd">
<!-- Generated by graphviz version 8.0.5 (0)
 -->
<!-- Title: ElevationChartItem Pages: 1 -->
<!--zoomable 319 -->

<svg id="main" version="1.1" xmlns="http://www.w3.org/2000/svg" xmlns:xlink="http://www.w3.org/1999/xlink" xml:space="preserve" onload="init(evt)">
<style type="text/css"><![CDATA[
.node, .edge {opacity: 0.7;}
.node.selected, .edge.selected {opacity: 1;}
.edge:hover path { stroke: red; }
.edge:hover polygon { stroke: red; fill: red; }
]]></style>

<defs>
  <circle id="rim" cx="0" cy="0" r="7"/>
  <circle id="rim2" cx="0" cy="0" r="3.5"/>
  <g id="zoomPlus">
    <use xlink:href="#rim" fill="#404040"><set attributeName="fill" to="#808080" begin="zoomplus.mouseover" end="zoomplus.mouseout"/></use>
    <path d="M-4,0h8M0,-4v8" fill="none" stroke="white" stroke-width="1.5" pointer-events="none"/>
  </g>
  <g id="zoomMin">
    <use xlink:href="#rim" fill="#404040"><set attributeName="fill" to="#808080" begin="zoomminus.mouseover" end="zoomminus.mouseout"/></use>
    <path d="M-4,0h8" fill="none" stroke="white" stroke-width="1.5" pointer-events="none"/>
  </g>
  <g id="arrowUp" transform="translate(30 24)">
    <use xlink:href="#rim"/>
    <path pointer-events="none" fill="none" stroke="white" stroke-width="1.5" d="M0,-3.0v7 M-2.5,-0.5L0,-3.0L2.5,-0.5"/>
  </g>
  <g id="arrowRight" transform="rotate(90) translate(36 -43)">
    <use xlink:href="#rim"/>
    <path pointer-events="none" fill="none" stroke="white" stroke-width="1.5" d="M0,-3.0v7 M-2.5,-0.5L0,-3.0L2.5,-0.5"/>
  </g>
  <g id="arrowDown" transform="rotate(180) translate(-30 -48)">
    <use xlink:href="#rim"/>
    <path pointer-events="none" fill="none" stroke="white" stroke-width="1.5" d="M0,-3.0v7 M-2.5,-0.5L0,-3.0L2.5,-0.5"/>
  </g>
  <g id="arrowLeft" transform="rotate(270) translate(-36 17)">
    <use xlink:href="#rim"/>
    <path pointer-events="none" fill="none" stroke="white" stroke-width="1.5" d="M0,-3.0v7 M-2.5,-0.5L0,-3.0L2.5,-0.5"/>
  </g>
  <g id="resetDef">
    <use xlink:href="#rim2" fill="#404040"><set attributeName="fill" to="#808080" begin="reset.mouseover" end="reset.mouseout"/></use>
  </g>
</defs>
<script type="application/ecmascript">
var viewWidth = 931;
var viewHeight = 319;
var sectionId = 'dynsection-1';
</script>
<script type="application/ecmascript" xlink:href="../../svg.min.js"/>
<svg id="graph" class="graph">
<g id="viewport">
<title>ElevationChartItem</title>
<!-- Node1 -->
<g id="Node000001" class="node">
<title>Node1</title>
<g id="a_Node000001"><a xlink:title="Основной класс библиотеки.">
<polygon fill="#999999" stroke="#666666" points="922.75,-154.25 814.5,-154.25 814.5,-132.75 922.75,-132.75 922.75,-154.25"/>
<text text-anchor="middle" x="868.62" y="-139.8" font-family="Arial" font-size="11.00">ElevationChartItem</text>
</a>
</g>
</g>
<!-- Node2 -->
<g id="Node000002" class="node">
<title>Node2</title>
<g id="a_Node000002"><a xlink:href="../../d7/d4d/classQQuickItem.html" target="_top" xlink:title=" ">
<polygon fill="white" stroke="#bfbfbf" points="296.5,-295.25 224.25,-295.25 224.25,-273.75 296.5,-273.75 296.5,-295.25"/>
<text text-anchor="middle" x="260.38" y="-280.8" font-family="Arial" font-size="11.00">QQuickItem</text>
</a>
</g>
</g>
<!-- Node2&#45;&gt;Node1 -->
<g id="edge1_Node000001_Node000002" class="edge">
<title>Node2&#45;&gt;Node1</title>
<g id="a_edge1_Node000001_Node000002"><a xlink:title=" ">
<path fill="none" stroke="#63b8ff" d="M307.57,-293.77C405.24,-310.82 636.83,-337.64 796.5,-246.5 833.3,-225.49 855.31,-176.73 863.7,-154.68"/>
<polygon fill="#63b8ff" stroke="#63b8ff" points="308.35,-290.17 297.88,-291.85 307.11,-297.06 308.35,-290.17"/>
</a>
</g>
</g>
<!-- Node3 -->
<g id="Node000003" class="node">
<title>Node3</title>
<g id="a_Node000003"><a xlink:title=" ">
<polygon fill="white" stroke="#bfbfbf" points="55,-275.25 0,-275.25 0,-253.75 55,-253.75 55,-275.25"/>
<text text-anchor="middle" x="27.5" y="-260.8" font-family="Arial" font-size="11.00">QObject</text>
</a>
</g>
</g>
<!-- Node3&#45;&gt;Node2 -->
<g id="edge2_Node000002_Node000003" class="edge">
<title>Node3&#45;&gt;Node2</title>
<g id="a_edge2_Node000002_Node000003"><a xlink:title=" ">
<path fill="none" stroke="#63b8ff" d="M66.14,-269.73C68.46,-270.01 70.76,-270.26 73,-270.5 125.44,-276 186.4,-280.16 223.94,-282.46"/>
<polygon fill="#63b8ff" stroke="#63b8ff" points="66.65,-266.15 56.3,-268.37 65.78,-273.09 66.65,-266.15"/>
</a>
</g>
</g>
<!-- Node10 -->
<g id="Node000010" class="node">
<title>Node10</title>
<g id="a_Node000010"><a xlink:href="../../d0/d5a/classQAbstractItemModel.html" target="_top" xlink:title=" ">
<polygon fill="white" stroke="#bfbfbf" points="206.25,-256.25 92,-256.25 92,-234.75 206.25,-234.75 206.25,-256.25"/>
<text text-anchor="middle" x="149.12" y="-241.8" font-family="Arial" font-size="11.00">QAbstractItemModel</text>
</a>
</g>
</g>
<!-- Node3&#45;&gt;Node10 -->
<g id="edge10_Node000010_Node000003" class="edge">
<title>Node3&#45;&gt;Node10</title>
<g id="a_edge10_Node000010_Node000003"><a xlink:title=" ">
<path fill="none" stroke="#63b8ff" d="M65.96,-258.55C74.08,-257.26 82.85,-255.87 91.52,-254.49"/>
<polygon fill="#63b8ff" stroke="#63b8ff" points="65.67,-255.21 56.35,-260.24 66.77,-262.12 65.67,-255.21"/>
</a>
</g>
</g>
<!-- Node4 -->
<g id="Node000004" class="node">
<title>Node4</title>
<g id="a_Node000004"><a xlink:href="../../d8/d37/classSG_1_1BasicPalette.html" target="_top" xlink:title="Простейшая палитра цветов.">
<polygon fill="white" stroke="#666666" points="642.75,-154.25 566.75,-154.25 566.75,-132.75 642.75,-132.75 642.75,-154.25"/>
<text text-anchor="middle" x="604.75" y="-139.8" font-family="Arial" font-size="11.00">BasicPalette</text>
</a>
</g>
</g>
<!-- Node4&#45;&gt;Node1 -->
<g id="edge3_Node000001_Node000004" class="edge">
<title>Node4&#45;&gt;Node1</title>
<g id="a_edge3_Node000001_Node000004"><a xlink:title=" ">
<path fill="none" stroke="#9a32cd" stroke-dasharray="5,2" d="M653.73,-143.5C699.11,-143.5 767.08,-143.5 814.17,-143.5"/>
<polygon fill="#9a32cd" stroke="#9a32cd" points="653.99,-140 643.99,-143.5 653.99,-147 653.99,-140"/>
</a>
</g>
<text text-anchor="middle" x="746.62" y="-146.55" font-family="Arial" font-size="11.00" fill="grey"> m_palette</text>
</g>
<!-- Node5 -->
<g id="Node000005" class="node">
<title>Node5</title>
<g id="a_Node000005"><a xlink:href="../../d6/d1e/classElevationChart_1_1Bounds.html" target="_top" xlink:title="Класс&#45;гаджет, хранящий предельные значения осей X и Y.">
<polygon fill="white" stroke="#666666" points="631.12,-114.25 578.38,-114.25 578.38,-92.75 631.12,-92.75 631.12,-114.25"/>
<text text-anchor="middle" x="604.75" y="-99.8" font-family="Arial" font-size="11.00">Bounds</text>
</a>
</g>
</g>
<!-- Node5&#45;&gt;Node1 -->
<g id="edge4_Node000001_Node000005" class="edge">
<title>Node5&#45;&gt;Node1</title>
<g id="a_edge4_Node000001_Node000005"><a xlink:title=" ">
<path fill="none" stroke="#9a32cd" stroke-dasharray="5,2" d="M642.19,-106.45C680.72,-109.88 743.19,-116.34 796.5,-126 806.01,-127.72 816.14,-129.97 825.69,-132.27"/>
<polygon fill="#9a32cd" stroke="#9a32cd" points="642.77,-102.9 632.51,-105.52 642.17,-109.87 642.77,-102.9"/>
</a>
</g>
<text text-anchor="middle" x="746.62" y="-128.55" font-family="Arial" font-size="11.00" fill="grey"> m_bounds</text>
</g>
<!-- Node6 -->
<g id="Node000006" class="node">
<title>Node6</title>
<g id="a_Node000006"><a xlink:href="../../de/d39/classElevationChart_1_1Route.html" target="_top" xlink:title="Набор последовательных точек на карте.">
<polygon fill="white" stroke="#666666" points="627.38,-74.25 582.12,-74.25 582.12,-52.75 627.38,-52.75 627.38,-74.25"/>
<text text-anchor="middle" x="604.75" y="-59.8" font-family="Arial" font-size="11.00">Route</text>
</a>
</g>
</g>
<!-- Node6&#45;&gt;Node1 -->
<g id="edge5_Node000001_Node000006" class="edge">
<title>Node6&#45;&gt;Node1</title>
<g id="a_edge5_Node000001_Node000006"><a xlink:title=" ">
<path fill="none" stroke="#9a32cd" stroke-dasharray="5,2" d="M638.71,-64.33C677.7,-66.31 743.96,-72.81 796.5,-94 819.38,-103.23 842.14,-120.95 855.54,-132.49"/>
<polygon fill="#9a32cd" stroke="#9a32cd" points="638.9,-60.79 628.76,-63.86 638.6,-67.79 638.9,-60.79"/>
</a>
</g>
<text text-anchor="middle" x="746.62" y="-96.55" font-family="Arial" font-size="11.00" fill="grey"> m_route</text>
</g>
<!-- Node7 -->
<g id="Node000007" class="node">
<title>Node7</title>
<g id="a_Node000007"><a xlink:title=" ">
<polygon fill="white" stroke="#bfbfbf" points="440.75,-81 314.5,-81 314.5,-46 440.75,-46 440.75,-81"/>
<text text-anchor="start" x="322.5" y="-66.55" font-family="Arial" font-size="11.00">vector&lt; ElevationChart</text>
<text text-anchor="middle" x="377.62" y="-53.05" font-family="Arial" font-size="11.00">::RoutePoint &gt;</text>
</a>
</g>
</g>
<!-- Node7&#45;&gt;Node6 -->
<g id="edge6_Node000006_Node000007" class="edge">
<title>Node7&#45;&gt;Node6</title>
<g id="a_edge6_Node000006_Node000007"><a xlink:title=" ">
<path fill="none" stroke="#9a32cd" stroke-dasharray="5,2" d="M451.98,-63.5C497.07,-63.5 551.76,-63.5 581.63,-63.5"/>
<polygon fill="#9a32cd" stroke="#9a32cd" points="452.04,-60 442.04,-63.5 452.04,-67 452.04,-60"/>
</a>
</g>
<text text-anchor="middle" x="485.75" y="-66.55" font-family="Arial" font-size="11.00" fill="grey"> m_vec</text>
</g>
<!-- Node8 -->
<g id="Node000008" class="node">
<title>Node8</title>
<g id="a_Node000008"><a xlink:href="../../d6/de1/classElevationChart_1_1RouteModel.html" target="_top" xlink:title="Модель точек пути для профиля высот.">
<polygon fill="white" stroke="#666666" points="642,-243.25 567.5,-243.25 567.5,-221.75 642,-221.75 642,-243.25"/>
<text text-anchor="middle" x="604.75" y="-228.8" font-family="Arial" font-size="11.00">RouteModel</text>
</a>
</g>
</g>
<!-- Node8&#45;&gt;Node1 -->
<g id="edge7_Node000001_Node000008" class="edge">
<title>Node8&#45;&gt;Node1</title>
<g id="a_edge7_Node000001_Node000008"><a xlink:title=" ">
<path fill="none" stroke="#9a32cd" stroke-dasharray="5,2" d="M652.99,-232.79C692.89,-231.37 750.7,-225.36 796.5,-204.5 822.26,-192.77 845.86,-168.8 858.34,-154.66"/>
<polygon fill="#9a32cd" stroke="#9a32cd" points="653.14,-229.31 643.23,-233.07 653.32,-236.31 653.14,-229.31"/>
</a>
</g>
<text text-anchor="middle" x="746.62" y="-231.55" font-family="Arial" font-size="11.00" fill="grey"> m_model</text>
</g>
<!-- Node9 -->
<g id="Node000009" class="node">
<title>Node9</title>
<g id="a_Node000009"><a xlink:href="../../d5/d2d/classQAbstractListModel.html" target="_top" xlink:title=" ">
<polygon fill="white" stroke="#bfbfbf" points="432.5,-256.25 322.75,-256.25 322.75,-234.75 432.5,-234.75 432.5,-256.25"/>
<text text-anchor="middle" x="377.62" y="-241.8" font-family="Arial" font-size="11.00">QAbstractListModel</text>
</a>
</g>
</g>
<!-- Node9&#45;&gt;Node8 -->
<g id="edge8_Node000008_Node000009" class="edge">
<title>Node9&#45;&gt;Node8</title>
<g id="a_edge8_Node000008_Node000009"><a xlink:title=" ">
<path fill="none" stroke="#63b8ff" d="M443.67,-242.28C465.62,-241.15 490.25,-239.83 512.75,-238.5 530.61,-237.45 550.43,-236.15 567.01,-235.04"/>
<polygon fill="#63b8ff" stroke="#63b8ff" points="443.61,-238.83 433.8,-242.84 443.97,-245.83 443.61,-238.83"/>
</a>
</g>
</g>
<!-- Node10&#45;&gt;Node9 -->
<g id="edge9_Node000009_Node000010" class="edge">
<title>Node10&#45;&gt;Node9</title>
<g id="a_edge9_Node000009_Node000010"><a xlink:title=" ">
<path fill="none" stroke="#63b8ff" d="M217.33,-245.5C250.83,-245.5 290.81,-245.5 322.33,-245.5"/>
<polygon fill="#63b8ff" stroke="#63b8ff" points="217.7,-242 207.7,-245.5 217.7,-249 217.7,-242"/>
</a>
</g>
</g>
<!-- Node11 -->
<g id="Node000011" class="node">
<title>Node11</title>
<g id="a_Node000011"><a xlink:title=" ">
<polygon fill="white" stroke="#bfbfbf" points="440.75,-216 314.5,-216 314.5,-181 440.75,-181 440.75,-216"/>
<text text-anchor="start" x="322.5" y="-201.55" font-family="Arial" font-size="11.00">vector&lt; ElevationChart</text>
<text text-anchor="middle" x="377.62" y="-188.05" font-family="Arial" font-size="11.00">::ElevationPoint &gt;</text>
</a>
</g>
</g>
<!-- Node11&#45;&gt;Node1 -->
<g id="edge13_Node000001_Node000011" class="edge">
<title>Node11&#45;&gt;Node1</title>
<g id="a_edge13_Node000001_Node000011"><a xlink:title=" ">
<path fill="none" stroke="#9a32cd" stroke-dasharray="5,2" d="M451.9,-195.55C535.7,-191.37 676.76,-181.82 796.5,-161.5 806.8,-159.75 817.8,-157.28 827.99,-154.72"/>
<polygon fill="#9a32cd" stroke="#9a32cd" points="451.79,-192.1 441.97,-196.09 452.13,-199.1 451.79,-192.1"/>
</a>
</g>
<text text-anchor="middle" x="604.75" y="-193.55" font-family="Arial" font-size="11.00" fill="grey"> m_profile</text>
</g>
<!-- Node11&#45;&gt;Node8 -->
<g id="edge11_Node000008_Node000011" class="edge">
<title>Node11&#45;&gt;Node8</title>
<g id="a_edge11_Node000008_Node000011"><a xlink:title=" ">
<path fill="none" stroke="#9a32cd" stroke-dasharray="5,2" d="M451.73,-209.54C490.36,-215.38 536.1,-222.28 567.25,-226.99"/>
<polygon fill="#9a32cd" stroke="#9a32cd" points="452.45,-205.96 442.04,-207.93 451.4,-212.88 452.45,-205.96"/>
</a>
</g>
<text text-anchor="middle" x="485.75" y="-221.55" font-family="Arial" font-size="11.00" fill="grey"> m_storage</text>
</g>
<!-- Node12 -->
<g id="Node000012" class="node">
<title>Node12</title>
<g id="a_Node000012"><a xlink:title=" ">
<polygon fill="white" stroke="#bfbfbf" points="678.75,-35 530.75,-35 530.75,0 678.75,0 678.75,-35"/>
<text text-anchor="start" x="538.75" y="-20.55" font-family="Arial" font-size="11.00">unique_ptr&lt; ElevationChart</text>
<text text-anchor="middle" x="604.75" y="-7.05" font-family="Arial" font-size="11.00">::RandomDataProvider &gt;</text>
</a>
</g>
</g>
<!-- Node12&#45;&gt;Node1 -->
<g id="edge12_Node000001_Node000012" class="edge">
<title>Node12&#45;&gt;Node1</title>
<g id="a_edge12_Node000001_Node000012"><a xlink:title=" ">
<path fill="none" stroke="#9a32cd" stroke-dasharray="5,2" d="M689.68,-19.59C724.76,-23.67 764.67,-32.73 796.5,-52 829.2,-71.8 852.54,-112.61 862.4,-132.34"/>
<polygon fill="#9a32cd" stroke="#9a32cd" points="690.27,-16.03 679.96,-18.48 689.54,-22.99 690.27,-16.03"/>
</a>
</g>
<text text-anchor="middle" x="746.62" y="-55.55" font-family="Arial" font-size="11.00" fill="grey"> m_random_provider</text>
</g>
</g>
</svg>

<g id="navigator" transform="translate(0 0)" fill="#404254">
  <rect fill="#f2f5e9" fill-opacity="0.5" stroke="#606060" stroke-width=".5" x="0" y="0" width="60" height="60"/>
  <use id="zoomplus" xlink:href="#zoomPlus" x="17" y="9" onmousedown="handleZoom(evt,'in')"/>
  <use id="zoomminus" xlink:href="#zoomMin" x="42" y="9" onmousedown="handleZoom(evt,'out')"/>
  <use id="reset" xlink:href="#resetDef" x="30" y="36" onmousedown="handleReset()"/>
   <use id="arrowup" xlink:href="#arrowUp" x="0" y="0" onmousedown="handlePan(0,-1)"/>
  <use id="arrowright" xlink:href="#arrowRight" x="0" y="0" onmousedown="handlePan(1,0)"/>
  <use id="arrowdown" xlink:href="#arrowDown" x="0" y="0" onmousedown="handlePan(0,1)"/>
  <use id="arrowleft" xlink:href="#arrowLeft" x="0" y="0" onmousedown="handlePan(-1,0)"/>
</g>
<svg viewBox="0 0 15 15" width="100%" height="30px" preserveAspectRatio="xMaxYMin meet">
 <g id="arrow_out" transform="scale(0.3 0.3)">
  <a xlink:href="classElevationChart_1_1ElevationChartItem__coll__graph_org.svg" target="_base">
   <rect id="button" ry="5" rx="5" y="6" x="6" height="38" width="38"
        fill="#f2f5e9" fill-opacity="0.5" stroke="#606060" stroke-width="1.0"/>
   <path id="arrow"
     d="M 11.500037,31.436501 C 11.940474,20.09759 22.043105,11.32322 32.158766,21.979434 L 37.068811,17.246167 C 37.068811,17.246167 37.088388,32 37.088388,32 L 22.160133,31.978069 C 22.160133,31.978069 26.997745,27.140456 26.997745,27.140456 C 18.528582,18.264221 13.291696,25.230495 11.500037,31.436501 z"
     style="fill:#404040;"/>
  </a>
 </g>
</svg>

<style type='text/css'>
<![CDATA[
[data-mouse-over-selected='false'] { opacity: 0.7; }
[data-mouse-over-selected='true']  { opacity: 1.0; }
]]>
</style>
<script type="application/ecmascript"><![CDATA[
document.addEventListener('DOMContentLoaded', (event) => {
  highlightEdges();
  highlightAdjacentNodes();
});
]]></script>
</svg>
