<?xml version="1.0" encoding="UTF-8" standalone="no"?>
<!DOCTYPE svg PUBLIC "-//W3C//DTD SVG 1.1//EN"
 "http://www.w3.org/Graphics/SVG/1.1/DTD/svg11.dtd">
<!-- Generated by graphviz version 8.0.5 (0)
 -->
<!-- Title: ElevationChartItem Pages: 1 -->
<svg width="1035pt" height="488pt"
 viewBox="0.00 0.00 1034.50 487.85" xmlns="http://www.w3.org/2000/svg" xmlns:xlink="http://www.w3.org/1999/xlink">
<g id="graph0" class="graph" transform="scale(1 1) rotate(0) translate(4 483.85)">
<title>ElevationChartItem</title>
<!-- Node1 -->
<g id="Node000001" class="node">
<title>Node1</title>
<g id="a_Node000001"><a xlink:title="Основной класс библиотеки.">
<polygon fill="#999999" stroke="#666666" points="1026.5,-240.25 918.25,-240.25 918.25,-218.75 1026.5,-218.75 1026.5,-240.25"/>
<text text-anchor="middle" x="972.38" y="-225.8" font-family="Arial" font-size="11.00">ElevationChartItem</text>
</a>
</g>
</g>
<!-- Node2 -->
<g id="Node000002" class="node">
<title>Node2</title>
<g id="a_Node000002"><a xlink:href="../../da/d9a/classLPVL_1_1ScenegraphObject.html" target="_top" xlink:title="Базовый класс для объектов Qt Quick Scenegraph.">
<polygon fill="white" stroke="#666666" points="611.25,-466.25 506,-466.25 506,-444.75 611.25,-444.75 611.25,-466.25"/>
<text text-anchor="middle" x="558.62" y="-451.8" font-family="Arial" font-size="11.00">ScenegraphObject</text>
</a>
</g>
</g>
<!-- Node2&#45;&gt;Node1 -->
<g id="edge1_Node000001_Node000002" class="edge">
<title>Node2&#45;&gt;Node1</title>
<g id="a_edge1_Node000001_Node000002"><a xlink:title=" ">
<path fill="none" stroke="#63b8ff" d="M616,-468.78C689.36,-482.56 817.9,-494.27 900.25,-431.5 963.23,-383.49 970.65,-275.53 971.36,-240.62"/>
<polygon fill="#63b8ff" stroke="#63b8ff" points="617.07,-465.23 606.58,-466.74 615.72,-472.1 617.07,-465.23"/>
</a>
</g>
</g>
<!-- Node3 -->
<g id="Node000003" class="node">
<title>Node3</title>
<g id="a_Node000003"><a xlink:title=" ">
<polygon fill="white" stroke="#bfbfbf" points="185.25,-466.25 113,-466.25 113,-444.75 185.25,-444.75 185.25,-466.25"/>
<text text-anchor="middle" x="149.12" y="-451.8" font-family="Arial" font-size="11.00">QQuickItem</text>
</a>
</g>
</g>
<!-- Node3&#45;&gt;Node2 -->
<g id="edge2_Node000002_Node000003" class="edge">
<title>Node3&#45;&gt;Node2</title>
<g id="a_edge2_Node000002_Node000003"><a xlink:title=" ">
<path fill="none" stroke="#63b8ff" d="M196.29,-455.5C272.79,-455.5 425.32,-455.5 505.54,-455.5"/>
<polygon fill="#63b8ff" stroke="#63b8ff" points="196.58,-452 186.58,-455.5 196.58,-459 196.58,-452"/>
</a>
</g>
</g>
<!-- Node4 -->
<g id="Node000004" class="node">
<title>Node4</title>
<g id="a_Node000004"><a xlink:title=" ">
<polygon fill="white" stroke="#bfbfbf" points="55,-427.25 0,-427.25 0,-405.75 55,-405.75 55,-427.25"/>
<text text-anchor="middle" x="27.5" y="-412.8" font-family="Arial" font-size="11.00">QObject</text>
</a>
</g>
</g>
<!-- Node4&#45;&gt;Node3 -->
<g id="edge3_Node000003_Node000004" class="edge">
<title>Node4&#45;&gt;Node3</title>
<g id="a_edge3_Node000003_Node000004"><a xlink:title=" ">
<path fill="none" stroke="#63b8ff" d="M65.53,-428.57C80.87,-433.57 98.57,-439.34 113.63,-444.26"/>
<polygon fill="#63b8ff" stroke="#63b8ff" points="66.94,-425.02 56.35,-425.25 64.77,-431.68 66.94,-425.02"/>
</a>
</g>
</g>
<!-- Node7 -->
<g id="Node000007" class="node">
<title>Node7</title>
<g id="a_Node000007"><a xlink:href="../../df/d15/classElevationChart_1_1Researcher.html" target="_top" xlink:title=" ">
<polygon fill="white" stroke="#bfbfbf" points="296.5,-427.25 224.25,-427.25 224.25,-405.75 296.5,-405.75 296.5,-427.25"/>
<text text-anchor="middle" x="260.38" y="-412.8" font-family="Arial" font-size="11.00">Researcher</text>
</a>
</g>
</g>
<!-- Node4&#45;&gt;Node7 -->
<g id="edge7_Node000007_Node000004" class="edge">
<title>Node4&#45;&gt;Node7</title>
<g id="a_edge7_Node000007_Node000004"><a xlink:title=" ">
<path fill="none" stroke="#63b8ff" d="M66.17,-416.5C109.84,-416.5 181.26,-416.5 223.95,-416.5"/>
<polygon fill="#63b8ff" stroke="#63b8ff" points="66.44,-413 56.44,-416.5 66.44,-420 66.44,-413"/>
</a>
</g>
</g>
<!-- Node13 -->
<g id="Node000013" class="node">
<title>Node13</title>
<g id="a_Node000013"><a xlink:title=" ">
<polygon fill="white" stroke="#bfbfbf" points="206.25,-369.25 92,-369.25 92,-347.75 206.25,-347.75 206.25,-369.25"/>
<text text-anchor="middle" x="149.12" y="-354.8" font-family="Arial" font-size="11.00">QAbstractItemModel</text>
</a>
</g>
</g>
<!-- Node4&#45;&gt;Node13 -->
<g id="edge14_Node000013_Node000004" class="edge">
<title>Node4&#45;&gt;Node13</title>
<g id="a_edge14_Node000013_Node000004"><a xlink:title=" ">
<path fill="none" stroke="#63b8ff" d="M61.32,-400.59C81.56,-390.77 107.03,-378.43 125.13,-369.65"/>
<polygon fill="#63b8ff" stroke="#63b8ff" points="60.04,-397.8 52.56,-405.32 63.09,-404.1 60.04,-397.8"/>
</a>
</g>
</g>
<!-- Node5 -->
<g id="Node000005" class="node">
<title>Node5</title>
<g id="a_Node000005"><a xlink:title=" ">
<polygon fill="white" stroke="#bfbfbf" points="808,-247 629.25,-247 629.25,-212 808,-212 808,-247"/>
<text text-anchor="start" x="637.25" y="-232.55" font-family="Arial" font-size="11.00">map&lt; NodeTypes, QSGGeometry</text>
<text text-anchor="middle" x="718.62" y="-219.05" font-family="Arial" font-size="11.00">Node * &gt;</text>
</a>
</g>
</g>
<!-- Node5&#45;&gt;Node1 -->
<g id="edge4_Node000001_Node000005" class="edge">
<title>Node5&#45;&gt;Node1</title>
<g id="a_edge4_Node000001_Node000005"><a xlink:title=" ">
<path fill="none" stroke="#9a32cd" stroke-dasharray="5,2" d="M819.2,-229.5C852.84,-229.5 889.11,-229.5 917.8,-229.5"/>
<polygon fill="#9a32cd" stroke="#9a32cd" points="819.38,-226 809.38,-229.5 819.38,-233 819.38,-226"/>
</a>
</g>
<text text-anchor="middle" x="863.12" y="-232.55" font-family="Arial" font-size="11.00" fill="grey"> m_tree</text>
</g>
<!-- Node6 -->
<g id="Node000006" class="node">
<title>Node6</title>
<g id="a_Node000006"><a xlink:href="../../d4/dae/classLPVL_1_1BasicPalette.html" target="_top" xlink:title="Простейшая палитра цветов.">
<polygon fill="white" stroke="#666666" points="756.62,-194.25 680.62,-194.25 680.62,-172.75 756.62,-172.75 756.62,-194.25"/>
<text text-anchor="middle" x="718.62" y="-179.8" font-family="Arial" font-size="11.00">BasicPalette</text>
</a>
</g>
</g>
<!-- Node6&#45;&gt;Node1 -->
<g id="edge5_Node000001_Node000006" class="edge">
<title>Node6&#45;&gt;Node1</title>
<g id="a_edge5_Node000001_Node000006"><a xlink:title=" ">
<path fill="none" stroke="#9a32cd" stroke-dasharray="5,2" d="M767.63,-189.94C804.14,-195.12 855.55,-202.99 900.25,-212 909.35,-213.83 919.04,-216.05 928.25,-218.27"/>
<polygon fill="#9a32cd" stroke="#9a32cd" points="768.19,-186.35 757.8,-188.43 767.22,-193.28 768.19,-186.35"/>
</a>
</g>
<text text-anchor="middle" x="863.12" y="-214.55" font-family="Arial" font-size="11.00" fill="grey"> m_palette</text>
</g>
<!-- Node7&#45;&gt;Node1 -->
<g id="edge6_Node000001_Node000007" class="edge">
<title>Node7&#45;&gt;Node1</title>
<g id="a_edge6_Node000001_Node000007"><a xlink:title=" ">
<path fill="none" stroke="#9a32cd" stroke-dasharray="5,2" d="M307.51,-416.5C421.5,-416.13 713.95,-412.77 808,-388.5 852.17,-377.1 866.36,-374.04 900.25,-343.5 934.04,-313.05 957.62,-262.84 966.94,-240.65"/>
<polygon fill="#9a32cd" stroke="#9a32cd" points="307.73,-413.01 297.74,-416.53 307.74,-420.01 307.73,-413.01"/>
</a>
</g>
<text text-anchor="middle" x="558.62" y="-415.55" font-family="Arial" font-size="11.00" fill="grey"> m_researcher</text>
</g>
<!-- Node8 -->
<g id="Node000008" class="node">
<title>Node8</title>
<g id="a_Node000008"><a xlink:href="../../d6/d1e/classElevationChart_1_1Bounds.html" target="_top" xlink:title="Класс&#45;гаджет, хранящий предельные значения осей X и Y.">
<polygon fill="white" stroke="#666666" points="745,-154.25 692.25,-154.25 692.25,-132.75 745,-132.75 745,-154.25"/>
<text text-anchor="middle" x="718.62" y="-139.8" font-family="Arial" font-size="11.00">Bounds</text>
</a>
</g>
</g>
<!-- Node8&#45;&gt;Node1 -->
<g id="edge8_Node000001_Node000008" class="edge">
<title>Node8&#45;&gt;Node1</title>
<g id="a_edge8_Node000001_Node000008"><a xlink:title=" ">
<path fill="none" stroke="#9a32cd" stroke-dasharray="5,2" d="M756.28,-146.84C793.69,-151.23 852.83,-160.86 900.25,-181 922.54,-190.46 945.1,-207.37 958.66,-218.51"/>
<polygon fill="#9a32cd" stroke="#9a32cd" points="756.72,-143.26 746.4,-145.65 755.96,-150.22 756.72,-143.26"/>
</a>
</g>
<text text-anchor="middle" x="863.12" y="-183.55" font-family="Arial" font-size="11.00" fill="grey"> m_bounds</text>
</g>
<!-- Node9 -->
<g id="Node000009" class="node">
<title>Node9</title>
<g id="a_Node000009"><a xlink:href="../../de/d39/classElevationChart_1_1Route.html" target="_top" xlink:title="Набор последовательных точек на карте.">
<polygon fill="white" stroke="#666666" points="741.25,-114.25 696,-114.25 696,-92.75 741.25,-92.75 741.25,-114.25"/>
<text text-anchor="middle" x="718.62" y="-99.8" font-family="Arial" font-size="11.00">Route</text>
</a>
</g>
</g>
<!-- Node9&#45;&gt;Node1 -->
<g id="edge9_Node000001_Node000009" class="edge">
<title>Node9&#45;&gt;Node1</title>
<g id="a_edge9_Node000001_Node000009"><a xlink:title=" ">
<path fill="none" stroke="#9a32cd" stroke-dasharray="5,2" d="M752.64,-103.79C790.83,-105.53 854.33,-112.89 900.25,-141 932.03,-160.45 955.65,-199.42 965.84,-218.48"/>
<polygon fill="#9a32cd" stroke="#9a32cd" points="752.76,-100.25 742.65,-103.41 752.52,-107.25 752.76,-100.25"/>
</a>
</g>
<text text-anchor="middle" x="863.12" y="-143.55" font-family="Arial" font-size="11.00" fill="grey"> m_route</text>
</g>
<!-- Node10 -->
<g id="Node000010" class="node">
<title>Node10</title>
<g id="a_Node000010"><a xlink:title=" ">
<polygon fill="white" stroke="#bfbfbf" points="464.38,-121 338.12,-121 338.12,-86 464.38,-86 464.38,-121"/>
<text text-anchor="start" x="346.12" y="-106.55" font-family="Arial" font-size="11.00">vector&lt; ElevationChart</text>
<text text-anchor="middle" x="401.25" y="-93.05" font-family="Arial" font-size="11.00">::RoutePoint &gt;</text>
</a>
</g>
</g>
<!-- Node10&#45;&gt;Node9 -->
<g id="edge10_Node000009_Node000010" class="edge">
<title>Node10&#45;&gt;Node9</title>
<g id="a_edge10_Node000009_Node000010"><a xlink:title=" ">
<path fill="none" stroke="#9a32cd" stroke-dasharray="5,2" d="M475.28,-103.5C546.69,-103.5 651.02,-103.5 695.84,-103.5"/>
<polygon fill="#9a32cd" stroke="#9a32cd" points="475.56,-100 465.56,-103.5 475.56,-107 475.56,-100"/>
</a>
</g>
<text text-anchor="middle" x="558.62" y="-106.55" font-family="Arial" font-size="11.00" fill="grey"> m_vec</text>
</g>
<!-- Node11 -->
<g id="Node000011" class="node">
<title>Node11</title>
<g id="a_Node000011"><a xlink:href="../../d6/de1/classElevationChart_1_1RouteModel.html" target="_top" xlink:title="Модель точек пути для профиля высот.">
<polygon fill="white" stroke="#666666" points="755.88,-326.25 681.38,-326.25 681.38,-304.75 755.88,-304.75 755.88,-326.25"/>
<text text-anchor="middle" x="718.62" y="-311.8" font-family="Arial" font-size="11.00">RouteModel</text>
</a>
</g>
</g>
<!-- Node11&#45;&gt;Node1 -->
<g id="edge11_Node000001_Node000011" class="edge">
<title>Node11&#45;&gt;Node1</title>
<g id="a_edge11_Node000001_Node000011"><a xlink:title=" ">
<path fill="none" stroke="#9a32cd" stroke-dasharray="5,2" d="M766.79,-311.07C804.16,-306.34 857.1,-296.88 900.25,-278.5 922.6,-268.98 945.14,-251.89 958.69,-240.62"/>
<polygon fill="#9a32cd" stroke="#9a32cd" points="766.71,-307.68 757.2,-312.34 767.54,-314.63 766.71,-307.68"/>
</a>
</g>
<text text-anchor="middle" x="863.12" y="-303.55" font-family="Arial" font-size="11.00" fill="grey"> m_model</text>
</g>
<!-- Node12 -->
<g id="Node000012" class="node">
<title>Node12</title>
<g id="a_Node000012"><a xlink:title=" ">
<polygon fill="white" stroke="#bfbfbf" points="456.12,-311.25 346.38,-311.25 346.38,-289.75 456.12,-289.75 456.12,-311.25"/>
<text text-anchor="middle" x="401.25" y="-296.8" font-family="Arial" font-size="11.00">QAbstractListModel</text>
</a>
</g>
</g>
<!-- Node12&#45;&gt;Node11 -->
<g id="edge12_Node000011_Node000012" class="edge">
<title>Node12&#45;&gt;Node11</title>
<g id="a_edge12_Node000011_Node000012"><a xlink:title=" ">
<path fill="none" stroke="#63b8ff" d="M467.36,-303.6C532.12,-306.68 629.12,-311.29 681.3,-313.77"/>
<polygon fill="#63b8ff" stroke="#63b8ff" points="467.62,-300.06 457.46,-303.08 467.29,-307.05 467.62,-300.06"/>
</a>
</g>
</g>
<!-- Node15 -->
<g id="Node000015" class="node">
<title>Node15</title>
<g id="a_Node000015"><a xlink:href="../../d4/d99/classElevationChart_1_1NotificationModel.html" target="_top" xlink:title="Модель оповещений об ошибках в маршруте.">
<polygon fill="white" stroke="#666666" points="767.88,-286.25 669.38,-286.25 669.38,-264.75 767.88,-264.75 767.88,-286.25"/>
<text text-anchor="middle" x="718.62" y="-271.8" font-family="Arial" font-size="11.00">NotificationModel</text>
</a>
</g>
</g>
<!-- Node12&#45;&gt;Node15 -->
<g id="edge17_Node000015_Node000012" class="edge">
<title>Node12&#45;&gt;Node15</title>
<g id="a_edge17_Node000015_Node000012"><a xlink:title=" ">
<path fill="none" stroke="#63b8ff" d="M467.33,-295.34C527.3,-290.59 614.95,-283.64 669.03,-279.35"/>
<polygon fill="#63b8ff" stroke="#63b8ff" points="467.16,-291.92 457.46,-296.2 467.71,-298.9 467.16,-291.92"/>
</a>
</g>
</g>
<!-- Node13&#45;&gt;Node12 -->
<g id="edge13_Node000012_Node000013" class="edge">
<title>Node13&#45;&gt;Node12</title>
<g id="a_edge13_Node000012_Node000013"><a xlink:title=" ">
<path fill="none" stroke="#63b8ff" d="M209.06,-344.83C252.53,-334.75 310.96,-321.2 351.75,-311.75"/>
<polygon fill="#63b8ff" stroke="#63b8ff" points="208.3,-341.65 199.35,-347.32 209.88,-348.47 208.3,-341.65"/>
</a>
</g>
</g>
<!-- Node14 -->
<g id="Node000014" class="node">
<title>Node14</title>
<g id="a_Node000014"><a xlink:title=" ">
<polygon fill="white" stroke="#bfbfbf" points="464.38,-372 338.12,-372 338.12,-337 464.38,-337 464.38,-372"/>
<text text-anchor="start" x="346.12" y="-357.55" font-family="Arial" font-size="11.00">vector&lt; ElevationChart</text>
<text text-anchor="middle" x="401.25" y="-344.05" font-family="Arial" font-size="11.00">::ElevationPoint &gt;</text>
</a>
</g>
</g>
<!-- Node14&#45;&gt;Node1 -->
<g id="edge22_Node000001_Node000014" class="edge">
<title>Node14&#45;&gt;Node1</title>
<g id="a_edge22_Node000001_Node000014"><a xlink:title=" ">
<path fill="none" stroke="#9a32cd" stroke-dasharray="5,2" d="M475.82,-357.13C596.64,-360.15 830.65,-360.16 900.25,-318.5 932.33,-299.3 955.81,-259.94 965.9,-240.65"/>
<polygon fill="#9a32cd" stroke="#9a32cd" points="475.93,-353.6 465.85,-356.84 475.75,-360.6 475.93,-353.6"/>
</a>
</g>
<text text-anchor="middle" x="718.62" y="-374.05" font-family="Arial" font-size="11.00" fill="grey"> m_intersections</text>
<text text-anchor="middle" x="718.62" y="-360.55" font-family="Arial" font-size="11.00" fill="grey">m_profile</text>
</g>
<!-- Node14&#45;&gt;Node11 -->
<g id="edge15_Node000011_Node000014" class="edge">
<title>Node14&#45;&gt;Node11</title>
<g id="a_edge15_Node000011_Node000014"><a xlink:title=" ">
<path fill="none" stroke="#9a32cd" stroke-dasharray="5,2" d="M475.27,-339.89C485.56,-338.09 496.03,-336.39 506,-335 567.21,-326.45 638.92,-320.74 681.18,-317.81"/>
<polygon fill="#9a32cd" stroke="#9a32cd" points="474.86,-336.58 465.64,-341.79 476.1,-343.47 474.86,-336.58"/>
</a>
</g>
<text text-anchor="middle" x="558.62" y="-337.55" font-family="Arial" font-size="11.00" fill="grey"> m_storage</text>
</g>
<!-- Node15&#45;&gt;Node1 -->
<g id="edge16_Node000001_Node000015" class="edge">
<title>Node15&#45;&gt;Node1</title>
<g id="a_edge16_Node000001_Node000015"><a xlink:title=" ">
<path fill="none" stroke="#9a32cd" stroke-dasharray="5,2" d="M778.78,-267.76C814.17,-262.78 859.95,-255.7 900.25,-247.5 909.86,-245.54 920.12,-243.14 929.78,-240.72"/>
<polygon fill="#9a32cd" stroke="#9a32cd" points="778.57,-264.4 769.14,-269.24 779.53,-271.33 778.57,-264.4"/>
</a>
</g>
<text text-anchor="middle" x="863.12" y="-263.55" font-family="Arial" font-size="11.00" fill="grey"> m_notifications</text>
</g>
<!-- Node16 -->
<g id="Node000016" class="node">
<title>Node16</title>
<g id="a_Node000016"><a xlink:title=" ">
<polygon fill="white" stroke="#bfbfbf" points="488,-211 314.5,-211 314.5,-176 488,-176 488,-211"/>
<text text-anchor="start" x="322.5" y="-196.55" font-family="Arial" font-size="11.00">vector&lt; ElevationChart</text>
<text text-anchor="middle" x="401.25" y="-183.05" font-family="Arial" font-size="11.00">::NotificationModel::Notification &gt;</text>
</a>
</g>
</g>
<!-- Node16&#45;&gt;Node15 -->
<g id="edge18_Node000015_Node000016" class="edge">
<title>Node16&#45;&gt;Node15</title>
<g id="a_edge18_Node000015_Node000016"><a xlink:title=" ">
<path fill="none" stroke="#9a32cd" stroke-dasharray="5,2" d="M499.11,-203.12C535.83,-209.65 577.01,-220.61 611.25,-239 621.08,-244.28 619.41,-251.23 629.25,-256.5 641.43,-263.02 655.67,-267.3 669.13,-270.11"/>
<polygon fill="#9a32cd" stroke="#9a32cd" points="499.82,-199.52 489.38,-201.32 498.66,-206.43 499.82,-199.52"/>
</a>
</g>
<text text-anchor="middle" x="558.62" y="-241.55" font-family="Arial" font-size="11.00" fill="grey"> m_storage</text>
</g>
<!-- Node17 -->
<g id="Node000017" class="node">
<title>Node17</title>
<g id="a_Node000017"><a xlink:title=" ">
<polygon fill="white" stroke="#bfbfbf" points="464.38,-264 338.12,-264 338.12,-229 464.38,-229 464.38,-264"/>
<text text-anchor="start" x="346.12" y="-249.55" font-family="Arial" font-size="11.00">map&lt; NotificationType,</text>
<text text-anchor="middle" x="401.25" y="-236.05" font-family="Arial" font-size="11.00"> QString &gt;</text>
</a>
</g>
</g>
<!-- Node17&#45;&gt;Node15 -->
<g id="edge19_Node000015_Node000017" class="edge">
<title>Node17&#45;&gt;Node15</title>
<g id="a_edge19_Node000015_Node000017"><a xlink:title=" ">
<path fill="none" stroke="#9a32cd" stroke-dasharray="5,2" d="M475.42,-253.23C535.1,-258.72 617.69,-266.31 669.36,-271.06"/>
<polygon fill="#9a32cd" stroke="#9a32cd" points="475.84,-249.66 465.56,-252.23 475.2,-256.63 475.84,-249.66"/>
</a>
</g>
<text text-anchor="middle" x="558.62" y="-267.55" font-family="Arial" font-size="11.00" fill="grey"> m_dictionary</text>
</g>
<!-- Node18 -->
<g id="Node000018" class="node">
<title>Node18</title>
<g id="a_Node000018"><a xlink:href="../../dc/da9/classElevationChart_1_1Metrics.html" target="_top" xlink:title="Класс&#45;гаджет, хранящий входные данные для расчета коррекции по ЛТХ.">
<polygon fill="white" stroke="#666666" points="743.88,-74.25 693.38,-74.25 693.38,-52.75 743.88,-52.75 743.88,-74.25"/>
<text text-anchor="middle" x="718.62" y="-59.8" font-family="Arial" font-size="11.00">Metrics</text>
</a>
</g>
</g>
<!-- Node18&#45;&gt;Node1 -->
<g id="edge20_Node000001_Node000018" class="edge">
<title>Node18&#45;&gt;Node1</title>
<g id="a_edge20_Node000001_Node000018"><a xlink:title=" ">
<path fill="none" stroke="#9a32cd" stroke-dasharray="5,2" d="M754.98,-61.18C794.17,-60.43 857.48,-64.83 900.25,-96 943.12,-127.24 962.62,-192.3 968.94,-218.36"/>
<polygon fill="#9a32cd" stroke="#9a32cd" points="755,-57.71 745.12,-61.53 755.23,-64.71 755,-57.71"/>
</a>
</g>
<text text-anchor="middle" x="863.12" y="-98.55" font-family="Arial" font-size="11.00" fill="grey"> m_metrics</text>
</g>
<!-- Node19 -->
<g id="Node000019" class="node">
<title>Node19</title>
<g id="a_Node000019"><a xlink:title=" ">
<polygon fill="white" stroke="#bfbfbf" points="792.62,-35 644.62,-35 644.62,0 792.62,0 792.62,-35"/>
<text text-anchor="start" x="652.62" y="-20.55" font-family="Arial" font-size="11.00">unique_ptr&lt; ElevationChart</text>
<text text-anchor="middle" x="718.62" y="-7.05" font-family="Arial" font-size="11.00">::IElevationDataProvider &gt;</text>
</a>
</g>
</g>
<!-- Node19&#45;&gt;Node1 -->
<g id="edge21_Node000001_Node000019" class="edge">
<title>Node19&#45;&gt;Node1</title>
<g id="a_edge21_Node000001_Node000019"><a xlink:title=" ">
<path fill="none" stroke="#9a32cd" stroke-dasharray="5,2" d="M803.54,-15.06C836.8,-18.15 873.43,-27.13 900.25,-49 955.07,-93.7 967.81,-186.52 970.62,-218.44"/>
<polygon fill="#9a32cd" stroke="#9a32cd" points="804.12,-11.52 793.88,-14.26 803.59,-18.5 804.12,-11.52"/>
</a>
</g>
<text text-anchor="middle" x="863.12" y="-52.55" font-family="Arial" font-size="11.00" fill="grey"> m_provider</text>
</g>
</g>
</svg>
