<?xml version="1.0" encoding="UTF-8" standalone="no"?>
<!DOCTYPE svg PUBLIC "-//W3C//DTD SVG 1.1//EN"
 "http://www.w3.org/Graphics/SVG/1.1/DTD/svg11.dtd">
<!-- Generated by graphviz version 8.0.5 (0)
 -->
<!-- Title: ElevationChartItem Pages: 1 -->
<!--zoomable 475 -->

<svg id="main" version="1.1" xmlns="http://www.w3.org/2000/svg" xmlns:xlink="http://www.w3.org/1999/xlink" xml:space="preserve" onload="init(evt)">
<style type="text/css"><![CDATA[
.node, .edge {opacity: 0.7;}
.node.selected, .edge.selected {opacity: 1;}
.edge:hover path { stroke: red; }
.edge:hover polygon { stroke: red; fill: red; }
]]></style>

<defs>
  <circle id="rim" cx="0" cy="0" r="7"/>
  <circle id="rim2" cx="0" cy="0" r="3.5"/>
  <g id="zoomPlus">
    <use xlink:href="#rim" fill="#404040"><set attributeName="fill" to="#808080" begin="zoomplus.mouseover" end="zoomplus.mouseout"/></use>
    <path d="M-4,0h8M0,-4v8" fill="none" stroke="white" stroke-width="1.5" pointer-events="none"/>
  </g>
  <g id="zoomMin">
    <use xlink:href="#rim" fill="#404040"><set attributeName="fill" to="#808080" begin="zoomminus.mouseover" end="zoomminus.mouseout"/></use>
    <path d="M-4,0h8" fill="none" stroke="white" stroke-width="1.5" pointer-events="none"/>
  </g>
  <g id="arrowUp" transform="translate(30 24)">
    <use xlink:href="#rim"/>
    <path pointer-events="none" fill="none" stroke="white" stroke-width="1.5" d="M0,-3.0v7 M-2.5,-0.5L0,-3.0L2.5,-0.5"/>
  </g>
  <g id="arrowRight" transform="rotate(90) translate(36 -43)">
    <use xlink:href="#rim"/>
    <path pointer-events="none" fill="none" stroke="white" stroke-width="1.5" d="M0,-3.0v7 M-2.5,-0.5L0,-3.0L2.5,-0.5"/>
  </g>
  <g id="arrowDown" transform="rotate(180) translate(-30 -48)">
    <use xlink:href="#rim"/>
    <path pointer-events="none" fill="none" stroke="white" stroke-width="1.5" d="M0,-3.0v7 M-2.5,-0.5L0,-3.0L2.5,-0.5"/>
  </g>
  <g id="arrowLeft" transform="rotate(270) translate(-36 17)">
    <use xlink:href="#rim"/>
    <path pointer-events="none" fill="none" stroke="white" stroke-width="1.5" d="M0,-3.0v7 M-2.5,-0.5L0,-3.0L2.5,-0.5"/>
  </g>
  <g id="resetDef">
    <use xlink:href="#rim2" fill="#404040"><set attributeName="fill" to="#808080" begin="reset.mouseover" end="reset.mouseout"/></use>
  </g>
</defs>
<script type="application/ecmascript">
var viewWidth = 1003;
var viewHeight = 475;
var sectionId = 'dynsection-1';
</script>
<script type="application/ecmascript" xlink:href="../../svg.min.js"/>
<svg id="graph" class="graph">
<g id="viewport">
<title>ElevationChartItem</title>
<!-- Node1 -->
<g id="Node000001" class="node">
<title>Node1</title>
<g id="a_Node000001"><a xlink:title="Основной класс библиотеки.">
<polygon fill="#999999" stroke="#666666" points="994.75,-254.25 886.5,-254.25 886.5,-232.75 994.75,-232.75 994.75,-254.25"/>
<text text-anchor="middle" x="940.62" y="-239.8" font-family="Arial" font-size="11.00">ElevationChartItem</text>
</a>
</g>
</g>
<!-- Node2 -->
<g id="Node000002" class="node">
<title>Node2</title>
<g id="a_Node000002"><a xlink:title=" ">
<polygon fill="white" stroke="#bfbfbf" points="735.75,-467.25 630.5,-467.25 630.5,-445.75 735.75,-445.75 735.75,-467.25"/>
<text text-anchor="middle" x="683.12" y="-452.8" font-family="Arial" font-size="11.00">ScenegraphObject</text>
</a>
</g>
</g>
<!-- Node2&#45;&gt;Node1 -->
<g id="edge1_Node000001_Node000002" class="edge">
<title>Node2&#45;&gt;Node1</title>
<g id="a_edge1_Node000001_Node000002"><a xlink:title=" ">
<path fill="none" stroke="#63b8ff" d="M747.17,-460.77C786.09,-460.1 834.84,-452.85 868.5,-425.5 923.79,-380.57 936.23,-286.88 938.92,-254.67"/>
<polygon fill="#63b8ff" stroke="#63b8ff" points="747.2,-457.28 737.21,-460.8 747.22,-464.28 747.2,-457.28"/>
</a>
</g>
</g>
<!-- Node3 -->
<g id="Node000003" class="node">
<title>Node3</title>
<g id="a_Node000003"><a xlink:title=" ">
<polygon fill="white" stroke="#bfbfbf" points="772.5,-428 593.75,-428 593.75,-393 772.5,-393 772.5,-428"/>
<text text-anchor="start" x="601.75" y="-413.55" font-family="Arial" font-size="11.00">map&lt; NodeTypes, QSGGeometry</text>
<text text-anchor="middle" x="683.12" y="-400.05" font-family="Arial" font-size="11.00">Node * &gt;</text>
</a>
</g>
</g>
<!-- Node3&#45;&gt;Node1 -->
<g id="edge2_Node000001_Node000003" class="edge">
<title>Node3&#45;&gt;Node1</title>
<g id="a_edge2_Node000001_Node000003"><a xlink:title=" ">
<path fill="none" stroke="#9a32cd" stroke-dasharray="5,2" d="M783.4,-409.73C813.01,-405.37 844.05,-396.29 868.5,-378.5 911.99,-346.87 931.23,-280.51 937.33,-254.4"/>
<polygon fill="#9a32cd" stroke="#9a32cd" points="783.04,-406.37 773.57,-411.13 783.93,-413.32 783.04,-406.37"/>
</a>
</g>
<text text-anchor="middle" x="829.5" y="-410.55" font-family="Arial" font-size="11.00" fill="grey"> m_tree</text>
</g>
<!-- Node4 -->
<g id="Node000004" class="node">
<title>Node4</title>
<g id="a_Node000004"><a xlink:href="../../df/d15/classElevationChart_1_1Researcher.html" target="_top" xlink:title=" ">
<polygon fill="white" stroke="#bfbfbf" points="296.5,-366.25 224.25,-366.25 224.25,-344.75 296.5,-344.75 296.5,-366.25"/>
<text text-anchor="middle" x="260.38" y="-351.8" font-family="Arial" font-size="11.00">Researcher</text>
</a>
</g>
</g>
<!-- Node4&#45;&gt;Node1 -->
<g id="edge3_Node000001_Node000004" class="edge">
<title>Node4&#45;&gt;Node1</title>
<g id="a_edge3_Node000001_Node000004"><a xlink:title=" ">
<path fill="none" stroke="#9a32cd" stroke-dasharray="5,2" d="M307.73,-357.31C397.67,-360.22 601.99,-363.9 772.5,-345.5 815.74,-340.83 830.95,-348.44 868.5,-326.5 898.97,-308.69 922.71,-272.95 933.42,-254.73"/>
<polygon fill="#9a32cd" stroke="#9a32cd" points="307.94,-353.78 297.83,-356.94 307.71,-360.78 307.94,-353.78"/>
</a>
</g>
<text text-anchor="middle" x="540.88" y="-361.55" font-family="Arial" font-size="11.00" fill="grey"> m_researcher</text>
</g>
<!-- Node5 -->
<g id="Node000005" class="node">
<title>Node5</title>
<g id="a_Node000005"><a xlink:title=" ">
<polygon fill="white" stroke="#bfbfbf" points="55,-337.25 0,-337.25 0,-315.75 55,-315.75 55,-337.25"/>
<text text-anchor="middle" x="27.5" y="-322.8" font-family="Arial" font-size="11.00">QObject</text>
</a>
</g>
</g>
<!-- Node5&#45;&gt;Node4 -->
<g id="edge4_Node000004_Node000005" class="edge">
<title>Node5&#45;&gt;Node4</title>
<g id="a_edge4_Node000004_Node000005"><a xlink:title=" ">
<path fill="none" stroke="#63b8ff" d="M66.17,-331.23C109.84,-336.72 181.26,-345.69 223.95,-351.05"/>
<polygon fill="#63b8ff" stroke="#63b8ff" points="66.79,-327.66 56.44,-329.88 65.92,-334.6 66.79,-327.66"/>
</a>
</g>
</g>
<!-- Node11 -->
<g id="Node000011" class="node">
<title>Node11</title>
<g id="a_Node000011"><a xlink:title=" ">
<polygon fill="white" stroke="#bfbfbf" points="206.25,-300.25 92,-300.25 92,-278.75 206.25,-278.75 206.25,-300.25"/>
<text text-anchor="middle" x="149.12" y="-285.8" font-family="Arial" font-size="11.00">QAbstractItemModel</text>
</a>
</g>
</g>
<!-- Node5&#45;&gt;Node11 -->
<g id="edge11_Node000011_Node000005" class="edge">
<title>Node5&#45;&gt;Node11</title>
<g id="a_edge11_Node000011_Node000005"><a xlink:title=" ">
<path fill="none" stroke="#63b8ff" d="M65.62,-315.02C80.34,-310.47 97.21,-305.25 111.84,-300.72"/>
<polygon fill="#63b8ff" stroke="#63b8ff" points="64.87,-311.9 56.35,-318.2 66.93,-318.59 64.87,-311.9"/>
</a>
</g>
</g>
<!-- Node6 -->
<g id="Node000006" class="node">
<title>Node6</title>
<g id="a_Node000006"><a xlink:href="../../d6/d1e/classElevationChart_1_1Bounds.html" target="_top" xlink:title="Класс&#45;гаджет, хранящий предельные значения осей X и Y.">
<polygon fill="white" stroke="#666666" points="709.5,-336.25 656.75,-336.25 656.75,-314.75 709.5,-314.75 709.5,-336.25"/>
<text text-anchor="middle" x="683.12" y="-321.8" font-family="Arial" font-size="11.00">Bounds</text>
</a>
</g>
</g>
<!-- Node6&#45;&gt;Node1 -->
<g id="edge5_Node000001_Node000006" class="edge">
<title>Node6&#45;&gt;Node1</title>
<g id="a_edge5_Node000001_Node000006"><a xlink:title=" ">
<path fill="none" stroke="#9a32cd" stroke-dasharray="5,2" d="M720.54,-321.81C758.53,-317.09 819.3,-307.07 868.5,-287.5 889.55,-279.13 911.35,-264.62 925.18,-254.56"/>
<polygon fill="#9a32cd" stroke="#9a32cd" points="720.51,-318.41 710.99,-323.06 721.33,-325.36 720.51,-318.41"/>
</a>
</g>
<text text-anchor="middle" x="829.5" y="-311.55" font-family="Arial" font-size="11.00" fill="grey"> m_bounds</text>
</g>
<!-- Node7 -->
<g id="Node000007" class="node">
<title>Node7</title>
<g id="a_Node000007"><a xlink:href="../../de/d39/classElevationChart_1_1Route.html" target="_top" xlink:title="Набор последовательных точек на карте.">
<polygon fill="white" stroke="#666666" points="705.75,-296.25 660.5,-296.25 660.5,-274.75 705.75,-274.75 705.75,-296.25"/>
<text text-anchor="middle" x="683.12" y="-281.8" font-family="Arial" font-size="11.00">Route</text>
</a>
</g>
</g>
<!-- Node7&#45;&gt;Node1 -->
<g id="edge6_Node000001_Node000007" class="edge">
<title>Node7&#45;&gt;Node1</title>
<g id="a_edge6_Node000001_Node000007"><a xlink:title=" ">
<path fill="none" stroke="#9a32cd" stroke-dasharray="5,2" d="M716.64,-281C753.53,-275.79 815.46,-266.74 868.5,-257.5 874.2,-256.51 880.15,-255.42 886.08,-254.3"/>
<polygon fill="#9a32cd" stroke="#9a32cd" points="716.45,-277.63 707.03,-282.49 717.42,-284.57 716.45,-277.63"/>
</a>
</g>
<text text-anchor="middle" x="829.5" y="-272.55" font-family="Arial" font-size="11.00" fill="grey"> m_route</text>
</g>
<!-- Node8 -->
<g id="Node000008" class="node">
<title>Node8</title>
<g id="a_Node000008"><a xlink:title=" ">
<polygon fill="white" stroke="#bfbfbf" points="464.38,-303 338.12,-303 338.12,-268 464.38,-268 464.38,-303"/>
<text text-anchor="start" x="346.12" y="-288.55" font-family="Arial" font-size="11.00">vector&lt; ElevationChart</text>
<text text-anchor="middle" x="401.25" y="-275.05" font-family="Arial" font-size="11.00">::RoutePoint &gt;</text>
</a>
</g>
</g>
<!-- Node8&#45;&gt;Node7 -->
<g id="edge7_Node000007_Node000008" class="edge">
<title>Node8&#45;&gt;Node7</title>
<g id="a_edge7_Node000007_Node000008"><a xlink:title=" ">
<path fill="none" stroke="#9a32cd" stroke-dasharray="5,2" d="M475.52,-285.5C536.96,-285.5 620.77,-285.5 660.08,-285.5"/>
<polygon fill="#9a32cd" stroke="#9a32cd" points="475.71,-282 465.71,-285.5 475.71,-289 475.71,-282"/>
</a>
</g>
<text text-anchor="middle" x="540.88" y="-288.55" font-family="Arial" font-size="11.00" fill="grey"> m_vec</text>
</g>
<!-- Node9 -->
<g id="Node000009" class="node">
<title>Node9</title>
<g id="a_Node000009"><a xlink:href="../../d6/de1/classElevationChart_1_1RouteModel.html" target="_top" xlink:title="Модель точек пути для профиля высот.">
<polygon fill="white" stroke="#666666" points="720.38,-207.25 645.88,-207.25 645.88,-185.75 720.38,-185.75 720.38,-207.25"/>
<text text-anchor="middle" x="683.12" y="-192.8" font-family="Arial" font-size="11.00">RouteModel</text>
</a>
</g>
</g>
<!-- Node9&#45;&gt;Node1 -->
<g id="edge8_Node000001_Node000009" class="edge">
<title>Node9&#45;&gt;Node1</title>
<g id="a_edge8_Node000001_Node000009"><a xlink:title=" ">
<path fill="none" stroke="#9a32cd" stroke-dasharray="5,2" d="M731.28,-198.07C768.88,-200.13 822.65,-204.92 868.5,-216 884.59,-219.89 901.92,-226.54 915.45,-232.32"/>
<polygon fill="#9a32cd" stroke="#9a32cd" points="731.8,-194.54 721.64,-197.53 731.45,-201.53 731.8,-194.54"/>
</a>
</g>
<text text-anchor="middle" x="829.5" y="-218.55" font-family="Arial" font-size="11.00" fill="grey"> m_model</text>
</g>
<!-- Node10 -->
<g id="Node000010" class="node">
<title>Node10</title>
<g id="a_Node000010"><a xlink:title=" ">
<polygon fill="white" stroke="#bfbfbf" points="456.12,-192.25 346.38,-192.25 346.38,-170.75 456.12,-170.75 456.12,-192.25"/>
<text text-anchor="middle" x="401.25" y="-177.8" font-family="Arial" font-size="11.00">QAbstractListModel</text>
</a>
</g>
</g>
<!-- Node10&#45;&gt;Node9 -->
<g id="edge9_Node000009_Node000010" class="edge">
<title>Node10&#45;&gt;Node9</title>
<g id="a_edge9_Node000009_Node000010"><a xlink:title=" ">
<path fill="none" stroke="#63b8ff" d="M467.3,-184.99C522.66,-187.95 600.18,-192.11 645.38,-194.53"/>
<polygon fill="#63b8ff" stroke="#63b8ff" points="467.72,-181.45 457.54,-184.41 467.34,-188.44 467.72,-181.45"/>
</a>
</g>
</g>
<!-- Node13 -->
<g id="Node000013" class="node">
<title>Node13</title>
<g id="a_Node000013"><a xlink:href="../../d4/d99/classElevationChart_1_1NotificationModel.html" target="_top" xlink:title="Модель оповещений об ошибках в маршруте.">
<polygon fill="white" stroke="#666666" points="732.38,-167.25 633.88,-167.25 633.88,-145.75 732.38,-145.75 732.38,-167.25"/>
<text text-anchor="middle" x="683.12" y="-152.8" font-family="Arial" font-size="11.00">NotificationModel</text>
</a>
</g>
</g>
<!-- Node10&#45;&gt;Node13 -->
<g id="edge14_Node000013_Node000010" class="edge">
<title>Node10&#45;&gt;Node13</title>
<g id="a_edge14_Node000013_Node000010"><a xlink:title=" ">
<path fill="none" stroke="#63b8ff" d="M467.41,-175.68C518.2,-171.14 587.6,-164.94 633.59,-160.84"/>
<polygon fill="#63b8ff" stroke="#63b8ff" points="467.19,-172.27 457.54,-176.65 467.82,-179.25 467.19,-172.27"/>
</a>
</g>
</g>
<!-- Node11&#45;&gt;Node10 -->
<g id="edge10_Node000010_Node000011" class="edge">
<title>Node11&#45;&gt;Node10</title>
<g id="a_edge10_Node000010_Node000011"><a xlink:title=" ">
<path fill="none" stroke="#63b8ff" d="M177.4,-273.07C209.33,-254.39 264.28,-223.96 314.5,-204.5 326.14,-199.99 339,-196.03 351.14,-192.73"/>
<polygon fill="#63b8ff" stroke="#63b8ff" points="176.09,-270.37 169.25,-278.47 179.64,-276.4 176.09,-270.37"/>
</a>
</g>
</g>
<!-- Node12 -->
<g id="Node000012" class="node">
<title>Node12</title>
<g id="a_Node000012"><a xlink:title=" ">
<polygon fill="white" stroke="#bfbfbf" points="464.38,-248 338.12,-248 338.12,-213 464.38,-213 464.38,-248"/>
<text text-anchor="start" x="346.12" y="-233.55" font-family="Arial" font-size="11.00">vector&lt; ElevationChart</text>
<text text-anchor="middle" x="401.25" y="-220.05" font-family="Arial" font-size="11.00">::ElevationPoint &gt;</text>
</a>
</g>
</g>
<!-- Node12&#45;&gt;Node1 -->
<g id="edge19_Node000001_Node000012" class="edge">
<title>Node12&#45;&gt;Node1</title>
<g id="a_edge19_Node000001_Node000012"><a xlink:title=" ">
<path fill="none" stroke="#9a32cd" stroke-dasharray="5,2" d="M475.64,-232.28C585.31,-234.93 789.38,-239.87 886.11,-242.21"/>
<polygon fill="#9a32cd" stroke="#9a32cd" points="475.76,-228.75 465.68,-232.01 475.59,-235.75 475.76,-228.75"/>
</a>
</g>
<text text-anchor="middle" x="683.12" y="-241.55" font-family="Arial" font-size="11.00" fill="grey"> m_profile</text>
</g>
<!-- Node12&#45;&gt;Node9 -->
<g id="edge12_Node000009_Node000012" class="edge">
<title>Node12&#45;&gt;Node9</title>
<g id="a_edge12_Node000009_Node000012"><a xlink:title=" ">
<path fill="none" stroke="#9a32cd" stroke-dasharray="5,2" d="M475.38,-220.01C485.65,-218.62 496.09,-217.24 506,-216 554.23,-209.96 610.02,-203.95 645.66,-200.23"/>
<polygon fill="#9a32cd" stroke="#9a32cd" points="475.19,-216.64 465.76,-221.47 476.14,-223.58 475.19,-216.64"/>
</a>
</g>
<text text-anchor="middle" x="540.88" y="-218.55" font-family="Arial" font-size="11.00" fill="grey"> m_storage</text>
</g>
<!-- Node13&#45;&gt;Node1 -->
<g id="edge13_Node000001_Node000013" class="edge">
<title>Node13&#45;&gt;Node1</title>
<g id="a_edge13_Node000001_Node000013"><a xlink:title=" ">
<path fill="none" stroke="#9a32cd" stroke-dasharray="5,2" d="M743.4,-157.71C780.71,-160.36 829.08,-167.36 868.5,-185 893.6,-196.23 917.08,-218.78 929.78,-232.37"/>
<polygon fill="#9a32cd" stroke="#9a32cd" points="743.89,-154.17 733.69,-157.04 743.46,-161.16 743.89,-154.17"/>
</a>
</g>
<text text-anchor="middle" x="829.5" y="-187.55" font-family="Arial" font-size="11.00" fill="grey"> m_notifications</text>
</g>
<!-- Node14 -->
<g id="Node000014" class="node">
<title>Node14</title>
<g id="a_Node000014"><a xlink:title=" ">
<polygon fill="white" stroke="#bfbfbf" points="488,-145 314.5,-145 314.5,-110 488,-110 488,-145"/>
<text text-anchor="start" x="322.5" y="-130.55" font-family="Arial" font-size="11.00">vector&lt; ElevationChart</text>
<text text-anchor="middle" x="401.25" y="-117.05" font-family="Arial" font-size="11.00">::NotificationModel::Notification &gt;</text>
</a>
</g>
</g>
<!-- Node14&#45;&gt;Node13 -->
<g id="edge15_Node000013_Node000014" class="edge">
<title>Node14&#45;&gt;Node13</title>
<g id="a_edge15_Node000013_Node000014"><a xlink:title=" ">
<path fill="none" stroke="#9a32cd" stroke-dasharray="5,2" d="M498.9,-137.51C544.31,-142.22 596.45,-147.62 633.47,-151.46"/>
<polygon fill="#9a32cd" stroke="#9a32cd" points="499.43,-133.95 489.12,-136.4 498.71,-140.91 499.43,-133.95"/>
</a>
</g>
<text text-anchor="middle" x="540.88" y="-147.55" font-family="Arial" font-size="11.00" fill="grey"> m_storage</text>
</g>
<!-- Node15 -->
<g id="Node000015" class="node">
<title>Node15</title>
<g id="a_Node000015"><a xlink:title=" ">
<polygon fill="white" stroke="#bfbfbf" points="464.38,-92 338.12,-92 338.12,-57 464.38,-57 464.38,-92"/>
<text text-anchor="start" x="346.12" y="-77.55" font-family="Arial" font-size="11.00">map&lt; NotificationType,</text>
<text text-anchor="middle" x="401.25" y="-64.05" font-family="Arial" font-size="11.00"> QString &gt;</text>
</a>
</g>
</g>
<!-- Node15&#45;&gt;Node13 -->
<g id="edge16_Node000013_Node000015" class="edge">
<title>Node15&#45;&gt;Node13</title>
<g id="a_edge16_Node000013_Node000015"><a xlink:title=" ">
<path fill="none" stroke="#9a32cd" stroke-dasharray="5,2" d="M475.23,-86.45C507.31,-93.59 544.67,-104.56 575.75,-121 585.08,-125.93 584.32,-131.75 593.75,-136.5 605.97,-142.66 620.09,-146.94 633.41,-149.91"/>
<polygon fill="#9a32cd" stroke="#9a32cd" points="476.08,-82.84 465.57,-84.17 474.62,-89.68 476.08,-82.84"/>
</a>
</g>
<text text-anchor="middle" x="540.88" y="-123.55" font-family="Arial" font-size="11.00" fill="grey"> m_dictionary</text>
</g>
<!-- Node16 -->
<g id="Node000016" class="node">
<title>Node16</title>
<g id="a_Node000016"><a xlink:href="../../dc/da9/classElevationChart_1_1Metrics.html" target="_top" xlink:title="Класс&#45;гаджет, хранящий входные данные для расчета коррекции по ЛТХ.">
<polygon fill="white" stroke="#666666" points="708.38,-127.25 657.88,-127.25 657.88,-105.75 708.38,-105.75 708.38,-127.25"/>
<text text-anchor="middle" x="683.12" y="-112.8" font-family="Arial" font-size="11.00">Metrics</text>
</a>
</g>
</g>
<!-- Node16&#45;&gt;Node1 -->
<g id="edge17_Node000001_Node000016" class="edge">
<title>Node16&#45;&gt;Node1</title>
<g id="a_edge17_Node000001_Node000016"><a xlink:title=" ">
<path fill="none" stroke="#9a32cd" stroke-dasharray="5,2" d="M719.7,-114.45C758.98,-113.85 822.71,-117.95 868.5,-146 902.98,-167.12 925.9,-211.81 935.09,-232.53"/>
<polygon fill="#9a32cd" stroke="#9a32cd" points="719.73,-110.97 709.82,-114.74 719.92,-117.97 719.73,-110.97"/>
</a>
</g>
<text text-anchor="middle" x="829.5" y="-148.55" font-family="Arial" font-size="11.00" fill="grey"> m_metrics</text>
</g>
<!-- Node17 -->
<g id="Node000017" class="node">
<title>Node17</title>
<g id="a_Node000017"><a xlink:title=" ">
<polygon fill="white" stroke="#bfbfbf" points="757.12,-88 609.12,-88 609.12,-53 757.12,-53 757.12,-88"/>
<text text-anchor="start" x="617.12" y="-73.55" font-family="Arial" font-size="11.00">unique_ptr&lt; ElevationChart</text>
<text text-anchor="middle" x="683.12" y="-60.05" font-family="Arial" font-size="11.00">::IElevationDataProvider &gt;</text>
</a>
</g>
</g>
<!-- Node17&#45;&gt;Node1 -->
<g id="edge18_Node000001_Node000017" class="edge">
<title>Node17&#45;&gt;Node1</title>
<g id="a_edge18_Node000001_Node000017"><a xlink:title=" ">
<path fill="none" stroke="#9a32cd" stroke-dasharray="5,2" d="M768.37,-68.89C802.27,-72.08 840,-80.91 868.5,-102 913.59,-135.37 931.98,-205.41 937.59,-232.49"/>
<polygon fill="#9a32cd" stroke="#9a32cd" points="768.76,-65.33 758.52,-68.04 768.22,-72.31 768.76,-65.33"/>
</a>
</g>
<text text-anchor="middle" x="829.5" y="-104.55" font-family="Arial" font-size="11.00" fill="grey"> m_provider</text>
</g>
<!-- Node18 -->
<g id="Node000018" class="node">
<title>Node18</title>
<g id="a_Node000018"><a xlink:title=" ">
<polygon fill="white" stroke="#bfbfbf" points="746.25,-35 620,-35 620,0 746.25,0 746.25,-35"/>
<text text-anchor="start" x="628" y="-20.55" font-family="Arial" font-size="11.00">vector&lt; ElevationChart</text>
<text text-anchor="middle" x="683.12" y="-7.05" font-family="Arial" font-size="11.00">::IntersectionPoint &gt;</text>
</a>
</g>
</g>
<!-- Node18&#45;&gt;Node1 -->
<g id="edge20_Node000001_Node000018" class="edge">
<title>Node18&#45;&gt;Node1</title>
<g id="a_edge20_Node000001_Node000018"><a xlink:title=" ">
<path fill="none" stroke="#9a32cd" stroke-dasharray="5,2" d="M757.46,-15.83C794.55,-18.68 838.04,-28.16 868.5,-54 925.04,-101.97 936.69,-199.6 939.05,-232.44"/>
<polygon fill="#9a32cd" stroke="#9a32cd" points="757.88,-12.29 747.68,-15.17 757.45,-19.28 757.88,-12.29"/>
</a>
</g>
<text text-anchor="middle" x="829.5" y="-56.55" font-family="Arial" font-size="11.00" fill="grey"> m_intersections</text>
</g>
</g>
</svg>

<g id="navigator" transform="translate(0 0)" fill="#404254">
  <rect fill="#f2f5e9" fill-opacity="0.5" stroke="#606060" stroke-width=".5" x="0" y="0" width="60" height="60"/>
  <use id="zoomplus" xlink:href="#zoomPlus" x="17" y="9" onmousedown="handleZoom(evt,'in')"/>
  <use id="zoomminus" xlink:href="#zoomMin" x="42" y="9" onmousedown="handleZoom(evt,'out')"/>
  <use id="reset" xlink:href="#resetDef" x="30" y="36" onmousedown="handleReset()"/>
   <use id="arrowup" xlink:href="#arrowUp" x="0" y="0" onmousedown="handlePan(0,-1)"/>
  <use id="arrowright" xlink:href="#arrowRight" x="0" y="0" onmousedown="handlePan(1,0)"/>
  <use id="arrowdown" xlink:href="#arrowDown" x="0" y="0" onmousedown="handlePan(0,1)"/>
  <use id="arrowleft" xlink:href="#arrowLeft" x="0" y="0" onmousedown="handlePan(-1,0)"/>
</g>
<svg viewBox="0 0 15 15" width="100%" height="30px" preserveAspectRatio="xMaxYMin meet">
 <g id="arrow_out" transform="scale(0.3 0.3)">
  <a xlink:href="classElevationChart_1_1ElevationChartItem__coll__graph_org.svg" target="_base">
   <rect id="button" ry="5" rx="5" y="6" x="6" height="38" width="38"
        fill="#f2f5e9" fill-opacity="0.5" stroke="#606060" stroke-width="1.0"/>
   <path id="arrow"
     d="M 11.500037,31.436501 C 11.940474,20.09759 22.043105,11.32322 32.158766,21.979434 L 37.068811,17.246167 C 37.068811,17.246167 37.088388,32 37.088388,32 L 22.160133,31.978069 C 22.160133,31.978069 26.997745,27.140456 26.997745,27.140456 C 18.528582,18.264221 13.291696,25.230495 11.500037,31.436501 z"
     style="fill:#404040;"/>
  </a>
 </g>
</svg>

<style type='text/css'>
<![CDATA[
[data-mouse-over-selected='false'] { opacity: 0.7; }
[data-mouse-over-selected='true']  { opacity: 1.0; }
]]>
</style>
<script type="application/ecmascript"><![CDATA[
document.addEventListener('DOMContentLoaded', (event) => {
  highlightEdges();
  highlightAdjacentNodes();
});
]]></script>
</svg>
