<?xml version="1.0" encoding="UTF-8" standalone="no"?>
<!DOCTYPE svg PUBLIC "-//W3C//DTD SVG 1.1//EN"
 "http://www.w3.org/Graphics/SVG/1.1/DTD/svg11.dtd">
<!-- Generated by graphviz version 8.0.5 (0)
 -->
<!-- Title: ChartItem Pages: 1 -->
<svg width="176pt" height="159pt"
 viewBox="0.00 0.00 176.38 159.00" xmlns="http://www.w3.org/2000/svg" xmlns:xlink="http://www.w3.org/1999/xlink">

<svg id="main" version="1.1" xmlns="http://www.w3.org/2000/svg" xmlns:xlink="http://www.w3.org/1999/xlink" xml:space="preserve" onload="init(evt)">
<style type="text/css"><![CDATA[
.node, .edge {opacity: 0.7;}
.node.selected, .edge.selected {opacity: 1;}
.edge:hover path { stroke: red; }
.edge:hover polygon { stroke: red; fill: red; }
]]></style>
<script type="application/ecmascript" xlink:href="../../svg.min.js"/>
<svg id="graph" class="graph">
<g id="graph0" class="graph" transform="scale(1 1) rotate(0) translate(4 155)">
<title>ChartItem</title>
<!-- Node1 -->
<g id="Node000001" class="node">
<title>Node1</title>
<g id="a_Node000001"><a xlink:title=" ">
<polygon fill="#999999" stroke="#666666" points="137.12,-21.5 73.12,-21.5 73.12,0 137.12,0 137.12,-21.5"/>
<text text-anchor="middle" x="105.12" y="-7.05" font-family="Arial" font-size="11.00">ChartItem</text>
</a>
</g>
</g>
<!-- Node2 -->
<g id="Node000002" class="node">
<title>Node2</title>
<g id="a_Node000002"><a xlink:href="../../d7/d4d/classQQuickItem.html" target="_top" xlink:title=" ">
<polygon fill="white" stroke="#bfbfbf" points="72.25,-92.5 0,-92.5 0,-71 72.25,-71 72.25,-92.5"/>
<text text-anchor="middle" x="36.12" y="-78.05" font-family="Arial" font-size="11.00">QQuickItem</text>
</a>
</g>
</g>
<!-- Node2&#45;&gt;Node1 -->
<g id="edge1_Node000001_Node000002" class="edge">
<title>Node2&#45;&gt;Node1</title>
<g id="a_edge1_Node000001_Node000002"><a xlink:title=" ">
<path fill="none" stroke="#63b8ff" d="M53.77,-63.1C66.8,-50.07 84.08,-32.79 94.9,-21.97"/>
<polygon fill="#63b8ff" stroke="#63b8ff" points="51.9,-60.02 47.31,-69.57 56.85,-64.97 51.9,-60.02"/>
</a>
</g>
</g>
<!-- Node3 -->
<g id="Node000003" class="node">
<title>Node3</title>
<g id="a_Node000003"><a xlink:title=" ">
<polygon fill="white" stroke="#bfbfbf" points="63.62,-151 8.62,-151 8.62,-129.5 63.62,-129.5 63.62,-151"/>
<text text-anchor="middle" x="36.12" y="-136.55" font-family="Arial" font-size="11.00">QObject</text>
</a>
</g>
</g>
<!-- Node3&#45;&gt;Node2 -->
<g id="edge2_Node000002_Node000003" class="edge">
<title>Node3&#45;&gt;Node2</title>
<g id="a_edge2_Node000002_Node000003"><a xlink:title=" ">
<path fill="none" stroke="#63b8ff" d="M36.12,-118.22C36.12,-109.51 36.12,-99.81 36.12,-92.76"/>
<polygon fill="#63b8ff" stroke="#63b8ff" points="32.63,-118.15 36.12,-128.15 39.63,-118.15 32.63,-118.15"/>
</a>
</g>
</g>
<!-- Node4 -->
<g id="Node000004" class="node">
<title>Node4</title>
<g id="a_Node000004"><a xlink:href="../../d8/d37/classSG_1_1BasicPalette.html" target="_top" xlink:title="Простейшая палитра цветов.">
<polygon fill="white" stroke="#666666" points="166.12,-92.5 90.12,-92.5 90.12,-71 166.12,-71 166.12,-92.5"/>
<text text-anchor="middle" x="128.12" y="-78.05" font-family="Arial" font-size="11.00">BasicPalette</text>
</a>
</g>
</g>
<!-- Node4&#45;&gt;Node1 -->
<g id="edge3_Node000001_Node000004" class="edge">
<title>Node4&#45;&gt;Node1</title>
<g id="a_edge3_Node000001_Node000004"><a xlink:title=" ">
<path fill="none" stroke="#9a32cd" stroke-dasharray="5,2" d="M121.36,-60.47C117.15,-47.82 111.9,-32.08 108.53,-21.97"/>
<polygon fill="#9a32cd" stroke="#9a32cd" points="118.25,-61.19 124.73,-69.57 124.89,-58.98 118.25,-61.19"/>
</a>
</g>
<text text-anchor="middle" x="143.25" y="-42.55" font-family="Arial" font-size="11.00" fill="grey"> m_palette</text>
</g>
</g>
</svg>
</svg>

<style type='text/css'>
<![CDATA[
[data-mouse-over-selected='false'] { opacity: 0.7; }
[data-mouse-over-selected='true']  { opacity: 1.0; }
]]>
</style>
<script type="application/ecmascript"><![CDATA[
document.addEventListener('DOMContentLoaded', (event) => {
  highlightEdges();
  highlightAdjacentNodes();
});
]]></script>
</svg>
