<?xml version="1.0" encoding="UTF-8" standalone="no"?>
<!DOCTYPE svg PUBLIC "-//W3C//DTD SVG 1.1//EN"
 "http://www.w3.org/Graphics/SVG/1.1/DTD/svg11.dtd">
<!-- Generated by graphviz version 8.0.5 (0)
 -->
<!-- Title: QAbstractListModel Pages: 1 -->
<svg width="122pt" height="202pt"
 viewBox="0.00 0.00 122.25 202.00" xmlns="http://www.w3.org/2000/svg" xmlns:xlink="http://www.w3.org/1999/xlink">
<g id="graph0" class="graph" transform="scale(1 1) rotate(0) translate(4 198)">
<title>QAbstractListModel</title>
<!-- Node1 -->
<g id="Node000001" class="node">
<title>Node1</title>
<g id="a_Node000001"><a xlink:title=" ">
<polygon fill="#999999" stroke="#666666" points="112,-79 2.25,-79 2.25,-57.5 112,-57.5 112,-79"/>
<text text-anchor="middle" x="57.12" y="-64.55" font-family="Arial" font-size="11.00">QAbstractListModel</text>
</a>
</g>
</g>
<!-- Node4 -->
<g id="Node000004" class="node">
<title>Node4</title>
<g id="a_Node000004"><a xlink:href="../../d6/de1/classElevationChart_1_1RouteModel.html" target="_top" xlink:title="Модель точек пути для профиля высот.">
<polygon fill="white" stroke="#666666" points="94.38,-21.5 19.88,-21.5 19.88,0 94.38,0 94.38,-21.5"/>
<text text-anchor="middle" x="57.12" y="-7.05" font-family="Arial" font-size="11.00">RouteModel</text>
</a>
</g>
</g>
<!-- Node1&#45;&gt;Node4 -->
<g id="edge3_Node000001_Node000004" class="edge">
<title>Node1&#45;&gt;Node4</title>
<g id="a_edge3_Node000001_Node000004"><a xlink:title=" ">
<path fill="none" stroke="#63b8ff" d="M57.12,-46.19C57.12,-37.85 57.12,-28.66 57.12,-21.87"/>
<polygon fill="#63b8ff" stroke="#63b8ff" points="53.63,-46.07 57.12,-56.07 60.63,-46.07 53.63,-46.07"/>
</a>
</g>
</g>
<!-- Node2 -->
<g id="Node000002" class="node">
<title>Node2</title>
<g id="a_Node000002"><a xlink:href="../../d0/d5a/classQAbstractItemModel.html" target="_top" xlink:title=" ">
<polygon fill="white" stroke="#bfbfbf" points="114.25,-136.5 0,-136.5 0,-115 114.25,-115 114.25,-136.5"/>
<text text-anchor="middle" x="57.12" y="-122.05" font-family="Arial" font-size="11.00">QAbstractItemModel</text>
</a>
</g>
</g>
<!-- Node2&#45;&gt;Node1 -->
<g id="edge1_Node000001_Node000002" class="edge">
<title>Node2&#45;&gt;Node1</title>
<g id="a_edge1_Node000001_Node000002"><a xlink:title=" ">
<path fill="none" stroke="#63b8ff" d="M57.12,-103.69C57.12,-95.35 57.12,-86.16 57.12,-79.37"/>
<polygon fill="#63b8ff" stroke="#63b8ff" points="53.63,-103.57 57.12,-113.57 60.63,-103.57 53.63,-103.57"/>
</a>
</g>
</g>
<!-- Node3 -->
<g id="Node000003" class="node">
<title>Node3</title>
<g id="a_Node000003"><a xlink:title=" ">
<polygon fill="white" stroke="#bfbfbf" points="84.62,-194 29.62,-194 29.62,-172.5 84.62,-172.5 84.62,-194"/>
<text text-anchor="middle" x="57.12" y="-179.55" font-family="Arial" font-size="11.00">QObject</text>
</a>
</g>
</g>
<!-- Node3&#45;&gt;Node2 -->
<g id="edge2_Node000002_Node000003" class="edge">
<title>Node3&#45;&gt;Node2</title>
<g id="a_edge2_Node000002_Node000003"><a xlink:title=" ">
<path fill="none" stroke="#63b8ff" d="M57.12,-161.19C57.12,-152.85 57.12,-143.66 57.12,-136.87"/>
<polygon fill="#63b8ff" stroke="#63b8ff" points="53.63,-161.07 57.12,-171.07 60.63,-161.07 53.63,-161.07"/>
</a>
</g>
</g>
</g>
</svg>
