<?xml version="1.0" encoding="UTF-8" standalone="no"?>
<!DOCTYPE svg PUBLIC "-//W3C//DTD SVG 1.1//EN"
 "http://www.w3.org/Graphics/SVG/1.1/DTD/svg11.dtd">
<!-- Generated by graphviz version 8.0.5 (0)
 -->
<!-- Title: ScenegraphObject Pages: 1 -->
<svg width="113pt" height="145pt"
 viewBox="0.00 0.00 113.25 144.50" xmlns="http://www.w3.org/2000/svg" xmlns:xlink="http://www.w3.org/1999/xlink">
<g id="graph0" class="graph" transform="scale(1 1) rotate(0) translate(4 140.5)">
<title>ScenegraphObject</title>
<!-- Node1 -->
<g id="Node000001" class="node">
<title>Node1</title>
<g id="a_Node000001"><a xlink:title="Базовый класс для объектов Qt Quick Scenegraph.">
<polygon fill="#999999" stroke="#666666" points="105.25,-21.5 0,-21.5 0,0 105.25,0 105.25,-21.5"/>
<text text-anchor="middle" x="52.62" y="-7.05" font-family="Arial" font-size="11.00">ScenegraphObject</text>
</a>
</g>
</g>
<!-- Node2 -->
<g id="Node000002" class="node">
<title>Node2</title>
<g id="a_Node000002"><a xlink:title=" ">
<polygon fill="white" stroke="#bfbfbf" points="88.75,-79 16.5,-79 16.5,-57.5 88.75,-57.5 88.75,-79"/>
<text text-anchor="middle" x="52.62" y="-64.55" font-family="Arial" font-size="11.00">QQuickItem</text>
</a>
</g>
</g>
<!-- Node2&#45;&gt;Node1 -->
<g id="edge1_Node000001_Node000002" class="edge">
<title>Node2&#45;&gt;Node1</title>
<g id="a_edge1_Node000001_Node000002"><a xlink:title=" ">
<path fill="none" stroke="#63b8ff" d="M52.62,-46.19C52.62,-37.85 52.62,-28.66 52.62,-21.87"/>
<polygon fill="#63b8ff" stroke="#63b8ff" points="49.13,-46.07 52.62,-56.07 56.13,-46.07 49.13,-46.07"/>
</a>
</g>
</g>
<!-- Node3 -->
<g id="Node000003" class="node">
<title>Node3</title>
<g id="a_Node000003"><a xlink:title=" ">
<polygon fill="white" stroke="#bfbfbf" points="80.12,-136.5 25.12,-136.5 25.12,-115 80.12,-115 80.12,-136.5"/>
<text text-anchor="middle" x="52.62" y="-122.05" font-family="Arial" font-size="11.00">QObject</text>
</a>
</g>
</g>
<!-- Node3&#45;&gt;Node2 -->
<g id="edge2_Node000002_Node000003" class="edge">
<title>Node3&#45;&gt;Node2</title>
<g id="a_edge2_Node000002_Node000003"><a xlink:title=" ">
<path fill="none" stroke="#63b8ff" d="M52.62,-103.69C52.62,-95.35 52.62,-86.16 52.62,-79.37"/>
<polygon fill="#63b8ff" stroke="#63b8ff" points="49.13,-103.57 52.62,-113.57 56.13,-103.57 49.13,-103.57"/>
</a>
</g>
</g>
</g>
</svg>
