<?xml version="1.0" encoding="UTF-8" standalone="no"?>
<!DOCTYPE svg PUBLIC "-//W3C//DTD SVG 1.1//EN"
 "http://www.w3.org/Graphics/SVG/1.1/DTD/svg11.dtd">
<!-- Generated by graphviz version 8.0.5 (0)
 -->
<!-- Title: RadialGradientShader Pages: 1 -->
<svg width="155pt" height="158pt"
 viewBox="0.00 0.00 154.50 158.00" xmlns="http://www.w3.org/2000/svg" xmlns:xlink="http://www.w3.org/1999/xlink">
<g id="graph0" class="graph" transform="scale(1 1) rotate(0) translate(4 154)">
<title>RadialGradientShader</title>
<!-- Node1 -->
<g id="Node000001" class="node">
<title>Node1</title>
<g id="a_Node000001"><a xlink:title=" ">
<polygon fill="#999999" stroke="#666666" points="134.88,-21.5 11.62,-21.5 11.62,0 134.88,0 134.88,-21.5"/>
<text text-anchor="middle" x="73.25" y="-7.05" font-family="Arial" font-size="11.00">RadialGradientShader</text>
</a>
</g>
</g>
<!-- Node2 -->
<g id="Node000002" class="node">
<title>Node2</title>
<g id="a_Node000002"><a xlink:title=" ">
<polygon fill="white" stroke="#bfbfbf" points="146.5,-92.5 0,-92.5 0,-57.5 146.5,-57.5 146.5,-92.5"/>
<text text-anchor="start" x="8" y="-78.05" font-family="Arial" font-size="11.00">QSGSimpleMaterialShader</text>
<text text-anchor="middle" x="73.25" y="-64.55" font-family="Arial" font-size="11.00">&lt; State &gt;</text>
</a>
</g>
</g>
<!-- Node2&#45;&gt;Node1 -->
<g id="edge1_Node000001_Node000002" class="edge">
<title>Node2&#45;&gt;Node1</title>
<g id="a_edge1_Node000001_Node000002"><a xlink:title=" ">
<path fill="none" stroke="#63b8ff" d="M73.25,-46.53C73.25,-37.67 73.25,-28.4 73.25,-21.67"/>
<polygon fill="#63b8ff" stroke="#63b8ff" points="69.75,-46.32 73.25,-56.32 76.75,-46.32 69.75,-46.32"/>
</a>
</g>
</g>
<!-- Node3 -->
<g id="Node000003" class="node">
<title>Node3</title>
<g id="a_Node000003"><a xlink:title=" ">
<polygon fill="white" stroke="#bfbfbf" points="130,-150 16.5,-150 16.5,-128.5 130,-128.5 130,-150"/>
<text text-anchor="middle" x="73.25" y="-135.55" font-family="Arial" font-size="11.00">QSGMaterialShader</text>
</a>
</g>
</g>
<!-- Node3&#45;&gt;Node2 -->
<g id="edge2_Node000002_Node000003" class="edge">
<title>Node3&#45;&gt;Node2</title>
<g id="a_edge2_Node000002_Node000003"><a xlink:title=" ">
<path fill="none" stroke="#63b8ff" d="M73.25,-117.43C73.25,-109.32 73.25,-100.17 73.25,-92.53"/>
<polygon fill="#63b8ff" stroke="#63b8ff" points="69.75,-117.25 73.25,-127.25 76.75,-117.25 69.75,-117.25"/>
</a>
</g>
</g>
</g>
</svg>
