<?xml version="1.0" encoding="UTF-8" standalone="no"?>
<!DOCTYPE svg PUBLIC "-//W3C//DTD SVG 1.1//EN"
 "http://www.w3.org/Graphics/SVG/1.1/DTD/svg11.dtd">
<!-- Generated by graphviz version 8.0.5 (0)
 -->
<!-- Title: ElevationChartItem Pages: 1 -->
<svg width="116pt" height="202pt"
 viewBox="0.00 0.00 116.25 202.00" xmlns="http://www.w3.org/2000/svg" xmlns:xlink="http://www.w3.org/1999/xlink">
<g id="graph0" class="graph" transform="scale(1 1) rotate(0) translate(4 198)">
<title>ElevationChartItem</title>
<!-- Node1 -->
<g id="Node000001" class="node">
<title>Node1</title>
<g id="a_Node000001"><a xlink:title="Основной класс библиотеки.">
<polygon fill="#999999" stroke="#666666" points="108.25,-21.5 0,-21.5 0,0 108.25,0 108.25,-21.5"/>
<text text-anchor="middle" x="54.12" y="-7.05" font-family="Arial" font-size="11.00">ElevationChartItem</text>
</a>
</g>
</g>
<!-- Node2 -->
<g id="Node000002" class="node">
<title>Node2</title>
<g id="a_Node000002"><a xlink:href="../../da/d9a/classLPVL_1_1ScenegraphObject.html" target="_top" xlink:title="Базовый класс для объектов Qt Quick Scenegraph.">
<polygon fill="white" stroke="#666666" points="106.75,-79 1.5,-79 1.5,-57.5 106.75,-57.5 106.75,-79"/>
<text text-anchor="middle" x="54.12" y="-64.55" font-family="Arial" font-size="11.00">ScenegraphObject</text>
</a>
</g>
</g>
<!-- Node2&#45;&gt;Node1 -->
<g id="edge1_Node000001_Node000002" class="edge">
<title>Node2&#45;&gt;Node1</title>
<g id="a_edge1_Node000001_Node000002"><a xlink:title=" ">
<path fill="none" stroke="#63b8ff" d="M54.12,-46.19C54.12,-37.85 54.12,-28.66 54.12,-21.87"/>
<polygon fill="#63b8ff" stroke="#63b8ff" points="50.63,-46.07 54.12,-56.07 57.63,-46.07 50.63,-46.07"/>
</a>
</g>
</g>
<!-- Node3 -->
<g id="Node000003" class="node">
<title>Node3</title>
<g id="a_Node000003"><a xlink:title=" ">
<polygon fill="white" stroke="#bfbfbf" points="90.25,-136.5 18,-136.5 18,-115 90.25,-115 90.25,-136.5"/>
<text text-anchor="middle" x="54.12" y="-122.05" font-family="Arial" font-size="11.00">QQuickItem</text>
</a>
</g>
</g>
<!-- Node3&#45;&gt;Node2 -->
<g id="edge2_Node000002_Node000003" class="edge">
<title>Node3&#45;&gt;Node2</title>
<g id="a_edge2_Node000002_Node000003"><a xlink:title=" ">
<path fill="none" stroke="#63b8ff" d="M54.12,-103.69C54.12,-95.35 54.12,-86.16 54.12,-79.37"/>
<polygon fill="#63b8ff" stroke="#63b8ff" points="50.63,-103.57 54.12,-113.57 57.63,-103.57 50.63,-103.57"/>
</a>
</g>
</g>
<!-- Node4 -->
<g id="Node000004" class="node">
<title>Node4</title>
<g id="a_Node000004"><a xlink:title=" ">
<polygon fill="white" stroke="#bfbfbf" points="81.62,-194 26.62,-194 26.62,-172.5 81.62,-172.5 81.62,-194"/>
<text text-anchor="middle" x="54.12" y="-179.55" font-family="Arial" font-size="11.00">QObject</text>
</a>
</g>
</g>
<!-- Node4&#45;&gt;Node3 -->
<g id="edge3_Node000003_Node000004" class="edge">
<title>Node4&#45;&gt;Node3</title>
<g id="a_edge3_Node000003_Node000004"><a xlink:title=" ">
<path fill="none" stroke="#63b8ff" d="M54.12,-161.19C54.12,-152.85 54.12,-143.66 54.12,-136.87"/>
<polygon fill="#63b8ff" stroke="#63b8ff" points="50.63,-161.07 54.12,-171.07 57.63,-161.07 50.63,-161.07"/>
</a>
</g>
</g>
</g>
</svg>
