<?xml version="1.0" encoding="UTF-8" standalone="no"?>
<!DOCTYPE svg PUBLIC "-//W3C//DTD SVG 1.1//EN"
 "http://www.w3.org/Graphics/SVG/1.1/DTD/svg11.dtd">
<!-- Generated by graphviz version 8.0.5 (0)
 -->
<!-- Title: NotificationModel Pages: 1 -->
<svg width="623pt" height="135pt"
 viewBox="0.00 0.00 623.00 135.25" xmlns="http://www.w3.org/2000/svg" xmlns:xlink="http://www.w3.org/1999/xlink">
<g id="graph0" class="graph" transform="scale(1 1) rotate(0) translate(4 131.25)">
<title>NotificationModel</title>
<!-- Node1 -->
<g id="Node000001" class="node">
<title>Node1</title>
<g id="a_Node000001"><a xlink:title="Модель оповещений об ошибках в маршруте.">
<polygon fill="#999999" stroke="#666666" points="615,-81.25 516.5,-81.25 516.5,-59.75 615,-59.75 615,-81.25"/>
<text text-anchor="middle" x="565.75" y="-66.8" font-family="Arial" font-size="11.00">NotificationModel</text>
</a>
</g>
</g>
<!-- Node2 -->
<g id="Node000002" class="node">
<title>Node2</title>
<g id="a_Node000002"><a xlink:title=" ">
<polygon fill="white" stroke="#bfbfbf" points="384.88,-127.25 275.12,-127.25 275.12,-105.75 384.88,-105.75 384.88,-127.25"/>
<text text-anchor="middle" x="330" y="-112.8" font-family="Arial" font-size="11.00">QAbstractListModel</text>
</a>
</g>
</g>
<!-- Node2&#45;&gt;Node1 -->
<g id="edge1_Node000001_Node000002" class="edge">
<title>Node2&#45;&gt;Node1</title>
<g id="a_edge1_Node000001_Node000002"><a xlink:title=" ">
<path fill="none" stroke="#63b8ff" d="M395.93,-107.19C427.09,-102.33 464.88,-95.86 498.5,-88.5 507.47,-86.54 517.03,-84.13 526.02,-81.72"/>
<polygon fill="#63b8ff" stroke="#63b8ff" points="395.55,-103.86 386.2,-108.84 396.61,-110.78 395.55,-103.86"/>
</a>
</g>
</g>
<!-- Node3 -->
<g id="Node000003" class="node">
<title>Node3</title>
<g id="a_Node000003"><a xlink:title=" ">
<polygon fill="white" stroke="#bfbfbf" points="206.25,-127.25 92,-127.25 92,-105.75 206.25,-105.75 206.25,-127.25"/>
<text text-anchor="middle" x="149.12" y="-112.8" font-family="Arial" font-size="11.00">QAbstractItemModel</text>
</a>
</g>
</g>
<!-- Node3&#45;&gt;Node2 -->
<g id="edge2_Node000002_Node000003" class="edge">
<title>Node3&#45;&gt;Node2</title>
<g id="a_edge2_Node000002_Node000003"><a xlink:title=" ">
<path fill="none" stroke="#63b8ff" d="M217.67,-116.5C236.58,-116.5 256.88,-116.5 274.91,-116.5"/>
<polygon fill="#63b8ff" stroke="#63b8ff" points="217.72,-113 207.72,-116.5 217.72,-120 217.72,-113"/>
</a>
</g>
</g>
<!-- Node4 -->
<g id="Node000004" class="node">
<title>Node4</title>
<g id="a_Node000004"><a xlink:title=" ">
<polygon fill="white" stroke="#bfbfbf" points="55,-127.25 0,-127.25 0,-105.75 55,-105.75 55,-127.25"/>
<text text-anchor="middle" x="27.5" y="-112.8" font-family="Arial" font-size="11.00">QObject</text>
</a>
</g>
</g>
<!-- Node4&#45;&gt;Node3 -->
<g id="edge3_Node000003_Node000004" class="edge">
<title>Node4&#45;&gt;Node3</title>
<g id="a_edge3_Node000003_Node000004"><a xlink:title=" ">
<path fill="none" stroke="#63b8ff" d="M66.23,-116.5C74.28,-116.5 82.95,-116.5 91.52,-116.5"/>
<polygon fill="#63b8ff" stroke="#63b8ff" points="66.35,-113 56.35,-116.5 66.35,-120 66.35,-113"/>
</a>
</g>
</g>
<!-- Node5 -->
<g id="Node000005" class="node">
<title>Node5</title>
<g id="a_Node000005"><a xlink:title=" ">
<polygon fill="white" stroke="#bfbfbf" points="416.75,-88 243.25,-88 243.25,-53 416.75,-53 416.75,-88"/>
<text text-anchor="start" x="251.25" y="-73.55" font-family="Arial" font-size="11.00">vector&lt; ElevationChart</text>
<text text-anchor="middle" x="330" y="-60.05" font-family="Arial" font-size="11.00">::NotificationModel::Notification &gt;</text>
</a>
</g>
</g>
<!-- Node5&#45;&gt;Node1 -->
<g id="edge4_Node000001_Node000005" class="edge">
<title>Node5&#45;&gt;Node1</title>
<g id="a_edge4_Node000001_Node000005"><a xlink:title=" ">
<path fill="none" stroke="#9a32cd" stroke-dasharray="5,2" d="M427.74,-70.5C458.23,-70.5 490.6,-70.5 516.23,-70.5"/>
<polygon fill="#9a32cd" stroke="#9a32cd" points="428.04,-67 418.04,-70.5 428.04,-74 428.04,-67"/>
</a>
</g>
<text text-anchor="middle" x="466.62" y="-73.55" font-family="Arial" font-size="11.00" fill="grey"> m_storage</text>
</g>
<!-- Node6 -->
<g id="Node000006" class="node">
<title>Node6</title>
<g id="a_Node000006"><a xlink:title=" ">
<polygon fill="white" stroke="#bfbfbf" points="393.12,-35 266.88,-35 266.88,0 393.12,0 393.12,-35"/>
<text text-anchor="start" x="274.88" y="-20.55" font-family="Arial" font-size="11.00">map&lt; NotificationType,</text>
<text text-anchor="middle" x="330" y="-7.05" font-family="Arial" font-size="11.00"> QString &gt;</text>
</a>
</g>
</g>
<!-- Node6&#45;&gt;Node1 -->
<g id="edge5_Node000001_Node000006" class="edge">
<title>Node6&#45;&gt;Node1</title>
<g id="a_edge5_Node000001_Node000006"><a xlink:title=" ">
<path fill="none" stroke="#9a32cd" stroke-dasharray="5,2" d="M404.2,-32.2C433.58,-38.31 467.72,-45.68 498.5,-53 506.6,-54.93 515.23,-57.11 523.48,-59.26"/>
<polygon fill="#9a32cd" stroke="#9a32cd" points="405.11,-28.6 394.6,-30 403.69,-35.46 405.11,-28.6"/>
</a>
</g>
<text text-anchor="middle" x="466.62" y="-56.55" font-family="Arial" font-size="11.00" fill="grey"> m_dictionary</text>
</g>
</g>
</svg>
