<?xml version="1.0" encoding="UTF-8" standalone="no"?>
<!DOCTYPE svg PUBLIC "-//W3C//DTD SVG 1.1//EN"
 "http://www.w3.org/Graphics/SVG/1.1/DTD/svg11.dtd">
<!-- Generated by graphviz version 8.0.5 (0)
 -->
<!-- Title: RouteModel Pages: 1 -->
<svg width="264pt" height="231pt"
 viewBox="0.00 0.00 264.25 231.00" xmlns="http://www.w3.org/2000/svg" xmlns:xlink="http://www.w3.org/1999/xlink">

<svg id="main" version="1.1" xmlns="http://www.w3.org/2000/svg" xmlns:xlink="http://www.w3.org/1999/xlink" xml:space="preserve" onload="init(evt)">
<style type="text/css"><![CDATA[
.node, .edge {opacity: 0.7;}
.node.selected, .edge.selected {opacity: 1;}
.edge:hover path { stroke: red; }
.edge:hover polygon { stroke: red; fill: red; }
]]></style>
<script type="application/ecmascript" xlink:href="../../svg.min.js"/>
<svg id="graph" class="graph">
<g id="graph0" class="graph" transform="scale(1 1) rotate(0) translate(4 227)">
<title>RouteModel</title>
<!-- Node1 -->
<g id="Node000001" class="node">
<title>Node1</title>
<g id="a_Node000001"><a xlink:title="Модель точек пути для профиля высот.">
<polygon fill="#999999" stroke="#666666" points="196.38,-21.5 121.88,-21.5 121.88,0 196.38,0 196.38,-21.5"/>
<text text-anchor="middle" x="159.12" y="-7.05" font-family="Arial" font-size="11.00">RouteModel</text>
</a>
</g>
</g>
<!-- Node2 -->
<g id="Node000002" class="node">
<title>Node2</title>
<g id="a_Node000002"><a xlink:href="../../d5/d2d/classQAbstractListModel.html" target="_top" xlink:title=" ">
<polygon fill="white" stroke="#bfbfbf" points="112,-99.25 2.25,-99.25 2.25,-77.75 112,-77.75 112,-99.25"/>
<text text-anchor="middle" x="57.12" y="-84.8" font-family="Arial" font-size="11.00">QAbstractListModel</text>
</a>
</g>
</g>
<!-- Node2&#45;&gt;Node1 -->
<g id="edge1_Node000001_Node000002" class="edge">
<title>Node2&#45;&gt;Node1</title>
<g id="a_edge1_Node000001_Node000002"><a xlink:title=" ">
<path fill="none" stroke="#63b8ff" d="M79.46,-70.92C99.65,-55.92 128.71,-34.33 145.59,-21.8"/>
<polygon fill="#63b8ff" stroke="#63b8ff" points="77.82,-68.51 71.88,-77.28 82,-74.13 77.82,-68.51"/>
</a>
</g>
</g>
<!-- Node3 -->
<g id="Node000003" class="node">
<title>Node3</title>
<g id="a_Node000003"><a xlink:href="../../d0/d5a/classQAbstractItemModel.html" target="_top" xlink:title=" ">
<polygon fill="white" stroke="#bfbfbf" points="114.25,-164.5 0,-164.5 0,-143 114.25,-143 114.25,-164.5"/>
<text text-anchor="middle" x="57.12" y="-150.05" font-family="Arial" font-size="11.00">QAbstractItemModel</text>
</a>
</g>
</g>
<!-- Node3&#45;&gt;Node2 -->
<g id="edge2_Node000002_Node000003" class="edge">
<title>Node3&#45;&gt;Node2</title>
<g id="a_edge2_Node000002_Node000003"><a xlink:title=" ">
<path fill="none" stroke="#63b8ff" d="M57.12,-131.8C57.12,-120.89 57.12,-108.07 57.12,-99.43"/>
<polygon fill="#63b8ff" stroke="#63b8ff" points="53.63,-131.59 57.12,-141.59 60.63,-131.59 53.63,-131.59"/>
</a>
</g>
</g>
<!-- Node4 -->
<g id="Node000004" class="node">
<title>Node4</title>
<g id="a_Node000004"><a xlink:title=" ">
<polygon fill="white" stroke="#bfbfbf" points="84.62,-223 29.62,-223 29.62,-201.5 84.62,-201.5 84.62,-223"/>
<text text-anchor="middle" x="57.12" y="-208.55" font-family="Arial" font-size="11.00">QObject</text>
</a>
</g>
</g>
<!-- Node4&#45;&gt;Node3 -->
<g id="edge3_Node000003_Node000004" class="edge">
<title>Node4&#45;&gt;Node3</title>
<g id="a_edge3_Node000003_Node000004"><a xlink:title=" ">
<path fill="none" stroke="#63b8ff" d="M57.12,-190.22C57.12,-181.51 57.12,-171.81 57.12,-164.76"/>
<polygon fill="#63b8ff" stroke="#63b8ff" points="53.63,-190.15 57.12,-200.15 60.63,-190.15 53.63,-190.15"/>
</a>
</g>
</g>
<!-- Node5 -->
<g id="Node000005" class="node">
<title>Node5</title>
<g id="a_Node000005"><a xlink:title=" ">
<polygon fill="white" stroke="#bfbfbf" points="256.25,-106 130,-106 130,-71 256.25,-71 256.25,-106"/>
<text text-anchor="start" x="138" y="-91.55" font-family="Arial" font-size="11.00">vector&lt; ElevationChart</text>
<text text-anchor="middle" x="193.12" y="-78.05" font-family="Arial" font-size="11.00">::ElevationPoint &gt;</text>
</a>
</g>
</g>
<!-- Node5&#45;&gt;Node1 -->
<g id="edge4_Node000001_Node000005" class="edge">
<title>Node5&#45;&gt;Node1</title>
<g id="a_edge4_Node000001_Node000005"><a xlink:title=" ">
<path fill="none" stroke="#9a32cd" stroke-dasharray="5,2" d="M181.18,-60.88C175.1,-47.35 168.08,-31.71 163.63,-21.78"/>
<polygon fill="#9a32cd" stroke="#9a32cd" points="178.29,-62 185.58,-69.69 184.68,-59.13 178.29,-62"/>
</a>
</g>
<text text-anchor="middle" x="204.12" y="-42.55" font-family="Arial" font-size="11.00" fill="grey"> m_storage</text>
</g>
</g>
</svg>
</svg>

<style type='text/css'>
<![CDATA[
[data-mouse-over-selected='false'] { opacity: 0.7; }
[data-mouse-over-selected='true']  { opacity: 1.0; }
]]>
</style>
<script type="application/ecmascript"><![CDATA[
document.addEventListener('DOMContentLoaded', (event) => {
  highlightEdges();
  highlightAdjacentNodes();
});
]]></script>
</svg>
