<?xml version="1.0" encoding="UTF-8" standalone="no"?>
<!DOCTYPE svg PUBLIC "-//W3C//DTD SVG 1.1//EN"
 "http://www.w3.org/Graphics/SVG/1.1/DTD/svg11.dtd">
<!-- Generated by graphviz version 8.0.5 (0)
 -->
<!-- Title: API Pages: 1 -->
<svg width="1123pt" height="507pt"
 viewBox="0.00 0.00 1123.00 506.50" xmlns="http://www.w3.org/2000/svg" xmlns:xlink="http://www.w3.org/1999/xlink">
<g id="graph0" class="graph" transform="scale(1 1) rotate(0) translate(4 502.5)">
<title>API</title>
<!-- Node1 -->
<g id="Node000001" class="node">
<title>Node1</title>
<g id="a_Node000001"><a xlink:title="Публичный интерфейс (C++) для виджета профиля высот.">
<polygon fill="#999999" stroke="#666666" points="1115,-403.25 1081,-403.25 1081,-381.75 1115,-381.75 1115,-403.25"/>
<text text-anchor="middle" x="1098" y="-388.8" font-family="Arial" font-size="11.00">API</text>
</a>
</g>
</g>
<!-- Node2 -->
<g id="Node000002" class="node">
<title>Node2</title>
<g id="a_Node000002"><a xlink:title=" ">
<polygon fill="white" stroke="#bfbfbf" points="55,-419.25 0,-419.25 0,-397.75 55,-397.75 55,-419.25"/>
<text text-anchor="middle" x="27.5" y="-404.8" font-family="Arial" font-size="11.00">QObject</text>
</a>
</g>
</g>
<!-- Node2&#45;&gt;Node1 -->
<g id="edge1_Node000001_Node000002" class="edge">
<title>Node2&#45;&gt;Node1</title>
<g id="a_edge1_Node000001_Node000002"><a xlink:title=" ">
<path fill="none" stroke="#63b8ff" d="M42.12,-428.42C62.04,-454.93 101.83,-498.5 148.12,-498.5 148.12,-498.5 148.12,-498.5 941.62,-498.5 1008.57,-498.5 1067.93,-430.53 1088.93,-403.44"/>
<polygon fill="#63b8ff" stroke="#63b8ff" points="44.4,-426.59 35.71,-420.54 38.72,-430.69 44.4,-426.59"/>
</a>
</g>
</g>
<!-- Node6 -->
<g id="Node000006" class="node">
<title>Node6</title>
<g id="a_Node000006"><a xlink:href="../../df/d15/classElevationChart_1_1Researcher.html" target="_top" xlink:title=" ">
<polygon fill="white" stroke="#bfbfbf" points="296.5,-419.25 224.25,-419.25 224.25,-397.75 296.5,-397.75 296.5,-419.25"/>
<text text-anchor="middle" x="260.38" y="-404.8" font-family="Arial" font-size="11.00">Researcher</text>
</a>
</g>
</g>
<!-- Node2&#45;&gt;Node6 -->
<g id="edge6_Node000006_Node000002" class="edge">
<title>Node2&#45;&gt;Node6</title>
<g id="a_edge6_Node000006_Node000002"><a xlink:title=" ">
<path fill="none" stroke="#63b8ff" d="M66.17,-408.5C109.84,-408.5 181.26,-408.5 223.95,-408.5"/>
<polygon fill="#63b8ff" stroke="#63b8ff" points="66.44,-405 56.44,-408.5 66.44,-412 66.44,-405"/>
</a>
</g>
</g>
<!-- Node12 -->
<g id="Node000012" class="node">
<title>Node12</title>
<g id="a_Node000012"><a xlink:title=" ">
<polygon fill="white" stroke="#bfbfbf" points="206.25,-340.25 92,-340.25 92,-318.75 206.25,-318.75 206.25,-340.25"/>
<text text-anchor="middle" x="149.12" y="-325.8" font-family="Arial" font-size="11.00">QAbstractItemModel</text>
</a>
</g>
</g>
<!-- Node2&#45;&gt;Node12 -->
<g id="edge13_Node000012_Node000002" class="edge">
<title>Node2&#45;&gt;Node12</title>
<g id="a_edge13_Node000012_Node000002"><a xlink:title=" ">
<path fill="none" stroke="#63b8ff" d="M54.38,-391.41C77.71,-376 111.33,-353.8 131.33,-340.59"/>
<polygon fill="#63b8ff" stroke="#63b8ff" points="52.8,-388.92 46.39,-397.35 56.66,-394.76 52.8,-388.92"/>
</a>
</g>
</g>
<!-- Node3 -->
<g id="Node000003" class="node">
<title>Node3</title>
<g id="a_Node000003"><a xlink:href="../../d2/d6b/classElevationChart_1_1ElevationChartItem.html" target="_top" xlink:title="Основной класс библиотеки.">
<polygon fill="white" stroke="#666666" points="994.75,-272.25 886.5,-272.25 886.5,-250.75 994.75,-250.75 994.75,-272.25"/>
<text text-anchor="middle" x="940.62" y="-257.8" font-family="Arial" font-size="11.00">ElevationChartItem</text>
</a>
</g>
</g>
<!-- Node3&#45;&gt;Node1 -->
<g id="edge2_Node000001_Node000003" class="edge">
<title>Node3&#45;&gt;Node1</title>
<g id="a_edge2_Node000001_Node000003"><a xlink:title=" ">
<path fill="none" stroke="#9a32cd" stroke-dasharray="5,2" d="M962.88,-279.42C995.47,-306.9 1056.87,-358.66 1083.79,-381.36"/>
<polygon fill="#9a32cd" stroke="#9a32cd" points="965.77,-276.44 955.87,-272.67 961.26,-281.79 965.77,-276.44"/>
</a>
</g>
<text text-anchor="middle" x="1037.88" y="-363.55" font-family="Arial" font-size="11.00" fill="grey"> m_source</text>
</g>
<!-- Node4 -->
<g id="Node000004" class="node">
<title>Node4</title>
<g id="a_Node000004"><a xlink:title=" ">
<polygon fill="white" stroke="#bfbfbf" points="735.75,-295.25 630.5,-295.25 630.5,-273.75 735.75,-273.75 735.75,-295.25"/>
<text text-anchor="middle" x="683.12" y="-280.8" font-family="Arial" font-size="11.00">ScenegraphObject</text>
</a>
</g>
</g>
<!-- Node4&#45;&gt;Node3 -->
<g id="edge3_Node000003_Node000004" class="edge">
<title>Node4&#45;&gt;Node3</title>
<g id="a_edge3_Node000003_Node000004"><a xlink:title=" ">
<path fill="none" stroke="#63b8ff" d="M746.99,-278.84C789.78,-274.99 845.78,-269.95 886.37,-266.29"/>
<polygon fill="#63b8ff" stroke="#63b8ff" points="746.78,-275.44 737.14,-279.82 747.41,-282.41 746.78,-275.44"/>
</a>
</g>
</g>
<!-- Node5 -->
<g id="Node000005" class="node">
<title>Node5</title>
<g id="a_Node000005"><a xlink:title=" ">
<polygon fill="white" stroke="#bfbfbf" points="772.5,-256 593.75,-256 593.75,-221 772.5,-221 772.5,-256"/>
<text text-anchor="start" x="601.75" y="-241.55" font-family="Arial" font-size="11.00">map&lt; NodeTypes, QSGGeometry</text>
<text text-anchor="middle" x="683.12" y="-228.05" font-family="Arial" font-size="11.00">Node * &gt;</text>
</a>
</g>
</g>
<!-- Node5&#45;&gt;Node3 -->
<g id="edge4_Node000003_Node000005" class="edge">
<title>Node5&#45;&gt;Node3</title>
<g id="a_edge4_Node000003_Node000005"><a xlink:title=" ">
<path fill="none" stroke="#9a32cd" stroke-dasharray="5,2" d="M783.72,-242.92C811.24,-244.63 841.07,-246.93 868.5,-250 874.22,-250.64 880.18,-251.42 886.11,-252.27"/>
<polygon fill="#9a32cd" stroke="#9a32cd" points="784.09,-239.38 773.9,-242.27 783.67,-246.36 784.09,-239.38"/>
</a>
</g>
<text text-anchor="middle" x="829.5" y="-252.55" font-family="Arial" font-size="11.00" fill="grey"> m_tree</text>
</g>
<!-- Node6&#45;&gt;Node3 -->
<g id="edge5_Node000003_Node000006" class="edge">
<title>Node6&#45;&gt;Node3</title>
<g id="a_edge5_Node000003_Node000006"><a xlink:title=" ">
<path fill="none" stroke="#9a32cd" stroke-dasharray="5,2" d="M307.34,-410.9C432.59,-416.56 776.67,-426.08 868.5,-365.5 903.92,-342.13 926.5,-294.46 935.36,-272.73"/>
<polygon fill="#9a32cd" stroke="#9a32cd" points="307.76,-407.37 297.61,-410.4 307.44,-414.36 307.76,-407.37"/>
</a>
</g>
<text text-anchor="middle" x="540.88" y="-417.55" font-family="Arial" font-size="11.00" fill="grey"> m_researcher</text>
</g>
<!-- Node7 -->
<g id="Node000007" class="node">
<title>Node7</title>
<g id="a_Node000007"><a xlink:href="../../d6/d1e/classElevationChart_1_1Bounds.html" target="_top" xlink:title="Класс&#45;гаджет, хранящий предельные значения осей X и Y.">
<polygon fill="white" stroke="#666666" points="709.5,-203.25 656.75,-203.25 656.75,-181.75 709.5,-181.75 709.5,-203.25"/>
<text text-anchor="middle" x="683.12" y="-188.8" font-family="Arial" font-size="11.00">Bounds</text>
</a>
</g>
</g>
<!-- Node7&#45;&gt;Node3 -->
<g id="edge7_Node000003_Node000007" class="edge">
<title>Node7&#45;&gt;Node3</title>
<g id="a_edge7_Node000003_Node000007"><a xlink:title=" ">
<path fill="none" stroke="#9a32cd" stroke-dasharray="5,2" d="M720.25,-195.64C758.01,-199.66 818.59,-208.22 868.5,-225 887.44,-231.37 907.58,-242.12 921.57,-250.31"/>
<polygon fill="#9a32cd" stroke="#9a32cd" points="721.07,-192.1 710.77,-194.58 720.37,-199.07 721.07,-192.1"/>
</a>
</g>
<text text-anchor="middle" x="829.5" y="-227.55" font-family="Arial" font-size="11.00" fill="grey"> m_bounds</text>
</g>
<!-- Node8 -->
<g id="Node000008" class="node">
<title>Node8</title>
<g id="a_Node000008"><a xlink:href="../../de/d39/classElevationChart_1_1Route.html" target="_top" xlink:title="Набор последовательных точек на карте.">
<polygon fill="white" stroke="#666666" points="705.75,-375.25 660.5,-375.25 660.5,-353.75 705.75,-353.75 705.75,-375.25"/>
<text text-anchor="middle" x="683.12" y="-360.8" font-family="Arial" font-size="11.00">Route</text>
</a>
</g>
</g>
<!-- Node8&#45;&gt;Node3 -->
<g id="edge8_Node000003_Node000008" class="edge">
<title>Node8&#45;&gt;Node3</title>
<g id="a_edge8_Node000003_Node000008"><a xlink:title=" ">
<path fill="none" stroke="#9a32cd" stroke-dasharray="5,2" d="M716.46,-361.4C754.55,-356.73 818.93,-345.6 868.5,-320.5 893.12,-308.03 916.76,-285.69 929.63,-272.36"/>
<polygon fill="#9a32cd" stroke="#9a32cd" points="716.52,-357.98 706.98,-362.6 717.32,-364.94 716.52,-357.98"/>
</a>
</g>
<text text-anchor="middle" x="829.5" y="-350.55" font-family="Arial" font-size="11.00" fill="grey"> m_route</text>
</g>
<!-- Node9 -->
<g id="Node000009" class="node">
<title>Node9</title>
<g id="a_Node000009"><a xlink:title=" ">
<polygon fill="white" stroke="#bfbfbf" points="464.38,-380 338.12,-380 338.12,-345 464.38,-345 464.38,-380"/>
<text text-anchor="start" x="346.12" y="-365.55" font-family="Arial" font-size="11.00">vector&lt; ElevationChart</text>
<text text-anchor="middle" x="401.25" y="-352.05" font-family="Arial" font-size="11.00">::RoutePoint &gt;</text>
</a>
</g>
</g>
<!-- Node9&#45;&gt;Node8 -->
<g id="edge9_Node000008_Node000009" class="edge">
<title>Node9&#45;&gt;Node8</title>
<g id="a_edge9_Node000008_Node000009"><a xlink:title=" ">
<path fill="none" stroke="#9a32cd" stroke-dasharray="5,2" d="M475.52,-363.02C536.96,-363.46 620.77,-364.06 660.08,-364.34"/>
<polygon fill="#9a32cd" stroke="#9a32cd" points="475.74,-359.52 465.71,-362.95 475.69,-366.52 475.74,-359.52"/>
</a>
</g>
<text text-anchor="middle" x="540.88" y="-366.55" font-family="Arial" font-size="11.00" fill="grey"> m_vec</text>
</g>
<!-- Node10 -->
<g id="Node000010" class="node">
<title>Node10</title>
<g id="a_Node000010"><a xlink:href="../../d6/de1/classElevationChart_1_1RouteModel.html" target="_top" xlink:title="Модель точек пути для профиля высот.">
<polygon fill="white" stroke="#666666" points="720.38,-163.25 645.88,-163.25 645.88,-141.75 720.38,-141.75 720.38,-163.25"/>
<text text-anchor="middle" x="683.12" y="-148.8" font-family="Arial" font-size="11.00">RouteModel</text>
</a>
</g>
</g>
<!-- Node10&#45;&gt;Node3 -->
<g id="edge10_Node000003_Node000010" class="edge">
<title>Node10&#45;&gt;Node3</title>
<g id="a_edge10_Node000003_Node000010"><a xlink:title=" ">
<path fill="none" stroke="#9a32cd" stroke-dasharray="5,2" d="M731.09,-153.78C770,-156.6 825.65,-164.81 868.5,-188 896.92,-203.38 920.88,-234.04 932.36,-250.48"/>
<polygon fill="#9a32cd" stroke="#9a32cd" points="731.79,-150.25 721.59,-153.12 731.35,-157.24 731.79,-150.25"/>
</a>
</g>
<text text-anchor="middle" x="829.5" y="-190.55" font-family="Arial" font-size="11.00" fill="grey"> m_model</text>
</g>
<!-- Node11 -->
<g id="Node000011" class="node">
<title>Node11</title>
<g id="a_Node000011"><a xlink:title=" ">
<polygon fill="white" stroke="#bfbfbf" points="456.12,-221.25 346.38,-221.25 346.38,-199.75 456.12,-199.75 456.12,-221.25"/>
<text text-anchor="middle" x="401.25" y="-206.8" font-family="Arial" font-size="11.00">QAbstractListModel</text>
</a>
</g>
</g>
<!-- Node11&#45;&gt;Node10 -->
<g id="edge11_Node000010_Node000011" class="edge">
<title>Node11&#45;&gt;Node10</title>
<g id="a_edge11_Node000010_Node000011"><a xlink:title=" ">
<path fill="none" stroke="#63b8ff" d="M466.65,-197.15C522.18,-185.65 600.37,-169.44 645.7,-160.05"/>
<polygon fill="#63b8ff" stroke="#63b8ff" points="466.29,-193.86 457.21,-199.32 467.71,-200.71 466.29,-193.86"/>
</a>
</g>
</g>
<!-- Node14 -->
<g id="Node000014" class="node">
<title>Node14</title>
<g id="a_Node000014"><a xlink:href="../../d4/d99/classElevationChart_1_1NotificationModel.html" target="_top" xlink:title="Модель оповещений об ошибках в маршруте.">
<polygon fill="white" stroke="#666666" points="732.38,-335.25 633.88,-335.25 633.88,-313.75 732.38,-313.75 732.38,-335.25"/>
<text text-anchor="middle" x="683.12" y="-320.8" font-family="Arial" font-size="11.00">NotificationModel</text>
</a>
</g>
</g>
<!-- Node11&#45;&gt;Node14 -->
<g id="edge16_Node000014_Node000011" class="edge">
<title>Node11&#45;&gt;Node14</title>
<g id="a_edge16_Node000014_Node000011"><a xlink:title=" ">
<path fill="none" stroke="#63b8ff" d="M466.87,-223.84C474.07,-225.83 481.24,-228.06 488,-230.5 529.03,-245.34 543.76,-244.84 575.75,-274.5 587.15,-285.07 581.15,-295.38 593.75,-304.5 605.35,-312.89 619.87,-317.85 633.76,-320.74"/>
<polygon fill="#63b8ff" stroke="#63b8ff" points="467.9,-220.23 457.34,-221.07 466.12,-227 467.9,-220.23"/>
</a>
</g>
</g>
<!-- Node12&#45;&gt;Node11 -->
<g id="edge12_Node000011_Node000012" class="edge">
<title>Node12&#45;&gt;Node11</title>
<g id="a_edge12_Node000011_Node000012"><a xlink:title=" ">
<path fill="none" stroke="#63b8ff" d="M173.38,-312.25C204.16,-290.2 260.79,-252.3 314.5,-230.5 324.41,-226.48 335.32,-223.16 345.93,-220.46"/>
<polygon fill="#63b8ff" stroke="#63b8ff" points="171.74,-309.84 165.7,-318.54 175.85,-315.51 171.74,-309.84"/>
</a>
</g>
</g>
<!-- Node13 -->
<g id="Node000013" class="node">
<title>Node13</title>
<g id="a_Node000013"><a xlink:title=" ">
<polygon fill="white" stroke="#bfbfbf" points="464.38,-147 338.12,-147 338.12,-112 464.38,-112 464.38,-147"/>
<text text-anchor="start" x="346.12" y="-132.55" font-family="Arial" font-size="11.00">vector&lt; ElevationChart</text>
<text text-anchor="middle" x="401.25" y="-119.05" font-family="Arial" font-size="11.00">::ElevationPoint &gt;</text>
</a>
</g>
</g>
<!-- Node13&#45;&gt;Node3 -->
<g id="edge21_Node000003_Node000013" class="edge">
<title>Node13&#45;&gt;Node3</title>
<g id="a_edge21_Node000003_Node000013"><a xlink:title=" ">
<path fill="none" stroke="#9a32cd" stroke-dasharray="5,2" d="M475.6,-118.1C550.85,-108.57 670.95,-99.4 772.5,-119 817.64,-127.71 832.64,-128.73 868.5,-157.5 901.43,-183.92 925.13,-229.61 934.81,-250.5"/>
<polygon fill="#9a32cd" stroke="#9a32cd" points="475.29,-114.74 465.83,-119.5 476.2,-121.68 475.29,-114.74"/>
</a>
</g>
<text text-anchor="middle" x="683.12" y="-121.55" font-family="Arial" font-size="11.00" fill="grey"> m_profile</text>
</g>
<!-- Node13&#45;&gt;Node10 -->
<g id="edge14_Node000010_Node000013" class="edge">
<title>Node13&#45;&gt;Node10</title>
<g id="a_edge14_Node000010_Node000013"><a xlink:title=" ">
<path fill="none" stroke="#9a32cd" stroke-dasharray="5,2" d="M475.4,-135.51C530.09,-140.01 602.55,-145.96 645.56,-149.5"/>
<polygon fill="#9a32cd" stroke="#9a32cd" points="475.96,-131.96 465.71,-134.63 475.39,-138.94 475.96,-131.96"/>
</a>
</g>
<text text-anchor="middle" x="540.88" y="-146.55" font-family="Arial" font-size="11.00" fill="grey"> m_storage</text>
</g>
<!-- Node14&#45;&gt;Node3 -->
<g id="edge15_Node000003_Node000014" class="edge">
<title>Node14&#45;&gt;Node3</title>
<g id="a_edge15_Node000003_Node000014"><a xlink:title=" ">
<path fill="none" stroke="#9a32cd" stroke-dasharray="5,2" d="M743.01,-313.27C779.39,-305.96 826.91,-295.71 868.5,-284.5 881.28,-281.06 895.17,-276.71 907.25,-272.72"/>
<polygon fill="#9a32cd" stroke="#9a32cd" points="742.7,-309.97 733.58,-315.35 744.07,-316.83 742.7,-309.97"/>
</a>
</g>
<text text-anchor="middle" x="829.5" y="-305.55" font-family="Arial" font-size="11.00" fill="grey"> m_notifications</text>
</g>
<!-- Node15 -->
<g id="Node000015" class="node">
<title>Node15</title>
<g id="a_Node000015"><a xlink:title=" ">
<polygon fill="white" stroke="#bfbfbf" points="488,-274 314.5,-274 314.5,-239 488,-239 488,-274"/>
<text text-anchor="start" x="322.5" y="-259.55" font-family="Arial" font-size="11.00">vector&lt; ElevationChart</text>
<text text-anchor="middle" x="401.25" y="-246.05" font-family="Arial" font-size="11.00">::NotificationModel::Notification &gt;</text>
</a>
</g>
</g>
<!-- Node15&#45;&gt;Node14 -->
<g id="edge17_Node000014_Node000015" class="edge">
<title>Node15&#45;&gt;Node14</title>
<g id="a_edge17_Node000014_Node000015"><a xlink:title=" ">
<path fill="none" stroke="#9a32cd" stroke-dasharray="5,2" d="M498.88,-276.07C524.13,-281.99 551.15,-289.06 575.75,-297 584,-299.66 585.49,-301.87 593.75,-304.5 606.49,-308.56 620.51,-312.13 633.56,-315.09"/>
<polygon fill="#9a32cd" stroke="#9a32cd" points="499.71,-272.44 489.18,-273.6 498.14,-279.26 499.71,-272.44"/>
</a>
</g>
<text text-anchor="middle" x="540.88" y="-299.55" font-family="Arial" font-size="11.00" fill="grey"> m_storage</text>
</g>
<!-- Node16 -->
<g id="Node000016" class="node">
<title>Node16</title>
<g id="a_Node000016"><a xlink:title=" ">
<polygon fill="white" stroke="#bfbfbf" points="464.38,-327 338.12,-327 338.12,-292 464.38,-292 464.38,-327"/>
<text text-anchor="start" x="346.12" y="-312.55" font-family="Arial" font-size="11.00">map&lt; NotificationType,</text>
<text text-anchor="middle" x="401.25" y="-299.05" font-family="Arial" font-size="11.00"> QString &gt;</text>
</a>
</g>
</g>
<!-- Node16&#45;&gt;Node14 -->
<g id="edge18_Node000014_Node000016" class="edge">
<title>Node16&#45;&gt;Node14</title>
<g id="a_edge18_Node000014_Node000016"><a xlink:title=" ">
<path fill="none" stroke="#9a32cd" stroke-dasharray="5,2" d="M475.45,-313.42C525.4,-316.1 590.15,-319.57 633.76,-321.91"/>
<polygon fill="#9a32cd" stroke="#9a32cd" points="475.88,-309.89 465.71,-312.85 475.51,-316.88 475.88,-309.89"/>
</a>
</g>
<text text-anchor="middle" x="540.88" y="-321.55" font-family="Arial" font-size="11.00" fill="grey"> m_dictionary</text>
</g>
<!-- Node17 -->
<g id="Node000017" class="node">
<title>Node17</title>
<g id="a_Node000017"><a xlink:href="../../dc/da9/classElevationChart_1_1Metrics.html" target="_top" xlink:title="Класс&#45;гаджет, хранящий входные данные для расчета коррекции по ЛТХ.">
<polygon fill="white" stroke="#666666" points="708.38,-74.25 657.88,-74.25 657.88,-52.75 708.38,-52.75 708.38,-74.25"/>
<text text-anchor="middle" x="683.12" y="-59.8" font-family="Arial" font-size="11.00">Metrics</text>
</a>
</g>
</g>
<!-- Node17&#45;&gt;Node3 -->
<g id="edge19_Node000003_Node000017" class="edge">
<title>Node17&#45;&gt;Node3</title>
<g id="a_edge19_Node000003_Node000017"><a xlink:title=" ">
<path fill="none" stroke="#9a32cd" stroke-dasharray="5,2" d="M719.42,-57.23C759.68,-52.14 825.47,-50.39 868.5,-83 924.33,-125.31 936.43,-218.32 938.97,-250.38"/>
<polygon fill="#9a32cd" stroke="#9a32cd" points="719.2,-53.86 709.79,-58.72 720.18,-60.79 719.2,-53.86"/>
</a>
</g>
<text text-anchor="middle" x="829.5" y="-86.55" font-family="Arial" font-size="11.00" fill="grey"> m_metrics</text>
</g>
<!-- Node18 -->
<g id="Node000018" class="node">
<title>Node18</title>
<g id="a_Node000018"><a xlink:title=" ">
<polygon fill="white" stroke="#bfbfbf" points="757.12,-35 609.12,-35 609.12,0 757.12,0 757.12,-35"/>
<text text-anchor="start" x="617.12" y="-20.55" font-family="Arial" font-size="11.00">unique_ptr&lt; ElevationChart</text>
<text text-anchor="middle" x="683.12" y="-7.05" font-family="Arial" font-size="11.00">::IElevationDataProvider &gt;</text>
</a>
</g>
</g>
<!-- Node18&#45;&gt;Node3 -->
<g id="edge20_Node000003_Node000018" class="edge">
<title>Node18&#45;&gt;Node3</title>
<g id="a_edge20_Node000003_Node000018"><a xlink:title=" ">
<path fill="none" stroke="#9a32cd" stroke-dasharray="5,2" d="M767.98,-8.5C802.54,-9.2 840.88,-16.26 868.5,-39 935.82,-94.42 940.23,-213.69 939.92,-250.47"/>
<polygon fill="#9a32cd" stroke="#9a32cd" points="768.39,-5 758.39,-8.47 768.38,-12 768.39,-5"/>
</a>
</g>
<text text-anchor="middle" x="829.5" y="-42.55" font-family="Arial" font-size="11.00" fill="grey"> m_provider</text>
</g>
<!-- Node19 -->
<g id="Node000019" class="node">
<title>Node19</title>
<g id="a_Node000019"><a xlink:title=" ">
<polygon fill="white" stroke="#bfbfbf" points="746.25,-470 620,-470 620,-435 746.25,-435 746.25,-470"/>
<text text-anchor="start" x="628" y="-455.55" font-family="Arial" font-size="11.00">vector&lt; ElevationChart</text>
<text text-anchor="middle" x="683.12" y="-442.05" font-family="Arial" font-size="11.00">::IntersectionPoint &gt;</text>
</a>
</g>
</g>
<!-- Node19&#45;&gt;Node3 -->
<g id="edge22_Node000003_Node000019" class="edge">
<title>Node19&#45;&gt;Node3</title>
<g id="a_edge22_Node000003_Node000019"><a xlink:title=" ">
<path fill="none" stroke="#9a32cd" stroke-dasharray="5,2" d="M757.11,-455.37C793.9,-453.24 837.22,-444.82 868.5,-420.5 917.91,-382.07 933.92,-301.83 938.24,-272.52"/>
<polygon fill="#9a32cd" stroke="#9a32cd" points="757.26,-451.91 747.42,-455.83 757.56,-458.9 757.26,-451.91"/>
</a>
</g>
<text text-anchor="middle" x="829.5" y="-453.55" font-family="Arial" font-size="11.00" fill="grey"> m_intersections</text>
</g>
</g>
</svg>
