<?xml version="1.0" encoding="UTF-8" standalone="no"?>
<!DOCTYPE svg PUBLIC "-//W3C//DTD SVG 1.1//EN"
 "http://www.w3.org/Graphics/SVG/1.1/DTD/svg11.dtd">
<!-- Generated by graphviz version 8.0.5 (0)
 -->
<!-- Title: API Pages: 1 -->
<svg width="1019pt" height="411pt"
 viewBox="0.00 0.00 1019.00 410.75" xmlns="http://www.w3.org/2000/svg" xmlns:xlink="http://www.w3.org/1999/xlink">
<g id="graph0" class="graph" transform="scale(1 1) rotate(0) translate(4 406.75)">
<title>API</title>
<!-- Node1 -->
<g id="Node000001" class="node">
<title>Node1</title>
<g id="a_Node000001"><a xlink:title="Публичный интерфейс (C++) для виджета профиля высот.">
<polygon fill="#999999" stroke="#666666" points="1011,-324.5 977,-324.5 977,-303 1011,-303 1011,-324.5"/>
<text text-anchor="middle" x="994" y="-310.05" font-family="Arial" font-size="11.00">API</text>
</a>
</g>
</g>
<!-- Node2 -->
<g id="Node000002" class="node">
<title>Node2</title>
<g id="a_Node000002"><a xlink:title=" ">
<polygon fill="white" stroke="#bfbfbf" points="55,-322.5 0,-322.5 0,-301 55,-301 55,-322.5"/>
<text text-anchor="middle" x="27.5" y="-308.05" font-family="Arial" font-size="11.00">QObject</text>
</a>
</g>
</g>
<!-- Node2&#45;&gt;Node1 -->
<g id="edge1_Node000001_Node000002" class="edge">
<title>Node2&#45;&gt;Node1</title>
<g id="a_edge1_Node000001_Node000002"><a xlink:title=" ">
<path fill="none" stroke="#63b8ff" d="M41.81,-331.54C61.58,-358.31 101.44,-402.75 148.12,-402.75 148.12,-402.75 148.12,-402.75 837.62,-402.75 899.8,-402.75 959.66,-348.43 982.87,-324.66"/>
<polygon fill="#63b8ff" stroke="#63b8ff" points="44.32,-330.03 35.68,-323.91 38.62,-334.09 44.32,-330.03"/>
</a>
</g>
</g>
<!-- Node5 -->
<g id="Node000005" class="node">
<title>Node5</title>
<g id="a_Node000005"><a xlink:href="../../d7/d4d/classQQuickItem.html" target="_top" xlink:title=" ">
<polygon fill="white" stroke="#bfbfbf" points="185.25,-322.5 113,-322.5 113,-301 185.25,-301 185.25,-322.5"/>
<text text-anchor="middle" x="149.12" y="-308.05" font-family="Arial" font-size="11.00">QQuickItem</text>
</a>
</g>
</g>
<!-- Node2&#45;&gt;Node5 -->
<g id="edge5_Node000005_Node000002" class="edge">
<title>Node2&#45;&gt;Node5</title>
<g id="a_edge5_Node000005_Node000002"><a xlink:title=" ">
<path fill="none" stroke="#63b8ff" d="M66.23,-311.75C81.11,-311.75 98.1,-311.75 112.74,-311.75"/>
<polygon fill="#63b8ff" stroke="#63b8ff" points="66.35,-308.25 56.35,-311.75 66.35,-315.25 66.35,-308.25"/>
</a>
</g>
</g>
<!-- Node13 -->
<g id="Node000013" class="node">
<title>Node13</title>
<g id="a_Node000013"><a xlink:href="../../d0/d5a/classQAbstractItemModel.html" target="_top" xlink:title=" ">
<polygon fill="white" stroke="#bfbfbf" points="206.25,-282.5 92,-282.5 92,-261 206.25,-261 206.25,-282.5"/>
<text text-anchor="middle" x="149.12" y="-268.05" font-family="Arial" font-size="11.00">QAbstractItemModel</text>
</a>
</g>
</g>
<!-- Node2&#45;&gt;Node13 -->
<g id="edge14_Node000013_Node000002" class="edge">
<title>Node2&#45;&gt;Node13</title>
<g id="a_edge14_Node000013_Node000002"><a xlink:title=" ">
<path fill="none" stroke="#63b8ff" d="M65.7,-299.31C81.31,-294.09 99.32,-288.07 114.52,-282.99"/>
<polygon fill="#63b8ff" stroke="#63b8ff" points="64.72,-296.28 56.35,-302.77 66.94,-302.92 64.72,-296.28"/>
</a>
</g>
</g>
<!-- Node3 -->
<g id="Node000003" class="node">
<title>Node3</title>
<g id="a_Node000003"><a xlink:href="../../d2/d6b/classElevationChart_1_1ElevationChartItem.html" target="_top" xlink:title="Основной класс библиотеки.">
<polygon fill="white" stroke="#666666" points="890.75,-213.5 782.5,-213.5 782.5,-192 890.75,-192 890.75,-213.5"/>
<text text-anchor="middle" x="836.62" y="-199.05" font-family="Arial" font-size="11.00">ElevationChartItem</text>
</a>
</g>
</g>
<!-- Node3&#45;&gt;Node1 -->
<g id="edge2_Node000001_Node000003" class="edge">
<title>Node3&#45;&gt;Node1</title>
<g id="a_edge2_Node000001_Node000003"><a xlink:title=" ">
<path fill="none" stroke="#9a32cd" stroke-dasharray="5,2" d="M861.92,-220.11C894.27,-243.21 950.53,-283.41 977.6,-302.75"/>
<polygon fill="#9a32cd" stroke="#9a32cd" points="864.26,-216.76 854.09,-213.8 860.19,-222.46 864.26,-216.76"/>
</a>
</g>
<text text-anchor="middle" x="933.88" y="-289.8" font-family="Arial" font-size="11.00" fill="grey"> m_source</text>
</g>
<!-- Node4 -->
<g id="Node000004" class="node">
<title>Node4</title>
<g id="a_Node000004"><a xlink:href="../../d6/d6b/classSG_1_1ScenegraphObject.html" target="_top" xlink:title="Базовый класс для объектов Qt Quick Scenegraph.">
<polygon fill="white" stroke="#666666" points="492.75,-321.5 387.5,-321.5 387.5,-300 492.75,-300 492.75,-321.5"/>
<text text-anchor="middle" x="440.12" y="-307.05" font-family="Arial" font-size="11.00">ScenegraphObject</text>
</a>
</g>
</g>
<!-- Node4&#45;&gt;Node3 -->
<g id="edge3_Node000003_Node000004" class="edge">
<title>Node4&#45;&gt;Node3</title>
<g id="a_edge3_Node000003_Node000004"><a xlink:title=" ">
<path fill="none" stroke="#63b8ff" d="M503.85,-315.63C572.55,-318.03 683.69,-313.02 764.5,-265.75 789.27,-251.26 813.23,-227.36 826.03,-213.54"/>
<polygon fill="#63b8ff" stroke="#63b8ff" points="504.34,-312.1 494.2,-315.19 504.05,-319.1 504.34,-312.1"/>
</a>
</g>
</g>
<!-- Node5&#45;&gt;Node4 -->
<g id="edge4_Node000004_Node000005" class="edge">
<title>Node5&#45;&gt;Node4</title>
<g id="a_edge4_Node000004_Node000005"><a xlink:title=" ">
<path fill="none" stroke="#63b8ff" d="M196.47,-311.59C248.5,-311.41 332.73,-311.12 387.01,-310.93"/>
<polygon fill="#63b8ff" stroke="#63b8ff" points="196.55,-308.09 186.56,-311.63 196.57,-315.09 196.55,-308.09"/>
</a>
</g>
</g>
<!-- Node6 -->
<g id="Node000006" class="node">
<title>Node6</title>
<g id="a_Node000006"><a xlink:title=" ">
<polygon fill="white" stroke="#bfbfbf" points="689.5,-243.25 510.75,-243.25 510.75,-208.25 689.5,-208.25 689.5,-243.25"/>
<text text-anchor="start" x="518.75" y="-228.8" font-family="Arial" font-size="11.00">map&lt; NodeTypes, QSGGeometry</text>
<text text-anchor="middle" x="600.12" y="-215.3" font-family="Arial" font-size="11.00">Node * &gt;</text>
</a>
</g>
</g>
<!-- Node6&#45;&gt;Node3 -->
<g id="edge6_Node000003_Node000006" class="edge">
<title>Node6&#45;&gt;Node3</title>
<g id="a_edge6_Node000003_Node000006"><a xlink:title=" ">
<path fill="none" stroke="#9a32cd" stroke-dasharray="5,2" d="M700.45,-216.01C728.52,-213.25 758,-210.36 782.23,-207.99"/>
<polygon fill="#9a32cd" stroke="#9a32cd" points="700.39,-212.6 690.78,-217.05 701.07,-219.56 700.39,-212.6"/>
</a>
</g>
<text text-anchor="middle" x="736" y="-217.8" font-family="Arial" font-size="11.00" fill="grey"> m_tree</text>
</g>
<!-- Node7 -->
<g id="Node000007" class="node">
<title>Node7</title>
<g id="a_Node000007"><a xlink:href="../../d8/d37/classSG_1_1BasicPalette.html" target="_top" xlink:title="Простейшая палитра цветов.">
<polygon fill="white" stroke="#666666" points="638.12,-190.5 562.12,-190.5 562.12,-169 638.12,-169 638.12,-190.5"/>
<text text-anchor="middle" x="600.12" y="-176.05" font-family="Arial" font-size="11.00">BasicPalette</text>
</a>
</g>
</g>
<!-- Node7&#45;&gt;Node3 -->
<g id="edge7_Node000003_Node000007" class="edge">
<title>Node7&#45;&gt;Node3</title>
<g id="a_edge7_Node000003_Node000007"><a xlink:title=" ">
<path fill="none" stroke="#9a32cd" stroke-dasharray="5,2" d="M649.1,-182.53C681.7,-184.64 725.77,-187.91 764.5,-192.25 770.21,-192.89 776.16,-193.64 782.08,-194.43"/>
<polygon fill="#9a32cd" stroke="#9a32cd" points="649.71,-179 639.5,-181.86 649.26,-185.99 649.71,-179"/>
</a>
</g>
<text text-anchor="middle" x="736" y="-194.8" font-family="Arial" font-size="11.00" fill="grey"> m_palette</text>
</g>
<!-- Node8 -->
<g id="Node000008" class="node">
<title>Node8</title>
<g id="a_Node000008"><a xlink:href="../../d6/d1e/classElevationChart_1_1Bounds.html" target="_top" xlink:title="Класс&#45;гаджет, хранящий предельные значения осей X и Y.">
<polygon fill="white" stroke="#666666" points="626.5,-150.5 573.75,-150.5 573.75,-129 626.5,-129 626.5,-150.5"/>
<text text-anchor="middle" x="600.12" y="-136.05" font-family="Arial" font-size="11.00">Bounds</text>
</a>
</g>
</g>
<!-- Node8&#45;&gt;Node3 -->
<g id="edge8_Node000003_Node000008" class="edge">
<title>Node8&#45;&gt;Node3</title>
<g id="a_edge8_Node000003_Node000008"><a xlink:title=" ">
<path fill="none" stroke="#9a32cd" stroke-dasharray="5,2" d="M637.49,-143.55C671.04,-147.7 721.95,-155.65 764.5,-169.25 782.44,-174.99 801.71,-184.27 815.66,-191.61"/>
<polygon fill="#9a32cd" stroke="#9a32cd" points="638.16,-139.99 627.82,-142.29 637.33,-146.94 638.16,-139.99"/>
</a>
</g>
<text text-anchor="middle" x="736" y="-171.8" font-family="Arial" font-size="11.00" fill="grey"> m_bounds</text>
</g>
<!-- Node9 -->
<g id="Node000009" class="node">
<title>Node9</title>
<g id="a_Node000009"><a xlink:href="../../de/d39/classElevationChart_1_1Route.html" target="_top" xlink:title="Набор последовательных точек на карте.">
<polygon fill="white" stroke="#666666" points="622.75,-61.5 577.5,-61.5 577.5,-40 622.75,-40 622.75,-61.5"/>
<text text-anchor="middle" x="600.12" y="-47.05" font-family="Arial" font-size="11.00">Route</text>
</a>
</g>
</g>
<!-- Node9&#45;&gt;Node3 -->
<g id="edge9_Node000003_Node000009" class="edge">
<title>Node9&#45;&gt;Node3</title>
<g id="a_edge9_Node000003_Node000009"><a xlink:title=" ">
<path fill="none" stroke="#9a32cd" stroke-dasharray="5,2" d="M633.83,-46.31C669.17,-43.27 725.64,-43.75 764.5,-70.25 808.07,-99.96 827.17,-165.28 833.28,-191.52"/>
<polygon fill="#9a32cd" stroke="#9a32cd" points="633.74,-42.9 624.14,-47.39 634.44,-49.86 633.74,-42.9"/>
</a>
</g>
<text text-anchor="middle" x="736" y="-73.8" font-family="Arial" font-size="11.00" fill="grey"> m_route</text>
</g>
<!-- Node10 -->
<g id="Node000010" class="node">
<title>Node10</title>
<g id="a_Node000010"><a xlink:title=" ">
<polygon fill="white" stroke="#bfbfbf" points="369.5,-68.25 243.25,-68.25 243.25,-33.25 369.5,-33.25 369.5,-68.25"/>
<text text-anchor="start" x="251.25" y="-53.8" font-family="Arial" font-size="11.00">vector&lt; ElevationChart</text>
<text text-anchor="middle" x="306.38" y="-40.3" font-family="Arial" font-size="11.00">::RoutePoint &gt;</text>
</a>
</g>
</g>
<!-- Node10&#45;&gt;Node9 -->
<g id="edge10_Node000009_Node000010" class="edge">
<title>Node10&#45;&gt;Node9</title>
<g id="a_edge10_Node000009_Node000010"><a xlink:title=" ">
<path fill="none" stroke="#9a32cd" stroke-dasharray="5,2" d="M380.93,-50.75C445.7,-50.75 535.92,-50.75 577.08,-50.75"/>
<polygon fill="#9a32cd" stroke="#9a32cd" points="380.96,-47.25 370.96,-50.75 380.96,-54.25 380.96,-47.25"/>
</a>
</g>
<text text-anchor="middle" x="440.12" y="-53.8" font-family="Arial" font-size="11.00" fill="grey"> m_vec</text>
</g>
<!-- Node11 -->
<g id="Node000011" class="node">
<title>Node11</title>
<g id="a_Node000011"><a xlink:href="../../d6/de1/classElevationChart_1_1RouteModel.html" target="_top" xlink:title="Модель точек пути для профиля высот.">
<polygon fill="white" stroke="#666666" points="637.38,-282.5 562.88,-282.5 562.88,-261 637.38,-261 637.38,-282.5"/>
<text text-anchor="middle" x="600.12" y="-268.05" font-family="Arial" font-size="11.00">RouteModel</text>
</a>
</g>
</g>
<!-- Node11&#45;&gt;Node3 -->
<g id="edge11_Node000003_Node000011" class="edge">
<title>Node11&#45;&gt;Node3</title>
<g id="a_edge11_Node000003_Node000011"><a xlink:title=" ">
<path fill="none" stroke="#9a32cd" stroke-dasharray="5,2" d="M648.41,-262.96C681.41,-256.22 726.2,-245.86 764.5,-232.75 780.48,-227.28 797.96,-219.93 811.59,-213.87"/>
<polygon fill="#9a32cd" stroke="#9a32cd" points="647.82,-259.71 638.71,-265.1 649.2,-266.57 647.82,-259.71"/>
</a>
</g>
<text text-anchor="middle" x="736" y="-250.8" font-family="Arial" font-size="11.00" fill="grey"> m_model</text>
</g>
<!-- Node12 -->
<g id="Node000012" class="node">
<title>Node12</title>
<g id="a_Node000012"><a xlink:href="../../d5/d2d/classQAbstractListModel.html" target="_top" xlink:title=" ">
<polygon fill="white" stroke="#bfbfbf" points="361.25,-282.5 251.5,-282.5 251.5,-261 361.25,-261 361.25,-282.5"/>
<text text-anchor="middle" x="306.38" y="-268.05" font-family="Arial" font-size="11.00">QAbstractListModel</text>
</a>
</g>
</g>
<!-- Node12&#45;&gt;Node11 -->
<g id="edge12_Node000011_Node000012" class="edge">
<title>Node12&#45;&gt;Node11</title>
<g id="a_edge12_Node000011_Node000012"><a xlink:title=" ">
<path fill="none" stroke="#63b8ff" d="M372.21,-271.75C430.86,-271.75 515.13,-271.75 562.74,-271.75"/>
<polygon fill="#63b8ff" stroke="#63b8ff" points="372.57,-268.25 362.57,-271.75 372.57,-275.25 372.57,-268.25"/>
</a>
</g>
</g>
<!-- Node13&#45;&gt;Node12 -->
<g id="edge13_Node000012_Node000013" class="edge">
<title>Node13&#45;&gt;Node12</title>
<g id="a_edge13_Node000012_Node000013"><a xlink:title=" ">
<path fill="none" stroke="#63b8ff" d="M217.29,-271.75C228.55,-271.75 240.11,-271.75 251,-271.75"/>
<polygon fill="#63b8ff" stroke="#63b8ff" points="217.61,-268.25 207.61,-271.75 217.61,-275.25 217.61,-268.25"/>
</a>
</g>
</g>
<!-- Node14 -->
<g id="Node000014" class="node">
<title>Node14</title>
<g id="a_Node000014"><a xlink:title=" ">
<polygon fill="white" stroke="#bfbfbf" points="369.5,-182.25 243.25,-182.25 243.25,-147.25 369.5,-147.25 369.5,-182.25"/>
<text text-anchor="start" x="251.25" y="-167.8" font-family="Arial" font-size="11.00">vector&lt; ElevationChart</text>
<text text-anchor="middle" x="306.38" y="-154.3" font-family="Arial" font-size="11.00">::ElevationPoint &gt;</text>
</a>
</g>
</g>
<!-- Node14&#45;&gt;Node3 -->
<g id="edge18_Node000003_Node000014" class="edge">
<title>Node14&#45;&gt;Node3</title>
<g id="a_edge18_Node000003_Node000014"><a xlink:title=" ">
<path fill="none" stroke="#9a32cd" stroke-dasharray="5,2" d="M359.94,-143.02C434.36,-115.33 574.21,-74.62 689.5,-106.25 746.67,-121.93 801.53,-169.72 824.43,-191.6"/>
<polygon fill="#9a32cd" stroke="#9a32cd" points="359,-140.02 350.89,-146.83 361.48,-146.56 359,-140.02"/>
</a>
</g>
<text text-anchor="middle" x="600.12" y="-108.8" font-family="Arial" font-size="11.00" fill="grey"> m_profile</text>
</g>
<!-- Node14&#45;&gt;Node11 -->
<g id="edge15_Node000011_Node000014" class="edge">
<title>Node14&#45;&gt;Node11</title>
<g id="a_edge15_Node000011_Node000014"><a xlink:title=" ">
<path fill="none" stroke="#9a32cd" stroke-dasharray="5,2" d="M352.77,-187.47C393.35,-207.02 454.85,-234.84 510.75,-252.75 527.49,-258.11 546.5,-262.42 562.58,-265.57"/>
<polygon fill="#9a32cd" stroke="#9a32cd" points="354.45,-183.9 343.92,-182.68 351.39,-190.2 354.45,-183.9"/>
</a>
</g>
<text text-anchor="middle" x="440.12" y="-247.8" font-family="Arial" font-size="11.00" fill="grey"> m_storage</text>
</g>
<!-- Node15 -->
<g id="Node000015" class="node">
<title>Node15</title>
<g id="a_Node000015"><a xlink:href="../../dc/da9/classElevationChart_1_1Metrics.html" target="_top" xlink:title="Класс&#45;гаджет, хранящий входные данные для расчета коррекции по ЛТХ.">
<polygon fill="white" stroke="#666666" points="625.38,-21.5 574.88,-21.5 574.88,0 625.38,0 625.38,-21.5"/>
<text text-anchor="middle" x="600.12" y="-7.05" font-family="Arial" font-size="11.00">Metrics</text>
</a>
</g>
</g>
<!-- Node15&#45;&gt;Node3 -->
<g id="edge16_Node000003_Node000015" class="edge">
<title>Node15&#45;&gt;Node3</title>
<g id="a_edge16_Node000003_Node000015"><a xlink:title=" ">
<path fill="none" stroke="#9a32cd" stroke-dasharray="5,2" d="M636.77,-5.87C672.69,-2.97 727.91,-4.25 764.5,-32.25 817.73,-72.99 831.45,-160.85 834.7,-191.74"/>
<polygon fill="#9a32cd" stroke="#9a32cd" points="636.44,-2.49 626.83,-6.94 637.12,-9.45 636.44,-2.49"/>
</a>
</g>
<text text-anchor="middle" x="736" y="-35.8" font-family="Arial" font-size="11.00" fill="grey"> m_metrics</text>
</g>
<!-- Node16 -->
<g id="Node000016" class="node">
<title>Node16</title>
<g id="a_Node000016"><a xlink:title=" ">
<polygon fill="white" stroke="#bfbfbf" points="674.12,-374.25 526.12,-374.25 526.12,-339.25 674.12,-339.25 674.12,-374.25"/>
<text text-anchor="start" x="534.12" y="-359.8" font-family="Arial" font-size="11.00">unique_ptr&lt; ElevationChart</text>
<text text-anchor="middle" x="600.12" y="-346.3" font-family="Arial" font-size="11.00">::IElevationDataProvider &gt;</text>
</a>
</g>
</g>
<!-- Node16&#45;&gt;Node3 -->
<g id="edge17_Node000003_Node000016" class="edge">
<title>Node16&#45;&gt;Node3</title>
<g id="a_edge17_Node000003_Node000016"><a xlink:title=" ">
<path fill="none" stroke="#9a32cd" stroke-dasharray="5,2" d="M685,-353.93C712.33,-349.62 741.52,-341.09 764.5,-324.75 804.26,-296.47 825.18,-238.44 832.53,-214"/>
<polygon fill="#9a32cd" stroke="#9a32cd" points="684.66,-350.58 675.24,-355.43 685.63,-357.51 684.66,-350.58"/>
</a>
</g>
<text text-anchor="middle" x="736" y="-350.8" font-family="Arial" font-size="11.00" fill="grey"> m_provider</text>
</g>
</g>
</svg>
