<?xml version="1.0" encoding="UTF-8" standalone="no"?>
<!DOCTYPE svg PUBLIC "-//W3C//DTD SVG 1.1//EN"
 "http://www.w3.org/Graphics/SVG/1.1/DTD/svg11.dtd">
<!-- Generated by graphviz version 8.0.5 (0)
 -->
<!-- Title: API Pages: 1 -->
<!--zoomable 359 -->

<svg id="main" version="1.1" xmlns="http://www.w3.org/2000/svg" xmlns:xlink="http://www.w3.org/1999/xlink" xml:space="preserve" onload="init(evt)">
<style type="text/css"><![CDATA[
.node, .edge {opacity: 0.7;}
.node.selected, .edge.selected {opacity: 1;}
.edge:hover path { stroke: red; }
.edge:hover polygon { stroke: red; fill: red; }
]]></style>

<defs>
  <circle id="rim" cx="0" cy="0" r="7"/>
  <circle id="rim2" cx="0" cy="0" r="3.5"/>
  <g id="zoomPlus">
    <use xlink:href="#rim" fill="#404040"><set attributeName="fill" to="#808080" begin="zoomplus.mouseover" end="zoomplus.mouseout"/></use>
    <path d="M-4,0h8M0,-4v8" fill="none" stroke="white" stroke-width="1.5" pointer-events="none"/>
  </g>
  <g id="zoomMin">
    <use xlink:href="#rim" fill="#404040"><set attributeName="fill" to="#808080" begin="zoomminus.mouseover" end="zoomminus.mouseout"/></use>
    <path d="M-4,0h8" fill="none" stroke="white" stroke-width="1.5" pointer-events="none"/>
  </g>
  <g id="arrowUp" transform="translate(30 24)">
    <use xlink:href="#rim"/>
    <path pointer-events="none" fill="none" stroke="white" stroke-width="1.5" d="M0,-3.0v7 M-2.5,-0.5L0,-3.0L2.5,-0.5"/>
  </g>
  <g id="arrowRight" transform="rotate(90) translate(36 -43)">
    <use xlink:href="#rim"/>
    <path pointer-events="none" fill="none" stroke="white" stroke-width="1.5" d="M0,-3.0v7 M-2.5,-0.5L0,-3.0L2.5,-0.5"/>
  </g>
  <g id="arrowDown" transform="rotate(180) translate(-30 -48)">
    <use xlink:href="#rim"/>
    <path pointer-events="none" fill="none" stroke="white" stroke-width="1.5" d="M0,-3.0v7 M-2.5,-0.5L0,-3.0L2.5,-0.5"/>
  </g>
  <g id="arrowLeft" transform="rotate(270) translate(-36 17)">
    <use xlink:href="#rim"/>
    <path pointer-events="none" fill="none" stroke="white" stroke-width="1.5" d="M0,-3.0v7 M-2.5,-0.5L0,-3.0L2.5,-0.5"/>
  </g>
  <g id="resetDef">
    <use xlink:href="#rim2" fill="#404040"><set attributeName="fill" to="#808080" begin="reset.mouseover" end="reset.mouseout"/></use>
  </g>
</defs>
<script type="application/ecmascript">
var viewWidth = 1051;
var viewHeight = 359;
var sectionId = 'dynsection-1';
</script>
<script type="application/ecmascript" xlink:href="../../svg.min.js"/>
<svg id="graph" class="graph">
<g id="viewport">
<title>API</title>
<!-- Node1 -->
<g id="Node000001" class="node">
<title>Node1</title>
<g id="a_Node000001"><a xlink:title="Публичный интерфейс (C++) для виджета профиля высот.">
<polygon fill="#999999" stroke="#666666" points="1043,-275.5 1009,-275.5 1009,-254 1043,-254 1043,-275.5"/>
<text text-anchor="middle" x="1026" y="-261.05" font-family="Arial" font-size="11.00">API</text>
</a>
</g>
</g>
<!-- Node2 -->
<g id="Node000002" class="node">
<title>Node2</title>
<g id="a_Node000002"><a xlink:title=" ">
<polygon fill="white" stroke="#bfbfbf" points="55,-269.5 0,-269.5 0,-248 55,-248 55,-269.5"/>
<text text-anchor="middle" x="27.5" y="-255.05" font-family="Arial" font-size="11.00">QObject</text>
</a>
</g>
</g>
<!-- Node2&#45;&gt;Node1 -->
<g id="edge1_Node000001_Node000002" class="edge">
<title>Node2&#45;&gt;Node1</title>
<g id="a_edge1_Node000001_Node000002"><a xlink:title=" ">
<path fill="none" stroke="#63b8ff" d="M41.47,-278.35C61.07,-305.37 101.02,-350.75 148.12,-350.75 148.12,-350.75 148.12,-350.75 869.62,-350.75 930.67,-350.75 990.23,-299.3 1014.09,-275.99"/>
<polygon fill="#63b8ff" stroke="#63b8ff" points="43.99,-276.86 35.4,-270.66 38.26,-280.87 43.99,-276.86"/>
</a>
</g>
</g>
<!-- Node4 -->
<g id="Node000004" class="node">
<title>Node4</title>
<g id="a_Node000004"><a xlink:href="../../d7/d4d/classQQuickItem.html" target="_top" xlink:title=" ">
<polygon fill="white" stroke="#bfbfbf" points="296.5,-269.5 224.25,-269.5 224.25,-248 296.5,-248 296.5,-269.5"/>
<text text-anchor="middle" x="260.38" y="-255.05" font-family="Arial" font-size="11.00">QQuickItem</text>
</a>
</g>
</g>
<!-- Node2&#45;&gt;Node4 -->
<g id="edge4_Node000004_Node000002" class="edge">
<title>Node2&#45;&gt;Node4</title>
<g id="a_edge4_Node000004_Node000002"><a xlink:title=" ">
<path fill="none" stroke="#63b8ff" d="M66.17,-258.75C109.84,-258.75 181.26,-258.75 223.95,-258.75"/>
<polygon fill="#63b8ff" stroke="#63b8ff" points="66.44,-255.25 56.44,-258.75 66.44,-262.25 66.44,-255.25"/>
</a>
</g>
</g>
<!-- Node11 -->
<g id="Node000011" class="node">
<title>Node11</title>
<g id="a_Node000011"><a xlink:href="../../d0/d5a/classQAbstractItemModel.html" target="_top" xlink:title=" ">
<polygon fill="white" stroke="#bfbfbf" points="206.25,-214.5 92,-214.5 92,-193 206.25,-193 206.25,-214.5"/>
<text text-anchor="middle" x="149.12" y="-200.05" font-family="Arial" font-size="11.00">QAbstractItemModel</text>
</a>
</g>
</g>
<!-- Node2&#45;&gt;Node11 -->
<g id="edge12_Node000011_Node000002" class="edge">
<title>Node2&#45;&gt;Node11</title>
<g id="a_edge12_Node000011_Node000002"><a xlink:title=" ">
<path fill="none" stroke="#63b8ff" d="M62.49,-243.12C82.1,-234.11 106.29,-222.99 123.95,-214.86"/>
<polygon fill="#63b8ff" stroke="#63b8ff" points="61.33,-240.26 53.71,-247.62 64.26,-246.62 61.33,-240.26"/>
</a>
</g>
</g>
<!-- Node3 -->
<g id="Node000003" class="node">
<title>Node3</title>
<g id="a_Node000003"><a xlink:href="../../d2/d6b/classElevationChart_1_1ElevationChartItem.html" target="_top" xlink:title="Основной класс библиотеки.">
<polygon fill="white" stroke="#666666" points="922.75,-190.5 814.5,-190.5 814.5,-169 922.75,-169 922.75,-190.5"/>
<text text-anchor="middle" x="868.62" y="-176.05" font-family="Arial" font-size="11.00">ElevationChartItem</text>
</a>
</g>
</g>
<!-- Node3&#45;&gt;Node1 -->
<g id="edge2_Node000001_Node000003" class="edge">
<title>Node3&#45;&gt;Node1</title>
<g id="a_edge2_Node000001_Node000003"><a xlink:title=" ">
<path fill="none" stroke="#9a32cd" stroke-dasharray="5,2" d="M899.42,-196.05C932.04,-213.89 983.12,-241.84 1008.93,-255.96"/>
<polygon fill="#9a32cd" stroke="#9a32cd" points="901.39,-192.59 890.94,-190.86 898.03,-198.73 901.39,-192.59"/>
</a>
</g>
<text text-anchor="middle" x="965.88" y="-246.8" font-family="Arial" font-size="11.00" fill="grey"> m_source</text>
</g>
<!-- Node4&#45;&gt;Node3 -->
<g id="edge3_Node000003_Node000004" class="edge">
<title>Node4&#45;&gt;Node3</title>
<g id="a_edge3_Node000003_Node000004"><a xlink:title=" ">
<path fill="none" stroke="#63b8ff" d="M307.55,-264.84C402.48,-275.51 625.08,-290.98 796.5,-228.75 819.62,-220.36 842.3,-202.61 855.63,-190.94"/>
<polygon fill="#63b8ff" stroke="#63b8ff" points="308.22,-261.27 297.88,-263.6 307.41,-268.23 308.22,-261.27"/>
</a>
</g>
</g>
<!-- Node5 -->
<g id="Node000005" class="node">
<title>Node5</title>
<g id="a_Node000005"><a xlink:href="../../d8/d37/classSG_1_1BasicPalette.html" target="_top" xlink:title="Простейшая палитра цветов.">
<polygon fill="white" stroke="#666666" points="642.75,-190.5 566.75,-190.5 566.75,-169 642.75,-169 642.75,-190.5"/>
<text text-anchor="middle" x="604.75" y="-176.05" font-family="Arial" font-size="11.00">BasicPalette</text>
</a>
</g>
</g>
<!-- Node5&#45;&gt;Node3 -->
<g id="edge5_Node000003_Node000005" class="edge">
<title>Node5&#45;&gt;Node3</title>
<g id="a_edge5_Node000003_Node000005"><a xlink:title=" ">
<path fill="none" stroke="#9a32cd" stroke-dasharray="5,2" d="M653.73,-179.75C699.11,-179.75 767.08,-179.75 814.17,-179.75"/>
<polygon fill="#9a32cd" stroke="#9a32cd" points="653.99,-176.25 643.99,-179.75 653.99,-183.25 653.99,-176.25"/>
</a>
</g>
<text text-anchor="middle" x="746.62" y="-182.8" font-family="Arial" font-size="11.00" fill="grey"> m_palette</text>
</g>
<!-- Node6 -->
<g id="Node000006" class="node">
<title>Node6</title>
<g id="a_Node000006"><a xlink:href="../../d6/d1e/classElevationChart_1_1Bounds.html" target="_top" xlink:title="Класс&#45;гаджет, хранящий предельные значения осей X и Y.">
<polygon fill="white" stroke="#666666" points="631.12,-150.5 578.38,-150.5 578.38,-129 631.12,-129 631.12,-150.5"/>
<text text-anchor="middle" x="604.75" y="-136.05" font-family="Arial" font-size="11.00">Bounds</text>
</a>
</g>
</g>
<!-- Node6&#45;&gt;Node3 -->
<g id="edge6_Node000003_Node000006" class="edge">
<title>Node6&#45;&gt;Node3</title>
<g id="a_edge6_Node000003_Node000006"><a xlink:title=" ">
<path fill="none" stroke="#9a32cd" stroke-dasharray="5,2" d="M642.19,-142.7C680.72,-146.13 743.19,-152.59 796.5,-162.25 806.01,-163.97 816.14,-166.22 825.69,-168.52"/>
<polygon fill="#9a32cd" stroke="#9a32cd" points="642.77,-139.15 632.51,-141.77 642.17,-146.12 642.77,-139.15"/>
</a>
</g>
<text text-anchor="middle" x="746.62" y="-164.8" font-family="Arial" font-size="11.00" fill="grey"> m_bounds</text>
</g>
<!-- Node7 -->
<g id="Node000007" class="node">
<title>Node7</title>
<g id="a_Node000007"><a xlink:href="../../de/d39/classElevationChart_1_1Route.html" target="_top" xlink:title="Набор последовательных точек на карте.">
<polygon fill="white" stroke="#666666" points="627.38,-230.5 582.12,-230.5 582.12,-209 627.38,-209 627.38,-230.5"/>
<text text-anchor="middle" x="604.75" y="-216.05" font-family="Arial" font-size="11.00">Route</text>
</a>
</g>
</g>
<!-- Node7&#45;&gt;Node3 -->
<g id="edge7_Node000003_Node000007" class="edge">
<title>Node7&#45;&gt;Node3</title>
<g id="a_edge7_Node000003_Node000007"><a xlink:title=" ">
<path fill="none" stroke="#9a32cd" stroke-dasharray="5,2" d="M638.55,-216.95C676.69,-213.42 741.45,-206.61 796.5,-196.75 805.5,-195.14 815.06,-193.09 824.16,-190.97"/>
<polygon fill="#9a32cd" stroke="#9a32cd" points="638.26,-213.55 628.61,-217.94 638.89,-220.52 638.26,-213.55"/>
</a>
</g>
<text text-anchor="middle" x="746.62" y="-213.8" font-family="Arial" font-size="11.00" fill="grey"> m_route</text>
</g>
<!-- Node8 -->
<g id="Node000008" class="node">
<title>Node8</title>
<g id="a_Node000008"><a xlink:title=" ">
<polygon fill="white" stroke="#bfbfbf" points="440.75,-230.25 314.5,-230.25 314.5,-195.25 440.75,-195.25 440.75,-230.25"/>
<text text-anchor="start" x="322.5" y="-215.8" font-family="Arial" font-size="11.00">vector&lt; ElevationChart</text>
<text text-anchor="middle" x="377.62" y="-202.3" font-family="Arial" font-size="11.00">::RoutePoint &gt;</text>
</a>
</g>
</g>
<!-- Node8&#45;&gt;Node7 -->
<g id="edge8_Node000007_Node000008" class="edge">
<title>Node8&#45;&gt;Node7</title>
<g id="a_edge8_Node000007_Node000008"><a xlink:title=" ">
<path fill="none" stroke="#9a32cd" stroke-dasharray="5,2" d="M451.98,-215.03C497.07,-216.43 551.76,-218.13 581.63,-219.06"/>
<polygon fill="#9a32cd" stroke="#9a32cd" points="452.14,-211.5 442.04,-214.69 451.92,-218.5 452.14,-211.5"/>
</a>
</g>
<text text-anchor="middle" x="485.75" y="-219.8" font-family="Arial" font-size="11.00" fill="grey"> m_vec</text>
</g>
<!-- Node9 -->
<g id="Node000009" class="node">
<title>Node9</title>
<g id="a_Node000009"><a xlink:href="../../d6/de1/classElevationChart_1_1RouteModel.html" target="_top" xlink:title="Модель точек пути для профиля высот.">
<polygon fill="white" stroke="#666666" points="642,-110.5 567.5,-110.5 567.5,-89 642,-89 642,-110.5"/>
<text text-anchor="middle" x="604.75" y="-96.05" font-family="Arial" font-size="11.00">RouteModel</text>
</a>
</g>
</g>
<!-- Node9&#45;&gt;Node3 -->
<g id="edge9_Node000003_Node000009" class="edge">
<title>Node9&#45;&gt;Node3</title>
<g id="a_edge9_Node000003_Node000009"><a xlink:title=" ">
<path fill="none" stroke="#9a32cd" stroke-dasharray="5,2" d="M653.11,-101.45C692.69,-104.24 749.97,-111.49 796.5,-130.25 819.38,-139.48 842.14,-157.2 855.54,-168.74"/>
<polygon fill="#9a32cd" stroke="#9a32cd" points="653.39,-97.9 643.19,-100.77 652.95,-104.89 653.39,-97.9"/>
</a>
</g>
<text text-anchor="middle" x="746.62" y="-132.8" font-family="Arial" font-size="11.00" fill="grey"> m_model</text>
</g>
<!-- Node10 -->
<g id="Node000010" class="node">
<title>Node10</title>
<g id="a_Node000010"><a xlink:href="../../d5/d2d/classQAbstractListModel.html" target="_top" xlink:title=" ">
<polygon fill="white" stroke="#bfbfbf" points="432.5,-167.5 322.75,-167.5 322.75,-146 432.5,-146 432.5,-167.5"/>
<text text-anchor="middle" x="377.62" y="-153.05" font-family="Arial" font-size="11.00">QAbstractListModel</text>
</a>
</g>
</g>
<!-- Node10&#45;&gt;Node9 -->
<g id="edge10_Node000009_Node000010" class="edge">
<title>Node10&#45;&gt;Node9</title>
<g id="a_edge10_Node000009_Node000010"><a xlink:title=" ">
<path fill="none" stroke="#63b8ff" d="M433.33,-142.9C474.85,-132.39 530.81,-118.22 567.08,-109.03"/>
<polygon fill="#63b8ff" stroke="#63b8ff" points="432.67,-139.71 423.83,-145.56 434.39,-146.5 432.67,-139.71"/>
</a>
</g>
</g>
<!-- Node11&#45;&gt;Node10 -->
<g id="edge11_Node000010_Node000011" class="edge">
<title>Node11&#45;&gt;Node10</title>
<g id="a_edge11_Node000010_Node000011"><a xlink:title=" ">
<path fill="none" stroke="#63b8ff" d="M214.45,-190.4C248.64,-183.31 290.19,-174.68 322.68,-167.94"/>
<polygon fill="#63b8ff" stroke="#63b8ff" points="214.17,-187.09 205.09,-192.55 215.59,-193.95 214.17,-187.09"/>
</a>
</g>
</g>
<!-- Node12 -->
<g id="Node000012" class="node">
<title>Node12</title>
<g id="a_Node000012"><a xlink:title=" ">
<polygon fill="white" stroke="#bfbfbf" points="440.75,-94.25 314.5,-94.25 314.5,-59.25 440.75,-59.25 440.75,-94.25"/>
<text text-anchor="start" x="322.5" y="-79.8" font-family="Arial" font-size="11.00">vector&lt; ElevationChart</text>
<text text-anchor="middle" x="377.62" y="-66.3" font-family="Arial" font-size="11.00">::ElevationPoint &gt;</text>
</a>
</g>
</g>
<!-- Node12&#45;&gt;Node3 -->
<g id="edge16_Node000003_Node000012" class="edge">
<title>Node12&#45;&gt;Node3</title>
<g id="a_edge16_Node000003_Node000012"><a xlink:title=" ">
<path fill="none" stroke="#9a32cd" stroke-dasharray="5,2" d="M451.77,-66.69C512.81,-60.09 601.92,-54.61 678.75,-66.25 732.92,-74.45 750.16,-73.52 796.5,-102.75 824.51,-120.42 848.64,-151.89 860.25,-168.6"/>
<polygon fill="#9a32cd" stroke="#9a32cd" points="451.64,-63.3 442.09,-67.89 452.42,-70.25 451.64,-63.3"/>
</a>
</g>
<text text-anchor="middle" x="604.75" y="-69.8" font-family="Arial" font-size="11.00" fill="grey"> m_profile</text>
</g>
<!-- Node12&#45;&gt;Node9 -->
<g id="edge13_Node000009_Node000012" class="edge">
<title>Node12&#45;&gt;Node9</title>
<g id="a_edge13_Node000009_Node000012"><a xlink:title=" ">
<path fill="none" stroke="#9a32cd" stroke-dasharray="5,2" d="M451.73,-84.22C490.36,-88.17 536.1,-92.84 567.25,-96.02"/>
<polygon fill="#9a32cd" stroke="#9a32cd" points="452.34,-80.66 442.04,-83.13 451.63,-87.62 452.34,-80.66"/>
</a>
</g>
<text text-anchor="middle" x="485.75" y="-93.8" font-family="Arial" font-size="11.00" fill="grey"> m_storage</text>
</g>
<!-- Node13 -->
<g id="Node000013" class="node">
<title>Node13</title>
<g id="a_Node000013"><a xlink:href="../../dc/da9/classElevationChart_1_1Metrics.html" target="_top" xlink:title="Класс&#45;гаджет, хранящий входные данные для расчета коррекции по ЛТХ.">
<polygon fill="white" stroke="#666666" points="630,-21.5 579.5,-21.5 579.5,0 630,0 630,-21.5"/>
<text text-anchor="middle" x="604.75" y="-7.05" font-family="Arial" font-size="11.00">Metrics</text>
</a>
</g>
</g>
<!-- Node13&#45;&gt;Node3 -->
<g id="edge14_Node000003_Node000013" class="edge">
<title>Node13&#45;&gt;Node3</title>
<g id="a_edge14_Node000003_Node000013"><a xlink:title=" ">
<path fill="none" stroke="#9a32cd" stroke-dasharray="5,2" d="M641.2,-4.71C682.41,0.3 750.62,2.11 796.5,-30.25 844.88,-64.38 861.46,-140.39 866.08,-168.77"/>
<polygon fill="#9a32cd" stroke="#9a32cd" points="640.77,-1.37 631.33,-6.18 641.71,-8.31 640.77,-1.37"/>
</a>
</g>
<text text-anchor="middle" x="746.62" y="-33.8" font-family="Arial" font-size="11.00" fill="grey"> m_metrics</text>
</g>
<!-- Node14 -->
<g id="Node000014" class="node">
<title>Node14</title>
<g id="a_Node000014"><a xlink:title=" ">
<polygon fill="white" stroke="#bfbfbf" points="678.75,-322.25 530.75,-322.25 530.75,-287.25 678.75,-287.25 678.75,-322.25"/>
<text text-anchor="start" x="538.75" y="-307.8" font-family="Arial" font-size="11.00">unique_ptr&lt; ElevationChart</text>
<text text-anchor="middle" x="604.75" y="-294.3" font-family="Arial" font-size="11.00">::RandomDataProvider &gt;</text>
</a>
</g>
</g>
<!-- Node14&#45;&gt;Node3 -->
<g id="edge15_Node000003_Node000014" class="edge">
<title>Node14&#45;&gt;Node3</title>
<g id="a_edge15_Node000003_Node000014"><a xlink:title=" ">
<path fill="none" stroke="#9a32cd" stroke-dasharray="5,2" d="M689.7,-304.05C724.78,-300.48 764.7,-291.9 796.5,-272.75 829.76,-252.72 852.98,-210.81 862.63,-190.82"/>
<polygon fill="#9a32cd" stroke="#9a32cd" points="689.63,-300.63 679.98,-305 690.25,-307.6 689.63,-300.63"/>
</a>
</g>
<text text-anchor="middle" x="746.62" y="-305.8" font-family="Arial" font-size="11.00" fill="grey"> m_random_provider</text>
</g>
</g>
</svg>

<g id="navigator" transform="translate(0 0)" fill="#404254">
  <rect fill="#f2f5e9" fill-opacity="0.5" stroke="#606060" stroke-width=".5" x="0" y="0" width="60" height="60"/>
  <use id="zoomplus" xlink:href="#zoomPlus" x="17" y="9" onmousedown="handleZoom(evt,'in')"/>
  <use id="zoomminus" xlink:href="#zoomMin" x="42" y="9" onmousedown="handleZoom(evt,'out')"/>
  <use id="reset" xlink:href="#resetDef" x="30" y="36" onmousedown="handleReset()"/>
   <use id="arrowup" xlink:href="#arrowUp" x="0" y="0" onmousedown="handlePan(0,-1)"/>
  <use id="arrowright" xlink:href="#arrowRight" x="0" y="0" onmousedown="handlePan(1,0)"/>
  <use id="arrowdown" xlink:href="#arrowDown" x="0" y="0" onmousedown="handlePan(0,1)"/>
  <use id="arrowleft" xlink:href="#arrowLeft" x="0" y="0" onmousedown="handlePan(-1,0)"/>
</g>
<svg viewBox="0 0 15 15" width="100%" height="30px" preserveAspectRatio="xMaxYMin meet">
 <g id="arrow_out" transform="scale(0.3 0.3)">
  <a xlink:href="classElevationChart_1_1API__coll__graph_org.svg" target="_base">
   <rect id="button" ry="5" rx="5" y="6" x="6" height="38" width="38"
        fill="#f2f5e9" fill-opacity="0.5" stroke="#606060" stroke-width="1.0"/>
   <path id="arrow"
     d="M 11.500037,31.436501 C 11.940474,20.09759 22.043105,11.32322 32.158766,21.979434 L 37.068811,17.246167 C 37.068811,17.246167 37.088388,32 37.088388,32 L 22.160133,31.978069 C 22.160133,31.978069 26.997745,27.140456 26.997745,27.140456 C 18.528582,18.264221 13.291696,25.230495 11.500037,31.436501 z"
     style="fill:#404040;"/>
  </a>
 </g>
</svg>

<style type='text/css'>
<![CDATA[
[data-mouse-over-selected='false'] { opacity: 0.7; }
[data-mouse-over-selected='true']  { opacity: 1.0; }
]]>
</style>
<script type="application/ecmascript"><![CDATA[
document.addEventListener('DOMContentLoaded', (event) => {
  highlightEdges();
  highlightAdjacentNodes();
});
]]></script>
</svg>
