<?xml version="1.0" encoding="UTF-8" standalone="no"?>
<!DOCTYPE svg PUBLIC "-//W3C//DTD SVG 1.1//EN"
 "http://www.w3.org/Graphics/SVG/1.1/DTD/svg11.dtd">
<!-- Generated by graphviz version 8.0.5 (0)
 -->
<!-- Title: API Pages: 1 -->
<svg width="1159pt" height="543pt"
 viewBox="0.00 0.00 1158.50 542.50" xmlns="http://www.w3.org/2000/svg" xmlns:xlink="http://www.w3.org/1999/xlink">
<g id="graph0" class="graph" transform="scale(1 1) rotate(0) translate(4 538.5)">
<title>API</title>
<!-- Node1 -->
<g id="Node000001" class="node">
<title>Node1</title>
<g id="a_Node000001"><a xlink:title="Публичный интерфейс (C++) для виджета профиля высот.">
<polygon fill="#999999" stroke="#666666" points="1150.5,-414.25 1116.5,-414.25 1116.5,-392.75 1150.5,-392.75 1150.5,-414.25"/>
<text text-anchor="middle" x="1133.5" y="-399.8" font-family="Arial" font-size="11.00">API</text>
</a>
</g>
</g>
<!-- Node2 -->
<g id="Node000002" class="node">
<title>Node2</title>
<g id="a_Node000002"><a xlink:title=" ">
<polygon fill="white" stroke="#bfbfbf" points="55,-390.25 0,-390.25 0,-368.75 55,-368.75 55,-390.25"/>
<text text-anchor="middle" x="27.5" y="-375.8" font-family="Arial" font-size="11.00">QObject</text>
</a>
</g>
</g>
<!-- Node2&#45;&gt;Node1 -->
<g id="edge1_Node000001_Node000002" class="edge">
<title>Node2&#45;&gt;Node1</title>
<g id="a_edge1_Node000001_Node000002"><a xlink:title=" ">
<path fill="none" stroke="#63b8ff" d="M34.15,-401.03C46.76,-443.62 81.49,-534.5 148.12,-534.5 148.12,-534.5 148.12,-534.5 977.12,-534.5 1051.22,-534.5 1108.31,-446.35 1126.43,-414.67"/>
<polygon fill="#63b8ff" stroke="#63b8ff" points="37.3,-400.33 31.23,-391.65 30.57,-402.22 37.3,-400.33"/>
</a>
</g>
</g>
<!-- Node5 -->
<g id="Node000005" class="node">
<title>Node5</title>
<g id="a_Node000005"><a xlink:title=" ">
<polygon fill="white" stroke="#bfbfbf" points="185.25,-433.25 113,-433.25 113,-411.75 185.25,-411.75 185.25,-433.25"/>
<text text-anchor="middle" x="149.12" y="-418.8" font-family="Arial" font-size="11.00">QQuickItem</text>
</a>
</g>
</g>
<!-- Node2&#45;&gt;Node5 -->
<g id="edge5_Node000005_Node000002" class="edge">
<title>Node2&#45;&gt;Node5</title>
<g id="a_edge5_Node000005_Node000002"><a xlink:title=" ">
<path fill="none" stroke="#63b8ff" d="M65.27,-392.72C81.88,-398.69 101.29,-405.66 117.14,-411.36"/>
<polygon fill="#63b8ff" stroke="#63b8ff" points="66.94,-389.24 56.35,-389.15 64.57,-395.83 66.94,-389.24"/>
</a>
</g>
</g>
<!-- Node8 -->
<g id="Node000008" class="node">
<title>Node8</title>
<g id="a_Node000008"><a xlink:href="../../df/d15/classElevationChart_1_1Researcher.html" target="_top" xlink:title=" ">
<polygon fill="white" stroke="#bfbfbf" points="296.5,-325.25 224.25,-325.25 224.25,-303.75 296.5,-303.75 296.5,-325.25"/>
<text text-anchor="middle" x="260.38" y="-310.8" font-family="Arial" font-size="11.00">Researcher</text>
</a>
</g>
</g>
<!-- Node2&#45;&gt;Node8 -->
<g id="edge9_Node000008_Node000002" class="edge">
<title>Node2&#45;&gt;Node8</title>
<g id="a_edge9_Node000008_Node000002"><a xlink:title=" ">
<path fill="none" stroke="#63b8ff" d="M65.89,-368.97C109.54,-356.69 181.17,-336.52 223.95,-324.47"/>
<polygon fill="#63b8ff" stroke="#63b8ff" points="65.11,-365.84 56.44,-371.92 67.01,-372.58 65.11,-365.84"/>
</a>
</g>
</g>
<!-- Node14 -->
<g id="Node000014" class="node">
<title>Node14</title>
<g id="a_Node000014"><a xlink:title=" ">
<polygon fill="white" stroke="#bfbfbf" points="206.25,-273.25 92,-273.25 92,-251.75 206.25,-251.75 206.25,-273.25"/>
<text text-anchor="middle" x="149.12" y="-258.8" font-family="Arial" font-size="11.00">QAbstractItemModel</text>
</a>
</g>
</g>
<!-- Node2&#45;&gt;Node14 -->
<g id="edge16_Node000014_Node000002" class="edge">
<title>Node2&#45;&gt;Node14</title>
<g id="a_edge16_Node000014_Node000002"><a xlink:title=" ">
<path fill="none" stroke="#63b8ff" d="M47.77,-360.65C73,-335.97 116.42,-293.5 136.86,-273.51"/>
<polygon fill="#63b8ff" stroke="#63b8ff" points="45.67,-357.79 40.97,-367.28 50.57,-362.79 45.67,-357.79"/>
</a>
</g>
</g>
<!-- Node3 -->
<g id="Node000003" class="node">
<title>Node3</title>
<g id="a_Node000003"><a xlink:href="../../d2/d6b/classElevationChart_1_1ElevationChartItem.html" target="_top" xlink:title="Основной класс библиотеки.">
<polygon fill="white" stroke="#666666" points="1030.25,-283.25 922,-283.25 922,-261.75 1030.25,-261.75 1030.25,-283.25"/>
<text text-anchor="middle" x="976.12" y="-268.8" font-family="Arial" font-size="11.00">ElevationChartItem</text>
</a>
</g>
</g>
<!-- Node3&#45;&gt;Node1 -->
<g id="edge2_Node000001_Node000003" class="edge">
<title>Node3&#45;&gt;Node1</title>
<g id="a_edge2_Node000001_Node000003"><a xlink:title=" ">
<path fill="none" stroke="#9a32cd" stroke-dasharray="5,2" d="M998.38,-290.42C1030.97,-317.9 1092.37,-369.66 1119.29,-392.36"/>
<polygon fill="#9a32cd" stroke="#9a32cd" points="1001.27,-287.44 991.37,-283.67 996.76,-292.79 1001.27,-287.44"/>
</a>
</g>
<text text-anchor="middle" x="1073.38" y="-374.55" font-family="Arial" font-size="11.00" fill="grey"> m_source</text>
</g>
<!-- Node4 -->
<g id="Node000004" class="node">
<title>Node4</title>
<g id="a_Node000004"><a xlink:href="../../da/d9a/classLPVL_1_1ScenegraphObject.html" target="_top" xlink:title="Базовый класс для объектов Qt Quick Scenegraph.">
<polygon fill="white" stroke="#666666" points="611.25,-450.25 506,-450.25 506,-428.75 611.25,-428.75 611.25,-450.25"/>
<text text-anchor="middle" x="558.62" y="-435.8" font-family="Arial" font-size="11.00">ScenegraphObject</text>
</a>
</g>
</g>
<!-- Node4&#45;&gt;Node3 -->
<g id="edge3_Node000003_Node000004" class="edge">
<title>Node4&#45;&gt;Node3</title>
<g id="a_edge3_Node000003_Node000004"><a xlink:title=" ">
<path fill="none" stroke="#63b8ff" d="M622.23,-451.35C696.7,-461.77 821.3,-467.23 904,-407.5 947.6,-376.01 966.77,-309.57 972.85,-283.41"/>
<polygon fill="#63b8ff" stroke="#63b8ff" points="623.02,-447.78 612.62,-449.78 622,-454.7 623.02,-447.78"/>
</a>
</g>
</g>
<!-- Node5&#45;&gt;Node4 -->
<g id="edge4_Node000004_Node000005" class="edge">
<title>Node5&#45;&gt;Node4</title>
<g id="a_edge4_Node000004_Node000005"><a xlink:title=" ">
<path fill="none" stroke="#63b8ff" d="M196.29,-424.43C272.79,-427.62 425.32,-433.98 505.54,-437.33"/>
<polygon fill="#63b8ff" stroke="#63b8ff" points="196.71,-420.9 186.58,-423.98 196.42,-427.89 196.71,-420.9"/>
</a>
</g>
</g>
<!-- Node6 -->
<g id="Node000006" class="node">
<title>Node6</title>
<g id="a_Node000006"><a xlink:title=" ">
<polygon fill="white" stroke="#bfbfbf" points="808,-414 629.25,-414 629.25,-379 808,-379 808,-414"/>
<text text-anchor="start" x="637.25" y="-399.55" font-family="Arial" font-size="11.00">map&lt; NodeTypes, QSGGeometry</text>
<text text-anchor="middle" x="718.62" y="-386.05" font-family="Arial" font-size="11.00">Node * &gt;</text>
</a>
</g>
</g>
<!-- Node6&#45;&gt;Node3 -->
<g id="edge6_Node000003_Node000006" class="edge">
<title>Node6&#45;&gt;Node3</title>
<g id="a_edge6_Node000003_Node000006"><a xlink:title=" ">
<path fill="none" stroke="#9a32cd" stroke-dasharray="5,2" d="M818.78,-391.43C847.8,-386.55 878.55,-377.83 904,-362.5 936.41,-342.97 959.89,-302.86 969.84,-283.47"/>
<polygon fill="#9a32cd" stroke="#9a32cd" points="818.53,-388.08 809.17,-393.06 819.59,-395 818.53,-388.08"/>
</a>
</g>
<text text-anchor="middle" x="865" y="-392.55" font-family="Arial" font-size="11.00" fill="grey"> m_tree</text>
</g>
<!-- Node7 -->
<g id="Node000007" class="node">
<title>Node7</title>
<g id="a_Node000007"><a xlink:href="../../d4/dae/classLPVL_1_1BasicPalette.html" target="_top" xlink:title="Простейшая палитра цветов.">
<polygon fill="white" stroke="#666666" points="756.62,-361.25 680.62,-361.25 680.62,-339.75 756.62,-339.75 756.62,-361.25"/>
<text text-anchor="middle" x="718.62" y="-346.8" font-family="Arial" font-size="11.00">BasicPalette</text>
</a>
</g>
</g>
<!-- Node7&#45;&gt;Node3 -->
<g id="edge7_Node000003_Node000007" class="edge">
<title>Node7&#45;&gt;Node3</title>
<g id="a_edge7_Node000003_Node000007"><a xlink:title=" ">
<path fill="none" stroke="#9a32cd" stroke-dasharray="5,2" d="M767.89,-350.51C806.11,-348.99 860.18,-343.39 904,-325.5 927.95,-315.72 951.1,-295.95 964.18,-283.52"/>
<polygon fill="#9a32cd" stroke="#9a32cd" points="767.95,-347.04 758.06,-350.85 768.16,-354.03 767.95,-347.04"/>
</a>
</g>
<text text-anchor="middle" x="865" y="-347.55" font-family="Arial" font-size="11.00" fill="grey"> m_palette</text>
</g>
<!-- Node8&#45;&gt;Node3 -->
<g id="edge8_Node000003_Node000008" class="edge">
<title>Node8&#45;&gt;Node3</title>
<g id="a_edge8_Node000003_Node000008"><a xlink:title=" ">
<path fill="none" stroke="#9a32cd" stroke-dasharray="5,2" d="M307.73,-316.09C413.88,-319.02 682.48,-322.3 904,-290.5 914.84,-288.94 926.43,-286.4 937.03,-283.71"/>
<polygon fill="#9a32cd" stroke="#9a32cd" points="307.88,-312.57 297.79,-315.78 307.68,-319.56 307.88,-312.57"/>
</a>
</g>
<text text-anchor="middle" x="558.62" y="-319.55" font-family="Arial" font-size="11.00" fill="grey"> m_researcher</text>
</g>
<!-- Node9 -->
<g id="Node000009" class="node">
<title>Node9</title>
<g id="a_Node000009"><a xlink:href="../../d6/d1e/classElevationChart_1_1Bounds.html" target="_top" xlink:title="Класс&#45;гаджет, хранящий предельные значения осей X и Y.">
<polygon fill="white" stroke="#666666" points="745,-283.25 692.25,-283.25 692.25,-261.75 745,-261.75 745,-283.25"/>
<text text-anchor="middle" x="718.62" y="-268.8" font-family="Arial" font-size="11.00">Bounds</text>
</a>
</g>
</g>
<!-- Node9&#45;&gt;Node3 -->
<g id="edge10_Node000003_Node000009" class="edge">
<title>Node9&#45;&gt;Node3</title>
<g id="a_edge10_Node000003_Node000009"><a xlink:title=" ">
<path fill="none" stroke="#9a32cd" stroke-dasharray="5,2" d="M755.94,-272.5C799.29,-272.5 872.17,-272.5 921.89,-272.5"/>
<polygon fill="#9a32cd" stroke="#9a32cd" points="756.06,-269 746.06,-272.5 756.06,-276 756.06,-269"/>
</a>
</g>
<text text-anchor="middle" x="865" y="-275.55" font-family="Arial" font-size="11.00" fill="grey"> m_bounds</text>
</g>
<!-- Node10 -->
<g id="Node000010" class="node">
<title>Node10</title>
<g id="a_Node000010"><a xlink:href="../../de/d39/classElevationChart_1_1Route.html" target="_top" xlink:title="Набор последовательных точек на карте.">
<polygon fill="white" stroke="#666666" points="741.25,-243.25 696,-243.25 696,-221.75 741.25,-221.75 741.25,-243.25"/>
<text text-anchor="middle" x="718.62" y="-228.8" font-family="Arial" font-size="11.00">Route</text>
</a>
</g>
</g>
<!-- Node10&#45;&gt;Node3 -->
<g id="edge11_Node000003_Node000010" class="edge">
<title>Node10&#45;&gt;Node3</title>
<g id="a_edge11_Node000003_Node000010"><a xlink:title=" ">
<path fill="none" stroke="#9a32cd" stroke-dasharray="5,2" d="M752.25,-235.29C789.23,-238.73 851.25,-245.33 904,-255 913.51,-256.74 923.64,-258.99 933.18,-261.3"/>
<polygon fill="#9a32cd" stroke="#9a32cd" points="752.88,-231.74 742.61,-234.32 752.25,-238.71 752.88,-231.74"/>
</a>
</g>
<text text-anchor="middle" x="865" y="-257.55" font-family="Arial" font-size="11.00" fill="grey"> m_route</text>
</g>
<!-- Node11 -->
<g id="Node000011" class="node">
<title>Node11</title>
<g id="a_Node000011"><a xlink:title=" ">
<polygon fill="white" stroke="#bfbfbf" points="464.38,-250 338.12,-250 338.12,-215 464.38,-215 464.38,-250"/>
<text text-anchor="start" x="346.12" y="-235.55" font-family="Arial" font-size="11.00">vector&lt; ElevationChart</text>
<text text-anchor="middle" x="401.25" y="-222.05" font-family="Arial" font-size="11.00">::RoutePoint &gt;</text>
</a>
</g>
</g>
<!-- Node11&#45;&gt;Node10 -->
<g id="edge12_Node000010_Node000011" class="edge">
<title>Node11&#45;&gt;Node10</title>
<g id="a_edge12_Node000010_Node000011"><a xlink:title=" ">
<path fill="none" stroke="#9a32cd" stroke-dasharray="5,2" d="M475.28,-232.5C546.69,-232.5 651.02,-232.5 695.84,-232.5"/>
<polygon fill="#9a32cd" stroke="#9a32cd" points="475.56,-229 465.56,-232.5 475.56,-236 475.56,-229"/>
</a>
</g>
<text text-anchor="middle" x="558.62" y="-235.55" font-family="Arial" font-size="11.00" fill="grey"> m_vec</text>
</g>
<!-- Node12 -->
<g id="Node000012" class="node">
<title>Node12</title>
<g id="a_Node000012"><a xlink:href="../../d6/de1/classElevationChart_1_1RouteModel.html" target="_top" xlink:title="Модель точек пути для профиля высот.">
<polygon fill="white" stroke="#666666" points="755.88,-154.25 681.38,-154.25 681.38,-132.75 755.88,-132.75 755.88,-154.25"/>
<text text-anchor="middle" x="718.62" y="-139.8" font-family="Arial" font-size="11.00">RouteModel</text>
</a>
</g>
</g>
<!-- Node12&#45;&gt;Node3 -->
<g id="edge13_Node000003_Node000012" class="edge">
<title>Node12&#45;&gt;Node3</title>
<g id="a_edge13_Node000003_Node000012"><a xlink:title=" ">
<path fill="none" stroke="#9a32cd" stroke-dasharray="5,2" d="M767.08,-137.78C806.58,-135.4 862.83,-137.75 904,-163 942.07,-186.34 963.67,-238.6 971.6,-261.45"/>
<polygon fill="#9a32cd" stroke="#9a32cd" points="766.87,-134.36 757.15,-138.58 767.38,-141.34 766.87,-134.36"/>
</a>
</g>
<text text-anchor="middle" x="865" y="-165.55" font-family="Arial" font-size="11.00" fill="grey"> m_model</text>
</g>
<!-- Node13 -->
<g id="Node000013" class="node">
<title>Node13</title>
<g id="a_Node000013"><a xlink:title=" ">
<polygon fill="white" stroke="#bfbfbf" points="456.12,-139.25 346.38,-139.25 346.38,-117.75 456.12,-117.75 456.12,-139.25"/>
<text text-anchor="middle" x="401.25" y="-124.8" font-family="Arial" font-size="11.00">QAbstractListModel</text>
</a>
</g>
</g>
<!-- Node13&#45;&gt;Node12 -->
<g id="edge14_Node000012_Node000013" class="edge">
<title>Node13&#45;&gt;Node12</title>
<g id="a_edge14_Node000012_Node000013"><a xlink:title=" ">
<path fill="none" stroke="#63b8ff" d="M467.36,-131.6C532.12,-134.68 629.12,-139.29 681.3,-141.77"/>
<polygon fill="#63b8ff" stroke="#63b8ff" points="467.62,-128.06 457.46,-131.08 467.29,-135.05 467.62,-128.06"/>
</a>
</g>
</g>
<!-- Node16 -->
<g id="Node000016" class="node">
<title>Node16</title>
<g id="a_Node000016"><a xlink:href="../../d4/d99/classElevationChart_1_1NotificationModel.html" target="_top" xlink:title="Модель оповещений об ошибках в маршруте.">
<polygon fill="white" stroke="#666666" points="767.88,-114.25 669.38,-114.25 669.38,-92.75 767.88,-92.75 767.88,-114.25"/>
<text text-anchor="middle" x="718.62" y="-99.8" font-family="Arial" font-size="11.00">NotificationModel</text>
</a>
</g>
</g>
<!-- Node13&#45;&gt;Node16 -->
<g id="edge19_Node000016_Node000013" class="edge">
<title>Node13&#45;&gt;Node16</title>
<g id="a_edge19_Node000016_Node000013"><a xlink:title=" ">
<path fill="none" stroke="#63b8ff" d="M467.33,-123.34C527.3,-118.59 614.95,-111.64 669.03,-107.35"/>
<polygon fill="#63b8ff" stroke="#63b8ff" points="467.16,-119.92 457.46,-124.2 467.71,-126.9 467.16,-119.92"/>
</a>
</g>
</g>
<!-- Node14&#45;&gt;Node13 -->
<g id="edge15_Node000013_Node000014" class="edge">
<title>Node14&#45;&gt;Node13</title>
<g id="a_edge15_Node000013_Node000014"><a xlink:title=" ">
<path fill="none" stroke="#63b8ff" d="M171.73,-244.42C201.88,-220.04 259.14,-176.76 314.5,-151.5 324.88,-146.77 336.42,-142.85 347.59,-139.67"/>
<polygon fill="#63b8ff" stroke="#63b8ff" points="169.79,-242.3 164.27,-251.34 174.23,-247.72 169.79,-242.3"/>
</a>
</g>
</g>
<!-- Node15 -->
<g id="Node000015" class="node">
<title>Node15</title>
<g id="a_Node000015"><a xlink:title=" ">
<polygon fill="white" stroke="#bfbfbf" points="464.38,-195 338.12,-195 338.12,-160 464.38,-160 464.38,-195"/>
<text text-anchor="start" x="346.12" y="-180.55" font-family="Arial" font-size="11.00">vector&lt; ElevationChart</text>
<text text-anchor="middle" x="401.25" y="-167.05" font-family="Arial" font-size="11.00">::ElevationPoint &gt;</text>
</a>
</g>
</g>
<!-- Node15&#45;&gt;Node3 -->
<g id="edge24_Node000003_Node000015" class="edge">
<title>Node15&#45;&gt;Node3</title>
<g id="a_edge24_Node000003_Node000015"><a xlink:title=" ">
<path fill="none" stroke="#9a32cd" stroke-dasharray="5,2" d="M475.54,-178.36C574.87,-180.04 746.87,-184.94 808,-199 864.84,-212.07 926.31,-244.32 956.39,-261.43"/>
<polygon fill="#9a32cd" stroke="#9a32cd" points="475.74,-174.84 465.68,-178.18 475.62,-181.84 475.74,-174.84"/>
</a>
</g>
<text text-anchor="middle" x="718.62" y="-201.55" font-family="Arial" font-size="11.00" fill="grey"> m_profile</text>
</g>
<!-- Node15&#45;&gt;Node12 -->
<g id="edge17_Node000012_Node000015" class="edge">
<title>Node15&#45;&gt;Node12</title>
<g id="a_edge17_Node000012_Node000015"><a xlink:title=" ">
<path fill="none" stroke="#9a32cd" stroke-dasharray="5,2" d="M475.36,-166.84C485.64,-165.47 496.08,-164.15 506,-163 567.39,-155.89 639.04,-149.73 681.25,-146.33"/>
<polygon fill="#9a32cd" stroke="#9a32cd" points="475.17,-163.47 465.73,-168.28 476.11,-170.41 475.17,-163.47"/>
</a>
</g>
<text text-anchor="middle" x="558.62" y="-165.55" font-family="Arial" font-size="11.00" fill="grey"> m_storage</text>
</g>
<!-- Node16&#45;&gt;Node3 -->
<g id="edge18_Node000003_Node000016" class="edge">
<title>Node16&#45;&gt;Node3</title>
<g id="a_edge18_Node000003_Node000016"><a xlink:title=" ">
<path fill="none" stroke="#9a32cd" stroke-dasharray="5,2" d="M778.91,-94.88C817.84,-92.43 868.02,-95.68 904,-121 952.95,-155.45 969.18,-232.56 973.65,-261.36"/>
<polygon fill="#9a32cd" stroke="#9a32cd" points="778.69,-91.47 768.99,-95.74 779.24,-98.45 778.69,-91.47"/>
</a>
</g>
<text text-anchor="middle" x="865" y="-123.55" font-family="Arial" font-size="11.00" fill="grey"> m_notifications</text>
</g>
<!-- Node17 -->
<g id="Node000017" class="node">
<title>Node17</title>
<g id="a_Node000017"><a xlink:title=" ">
<polygon fill="white" stroke="#bfbfbf" points="488,-92 314.5,-92 314.5,-57 488,-57 488,-92"/>
<text text-anchor="start" x="322.5" y="-77.55" font-family="Arial" font-size="11.00">vector&lt; ElevationChart</text>
<text text-anchor="middle" x="401.25" y="-64.05" font-family="Arial" font-size="11.00">::NotificationModel::Notification &gt;</text>
</a>
</g>
</g>
<!-- Node17&#45;&gt;Node16 -->
<g id="edge20_Node000016_Node000017" class="edge">
<title>Node17&#45;&gt;Node16</title>
<g id="a_edge20_Node000016_Node000017"><a xlink:title=" ">
<path fill="none" stroke="#9a32cd" stroke-dasharray="5,2" d="M499.17,-83.41C555.55,-88.6 624.17,-94.91 669.28,-99.05"/>
<polygon fill="#9a32cd" stroke="#9a32cd" points="499.71,-79.85 489.43,-82.42 499.07,-86.83 499.71,-79.85"/>
</a>
</g>
<text text-anchor="middle" x="558.62" y="-96.55" font-family="Arial" font-size="11.00" fill="grey"> m_storage</text>
</g>
<!-- Node18 -->
<g id="Node000018" class="node">
<title>Node18</title>
<g id="a_Node000018"><a xlink:title=" ">
<polygon fill="white" stroke="#bfbfbf" points="464.38,-39 338.12,-39 338.12,-4 464.38,-4 464.38,-39"/>
<text text-anchor="start" x="346.12" y="-24.55" font-family="Arial" font-size="11.00">map&lt; NotificationType,</text>
<text text-anchor="middle" x="401.25" y="-11.05" font-family="Arial" font-size="11.00"> QString &gt;</text>
</a>
</g>
</g>
<!-- Node18&#45;&gt;Node16 -->
<g id="edge21_Node000016_Node000018" class="edge">
<title>Node18&#45;&gt;Node16</title>
<g id="a_edge21_Node000016_Node000018"><a xlink:title=" ">
<path fill="none" stroke="#9a32cd" stroke-dasharray="5,2" d="M475.69,-28.88C517.17,-35.2 569.01,-46.81 611.25,-68 620.69,-72.73 619.82,-78.75 629.25,-83.5 641.47,-89.66 655.59,-93.94 668.91,-96.91"/>
<polygon fill="#9a32cd" stroke="#9a32cd" points="476.23,-25.28 465.84,-27.31 475.23,-32.2 476.23,-25.28"/>
</a>
</g>
<text text-anchor="middle" x="558.62" y="-71.55" font-family="Arial" font-size="11.00" fill="grey"> m_dictionary</text>
</g>
<!-- Node19 -->
<g id="Node000019" class="node">
<title>Node19</title>
<g id="a_Node000019"><a xlink:href="../../dc/da9/classElevationChart_1_1Metrics.html" target="_top" xlink:title="Класс&#45;гаджет, хранящий входные данные для расчета коррекции по ЛТХ.">
<polygon fill="white" stroke="#666666" points="743.88,-74.25 693.38,-74.25 693.38,-52.75 743.88,-52.75 743.88,-74.25"/>
<text text-anchor="middle" x="718.62" y="-59.8" font-family="Arial" font-size="11.00">Metrics</text>
</a>
</g>
</g>
<!-- Node19&#45;&gt;Node3 -->
<g id="edge22_Node000003_Node000019" class="edge">
<title>Node19&#45;&gt;Node3</title>
<g id="a_edge22_Node000003_Node000019"><a xlink:title=" ">
<path fill="none" stroke="#9a32cd" stroke-dasharray="5,2" d="M754.99,-56.11C795.3,-49.82 861.15,-46.34 904,-79 964.35,-124.99 973.52,-227.51 974.89,-261.39"/>
<polygon fill="#9a32cd" stroke="#9a32cd" points="754.6,-52.79 745.33,-57.93 755.78,-59.7 754.6,-52.79"/>
</a>
</g>
<text text-anchor="middle" x="865" y="-82.55" font-family="Arial" font-size="11.00" fill="grey"> m_metrics</text>
</g>
<!-- Node20 -->
<g id="Node000020" class="node">
<title>Node20</title>
<g id="a_Node000020"><a xlink:title=" ">
<polygon fill="white" stroke="#bfbfbf" points="792.62,-35 644.62,-35 644.62,0 792.62,0 792.62,-35"/>
<text text-anchor="start" x="652.62" y="-20.55" font-family="Arial" font-size="11.00">unique_ptr&lt; ElevationChart</text>
<text text-anchor="middle" x="718.62" y="-7.05" font-family="Arial" font-size="11.00">::IElevationDataProvider &gt;</text>
</a>
</g>
</g>
<!-- Node20&#45;&gt;Node3 -->
<g id="edge23_Node000003_Node000020" class="edge">
<title>Node20&#45;&gt;Node3</title>
<g id="a_edge23_Node000003_Node000020"><a xlink:title=" ">
<path fill="none" stroke="#9a32cd" stroke-dasharray="5,2" d="M803.53,-6.72C838.11,-6.79 876.44,-13.29 904,-36 975.47,-94.9 976.97,-222.77 975.69,-261.3"/>
<polygon fill="#9a32cd" stroke="#9a32cd" points="803.88,-3.23 793.94,-6.9 804,-10.23 803.88,-3.23"/>
</a>
</g>
<text text-anchor="middle" x="865" y="-39.55" font-family="Arial" font-size="11.00" fill="grey"> m_provider</text>
</g>
<!-- Node21 -->
<g id="Node000021" class="node">
<title>Node21</title>
<g id="a_Node000021"><a xlink:title=" ">
<polygon fill="white" stroke="#bfbfbf" points="781.75,-506 655.5,-506 655.5,-471 781.75,-471 781.75,-506"/>
<text text-anchor="start" x="663.5" y="-491.55" font-family="Arial" font-size="11.00">vector&lt; ElevationChart</text>
<text text-anchor="middle" x="718.62" y="-478.05" font-family="Arial" font-size="11.00">::IntersectionPoint &gt;</text>
</a>
</g>
</g>
<!-- Node21&#45;&gt;Node3 -->
<g id="edge25_Node000003_Node000021" class="edge">
<title>Node21&#45;&gt;Node3</title>
<g id="a_edge25_Node000003_Node000021"><a xlink:title=" ">
<path fill="none" stroke="#9a32cd" stroke-dasharray="5,2" d="M792.72,-492.06C829.75,-490.14 873.25,-481.72 904,-456.5 959.88,-410.68 971.96,-315.39 974.48,-283.31"/>
<polygon fill="#9a32cd" stroke="#9a32cd" points="792.83,-488.58 782.96,-492.44 793.08,-495.58 792.83,-488.58"/>
</a>
</g>
<text text-anchor="middle" x="865" y="-490.55" font-family="Arial" font-size="11.00" fill="grey"> m_intersections</text>
</g>
</g>
</svg>
