<?xml version="1.0" encoding="UTF-8" standalone="no"?>
<!DOCTYPE svg PUBLIC "-//W3C//DTD SVG 1.1//EN"
 "http://www.w3.org/Graphics/SVG/1.1/DTD/svg11.dtd">
<!-- Generated by graphviz version 8.0.5 (0)
 -->
<!-- Title: API Pages: 1 -->
<svg width="218pt" height="230pt"
 viewBox="0.00 0.00 217.50 230.00" xmlns="http://www.w3.org/2000/svg" xmlns:xlink="http://www.w3.org/1999/xlink">

<svg id="main" version="1.1" xmlns="http://www.w3.org/2000/svg" xmlns:xlink="http://www.w3.org/1999/xlink" xml:space="preserve" onload="init(evt)">
<style type="text/css"><![CDATA[
.node, .edge {opacity: 0.7;}
.node.selected, .edge.selected {opacity: 1;}
.edge:hover path { stroke: red; }
.edge:hover polygon { stroke: red; fill: red; }
]]></style>
<script type="application/ecmascript" xlink:href="../../svg.min.js"/>
<svg id="graph" class="graph">
<g id="graph0" class="graph" transform="scale(1 1) rotate(0) translate(4 226)">
<title>API</title>
<!-- Node1 -->
<g id="Node000001" class="node">
<title>Node1</title>
<g id="a_Node000001"><a xlink:title="Публичный интерфейс (C++) для виджета профиля высот.">
<polygon fill="#999999" stroke="#666666" points="48.5,-21.5 14.5,-21.5 14.5,0 48.5,0 48.5,-21.5"/>
<text text-anchor="middle" x="31.5" y="-7.05" font-family="Arial" font-size="11.00">API</text>
</a>
</g>
</g>
<!-- Node2 -->
<g id="Node000002" class="node">
<title>Node2</title>
<g id="a_Node000002"><a xlink:title=" ">
<polygon fill="white" stroke="#bfbfbf" points="55,-222 0,-222 0,-200.5 55,-200.5 55,-222"/>
<text text-anchor="middle" x="27.5" y="-207.55" font-family="Arial" font-size="11.00">QObject</text>
</a>
</g>
</g>
<!-- Node2&#45;&gt;Node1 -->
<g id="edge1_Node000001_Node000002" class="edge">
<title>Node2&#45;&gt;Node1</title>
<g id="a_edge1_Node000001_Node000002"><a xlink:title=" ">
<path fill="none" stroke="#63b8ff" d="M27.92,-189.19C28.78,-146.74 30.68,-52.32 31.3,-21.61"/>
<polygon fill="#63b8ff" stroke="#63b8ff" points="24.41,-189.06 27.7,-199.13 31.4,-189.21 24.41,-189.06"/>
</a>
</g>
</g>
<!-- Node4 -->
<g id="Node000004" class="node">
<title>Node4</title>
<g id="a_Node000004"><a xlink:href="../../d7/d4d/classQQuickItem.html" target="_top" xlink:title=" ">
<polygon fill="white" stroke="#bfbfbf" points="115.62,-163.5 43.38,-163.5 43.38,-142 115.62,-142 115.62,-163.5"/>
<text text-anchor="middle" x="79.5" y="-149.05" font-family="Arial" font-size="11.00">QQuickItem</text>
</a>
</g>
</g>
<!-- Node2&#45;&gt;Node4 -->
<g id="edge4_Node000004_Node000002" class="edge">
<title>Node2&#45;&gt;Node4</title>
<g id="a_edge4_Node000004_Node000002"><a xlink:title=" ">
<path fill="none" stroke="#63b8ff" d="M44.16,-192.14C52.82,-182.74 63.06,-171.61 70.28,-163.76"/>
<polygon fill="#63b8ff" stroke="#63b8ff" points="41.99,-189.42 37.8,-199.15 47.14,-194.16 41.99,-189.42"/>
</a>
</g>
</g>
<!-- Node3 -->
<g id="Node000003" class="node">
<title>Node3</title>
<g id="a_Node000003"><a xlink:href="../../d1/d7c/classElevationChart_1_1ChartItem.html" target="_top" xlink:title=" ">
<polygon fill="white" stroke="#bfbfbf" points="111.5,-92.5 47.5,-92.5 47.5,-71 111.5,-71 111.5,-92.5"/>
<text text-anchor="middle" x="79.5" y="-78.05" font-family="Arial" font-size="11.00">ChartItem</text>
</a>
</g>
</g>
<!-- Node3&#45;&gt;Node1 -->
<g id="edge2_Node000001_Node000003" class="edge">
<title>Node3&#45;&gt;Node1</title>
<g id="a_edge2_Node000001_Node000003"><a xlink:title=" ">
<path fill="none" stroke="#9a32cd" stroke-dasharray="5,2" d="M66.18,-61.61C57.26,-48.78 45.85,-32.38 38.61,-21.97"/>
<polygon fill="#9a32cd" stroke="#9a32cd" points="63.83,-63.36 72.42,-69.57 69.58,-59.36 63.83,-63.36"/>
</a>
</g>
<text text-anchor="middle" x="85.62" y="-42.55" font-family="Arial" font-size="11.00" fill="grey"> m_source</text>
</g>
<!-- Node4&#45;&gt;Node3 -->
<g id="edge3_Node000003_Node000004" class="edge">
<title>Node4&#45;&gt;Node3</title>
<g id="a_edge3_Node000003_Node000004"><a xlink:title=" ">
<path fill="none" stroke="#63b8ff" d="M79.5,-130.7C79.5,-118.18 79.5,-102.87 79.5,-92.97"/>
<polygon fill="#63b8ff" stroke="#63b8ff" points="76,-130.57 79.5,-140.57 83,-130.57 76,-130.57"/>
</a>
</g>
</g>
<!-- Node5 -->
<g id="Node000005" class="node">
<title>Node5</title>
<g id="a_Node000005"><a xlink:href="../../d8/d37/classSG_1_1BasicPalette.html" target="_top" xlink:title="Простейшая палитра цветов.">
<polygon fill="white" stroke="#666666" points="209.5,-163.5 133.5,-163.5 133.5,-142 209.5,-142 209.5,-163.5"/>
<text text-anchor="middle" x="171.5" y="-149.05" font-family="Arial" font-size="11.00">BasicPalette</text>
</a>
</g>
</g>
<!-- Node5&#45;&gt;Node3 -->
<g id="edge5_Node000003_Node000005" class="edge">
<title>Node5&#45;&gt;Node3</title>
<g id="a_edge5_Node000003_Node000005"><a xlink:title=" ">
<path fill="none" stroke="#9a32cd" stroke-dasharray="5,2" d="M149.43,-135.2C131.91,-122.06 107.97,-104.1 93.13,-92.97"/>
<polygon fill="#9a32cd" stroke="#9a32cd" points="146.83,-138.37 156.93,-141.57 151.03,-132.77 146.83,-138.37"/>
</a>
</g>
<text text-anchor="middle" x="158.62" y="-113.55" font-family="Arial" font-size="11.00" fill="grey"> m_palette</text>
</g>
</g>
</svg>
</svg>

<style type='text/css'>
<![CDATA[
[data-mouse-over-selected='false'] { opacity: 0.7; }
[data-mouse-over-selected='true']  { opacity: 1.0; }
]]>
</style>
<script type="application/ecmascript"><![CDATA[
document.addEventListener('DOMContentLoaded', (event) => {
  highlightEdges();
  highlightAdjacentNodes();
});
]]></script>
</svg>
