<?xml version="1.0" encoding="UTF-8" standalone="no"?>
<!DOCTYPE svg PUBLIC "-//W3C//DTD SVG 1.1//EN"
 "http://www.w3.org/Graphics/SVG/1.1/DTD/svg11.dtd">
<!-- Generated by graphviz version 8.0.5 (0)
 -->
<!-- Title: API Pages: 1 -->
<svg width="1155pt" height="587pt"
 viewBox="0.00 0.00 1154.75 586.50" xmlns="http://www.w3.org/2000/svg" xmlns:xlink="http://www.w3.org/1999/xlink">
<g id="graph0" class="graph" transform="scale(1 1) rotate(0) translate(4 582.5)">
<title>API</title>
<!-- Node1 -->
<g id="Node000001" class="node">
<title>Node1</title>
<g id="a_Node000001"><a xlink:title="Публичный интерфейс (C++) для виджета профиля высот.">
<polygon fill="#999999" stroke="#666666" points="1146.75,-507.25 1112.75,-507.25 1112.75,-485.75 1146.75,-485.75 1146.75,-507.25"/>
<text text-anchor="middle" x="1129.75" y="-492.8" font-family="Arial" font-size="11.00">API</text>
</a>
</g>
</g>
<!-- Node2 -->
<g id="Node000002" class="node">
<title>Node2</title>
<g id="a_Node000002"><a xlink:title=" ">
<polygon fill="white" stroke="#bfbfbf" points="55,-352.25 0,-352.25 0,-330.75 55,-330.75 55,-352.25"/>
<text text-anchor="middle" x="27.5" y="-337.8" font-family="Arial" font-size="11.00">QObject</text>
</a>
</g>
</g>
<!-- Node2&#45;&gt;Node1 -->
<g id="edge1_Node000001_Node000002" class="edge">
<title>Node2&#45;&gt;Node1</title>
<g id="a_edge1_Node000001_Node000002"><a xlink:title=" ">
<path fill="none" stroke="#63b8ff" d="M29.42,-363.24C33.17,-421.8 52.18,-578.5 148.12,-578.5 148.12,-578.5 148.12,-578.5 973.38,-578.5 1033.46,-578.5 1093.08,-529.94 1117.37,-507.56"/>
<polygon fill="#63b8ff" stroke="#63b8ff" points="32.88,-363.41 28.84,-353.61 25.89,-363.79 32.88,-363.41"/>
</a>
</g>
</g>
<!-- Node5 -->
<g id="Node000005" class="node">
<title>Node5</title>
<g id="a_Node000005"><a xlink:title=" ">
<polygon fill="white" stroke="#bfbfbf" points="185.25,-383.25 113,-383.25 113,-361.75 185.25,-361.75 185.25,-383.25"/>
<text text-anchor="middle" x="149.12" y="-368.8" font-family="Arial" font-size="11.00">QQuickItem</text>
</a>
</g>
</g>
<!-- Node2&#45;&gt;Node5 -->
<g id="edge5_Node000005_Node000002" class="edge">
<title>Node2&#45;&gt;Node5</title>
<g id="a_edge5_Node000005_Node000002"><a xlink:title=" ">
<path fill="none" stroke="#63b8ff" d="M65.8,-351.17C80.78,-355.05 97.96,-359.5 112.74,-363.33"/>
<polygon fill="#63b8ff" stroke="#63b8ff" points="66.9,-347.58 56.35,-348.46 65.15,-354.35 66.9,-347.58"/>
</a>
</g>
</g>
<!-- Node8 -->
<g id="Node000008" class="node">
<title>Node8</title>
<g id="a_Node000008"><a xlink:href="../../df/d15/classElevationChart_1_1Researcher.html" target="_top" xlink:title=" ">
<polygon fill="white" stroke="#bfbfbf" points="296.5,-330.25 224.25,-330.25 224.25,-308.75 296.5,-308.75 296.5,-330.25"/>
<text text-anchor="middle" x="260.38" y="-315.8" font-family="Arial" font-size="11.00">Researcher</text>
</a>
</g>
</g>
<!-- Node2&#45;&gt;Node8 -->
<g id="edge9_Node000008_Node000002" class="edge">
<title>Node2&#45;&gt;Node8</title>
<g id="a_edge9_Node000008_Node000002"><a xlink:title=" ">
<path fill="none" stroke="#63b8ff" d="M66.17,-337.91C109.84,-333.75 181.26,-326.94 223.95,-322.88"/>
<polygon fill="#63b8ff" stroke="#63b8ff" points="66.06,-334.5 56.44,-338.93 66.72,-341.47 66.06,-334.5"/>
</a>
</g>
</g>
<!-- Node14 -->
<g id="Node000014" class="node">
<title>Node14</title>
<g id="a_Node000014"><a xlink:title=" ">
<polygon fill="white" stroke="#bfbfbf" points="206.25,-248.25 92,-248.25 92,-226.75 206.25,-226.75 206.25,-248.25"/>
<text text-anchor="middle" x="149.12" y="-233.8" font-family="Arial" font-size="11.00">QAbstractItemModel</text>
</a>
</g>
</g>
<!-- Node2&#45;&gt;Node14 -->
<g id="edge16_Node000014_Node000002" class="edge">
<title>Node2&#45;&gt;Node14</title>
<g id="a_edge16_Node000014_Node000002"><a xlink:title=" ">
<path fill="none" stroke="#63b8ff" d="M49.37,-323.36C74.2,-301.77 114.88,-266.4 135.42,-248.55"/>
<polygon fill="#63b8ff" stroke="#63b8ff" points="47.55,-321.17 42.3,-330.37 52.15,-326.45 47.55,-321.17"/>
</a>
</g>
</g>
<!-- Node3 -->
<g id="Node000003" class="node">
<title>Node3</title>
<g id="a_Node000003"><a xlink:href="../../d2/d6b/classElevationChart_1_1ElevationChartItem.html" target="_top" xlink:title="Основной класс библиотеки.">
<polygon fill="white" stroke="#666666" points="1026.5,-347.25 918.25,-347.25 918.25,-325.75 1026.5,-325.75 1026.5,-347.25"/>
<text text-anchor="middle" x="972.38" y="-332.8" font-family="Arial" font-size="11.00">ElevationChartItem</text>
</a>
</g>
</g>
<!-- Node3&#45;&gt;Node1 -->
<g id="edge2_Node000001_Node000003" class="edge">
<title>Node3&#45;&gt;Node1</title>
<g id="a_edge2_Node000001_Node000003"><a xlink:title=" ">
<path fill="none" stroke="#9a32cd" stroke-dasharray="5,2" d="M991.55,-355.22C1024.19,-388.82 1091.75,-458.4 1118,-485.43"/>
<polygon fill="#9a32cd" stroke="#9a32cd" points="994.53,-353.23 985.05,-348.5 989.51,-358.11 994.53,-353.23"/>
</a>
</g>
<text text-anchor="middle" x="1069.62" y="-460.55" font-family="Arial" font-size="11.00" fill="grey"> m_source</text>
</g>
<!-- Node4 -->
<g id="Node000004" class="node">
<title>Node4</title>
<g id="a_Node000004"><a xlink:href="../../da/d9a/classLPVL_1_1ScenegraphObject.html" target="_top" xlink:title="Базовый класс для объектов Qt Quick Scenegraph.">
<polygon fill="white" stroke="#666666" points="611.25,-435.25 506,-435.25 506,-413.75 611.25,-413.75 611.25,-435.25"/>
<text text-anchor="middle" x="558.62" y="-420.8" font-family="Arial" font-size="11.00">ScenegraphObject</text>
</a>
</g>
</g>
<!-- Node4&#45;&gt;Node3 -->
<g id="edge3_Node000003_Node000004" class="edge">
<title>Node4&#45;&gt;Node3</title>
<g id="a_edge3_Node000003_Node000004"><a xlink:title=" ">
<path fill="none" stroke="#63b8ff" d="M622.41,-435.35C694.43,-444.5 813.69,-449.34 900.25,-400.5 925.42,-386.3 949.23,-361.83 961.91,-347.62"/>
<polygon fill="#63b8ff" stroke="#63b8ff" points="623.08,-431.77 612.71,-433.91 622.15,-438.71 623.08,-431.77"/>
</a>
</g>
</g>
<!-- Node5&#45;&gt;Node4 -->
<g id="edge4_Node000004_Node000005" class="edge">
<title>Node5&#45;&gt;Node4</title>
<g id="a_edge4_Node000004_Node000005"><a xlink:title=" ">
<path fill="none" stroke="#63b8ff" d="M196.29,-378.39C272.79,-388.15 425.32,-407.62 505.54,-417.85"/>
<polygon fill="#63b8ff" stroke="#63b8ff" points="196.94,-374.82 186.58,-377.02 196.05,-381.76 196.94,-374.82"/>
</a>
</g>
</g>
<!-- Node6 -->
<g id="Node000006" class="node">
<title>Node6</title>
<g id="a_Node000006"><a xlink:title=" ">
<polygon fill="white" stroke="#bfbfbf" points="808,-419 629.25,-419 629.25,-384 808,-384 808,-419"/>
<text text-anchor="start" x="637.25" y="-404.55" font-family="Arial" font-size="11.00">map&lt; NodeTypes, QSGGeometry</text>
<text text-anchor="middle" x="718.62" y="-391.05" font-family="Arial" font-size="11.00">Node * &gt;</text>
</a>
</g>
</g>
<!-- Node6&#45;&gt;Node3 -->
<g id="edge6_Node000003_Node000006" class="edge">
<title>Node6&#45;&gt;Node3</title>
<g id="a_edge6_Node000003_Node000006"><a xlink:title=" ">
<path fill="none" stroke="#9a32cd" stroke-dasharray="5,2" d="M818.64,-384.43C845.36,-378.95 874.11,-372.26 900.25,-364.5 915.77,-359.89 932.65,-353.32 946.07,-347.7"/>
<polygon fill="#9a32cd" stroke="#9a32cd" points="818.23,-381.14 809.12,-386.55 819.61,-388 818.23,-381.14"/>
</a>
</g>
<text text-anchor="middle" x="863.12" y="-385.55" font-family="Arial" font-size="11.00" fill="grey"> m_tree</text>
</g>
<!-- Node7 -->
<g id="Node000007" class="node">
<title>Node7</title>
<g id="a_Node000007"><a xlink:href="../../d4/dae/classLPVL_1_1BasicPalette.html" target="_top" xlink:title="Простейшая палитра цветов.">
<polygon fill="white" stroke="#666666" points="756.62,-366.25 680.62,-366.25 680.62,-344.75 756.62,-344.75 756.62,-366.25"/>
<text text-anchor="middle" x="718.62" y="-351.8" font-family="Arial" font-size="11.00">BasicPalette</text>
</a>
</g>
</g>
<!-- Node7&#45;&gt;Node3 -->
<g id="edge7_Node000003_Node000007" class="edge">
<title>Node7&#45;&gt;Node3</title>
<g id="a_edge7_Node000003_Node000007"><a xlink:title=" ">
<path fill="none" stroke="#9a32cd" stroke-dasharray="5,2" d="M767.78,-351.87C810.7,-348.63 873.44,-343.89 917.91,-340.54"/>
<polygon fill="#9a32cd" stroke="#9a32cd" points="767.75,-348.43 758.04,-352.68 768.28,-355.41 767.75,-348.43"/>
</a>
</g>
<text text-anchor="middle" x="863.12" y="-349.55" font-family="Arial" font-size="11.00" fill="grey"> m_palette</text>
</g>
<!-- Node8&#45;&gt;Node3 -->
<g id="edge8_Node000003_Node000008" class="edge">
<title>Node8&#45;&gt;Node3</title>
<g id="a_edge8_Node000003_Node000008"><a xlink:title=" ">
<path fill="none" stroke="#9a32cd" stroke-dasharray="5,2" d="M307.37,-320.6C433.34,-323.62 783.5,-332 917.9,-335.22"/>
<polygon fill="#9a32cd" stroke="#9a32cd" points="307.66,-317.08 297.58,-320.34 307.5,-324.08 307.66,-317.08"/>
</a>
</g>
<text text-anchor="middle" x="558.62" y="-330.55" font-family="Arial" font-size="11.00" fill="grey"> m_researcher</text>
</g>
<!-- Node9 -->
<g id="Node000009" class="node">
<title>Node9</title>
<g id="a_Node000009"><a xlink:href="../../d6/d1e/classElevationChart_1_1Bounds.html" target="_top" xlink:title="Класс&#45;гаджет, хранящий предельные значения осей X и Y.">
<polygon fill="white" stroke="#666666" points="745,-288.25 692.25,-288.25 692.25,-266.75 745,-266.75 745,-288.25"/>
<text text-anchor="middle" x="718.62" y="-273.8" font-family="Arial" font-size="11.00">Bounds</text>
</a>
</g>
</g>
<!-- Node9&#45;&gt;Node3 -->
<g id="edge10_Node000003_Node000009" class="edge">
<title>Node9&#45;&gt;Node3</title>
<g id="a_edge10_Node000003_Node000009"><a xlink:title=" ">
<path fill="none" stroke="#9a32cd" stroke-dasharray="5,2" d="M756.09,-274.37C793.34,-272.42 852.37,-272.8 900.25,-289 923.32,-296.8 946.02,-314.1 959.36,-325.53"/>
<polygon fill="#9a32cd" stroke="#9a32cd" points="756.02,-270.93 746.26,-275.04 756.45,-277.92 756.02,-270.93"/>
</a>
</g>
<text text-anchor="middle" x="863.12" y="-291.55" font-family="Arial" font-size="11.00" fill="grey"> m_bounds</text>
</g>
<!-- Node10 -->
<g id="Node000010" class="node">
<title>Node10</title>
<g id="a_Node000010"><a xlink:href="../../de/d39/classElevationChart_1_1Route.html" target="_top" xlink:title="Набор последовательных точек на карте.">
<polygon fill="white" stroke="#666666" points="741.25,-248.25 696,-248.25 696,-226.75 741.25,-226.75 741.25,-248.25"/>
<text text-anchor="middle" x="718.62" y="-233.8" font-family="Arial" font-size="11.00">Route</text>
</a>
</g>
</g>
<!-- Node10&#45;&gt;Node3 -->
<g id="edge11_Node000003_Node000010" class="edge">
<title>Node10&#45;&gt;Node3</title>
<g id="a_edge11_Node000003_Node000010"><a xlink:title=" ">
<path fill="none" stroke="#9a32cd" stroke-dasharray="5,2" d="M752.5,-234.24C790.31,-231.97 853.21,-232.85 900.25,-257 930.89,-272.73 954.56,-307.57 965.2,-325.45"/>
<polygon fill="#9a32cd" stroke="#9a32cd" points="752.34,-230.81 742.62,-235.02 752.85,-237.79 752.34,-230.81"/>
</a>
</g>
<text text-anchor="middle" x="863.12" y="-259.55" font-family="Arial" font-size="11.00" fill="grey"> m_route</text>
</g>
<!-- Node11 -->
<g id="Node000011" class="node">
<title>Node11</title>
<g id="a_Node000011"><a xlink:title=" ">
<polygon fill="white" stroke="#bfbfbf" points="464.38,-255 338.12,-255 338.12,-220 464.38,-220 464.38,-255"/>
<text text-anchor="start" x="346.12" y="-240.55" font-family="Arial" font-size="11.00">vector&lt; ElevationChart</text>
<text text-anchor="middle" x="401.25" y="-227.05" font-family="Arial" font-size="11.00">::RoutePoint &gt;</text>
</a>
</g>
</g>
<!-- Node11&#45;&gt;Node10 -->
<g id="edge12_Node000010_Node000011" class="edge">
<title>Node11&#45;&gt;Node10</title>
<g id="a_edge12_Node000010_Node000011"><a xlink:title=" ">
<path fill="none" stroke="#9a32cd" stroke-dasharray="5,2" d="M475.28,-237.5C546.69,-237.5 651.02,-237.5 695.84,-237.5"/>
<polygon fill="#9a32cd" stroke="#9a32cd" points="475.56,-234 465.56,-237.5 475.56,-241 475.56,-234"/>
</a>
</g>
<text text-anchor="middle" x="558.62" y="-240.55" font-family="Arial" font-size="11.00" fill="grey"> m_vec</text>
</g>
<!-- Node12 -->
<g id="Node000012" class="node">
<title>Node12</title>
<g id="a_Node000012"><a xlink:href="../../d6/de1/classElevationChart_1_1RouteModel.html" target="_top" xlink:title="Модель точек пути для профиля высот.">
<polygon fill="white" stroke="#666666" points="755.88,-208.25 681.38,-208.25 681.38,-186.75 755.88,-186.75 755.88,-208.25"/>
<text text-anchor="middle" x="718.62" y="-193.8" font-family="Arial" font-size="11.00">RouteModel</text>
</a>
</g>
</g>
<!-- Node12&#45;&gt;Node3 -->
<g id="edge13_Node000003_Node000012" class="edge">
<title>Node12&#45;&gt;Node3</title>
<g id="a_edge13_Node000003_Node000012"><a xlink:title=" ">
<path fill="none" stroke="#9a32cd" stroke-dasharray="5,2" d="M766.83,-192.29C805.67,-190.39 860.58,-193.43 900.25,-219 940.14,-244.71 960.99,-301.45 968.3,-325.44"/>
<polygon fill="#9a32cd" stroke="#9a32cd" points="767.09,-188.83 757.33,-192.94 767.53,-195.81 767.09,-188.83"/>
</a>
</g>
<text text-anchor="middle" x="863.12" y="-221.55" font-family="Arial" font-size="11.00" fill="grey"> m_model</text>
</g>
<!-- Node13 -->
<g id="Node000013" class="node">
<title>Node13</title>
<g id="a_Node000013"><a xlink:title=" ">
<polygon fill="white" stroke="#bfbfbf" points="456.12,-135.25 346.38,-135.25 346.38,-113.75 456.12,-113.75 456.12,-135.25"/>
<text text-anchor="middle" x="401.25" y="-120.8" font-family="Arial" font-size="11.00">QAbstractListModel</text>
</a>
</g>
</g>
<!-- Node13&#45;&gt;Node12 -->
<g id="edge14_Node000012_Node000013" class="edge">
<title>Node13&#45;&gt;Node12</title>
<g id="a_edge14_Node000012_Node000013"><a xlink:title=" ">
<path fill="none" stroke="#63b8ff" d="M461.27,-138.16C525.87,-153.12 627.42,-176.62 681.27,-189.09"/>
<polygon fill="#63b8ff" stroke="#63b8ff" points="462.37,-134.59 451.84,-135.75 460.79,-141.41 462.37,-134.59"/>
</a>
</g>
</g>
<!-- Node16 -->
<g id="Node000016" class="node">
<title>Node16</title>
<g id="a_Node000016"><a xlink:href="../../d4/d99/classElevationChart_1_1NotificationModel.html" target="_top" xlink:title="Модель оповещений об ошибках в маршруте.">
<polygon fill="white" stroke="#666666" points="767.88,-93.25 669.38,-93.25 669.38,-71.75 767.88,-71.75 767.88,-93.25"/>
<text text-anchor="middle" x="718.62" y="-78.8" font-family="Arial" font-size="11.00">NotificationModel</text>
</a>
</g>
</g>
<!-- Node13&#45;&gt;Node16 -->
<g id="edge19_Node000016_Node000013" class="edge">
<title>Node13&#45;&gt;Node16</title>
<g id="a_edge19_Node000016_Node000013"><a xlink:title=" ">
<path fill="none" stroke="#63b8ff" d="M467.33,-115.83C527.3,-107.85 614.95,-96.17 669.03,-88.97"/>
<polygon fill="#63b8ff" stroke="#63b8ff" points="466.92,-112.49 457.46,-117.28 467.84,-119.43 466.92,-112.49"/>
</a>
</g>
</g>
<!-- Node14&#45;&gt;Node13 -->
<g id="edge15_Node000013_Node000014" class="edge">
<title>Node14&#45;&gt;Node13</title>
<g id="a_edge15_Node000013_Node000014"><a xlink:title=" ">
<path fill="none" stroke="#63b8ff" d="M178.11,-221.25C210.3,-202.99 265.08,-173.19 314.5,-152.5 329.52,-146.21 346.49,-140.41 361.35,-135.74"/>
<polygon fill="#63b8ff" stroke="#63b8ff" points="176.82,-218.53 169.88,-226.53 180.3,-224.61 176.82,-218.53"/>
</a>
</g>
</g>
<!-- Node15 -->
<g id="Node000015" class="node">
<title>Node15</title>
<g id="a_Node000015"><a xlink:title=" ">
<polygon fill="white" stroke="#bfbfbf" points="464.38,-197 338.12,-197 338.12,-162 464.38,-162 464.38,-197"/>
<text text-anchor="start" x="346.12" y="-182.55" font-family="Arial" font-size="11.00">vector&lt; ElevationChart</text>
<text text-anchor="middle" x="401.25" y="-169.05" font-family="Arial" font-size="11.00">::ElevationPoint &gt;</text>
</a>
</g>
</g>
<!-- Node15&#45;&gt;Node3 -->
<g id="edge24_Node000003_Node000015" class="edge">
<title>Node15&#45;&gt;Node3</title>
<g id="a_edge24_Node000003_Node000015"><a xlink:title=" ">
<path fill="none" stroke="#9a32cd" stroke-dasharray="5,2" d="M475.52,-162.31C557.4,-145.85 693.51,-126.75 808,-150.5 851.76,-159.58 867.96,-159.61 900.25,-190.5 941.61,-230.07 962.1,-298.69 968.81,-325.41"/>
<polygon fill="#9a32cd" stroke="#9a32cd" points="474.91,-159.06 465.82,-164.5 476.32,-165.92 474.91,-159.06"/>
</a>
</g>
<text text-anchor="middle" x="718.62" y="-167.05" font-family="Arial" font-size="11.00" fill="grey"> m_intersections</text>
<text text-anchor="middle" x="718.62" y="-153.55" font-family="Arial" font-size="11.00" fill="grey">m_profile</text>
</g>
<!-- Node15&#45;&gt;Node12 -->
<g id="edge17_Node000012_Node000015" class="edge">
<title>Node15&#45;&gt;Node12</title>
<g id="a_edge17_Node000012_Node000015"><a xlink:title=" ">
<path fill="none" stroke="#9a32cd" stroke-dasharray="5,2" d="M475.45,-183.68C539.86,-187.35 630.94,-192.55 681.04,-195.41"/>
<polygon fill="#9a32cd" stroke="#9a32cd" points="475.74,-180.13 465.56,-183.06 475.34,-187.12 475.74,-180.13"/>
</a>
</g>
<text text-anchor="middle" x="558.62" y="-194.55" font-family="Arial" font-size="11.00" fill="grey"> m_storage</text>
</g>
<!-- Node16&#45;&gt;Node3 -->
<g id="edge18_Node000003_Node000016" class="edge">
<title>Node16&#45;&gt;Node3</title>
<g id="a_edge18_Node000003_Node000016"><a xlink:title=" ">
<path fill="none" stroke="#9a32cd" stroke-dasharray="5,2" d="M779.03,-78.01C817.88,-78.32 867.35,-85.32 900.25,-114 965.82,-171.16 971.44,-288.74 971.54,-325.36"/>
<polygon fill="#9a32cd" stroke="#9a32cd" points="779.35,-74.52 769.37,-78.09 779.4,-81.52 779.35,-74.52"/>
</a>
</g>
<text text-anchor="middle" x="863.12" y="-117.55" font-family="Arial" font-size="11.00" fill="grey"> m_notifications</text>
</g>
<!-- Node17 -->
<g id="Node000017" class="node">
<title>Node17</title>
<g id="a_Node000017"><a xlink:title=" ">
<polygon fill="white" stroke="#bfbfbf" points="488,-35 314.5,-35 314.5,0 488,0 488,-35"/>
<text text-anchor="start" x="322.5" y="-20.55" font-family="Arial" font-size="11.00">vector&lt; ElevationChart</text>
<text text-anchor="middle" x="401.25" y="-7.05" font-family="Arial" font-size="11.00">::NotificationModel::Notification &gt;</text>
</a>
</g>
</g>
<!-- Node17&#45;&gt;Node16 -->
<g id="edge20_Node000016_Node000017" class="edge">
<title>Node17&#45;&gt;Node16</title>
<g id="a_edge20_Node000016_Node000017"><a xlink:title=" ">
<path fill="none" stroke="#9a32cd" stroke-dasharray="5,2" d="M499.18,-31.11C534.62,-36.71 574.92,-43.82 611.25,-52 635.24,-57.4 661.83,-65.03 682.43,-71.3"/>
<polygon fill="#9a32cd" stroke="#9a32cd" points="499.77,-27.5 489.35,-29.42 498.69,-34.42 499.77,-27.5"/>
</a>
</g>
<text text-anchor="middle" x="558.62" y="-55.55" font-family="Arial" font-size="11.00" fill="grey"> m_storage</text>
</g>
<!-- Node18 -->
<g id="Node000018" class="node">
<title>Node18</title>
<g id="a_Node000018"><a xlink:title=" ">
<polygon fill="white" stroke="#bfbfbf" points="464.38,-88 338.12,-88 338.12,-53 464.38,-53 464.38,-88"/>
<text text-anchor="start" x="346.12" y="-73.55" font-family="Arial" font-size="11.00">map&lt; NotificationType,</text>
<text text-anchor="middle" x="401.25" y="-60.05" font-family="Arial" font-size="11.00"> QString &gt;</text>
</a>
</g>
</g>
<!-- Node18&#45;&gt;Node16 -->
<g id="edge21_Node000016_Node000018" class="edge">
<title>Node18&#45;&gt;Node16</title>
<g id="a_edge21_Node000016_Node000018"><a xlink:title=" ">
<path fill="none" stroke="#9a32cd" stroke-dasharray="5,2" d="M475.25,-69.39C515.41,-69.2 566.11,-69.62 611.25,-72 630.15,-73 650.88,-74.87 668.98,-76.76"/>
<polygon fill="#9a32cd" stroke="#9a32cd" points="475.46,-65.9 465.48,-69.46 475.5,-72.9 475.46,-65.9"/>
</a>
</g>
<text text-anchor="middle" x="558.62" y="-75.55" font-family="Arial" font-size="11.00" fill="grey"> m_dictionary</text>
</g>
<!-- Node19 -->
<g id="Node000019" class="node">
<title>Node19</title>
<g id="a_Node000019"><a xlink:href="../../dc/da9/classElevationChart_1_1Metrics.html" target="_top" xlink:title="Класс&#45;гаджет, хранящий входные данные для расчета коррекции по ЛТХ.">
<polygon fill="white" stroke="#666666" points="743.88,-550.25 693.38,-550.25 693.38,-528.75 743.88,-528.75 743.88,-550.25"/>
<text text-anchor="middle" x="718.62" y="-535.8" font-family="Arial" font-size="11.00">Metrics</text>
</a>
</g>
</g>
<!-- Node19&#45;&gt;Node3 -->
<g id="edge22_Node000003_Node000019" class="edge">
<title>Node19&#45;&gt;Node3</title>
<g id="a_edge22_Node000003_Node000019"><a xlink:title=" ">
<path fill="none" stroke="#9a32cd" stroke-dasharray="5,2" d="M754.96,-542.65C794.6,-544.25 858.78,-540.76 900.25,-507.5 952.67,-465.46 966.9,-378.09 970.36,-347.42"/>
<polygon fill="#9a32cd" stroke="#9a32cd" points="755.39,-539.12 745.22,-542.07 755.02,-546.11 755.39,-539.12"/>
</a>
</g>
<text text-anchor="middle" x="863.12" y="-540.55" font-family="Arial" font-size="11.00" fill="grey"> m_metrics</text>
</g>
<!-- Node20 -->
<g id="Node000020" class="node">
<title>Node20</title>
<g id="a_Node000020"><a xlink:title=" ">
<polygon fill="white" stroke="#bfbfbf" points="792.62,-511 644.62,-511 644.62,-476 792.62,-476 792.62,-511"/>
<text text-anchor="start" x="652.62" y="-496.55" font-family="Arial" font-size="11.00">unique_ptr&lt; ElevationChart</text>
<text text-anchor="middle" x="718.62" y="-483.05" font-family="Arial" font-size="11.00">::IElevationDataProvider &gt;</text>
</a>
</g>
</g>
<!-- Node20&#45;&gt;Node3 -->
<g id="edge23_Node000003_Node000020" class="edge">
<title>Node20&#45;&gt;Node3</title>
<g id="a_edge23_Node000003_Node000020"><a xlink:title=" ">
<path fill="none" stroke="#9a32cd" stroke-dasharray="5,2" d="M803.74,-493.55C836.34,-489.94 872.43,-481.13 900.25,-461.5 941.05,-432.71 961.51,-372.61 968.51,-347.69"/>
<polygon fill="#9a32cd" stroke="#9a32cd" points="803.47,-490.16 793.84,-494.59 804.13,-497.13 803.47,-490.16"/>
</a>
</g>
<text text-anchor="middle" x="863.12" y="-492.55" font-family="Arial" font-size="11.00" fill="grey"> m_provider</text>
</g>
</g>
</svg>
