<?xml version="1.0" encoding="UTF-8" standalone="no"?>
<!DOCTYPE svg PUBLIC "-//W3C//DTD SVG 1.1//EN"
 "http://www.w3.org/Graphics/SVG/1.1/DTD/svg11.dtd">
<!-- Generated by graphviz version 8.0.5 (0)
 -->
<!-- Title: API Pages: 1 -->
<!--zoomable 414 -->

<svg id="main" version="1.1" xmlns="http://www.w3.org/2000/svg" xmlns:xlink="http://www.w3.org/1999/xlink" xml:space="preserve" onload="init(evt)">
<style type="text/css"><![CDATA[
.node, .edge {opacity: 0.7;}
.node.selected, .edge.selected {opacity: 1;}
.edge:hover path { stroke: red; }
.edge:hover polygon { stroke: red; fill: red; }
]]></style>

<defs>
  <circle id="rim" cx="0" cy="0" r="7"/>
  <circle id="rim2" cx="0" cy="0" r="3.5"/>
  <g id="zoomPlus">
    <use xlink:href="#rim" fill="#404040"><set attributeName="fill" to="#808080" begin="zoomplus.mouseover" end="zoomplus.mouseout"/></use>
    <path d="M-4,0h8M0,-4v8" fill="none" stroke="white" stroke-width="1.5" pointer-events="none"/>
  </g>
  <g id="zoomMin">
    <use xlink:href="#rim" fill="#404040"><set attributeName="fill" to="#808080" begin="zoomminus.mouseover" end="zoomminus.mouseout"/></use>
    <path d="M-4,0h8" fill="none" stroke="white" stroke-width="1.5" pointer-events="none"/>
  </g>
  <g id="arrowUp" transform="translate(30 24)">
    <use xlink:href="#rim"/>
    <path pointer-events="none" fill="none" stroke="white" stroke-width="1.5" d="M0,-3.0v7 M-2.5,-0.5L0,-3.0L2.5,-0.5"/>
  </g>
  <g id="arrowRight" transform="rotate(90) translate(36 -43)">
    <use xlink:href="#rim"/>
    <path pointer-events="none" fill="none" stroke="white" stroke-width="1.5" d="M0,-3.0v7 M-2.5,-0.5L0,-3.0L2.5,-0.5"/>
  </g>
  <g id="arrowDown" transform="rotate(180) translate(-30 -48)">
    <use xlink:href="#rim"/>
    <path pointer-events="none" fill="none" stroke="white" stroke-width="1.5" d="M0,-3.0v7 M-2.5,-0.5L0,-3.0L2.5,-0.5"/>
  </g>
  <g id="arrowLeft" transform="rotate(270) translate(-36 17)">
    <use xlink:href="#rim"/>
    <path pointer-events="none" fill="none" stroke="white" stroke-width="1.5" d="M0,-3.0v7 M-2.5,-0.5L0,-3.0L2.5,-0.5"/>
  </g>
  <g id="resetDef">
    <use xlink:href="#rim2" fill="#404040"><set attributeName="fill" to="#808080" begin="reset.mouseover" end="reset.mouseout"/></use>
  </g>
</defs>
<script type="application/ecmascript">
var viewWidth = 1062;
var viewHeight = 414;
var sectionId = 'dynsection-1';
</script>
<script type="application/ecmascript" xlink:href="../../svg.min.js"/>
<svg id="graph" class="graph">
<g id="viewport">
<title>API</title>
<!-- Node1 -->
<g id="Node000001" class="node">
<title>Node1</title>
<g id="a_Node000001"><a xlink:title="Публичный интерфейс (C++) для виджета профиля высот.">
<polygon fill="#999999" stroke="#666666" points="1053.75,-328.15 1019.75,-328.15 1019.75,-306.65 1053.75,-306.65 1053.75,-328.15"/>
<text text-anchor="middle" x="1036.75" y="-313.7" font-family="Arial" font-size="11.00">API</text>
</a>
</g>
</g>
<!-- Node2 -->
<g id="Node000002" class="node">
<title>Node2</title>
<g id="a_Node000002"><a xlink:title=" ">
<polygon fill="white" stroke="#bfbfbf" points="55,-326.15 0,-326.15 0,-304.65 55,-304.65 55,-326.15"/>
<text text-anchor="middle" x="27.5" y="-311.7" font-family="Arial" font-size="11.00">QObject</text>
</a>
</g>
</g>
<!-- Node2&#45;&gt;Node1 -->
<g id="edge1_Node000001_Node000002" class="edge">
<title>Node2&#45;&gt;Node1</title>
<g id="a_edge1_Node000001_Node000002"><a xlink:title=" ">
<path fill="none" stroke="#63b8ff" d="M41.81,-335.19C61.58,-361.96 101.44,-406.4 148.12,-406.4 148.12,-406.4 148.12,-406.4 880.38,-406.4 942.55,-406.4 1002.41,-352.08 1025.62,-328.31"/>
<polygon fill="#63b8ff" stroke="#63b8ff" points="44.32,-333.68 35.68,-327.56 38.62,-337.74 44.32,-333.68"/>
</a>
</g>
</g>
<!-- Node5 -->
<g id="Node000005" class="node">
<title>Node5</title>
<g id="a_Node000005"><a xlink:href="../../d7/d4d/classQQuickItem.html" target="_top" xlink:title=" ">
<polygon fill="white" stroke="#bfbfbf" points="185.25,-326.15 113,-326.15 113,-304.65 185.25,-304.65 185.25,-326.15"/>
<text text-anchor="middle" x="149.12" y="-311.7" font-family="Arial" font-size="11.00">QQuickItem</text>
</a>
</g>
</g>
<!-- Node2&#45;&gt;Node5 -->
<g id="edge5_Node000005_Node000002" class="edge">
<title>Node2&#45;&gt;Node5</title>
<g id="a_edge5_Node000005_Node000002"><a xlink:title=" ">
<path fill="none" stroke="#63b8ff" d="M66.23,-315.4C81.11,-315.4 98.1,-315.4 112.74,-315.4"/>
<polygon fill="#63b8ff" stroke="#63b8ff" points="66.35,-311.9 56.35,-315.4 66.35,-318.9 66.35,-311.9"/>
</a>
</g>
</g>
<!-- Node13 -->
<g id="Node000013" class="node">
<title>Node13</title>
<g id="a_Node000013"><a xlink:href="../../d0/d5a/classQAbstractItemModel.html" target="_top" xlink:title=" ">
<polygon fill="white" stroke="#bfbfbf" points="206.25,-286.15 92,-286.15 92,-264.65 206.25,-264.65 206.25,-286.15"/>
<text text-anchor="middle" x="149.12" y="-271.7" font-family="Arial" font-size="11.00">QAbstractItemModel</text>
</a>
</g>
</g>
<!-- Node2&#45;&gt;Node13 -->
<g id="edge14_Node000013_Node000002" class="edge">
<title>Node2&#45;&gt;Node13</title>
<g id="a_edge14_Node000013_Node000002"><a xlink:title=" ">
<path fill="none" stroke="#63b8ff" d="M65.7,-302.96C81.31,-297.74 99.32,-291.72 114.52,-286.64"/>
<polygon fill="#63b8ff" stroke="#63b8ff" points="64.72,-299.93 56.35,-306.43 66.94,-306.57 64.72,-299.93"/>
</a>
</g>
</g>
<!-- Node3 -->
<g id="Node000003" class="node">
<title>Node3</title>
<g id="a_Node000003"><a xlink:href="../../d2/d6b/classElevationChart_1_1ElevationChartItem.html" target="_top" xlink:title="Основной класс библиотеки.">
<polygon fill="white" stroke="#666666" points="933.5,-217.15 825.25,-217.15 825.25,-195.65 933.5,-195.65 933.5,-217.15"/>
<text text-anchor="middle" x="879.38" y="-202.7" font-family="Arial" font-size="11.00">ElevationChartItem</text>
</a>
</g>
</g>
<!-- Node3&#45;&gt;Node1 -->
<g id="edge2_Node000001_Node000003" class="edge">
<title>Node3&#45;&gt;Node1</title>
<g id="a_edge2_Node000001_Node000003"><a xlink:title=" ">
<path fill="none" stroke="#9a32cd" stroke-dasharray="5,2" d="M904.67,-223.76C937.02,-246.87 993.28,-287.06 1020.35,-306.4"/>
<polygon fill="#9a32cd" stroke="#9a32cd" points="907.01,-220.42 896.84,-217.45 902.94,-226.11 907.01,-220.42"/>
</a>
</g>
<text text-anchor="middle" x="976.62" y="-293.45" font-family="Arial" font-size="11.00" fill="grey"> m_source</text>
</g>
<!-- Node4 -->
<g id="Node000004" class="node">
<title>Node4</title>
<g id="a_Node000004"><a xlink:href="../../d6/d6b/classSG_1_1ScenegraphObject.html" target="_top" xlink:title="Базовый класс для объектов Qt Quick Scenegraph.">
<polygon fill="white" stroke="#666666" points="492.75,-325.15 387.5,-325.15 387.5,-303.65 492.75,-303.65 492.75,-325.15"/>
<text text-anchor="middle" x="440.12" y="-310.7" font-family="Arial" font-size="11.00">ScenegraphObject</text>
</a>
</g>
</g>
<!-- Node4&#45;&gt;Node3 -->
<g id="edge3_Node000003_Node000004" class="edge">
<title>Node4&#45;&gt;Node3</title>
<g id="a_edge3_Node000003_Node000004"><a xlink:title=" ">
<path fill="none" stroke="#63b8ff" d="M504.01,-321.24C580.11,-326.64 710.11,-326.51 807.25,-277.4 835.43,-263.15 859.32,-233.56 870.89,-217.44"/>
<polygon fill="#63b8ff" stroke="#63b8ff" points="504.42,-317.68 494.18,-320.4 503.88,-324.66 504.42,-317.68"/>
</a>
</g>
</g>
<!-- Node5&#45;&gt;Node4 -->
<g id="edge4_Node000004_Node000005" class="edge">
<title>Node5&#45;&gt;Node4</title>
<g id="a_edge4_Node000004_Node000005"><a xlink:title=" ">
<path fill="none" stroke="#63b8ff" d="M196.47,-315.24C248.5,-315.06 332.73,-314.77 387.01,-314.58"/>
<polygon fill="#63b8ff" stroke="#63b8ff" points="196.55,-311.74 186.56,-315.28 196.57,-318.74 196.55,-311.74"/>
</a>
</g>
</g>
<!-- Node6 -->
<g id="Node000006" class="node">
<title>Node6</title>
<g id="a_Node000006"><a xlink:title=" ">
<polygon fill="white" stroke="#bfbfbf" points="689.5,-246.9 510.75,-246.9 510.75,-211.9 689.5,-211.9 689.5,-246.9"/>
<text text-anchor="start" x="518.75" y="-232.45" font-family="Arial" font-size="11.00">map&lt; NodeTypes, QSGGeometry</text>
<text text-anchor="middle" x="600.12" y="-218.95" font-family="Arial" font-size="11.00">Node * &gt;</text>
</a>
</g>
</g>
<!-- Node6&#45;&gt;Node3 -->
<g id="edge6_Node000003_Node000006" class="edge">
<title>Node6&#45;&gt;Node3</title>
<g id="a_edge6_Node000003_Node000006"><a xlink:title=" ">
<path fill="none" stroke="#9a32cd" stroke-dasharray="5,2" d="M700.83,-221.13C742.8,-217.65 789.96,-213.74 825.12,-210.82"/>
<polygon fill="#9a32cd" stroke="#9a32cd" points="700.67,-217.71 690.99,-222.03 701.25,-224.69 700.67,-217.71"/>
</a>
</g>
<text text-anchor="middle" x="757.38" y="-222.45" font-family="Arial" font-size="11.00" fill="grey"> m_tree</text>
</g>
<!-- Node7 -->
<g id="Node000007" class="node">
<title>Node7</title>
<g id="a_Node000007"><a xlink:href="../../d8/d37/classSG_1_1BasicPalette.html" target="_top" xlink:title="Простейшая палитра цветов.">
<polygon fill="white" stroke="#666666" points="638.12,-194.15 562.12,-194.15 562.12,-172.65 638.12,-172.65 638.12,-194.15"/>
<text text-anchor="middle" x="600.12" y="-179.7" font-family="Arial" font-size="11.00">BasicPalette</text>
</a>
</g>
</g>
<!-- Node7&#45;&gt;Node3 -->
<g id="edge7_Node000003_Node000007" class="edge">
<title>Node7&#45;&gt;Node3</title>
<g id="a_edge7_Node000003_Node000007"><a xlink:title=" ">
<path fill="none" stroke="#9a32cd" stroke-dasharray="5,2" d="M649.43,-184.67C691.28,-186.11 753.39,-189.06 807.25,-194.9 812.97,-195.52 818.93,-196.29 824.86,-197.13"/>
<polygon fill="#9a32cd" stroke="#9a32cd" points="649.57,-181.14 639.46,-184.31 649.34,-188.14 649.57,-181.14"/>
</a>
</g>
<text text-anchor="middle" x="757.38" y="-197.45" font-family="Arial" font-size="11.00" fill="grey"> m_palette</text>
</g>
<!-- Node8 -->
<g id="Node000008" class="node">
<title>Node8</title>
<g id="a_Node000008"><a xlink:href="../../d6/d1e/classElevationChart_1_1Bounds.html" target="_top" xlink:title="Класс&#45;гаджет, хранящий предельные значения осей X и Y.">
<polygon fill="white" stroke="#666666" points="626.5,-154.15 573.75,-154.15 573.75,-132.65 626.5,-132.65 626.5,-154.15"/>
<text text-anchor="middle" x="600.12" y="-139.7" font-family="Arial" font-size="11.00">Bounds</text>
</a>
</g>
</g>
<!-- Node8&#45;&gt;Node3 -->
<g id="edge8_Node000003_Node000008" class="edge">
<title>Node8&#45;&gt;Node3</title>
<g id="a_edge8_Node000003_Node000008"><a xlink:title=" ">
<path fill="none" stroke="#9a32cd" stroke-dasharray="5,2" d="M637.55,-144.3C679.38,-146.19 749.65,-152.02 807.25,-169.9 826.6,-175.91 847.01,-186.94 860.98,-195.3"/>
<polygon fill="#9a32cd" stroke="#9a32cd" points="637.92,-140.77 627.79,-143.87 637.64,-147.77 637.92,-140.77"/>
</a>
</g>
<text text-anchor="middle" x="757.38" y="-172.45" font-family="Arial" font-size="11.00" fill="grey"> m_bounds</text>
</g>
<!-- Node9 -->
<g id="Node000009" class="node">
<title>Node9</title>
<g id="a_Node000009"><a xlink:href="../../de/d39/classElevationChart_1_1Route.html" target="_top" xlink:title="Набор последовательных точек на карте.">
<polygon fill="white" stroke="#666666" points="622.75,-65.15 577.5,-65.15 577.5,-43.65 622.75,-43.65 622.75,-65.15"/>
<text text-anchor="middle" x="600.12" y="-50.7" font-family="Arial" font-size="11.00">Route</text>
</a>
</g>
</g>
<!-- Node9&#45;&gt;Node3 -->
<g id="edge9_Node000003_Node000009" class="edge">
<title>Node9&#45;&gt;Node3</title>
<g id="a_edge9_Node000003_Node000009"><a xlink:title=" ">
<path fill="none" stroke="#9a32cd" stroke-dasharray="5,2" d="M633.99,-48.6C677.47,-42.78 754.75,-39.04 807.25,-73.9 851.4,-103.22 870.25,-169.36 876.17,-195.49"/>
<polygon fill="#9a32cd" stroke="#9a32cd" points="633.57,-45.27 624.18,-50.19 634.58,-52.2 633.57,-45.27"/>
</a>
</g>
<text text-anchor="middle" x="757.38" y="-77.45" font-family="Arial" font-size="11.00" fill="grey"> m_route</text>
</g>
<!-- Node10 -->
<g id="Node000010" class="node">
<title>Node10</title>
<g id="a_Node000010"><a xlink:title=" ">
<polygon fill="white" stroke="#bfbfbf" points="369.5,-71.9 243.25,-71.9 243.25,-36.9 369.5,-36.9 369.5,-71.9"/>
<text text-anchor="start" x="251.25" y="-57.45" font-family="Arial" font-size="11.00">vector&lt; ElevationChart</text>
<text text-anchor="middle" x="306.38" y="-43.95" font-family="Arial" font-size="11.00">::RoutePoint &gt;</text>
</a>
</g>
</g>
<!-- Node10&#45;&gt;Node9 -->
<g id="edge10_Node000009_Node000010" class="edge">
<title>Node10&#45;&gt;Node9</title>
<g id="a_edge10_Node000009_Node000010"><a xlink:title=" ">
<path fill="none" stroke="#9a32cd" stroke-dasharray="5,2" d="M380.93,-54.4C445.7,-54.4 535.92,-54.4 577.08,-54.4"/>
<polygon fill="#9a32cd" stroke="#9a32cd" points="380.96,-50.9 370.96,-54.4 380.96,-57.9 380.96,-50.9"/>
</a>
</g>
<text text-anchor="middle" x="440.12" y="-57.45" font-family="Arial" font-size="11.00" fill="grey"> m_vec</text>
</g>
<!-- Node11 -->
<g id="Node000011" class="node">
<title>Node11</title>
<g id="a_Node000011"><a xlink:href="../../d6/de1/classElevationChart_1_1RouteModel.html" target="_top" xlink:title="Модель точек пути для профиля высот.">
<polygon fill="white" stroke="#666666" points="637.38,-286.15 562.88,-286.15 562.88,-264.65 637.38,-264.65 637.38,-286.15"/>
<text text-anchor="middle" x="600.12" y="-271.7" font-family="Arial" font-size="11.00">RouteModel</text>
</a>
</g>
</g>
<!-- Node11&#45;&gt;Node3 -->
<g id="edge11_Node000003_Node000011" class="edge">
<title>Node11&#45;&gt;Node3</title>
<g id="a_edge11_Node000003_Node000011"><a xlink:title=" ">
<path fill="none" stroke="#9a32cd" stroke-dasharray="5,2" d="M648.65,-269.78C690.91,-264.05 754.06,-253.66 807.25,-237.4 824.25,-232.2 842.63,-224.12 856.45,-217.52"/>
<polygon fill="#9a32cd" stroke="#9a32cd" points="648.3,-266.43 638.85,-271.21 649.22,-273.37 648.3,-266.43"/>
</a>
</g>
<text text-anchor="middle" x="757.38" y="-262.45" font-family="Arial" font-size="11.00" fill="grey"> m_model</text>
</g>
<!-- Node12 -->
<g id="Node000012" class="node">
<title>Node12</title>
<g id="a_Node000012"><a xlink:href="../../d5/d2d/classQAbstractListModel.html" target="_top" xlink:title=" ">
<polygon fill="white" stroke="#bfbfbf" points="361.25,-286.15 251.5,-286.15 251.5,-264.65 361.25,-264.65 361.25,-286.15"/>
<text text-anchor="middle" x="306.38" y="-271.7" font-family="Arial" font-size="11.00">QAbstractListModel</text>
</a>
</g>
</g>
<!-- Node12&#45;&gt;Node11 -->
<g id="edge12_Node000011_Node000012" class="edge">
<title>Node12&#45;&gt;Node11</title>
<g id="a_edge12_Node000011_Node000012"><a xlink:title=" ">
<path fill="none" stroke="#63b8ff" d="M372.21,-275.4C430.86,-275.4 515.13,-275.4 562.74,-275.4"/>
<polygon fill="#63b8ff" stroke="#63b8ff" points="372.57,-271.9 362.57,-275.4 372.57,-278.9 372.57,-271.9"/>
</a>
</g>
</g>
<!-- Node13&#45;&gt;Node12 -->
<g id="edge13_Node000012_Node000013" class="edge">
<title>Node13&#45;&gt;Node12</title>
<g id="a_edge13_Node000012_Node000013"><a xlink:title=" ">
<path fill="none" stroke="#63b8ff" d="M217.29,-275.4C228.55,-275.4 240.11,-275.4 251,-275.4"/>
<polygon fill="#63b8ff" stroke="#63b8ff" points="217.61,-271.9 207.61,-275.4 217.61,-278.9 217.61,-271.9"/>
</a>
</g>
</g>
<!-- Node14 -->
<g id="Node000014" class="node">
<title>Node14</title>
<g id="a_Node000014"><a xlink:title=" ">
<polygon fill="white" stroke="#bfbfbf" points="369.5,-185.9 243.25,-185.9 243.25,-150.9 369.5,-150.9 369.5,-185.9"/>
<text text-anchor="start" x="251.25" y="-171.45" font-family="Arial" font-size="11.00">vector&lt; ElevationChart</text>
<text text-anchor="middle" x="306.38" y="-157.95" font-family="Arial" font-size="11.00">::ElevationPoint &gt;</text>
</a>
</g>
</g>
<!-- Node14&#45;&gt;Node3 -->
<g id="edge18_Node000003_Node000014" class="edge">
<title>Node14&#45;&gt;Node3</title>
<g id="a_edge18_Node000003_Node000014"><a xlink:title=" ">
<path fill="none" stroke="#9a32cd" stroke-dasharray="5,2" d="M365.84,-146.86C405.98,-133.24 460.82,-116.94 510.75,-109.9 589.42,-98.81 610.95,-98.01 689.5,-109.9 743.67,-118.11 759.18,-120.1 807.25,-146.4 831.63,-159.74 855.35,-182.24 868.3,-195.57"/>
<polygon fill="#9a32cd" stroke="#9a32cd" points="364.76,-143.87 356.44,-150.43 367.04,-150.49 364.76,-143.87"/>
</a>
</g>
<text text-anchor="middle" x="600.12" y="-112.45" font-family="Arial" font-size="11.00" fill="grey"> m_profile</text>
</g>
<!-- Node14&#45;&gt;Node11 -->
<g id="edge15_Node000011_Node000014" class="edge">
<title>Node14&#45;&gt;Node11</title>
<g id="a_edge15_Node000011_Node000014"><a xlink:title=" ">
<path fill="none" stroke="#9a32cd" stroke-dasharray="5,2" d="M352.77,-191.12C393.35,-210.67 454.85,-238.49 510.75,-256.4 527.49,-261.76 546.5,-266.07 562.58,-269.22"/>
<polygon fill="#9a32cd" stroke="#9a32cd" points="354.45,-187.56 343.92,-186.34 351.39,-193.85 354.45,-187.56"/>
</a>
</g>
<text text-anchor="middle" x="440.12" y="-251.45" font-family="Arial" font-size="11.00" fill="grey"> m_storage</text>
</g>
<!-- Node15 -->
<g id="Node000015" class="node">
<title>Node15</title>
<g id="a_Node000015"><a xlink:href="../../dc/da9/classElevationChart_1_1Metrics.html" target="_top" xlink:title="Класс&#45;гаджет, хранящий входные данные для расчета коррекции по ЛТХ.">
<polygon fill="white" stroke="#666666" points="625.38,-25.15 574.88,-25.15 574.88,-3.65 625.38,-3.65 625.38,-25.15"/>
<text text-anchor="middle" x="600.12" y="-10.7" font-family="Arial" font-size="11.00">Metrics</text>
</a>
</g>
</g>
<!-- Node15&#45;&gt;Node3 -->
<g id="edge16_Node000003_Node000015" class="edge">
<title>Node15&#45;&gt;Node3</title>
<g id="a_edge16_Node000003_Node000015"><a xlink:title=" ">
<path fill="none" stroke="#9a32cd" stroke-dasharray="5,2" d="M636.38,-6.44C680.73,1.44 757.14,7.63 807.25,-28.9 863.58,-69.97 875.36,-163.1 877.77,-195.25"/>
<polygon fill="#9a32cd" stroke="#9a32cd" points="635.99,-3.14 626.83,-8.45 637.31,-10.01 635.99,-3.14"/>
</a>
</g>
<text text-anchor="middle" x="757.38" y="-32.45" font-family="Arial" font-size="11.00" fill="grey"> m_metrics</text>
</g>
<!-- Node16 -->
<g id="Node000016" class="node">
<title>Node16</title>
<g id="a_Node000016"><a xlink:title=" ">
<polygon fill="white" stroke="#bfbfbf" points="674.12,-377.9 526.12,-377.9 526.12,-342.9 674.12,-342.9 674.12,-377.9"/>
<text text-anchor="start" x="534.12" y="-363.45" font-family="Arial" font-size="11.00">unique_ptr&lt; ElevationChart</text>
<text text-anchor="middle" x="600.12" y="-349.95" font-family="Arial" font-size="11.00">::RandomDataProvider &gt;</text>
</a>
</g>
</g>
<!-- Node16&#45;&gt;Node3 -->
<g id="edge17_Node000003_Node000016" class="edge">
<title>Node16&#45;&gt;Node3</title>
<g id="a_edge17_Node000003_Node000016"><a xlink:title=" ">
<path fill="none" stroke="#9a32cd" stroke-dasharray="5,2" d="M685.29,-363.53C725.26,-361.18 771.9,-352.51 807.25,-328.4 847.76,-300.78 868.38,-241.85 875.47,-217.4"/>
<polygon fill="#9a32cd" stroke="#9a32cd" points="685.31,-360.07 675.48,-364.02 685.63,-367.06 685.31,-360.07"/>
</a>
</g>
<text text-anchor="middle" x="757.38" y="-363.45" font-family="Arial" font-size="11.00" fill="grey"> m_random_provider</text>
</g>
</g>
</svg>

<g id="navigator" transform="translate(0 0)" fill="#404254">
  <rect fill="#f2f5e9" fill-opacity="0.5" stroke="#606060" stroke-width=".5" x="0" y="0" width="60" height="60"/>
  <use id="zoomplus" xlink:href="#zoomPlus" x="17" y="9" onmousedown="handleZoom(evt,'in')"/>
  <use id="zoomminus" xlink:href="#zoomMin" x="42" y="9" onmousedown="handleZoom(evt,'out')"/>
  <use id="reset" xlink:href="#resetDef" x="30" y="36" onmousedown="handleReset()"/>
   <use id="arrowup" xlink:href="#arrowUp" x="0" y="0" onmousedown="handlePan(0,-1)"/>
  <use id="arrowright" xlink:href="#arrowRight" x="0" y="0" onmousedown="handlePan(1,0)"/>
  <use id="arrowdown" xlink:href="#arrowDown" x="0" y="0" onmousedown="handlePan(0,1)"/>
  <use id="arrowleft" xlink:href="#arrowLeft" x="0" y="0" onmousedown="handlePan(-1,0)"/>
</g>
<svg viewBox="0 0 15 15" width="100%" height="30px" preserveAspectRatio="xMaxYMin meet">
 <g id="arrow_out" transform="scale(0.3 0.3)">
  <a xlink:href="classElevationChart_1_1API__coll__graph_org.svg" target="_base">
   <rect id="button" ry="5" rx="5" y="6" x="6" height="38" width="38"
        fill="#f2f5e9" fill-opacity="0.5" stroke="#606060" stroke-width="1.0"/>
   <path id="arrow"
     d="M 11.500037,31.436501 C 11.940474,20.09759 22.043105,11.32322 32.158766,21.979434 L 37.068811,17.246167 C 37.068811,17.246167 37.088388,32 37.088388,32 L 22.160133,31.978069 C 22.160133,31.978069 26.997745,27.140456 26.997745,27.140456 C 18.528582,18.264221 13.291696,25.230495 11.500037,31.436501 z"
     style="fill:#404040;"/>
  </a>
 </g>
</svg>

<style type='text/css'>
<![CDATA[
[data-mouse-over-selected='false'] { opacity: 0.7; }
[data-mouse-over-selected='true']  { opacity: 1.0; }
]]>
</style>
<script type="application/ecmascript"><![CDATA[
document.addEventListener('DOMContentLoaded', (event) => {
  highlightEdges();
  highlightAdjacentNodes();
});
]]></script>
</svg>
