<?xml version="1.0" encoding="UTF-8" standalone="no"?>
<!DOCTYPE svg PUBLIC "-//W3C//DTD SVG 1.1//EN"
 "http://www.w3.org/Graphics/SVG/1.1/DTD/svg11.dtd">
<!-- Generated by graphviz version 8.0.5 (0)
 -->
<!-- Title: API Pages: 1 -->
<svg width="1051pt" height="326pt"
 viewBox="0.00 0.00 1051.00 325.50" xmlns="http://www.w3.org/2000/svg" xmlns:xlink="http://www.w3.org/1999/xlink">
<g id="graph0" class="graph" transform="scale(1 1) rotate(0) translate(4 321.5)">
<title>API</title>
<!-- Node1 -->
<g id="Node000001" class="node">
<title>Node1</title>
<g id="a_Node000001"><a xlink:title="Публичный интерфейс (C++) для виджета профиля высот.">
<polygon fill="#999999" stroke="#666666" points="1043,-262.25 1009,-262.25 1009,-240.75 1043,-240.75 1043,-262.25"/>
<text text-anchor="middle" x="1026" y="-247.8" font-family="Arial" font-size="11.00">API</text>
</a>
</g>
</g>
<!-- Node2 -->
<g id="Node000002" class="node">
<title>Node2</title>
<g id="a_Node000002"><a xlink:title=" ">
<polygon fill="white" stroke="#bfbfbf" points="55,-236.25 0,-236.25 0,-214.75 55,-214.75 55,-236.25"/>
<text text-anchor="middle" x="27.5" y="-221.8" font-family="Arial" font-size="11.00">QObject</text>
</a>
</g>
</g>
<!-- Node2&#45;&gt;Node1 -->
<g id="edge1_Node000001_Node000002" class="edge">
<title>Node2&#45;&gt;Node1</title>
<g id="a_edge1_Node000001_Node000002"><a xlink:title=" ">
<path fill="none" stroke="#63b8ff" d="M41.47,-245.1C61.07,-272.12 101.02,-317.5 148.12,-317.5 148.12,-317.5 148.12,-317.5 869.62,-317.5 925.02,-317.5 983.31,-281.53 1010.03,-262.7"/>
<polygon fill="#63b8ff" stroke="#63b8ff" points="43.99,-243.61 35.4,-237.41 38.26,-247.62 43.99,-243.61"/>
</a>
</g>
</g>
<!-- Node4 -->
<g id="Node000004" class="node">
<title>Node4</title>
<g id="a_Node000004"><a xlink:href="../../d7/d4d/classQQuickItem.html" target="_top" xlink:title=" ">
<polygon fill="white" stroke="#bfbfbf" points="296.5,-236.25 224.25,-236.25 224.25,-214.75 296.5,-214.75 296.5,-236.25"/>
<text text-anchor="middle" x="260.38" y="-221.8" font-family="Arial" font-size="11.00">QQuickItem</text>
</a>
</g>
</g>
<!-- Node2&#45;&gt;Node4 -->
<g id="edge4_Node000004_Node000002" class="edge">
<title>Node2&#45;&gt;Node4</title>
<g id="a_edge4_Node000004_Node000002"><a xlink:title=" ">
<path fill="none" stroke="#63b8ff" d="M66.17,-225.5C109.84,-225.5 181.26,-225.5 223.95,-225.5"/>
<polygon fill="#63b8ff" stroke="#63b8ff" points="66.44,-222 56.44,-225.5 66.44,-229 66.44,-222"/>
</a>
</g>
</g>
<!-- Node11 -->
<g id="Node000011" class="node">
<title>Node11</title>
<g id="a_Node000011"><a xlink:href="../../d0/d5a/classQAbstractItemModel.html" target="_top" xlink:title=" ">
<polygon fill="white" stroke="#bfbfbf" points="206.25,-197.25 92,-197.25 92,-175.75 206.25,-175.75 206.25,-197.25"/>
<text text-anchor="middle" x="149.12" y="-182.8" font-family="Arial" font-size="11.00">QAbstractItemModel</text>
</a>
</g>
</g>
<!-- Node2&#45;&gt;Node11 -->
<g id="edge12_Node000011_Node000002" class="edge">
<title>Node2&#45;&gt;Node11</title>
<g id="a_edge12_Node000011_Node000002"><a xlink:title=" ">
<path fill="none" stroke="#63b8ff" d="M65.53,-213.43C80.87,-208.43 98.57,-202.66 113.63,-197.74"/>
<polygon fill="#63b8ff" stroke="#63b8ff" points="64.77,-210.32 56.35,-216.75 66.94,-216.98 64.77,-210.32"/>
</a>
</g>
</g>
<!-- Node3 -->
<g id="Node000003" class="node">
<title>Node3</title>
<g id="a_Node000003"><a xlink:href="../../d2/d6b/classElevationChart_1_1ElevationChartItem.html" target="_top" xlink:title="Основной класс библиотеки.">
<polygon fill="white" stroke="#666666" points="922.75,-176.25 814.5,-176.25 814.5,-154.75 922.75,-154.75 922.75,-176.25"/>
<text text-anchor="middle" x="868.62" y="-161.8" font-family="Arial" font-size="11.00">ElevationChartItem</text>
</a>
</g>
</g>
<!-- Node3&#45;&gt;Node1 -->
<g id="edge2_Node000001_Node000003" class="edge">
<title>Node3&#45;&gt;Node1</title>
<g id="a_edge2_Node000001_Node000003"><a xlink:title=" ">
<path fill="none" stroke="#9a32cd" stroke-dasharray="5,2" d="M899.42,-181.99C932.04,-200.04 983.12,-228.32 1008.93,-242.61"/>
<polygon fill="#9a32cd" stroke="#9a32cd" points="901.38,-178.52 890.94,-176.74 897.99,-184.65 901.38,-178.52"/>
</a>
</g>
<text text-anchor="middle" x="965.88" y="-233.55" font-family="Arial" font-size="11.00" fill="grey"> m_source</text>
</g>
<!-- Node4&#45;&gt;Node3 -->
<g id="edge3_Node000003_Node000004" class="edge">
<title>Node4&#45;&gt;Node3</title>
<g id="a_edge3_Node000003_Node000004"><a xlink:title=" ">
<path fill="none" stroke="#63b8ff" d="M307.64,-228.9C401.5,-234.52 620.34,-241.08 796.5,-196.5 814.13,-192.04 832.94,-183.66 846.79,-176.74"/>
<polygon fill="#63b8ff" stroke="#63b8ff" points="308.02,-225.35 297.82,-228.22 307.58,-232.34 308.02,-225.35"/>
</a>
</g>
</g>
<!-- Node5 -->
<g id="Node000005" class="node">
<title>Node5</title>
<g id="a_Node000005"><a xlink:href="../../d8/d37/classSG_1_1BasicPalette.html" target="_top" xlink:title="Простейшая палитра цветов.">
<polygon fill="white" stroke="#666666" points="642.75,-157.25 566.75,-157.25 566.75,-135.75 642.75,-135.75 642.75,-157.25"/>
<text text-anchor="middle" x="604.75" y="-142.8" font-family="Arial" font-size="11.00">BasicPalette</text>
</a>
</g>
</g>
<!-- Node5&#45;&gt;Node3 -->
<g id="edge5_Node000003_Node000005" class="edge">
<title>Node5&#45;&gt;Node3</title>
<g id="a_edge5_Node000003_Node000005"><a xlink:title=" ">
<path fill="none" stroke="#9a32cd" stroke-dasharray="5,2" d="M654.11,-144.78C692.78,-144.03 748.29,-144.36 796.5,-150 805.04,-151 814.05,-152.56 822.7,-154.32"/>
<polygon fill="#9a32cd" stroke="#9a32cd" points="654.09,-141.3 644.18,-145.03 654.25,-148.3 654.09,-141.3"/>
</a>
</g>
<text text-anchor="middle" x="746.62" y="-152.55" font-family="Arial" font-size="11.00" fill="grey"> m_palette</text>
</g>
<!-- Node6 -->
<g id="Node000006" class="node">
<title>Node6</title>
<g id="a_Node000006"><a xlink:href="../../d6/d1e/classElevationChart_1_1Bounds.html" target="_top" xlink:title="Класс&#45;гаджет, хранящий предельные значения осей X и Y.">
<polygon fill="white" stroke="#666666" points="631.12,-117.25 578.38,-117.25 578.38,-95.75 631.12,-95.75 631.12,-117.25"/>
<text text-anchor="middle" x="604.75" y="-102.8" font-family="Arial" font-size="11.00">Bounds</text>
</a>
</g>
</g>
<!-- Node6&#45;&gt;Node3 -->
<g id="edge6_Node000003_Node000006" class="edge">
<title>Node6&#45;&gt;Node3</title>
<g id="a_edge6_Node000003_Node000006"><a xlink:title=" ">
<path fill="none" stroke="#9a32cd" stroke-dasharray="5,2" d="M642.19,-106.26C681.21,-106.95 744.54,-110.84 796.5,-127 816.61,-133.26 837.57,-145.4 851.48,-154.38"/>
<polygon fill="#9a32cd" stroke="#9a32cd" points="642.42,-102.75 632.38,-106.14 642.34,-109.75 642.42,-102.75"/>
</a>
</g>
<text text-anchor="middle" x="746.62" y="-129.55" font-family="Arial" font-size="11.00" fill="grey"> m_bounds</text>
</g>
<!-- Node7 -->
<g id="Node000007" class="node">
<title>Node7</title>
<g id="a_Node000007"><a xlink:href="../../de/d39/classElevationChart_1_1Route.html" target="_top" xlink:title="Набор последовательных точек на карте.">
<polygon fill="white" stroke="#666666" points="627.38,-28.25 582.12,-28.25 582.12,-6.75 627.38,-6.75 627.38,-28.25"/>
<text text-anchor="middle" x="604.75" y="-13.8" font-family="Arial" font-size="11.00">Route</text>
</a>
</g>
</g>
<!-- Node7&#45;&gt;Node3 -->
<g id="edge7_Node000003_Node000007" class="edge">
<title>Node7&#45;&gt;Node3</title>
<g id="a_edge7_Node000003_Node000007"><a xlink:title=" ">
<path fill="none" stroke="#9a32cd" stroke-dasharray="5,2" d="M638.5,-12.22C679.09,-7.49 748.74,-5.46 796.5,-37 839.48,-65.38 858.92,-128.98 865.2,-154.55"/>
<polygon fill="#9a32cd" stroke="#9a32cd" points="638.08,-8.88 628.62,-13.64 638.99,-15.82 638.08,-8.88"/>
</a>
</g>
<text text-anchor="middle" x="746.62" y="-40.55" font-family="Arial" font-size="11.00" fill="grey"> m_route</text>
</g>
<!-- Node8 -->
<g id="Node000008" class="node">
<title>Node8</title>
<g id="a_Node000008"><a xlink:title=" ">
<polygon fill="white" stroke="#bfbfbf" points="440.75,-35 314.5,-35 314.5,0 440.75,0 440.75,-35"/>
<text text-anchor="start" x="322.5" y="-20.55" font-family="Arial" font-size="11.00">vector&lt; ElevationChart</text>
<text text-anchor="middle" x="377.62" y="-7.05" font-family="Arial" font-size="11.00">::RoutePoint &gt;</text>
</a>
</g>
</g>
<!-- Node8&#45;&gt;Node7 -->
<g id="edge8_Node000007_Node000008" class="edge">
<title>Node8&#45;&gt;Node7</title>
<g id="a_edge8_Node000007_Node000008"><a xlink:title=" ">
<path fill="none" stroke="#9a32cd" stroke-dasharray="5,2" d="M451.98,-17.5C497.07,-17.5 551.76,-17.5 581.63,-17.5"/>
<polygon fill="#9a32cd" stroke="#9a32cd" points="452.04,-14 442.04,-17.5 452.04,-21 452.04,-14"/>
</a>
</g>
<text text-anchor="middle" x="485.75" y="-20.55" font-family="Arial" font-size="11.00" fill="grey"> m_vec</text>
</g>
<!-- Node9 -->
<g id="Node000009" class="node">
<title>Node9</title>
<g id="a_Node000009"><a xlink:href="../../d6/de1/classElevationChart_1_1RouteModel.html" target="_top" xlink:title="Модель точек пути для профиля высот.">
<polygon fill="white" stroke="#666666" points="642,-197.25 567.5,-197.25 567.5,-175.75 642,-175.75 642,-197.25"/>
<text text-anchor="middle" x="604.75" y="-182.8" font-family="Arial" font-size="11.00">RouteModel</text>
</a>
</g>
</g>
<!-- Node9&#45;&gt;Node3 -->
<g id="edge9_Node000003_Node000009" class="edge">
<title>Node9&#45;&gt;Node3</title>
<g id="a_edge9_Node000003_Node000009"><a xlink:title=" ">
<path fill="none" stroke="#9a32cd" stroke-dasharray="5,2" d="M653.19,-182.7C698.64,-179.05 767.13,-173.56 814.41,-169.77"/>
<polygon fill="#9a32cd" stroke="#9a32cd" points="653.13,-179.27 643.44,-183.56 653.69,-186.25 653.13,-179.27"/>
</a>
</g>
<text text-anchor="middle" x="746.62" y="-181.55" font-family="Arial" font-size="11.00" fill="grey"> m_model</text>
</g>
<!-- Node10 -->
<g id="Node000010" class="node">
<title>Node10</title>
<g id="a_Node000010"><a xlink:href="../../d5/d2d/classQAbstractListModel.html" target="_top" xlink:title=" ">
<polygon fill="white" stroke="#bfbfbf" points="432.5,-197.25 322.75,-197.25 322.75,-175.75 432.5,-175.75 432.5,-197.25"/>
<text text-anchor="middle" x="377.62" y="-182.8" font-family="Arial" font-size="11.00">QAbstractListModel</text>
</a>
</g>
</g>
<!-- Node10&#45;&gt;Node9 -->
<g id="edge10_Node000009_Node000010" class="edge">
<title>Node10&#45;&gt;Node9</title>
<g id="a_edge10_Node000009_Node000010"><a xlink:title=" ">
<path fill="none" stroke="#63b8ff" d="M443.62,-186.5C483.79,-186.5 533.88,-186.5 567.24,-186.5"/>
<polygon fill="#63b8ff" stroke="#63b8ff" points="443.83,-183 433.83,-186.5 443.83,-190 443.83,-183"/>
</a>
</g>
</g>
<!-- Node11&#45;&gt;Node10 -->
<g id="edge11_Node000010_Node000011" class="edge">
<title>Node11&#45;&gt;Node10</title>
<g id="a_edge11_Node000010_Node000011"><a xlink:title=" ">
<path fill="none" stroke="#63b8ff" d="M217.33,-186.5C250.83,-186.5 290.81,-186.5 322.33,-186.5"/>
<polygon fill="#63b8ff" stroke="#63b8ff" points="217.7,-183 207.7,-186.5 217.7,-190 217.7,-183"/>
</a>
</g>
</g>
<!-- Node12 -->
<g id="Node000012" class="node">
<title>Node12</title>
<g id="a_Node000012"><a xlink:title=" ">
<polygon fill="white" stroke="#bfbfbf" points="440.75,-123 314.5,-123 314.5,-88 440.75,-88 440.75,-123"/>
<text text-anchor="start" x="322.5" y="-108.55" font-family="Arial" font-size="11.00">vector&lt; ElevationChart</text>
<text text-anchor="middle" x="377.62" y="-95.05" font-family="Arial" font-size="11.00">::ElevationPoint &gt;</text>
</a>
</g>
</g>
<!-- Node12&#45;&gt;Node3 -->
<g id="edge15_Node000003_Node000012" class="edge">
<title>Node12&#45;&gt;Node3</title>
<g id="a_edge15_Node000003_Node000012"><a xlink:title=" ">
<path fill="none" stroke="#9a32cd" stroke-dasharray="5,2" d="M451.53,-86.67C476.48,-81.1 504.66,-75.76 530.75,-73 596.16,-66.09 613.53,-64.43 678.75,-73 732.46,-80.06 748.58,-79.24 796.5,-104.5 821.25,-117.55 844.85,-140.6 857.67,-154.32"/>
<polygon fill="#9a32cd" stroke="#9a32cd" points="451.03,-83.42 442.06,-89.06 452.59,-90.25 451.03,-83.42"/>
</a>
</g>
<text text-anchor="middle" x="604.75" y="-75.55" font-family="Arial" font-size="11.00" fill="grey"> m_profile</text>
</g>
<!-- Node12&#45;&gt;Node9 -->
<g id="edge13_Node000009_Node000012" class="edge">
<title>Node12&#45;&gt;Node9</title>
<g id="a_edge13_Node000009_Node000012"><a xlink:title=" ">
<path fill="none" stroke="#9a32cd" stroke-dasharray="5,2" d="M429.78,-127.71C459.04,-139.98 496.61,-155.02 530.75,-166.5 542.46,-170.44 555.41,-174.18 567.11,-177.34"/>
<polygon fill="#9a32cd" stroke="#9a32cd" points="431.37,-124.16 420.8,-123.49 428.65,-130.61 431.37,-124.16"/>
</a>
</g>
<text text-anchor="middle" x="485.75" y="-161.55" font-family="Arial" font-size="11.00" fill="grey"> m_storage</text>
</g>
<!-- Node13 -->
<g id="Node000013" class="node">
<title>Node13</title>
<g id="a_Node000013"><a xlink:title=" ">
<polygon fill="white" stroke="#bfbfbf" points="678.75,-289 530.75,-289 530.75,-254 678.75,-254 678.75,-289"/>
<text text-anchor="start" x="538.75" y="-274.55" font-family="Arial" font-size="11.00">unique_ptr&lt; ElevationChart</text>
<text text-anchor="middle" x="604.75" y="-261.05" font-family="Arial" font-size="11.00">::RandomDataProvider &gt;</text>
</a>
</g>
</g>
<!-- Node13&#45;&gt;Node3 -->
<g id="edge14_Node000003_Node000013" class="edge">
<title>Node13&#45;&gt;Node3</title>
<g id="a_edge14_Node000003_Node000013"><a xlink:title=" ">
<path fill="none" stroke="#9a32cd" stroke-dasharray="5,2" d="M689.56,-268.94C724.27,-265.02 763.94,-256.69 796.5,-239.5 825.18,-224.36 849.03,-193.35 860.42,-176.68"/>
<polygon fill="#9a32cd" stroke="#9a32cd" points="689.56,-265.52 679.96,-270.01 690.27,-272.48 689.56,-265.52"/>
</a>
</g>
<text text-anchor="middle" x="746.62" y="-269.55" font-family="Arial" font-size="11.00" fill="grey"> m_random_provider</text>
</g>
</g>
</svg>
