<?xml version="1.0" encoding="UTF-8" standalone="no"?>
<!DOCTYPE svg PUBLIC "-//W3C//DTD SVG 1.1//EN"
 "http://www.w3.org/Graphics/SVG/1.1/DTD/svg11.dtd">
<!-- Generated by graphviz version 8.0.5 (0)
 -->
<!-- Title: Иерархия классов. Графический вид. Pages: 1 -->
<svg width="466pt" height="70pt"
 viewBox="0.00 0.00 465.50 69.50" xmlns="http://www.w3.org/2000/svg" xmlns:xlink="http://www.w3.org/1999/xlink">
<g id="graph0" class="graph" transform="scale(1 1) rotate(0) translate(4 65.5)">
<title>Иерархия классов. Графический вид.</title>
<!-- Node0 -->
<g id="Node000000" class="node">
<title>Node0</title>
<g id="a_Node000000"><a xlink:title=" ">
<polygon fill="#e0e0e0" stroke="#999999" points="113.5,-41.5 0,-41.5 0,-20 113.5,-20 113.5,-41.5"/>
<text text-anchor="middle" x="56.75" y="-27.05" font-family="Arial" font-size="11.00">QSGMaterialShader</text>
</a>
</g>
</g>
<!-- Node1 -->
<g id="Node000001" class="node">
<title>Node1</title>
<g id="a_Node000001"><a xlink:title=" ">
<polygon fill="#e0e0e0" stroke="#999999" points="296,-41.5 149.5,-41.5 149.5,-20 296,-20 296,-41.5"/>
<text text-anchor="middle" x="222.75" y="-27.05" font-family="Arial" font-size="11.00">QSGSimpleMaterialShader</text>
</a>
</g>
</g>
<!-- Node0&#45;&gt;Node1 -->
<g id="edge3_Node000000_Node000001" class="edge">
<title>Node0&#45;&gt;Node1</title>
<g id="a_edge3_Node000000_Node000001"><a xlink:title=" ">
<path fill="none" stroke="#63b8ff" d="M124.62,-30.75C132.72,-30.75 141.03,-30.75 149.2,-30.75"/>
<polygon fill="#63b8ff" stroke="#63b8ff" points="124.73,-27.25 114.73,-30.75 124.73,-34.25 124.73,-27.25"/>
</a>
</g>
</g>
<!-- Node2 -->
<g id="Node000002" class="node">
<title>Node2</title>
<g id="a_Node000002"><a xlink:href="db/d09/classLPVL_1_1FadingGradientShader.html" target="_top" xlink:title=" ">
<polygon fill="white" stroke="#666666" points="457.5,-61.5 332,-61.5 332,-40 457.5,-40 457.5,-61.5"/>
<text text-anchor="middle" x="394.75" y="-47.05" font-family="Arial" font-size="11.00">FadingGradientShader</text>
</a>
</g>
</g>
<!-- Node1&#45;&gt;Node2 -->
<g id="edge4_Node000001_Node000002" class="edge">
<title>Node1&#45;&gt;Node2</title>
<g id="a_edge4_Node000001_Node000002"><a xlink:title=" ">
<path fill="none" stroke="#63b8ff" d="M307.13,-40.56C315.36,-41.53 323.62,-42.5 331.58,-43.44"/>
<polygon fill="#63b8ff" stroke="#63b8ff" points="307.68,-36.98 297.34,-39.29 306.86,-43.93 307.68,-36.98"/>
</a>
</g>
</g>
<!-- Node3 -->
<g id="Node000003" class="node">
<title>Node3</title>
<g id="a_Node000003"><a xlink:href="d7/d0c/classLPVL_1_1RadialGradientShader.html" target="_top" xlink:title=" ">
<polygon fill="white" stroke="#666666" points="456.38,-21.5 333.12,-21.5 333.12,0 456.38,0 456.38,-21.5"/>
<text text-anchor="middle" x="394.75" y="-7.05" font-family="Arial" font-size="11.00">RadialGradientShader</text>
</a>
</g>
</g>
<!-- Node1&#45;&gt;Node3 -->
<g id="edge5_Node000001_Node000003" class="edge">
<title>Node1&#45;&gt;Node3</title>
<g id="a_edge5_Node000001_Node000003"><a xlink:title=" ">
<path fill="none" stroke="#63b8ff" d="M307.17,-20.94C315.76,-19.93 324.36,-18.91 332.64,-17.94"/>
<polygon fill="#63b8ff" stroke="#63b8ff" points="306.86,-17.57 297.34,-22.21 307.68,-24.52 306.86,-17.57"/>
</a>
</g>
</g>
</g>
</svg>
