<?xml version="1.0" encoding="UTF-8" standalone="no"?>
<!DOCTYPE svg PUBLIC "-//W3C//DTD SVG 1.1//EN"
 "http://www.w3.org/Graphics/SVG/1.1/DTD/svg11.dtd">
<!-- Generated by graphviz version 8.0.5 (0)
 -->
<!-- Title: Иерархия классов. Графический вид. Pages: 1 -->
<svg width="313pt" height="30pt"
 viewBox="0.00 0.00 312.50 29.50" xmlns="http://www.w3.org/2000/svg" xmlns:xlink="http://www.w3.org/1999/xlink">
<g id="graph0" class="graph" transform="scale(1 1) rotate(0) translate(4 25.5)">
<title>Иерархия классов. Графический вид.</title>
<!-- Node0 -->
<g id="Node000000" class="node">
<title>Node0</title>
<g id="a_Node000000"><a xlink:title=" ">
<polygon fill="#e0e0e0" stroke="#999999" points="55,-21.5 0,-21.5 0,0 55,0 55,-21.5"/>
<text text-anchor="middle" x="27.5" y="-7.05" font-family="Arial" font-size="11.00">QObject</text>
</a>
</g>
</g>
<!-- Node1 -->
<g id="Node000001" class="node">
<title>Node1</title>
<g id="a_Node000001"><a xlink:title=" ">
<polygon fill="#e0e0e0" stroke="#999999" points="163.25,-21.5 91,-21.5 91,0 163.25,0 163.25,-21.5"/>
<text text-anchor="middle" x="127.12" y="-7.05" font-family="Arial" font-size="11.00">QQuickItem</text>
</a>
</g>
</g>
<!-- Node0&#45;&gt;Node1 -->
<g id="edge1_Node000000_Node000001" class="edge">
<title>Node0&#45;&gt;Node1</title>
<g id="a_edge1_Node000000_Node000001"><a xlink:title=" ">
<path fill="none" stroke="#63b8ff" d="M66.31,-10.75C74.27,-10.75 82.63,-10.75 90.5,-10.75"/>
<polygon fill="#63b8ff" stroke="#63b8ff" points="66.43,-7.25 56.43,-10.75 66.43,-14.25 66.43,-7.25"/>
</a>
</g>
</g>
<!-- Node2 -->
<g id="Node000002" class="node">
<title>Node2</title>
<g id="a_Node000002"><a xlink:href="da/d9a/classLPVL_1_1ScenegraphObject.html" target="_top" xlink:title="Базовый класс для объектов Qt Quick Scenegraph.">
<polygon fill="white" stroke="#666666" points="304.5,-21.5 199.25,-21.5 199.25,0 304.5,0 304.5,-21.5"/>
<text text-anchor="middle" x="251.88" y="-7.05" font-family="Arial" font-size="11.00">ScenegraphObject</text>
</a>
</g>
</g>
<!-- Node1&#45;&gt;Node2 -->
<g id="edge2_Node000001_Node000002" class="edge">
<title>Node1&#45;&gt;Node2</title>
<g id="a_edge2_Node000001_Node000002"><a xlink:title=" ">
<path fill="none" stroke="#63b8ff" d="M174.6,-10.75C182.58,-10.75 190.91,-10.75 199.01,-10.75"/>
<polygon fill="#63b8ff" stroke="#63b8ff" points="174.63,-7.25 164.63,-10.75 174.63,-14.25 174.63,-7.25"/>
</a>
</g>
</g>
</g>
</svg>
