<?xml version="1.0" encoding="UTF-8" standalone="no"?>
<!DOCTYPE svg PUBLIC "-//W3C//DTD SVG 1.1//EN"
 "http://www.w3.org/Graphics/SVG/1.1/DTD/svg11.dtd">
<!-- Generated by graphviz version 8.0.5 (0)
 -->
<!-- Title: Легенда Pages: 1 -->
<svg width="536pt" height="172pt"
 viewBox="0.00 0.00 535.75 171.50" xmlns="http://www.w3.org/2000/svg" xmlns:xlink="http://www.w3.org/1999/xlink">
<g id="graph0" class="graph" transform="scale(1 1) rotate(0) translate(4 167.5)">
<title>Легенда</title>
<!-- Node9 -->
<g id="Node000009" class="node">
<title>Node9</title>
<g id="a_Node000009"><a xlink:title=" ">
<polygon fill="#999999" stroke="#666666" points="310,-21.5 252,-21.5 252,0 310,0 310,-21.5"/>
<text text-anchor="middle" x="281" y="-7.05" font-family="Arial" font-size="11.00">Inherited</text>
</a>
</g>
</g>
<!-- Node10 -->
<g id="Node000010" class="node">
<title>Node10</title>
<g id="a_Node000010"><a xlink:title=" ">
<polygon fill="white" stroke="#666666" points="70,-92.5 0,-92.5 0,-71 70,-71 70,-92.5"/>
<text text-anchor="middle" x="35" y="-78.05" font-family="Arial" font-size="11.00">PublicBase</text>
</a>
</g>
</g>
<!-- Node10&#45;&gt;Node9 -->
<g id="edge1" class="edge">
<title>Node10&#45;&gt;Node9</title>
<g id="a_edge1"><a xlink:title=" ">
<path fill="none" stroke="#63b8ff" d="M80.76,-67.92C130.72,-53.9 209.25,-31.87 251.6,-20"/>
<polygon fill="#63b8ff" stroke="#63b8ff" points="79.93,-64.79 71.25,-70.86 81.82,-71.53 79.93,-64.79"/>
</a>
</g>
</g>
<!-- Node11 -->
<g id="Node000011" class="node">
<title>Node11</title>
<g id="a_Node000011"><a xlink:title=" ">
<polygon fill="#fff0f0" stroke="red" points="67,-163.5 3,-163.5 3,-142 67,-142 67,-163.5"/>
<text text-anchor="middle" x="35" y="-149.05" font-family="Arial" font-size="11.00">Truncated</text>
</a>
</g>
</g>
<!-- Node11&#45;&gt;Node10 -->
<g id="edge2" class="edge">
<title>Node11&#45;&gt;Node10</title>
<g id="a_edge2"><a xlink:title=" ">
<path fill="none" stroke="#63b8ff" d="M35,-130.7C35,-118.18 35,-102.87 35,-92.97"/>
<polygon fill="#63b8ff" stroke="#63b8ff" points="31.5,-130.57 35,-140.57 38.5,-130.57 31.5,-130.57"/>
</a>
</g>
</g>
<!-- Node13 -->
<g id="node4" class="node">
<title>Node13</title>
<g id="a_node4"><a xlink:title=" ">
<polygon fill="white" stroke="#666666" points="175.62,-92.5 88.38,-92.5 88.38,-71 175.62,-71 175.62,-92.5"/>
<text text-anchor="middle" x="132" y="-78.05" font-family="Arial" font-size="11.00">ProtectedBase</text>
</a>
</g>
</g>
<!-- Node13&#45;&gt;Node9 -->
<g id="edge3" class="edge">
<title>Node13&#45;&gt;Node9</title>
<g id="a_edge3"><a xlink:title=" ">
<path fill="none" stroke="darkgreen" d="M163.91,-65.97C192.53,-52.72 233.8,-33.61 258.92,-21.97"/>
<polygon fill="darkgreen" stroke="darkgreen" points="162.59,-63.19 154.99,-70.57 165.53,-69.54 162.59,-63.19"/>
</a>
</g>
</g>
<!-- Node14 -->
<g id="node5" class="node">
<title>Node14</title>
<g id="a_node5"><a xlink:title=" ">
<polygon fill="white" stroke="#666666" points="268.25,-92.5 193.75,-92.5 193.75,-71 268.25,-71 268.25,-92.5"/>
<text text-anchor="middle" x="231" y="-78.05" font-family="Arial" font-size="11.00">PrivateBase</text>
</a>
</g>
</g>
<!-- Node14&#45;&gt;Node9 -->
<g id="edge4" class="edge">
<title>Node14&#45;&gt;Node9</title>
<g id="a_edge4"><a xlink:title=" ">
<path fill="none" stroke="#8b1a1a" d="M244.6,-61.99C253.94,-49.1 265.97,-32.49 273.59,-21.97"/>
<polygon fill="#8b1a1a" stroke="#8b1a1a" points="241.41,-59.42 238.38,-69.57 247.08,-63.53 241.41,-59.42"/>
</a>
</g>
</g>
<!-- Node15 -->
<g id="Node000015" class="node">
<title>Node15</title>
<g id="a_Node000015"><a xlink:title=" ">
<polygon fill="#e0e0e0" stroke="#999999" points="375.75,-92.5 286.25,-92.5 286.25,-71 375.75,-71 375.75,-92.5"/>
<text text-anchor="middle" x="331" y="-78.05" font-family="Arial" font-size="11.00">Undocumented</text>
</a>
</g>
</g>
<!-- Node15&#45;&gt;Node9 -->
<g id="edge5" class="edge">
<title>Node15&#45;&gt;Node9</title>
<g id="a_edge5"><a xlink:title=" ">
<path fill="none" stroke="#63b8ff" d="M317.4,-61.99C308.06,-49.1 296.03,-32.49 288.41,-21.97"/>
<polygon fill="#63b8ff" stroke="#63b8ff" points="314.92,-63.53 323.62,-69.57 320.59,-59.42 314.92,-63.53"/>
</a>
</g>
</g>
<!-- Node16 -->
<g id="node7" class="node">
<title>Node16</title>
<g id="a_node7"><a xlink:title=" ">
<polygon fill="white" stroke="#666666" points="468.62,-92.5 393.38,-92.5 393.38,-71 468.62,-71 468.62,-92.5"/>
<text text-anchor="middle" x="431" y="-78.05" font-family="Arial" font-size="11.00">Templ&lt; int &gt;</text>
</a>
</g>
</g>
<!-- Node16&#45;&gt;Node9 -->
<g id="edge6" class="edge">
<title>Node16&#45;&gt;Node9</title>
<g id="a_edge6"><a xlink:title=" ">
<path fill="none" stroke="#63b8ff" d="M398.88,-65.97C370.06,-52.72 328.52,-33.61 303.22,-21.97"/>
<polygon fill="#63b8ff" stroke="#63b8ff" points="397.32,-69.57 407.87,-70.57 400.24,-63.21 397.32,-69.57"/>
</a>
</g>
</g>
<!-- Node17 -->
<g id="node8" class="node">
<title>Node17</title>
<g id="a_node8"><a xlink:title=" ">
<polygon fill="white" stroke="#666666" points="466.38,-163.5 395.62,-163.5 395.62,-142 466.38,-142 466.38,-163.5"/>
<text text-anchor="middle" x="431" y="-149.05" font-family="Arial" font-size="11.00">Templ&lt; T &gt;</text>
</a>
</g>
</g>
<!-- Node17&#45;&gt;Node16 -->
<g id="edge7" class="edge">
<title>Node17&#45;&gt;Node16</title>
<g id="a_edge7"><a xlink:title=" ">
<path fill="none" stroke="orange" stroke-dasharray="5,2" d="M431,-130.7C431,-118.18 431,-102.87 431,-92.97"/>
<polygon fill="orange" stroke="orange" points="427.5,-130.57 431,-140.57 434.5,-130.57 427.5,-130.57"/>
</a>
</g>
<text text-anchor="middle" x="446.38" y="-113.55" font-family="Arial" font-size="11.00" fill="grey">&lt; int &gt;</text>
</g>
<!-- Node18 -->
<g id="node9" class="node">
<title>Node18</title>
<g id="a_node9"><a xlink:title=" ">
<polygon fill="white" stroke="#666666" points="527.75,-92.5 486.25,-92.5 486.25,-71 527.75,-71 527.75,-92.5"/>
<text text-anchor="middle" x="507" y="-78.05" font-family="Arial" font-size="11.00">Used</text>
</a>
</g>
</g>
<!-- Node18&#45;&gt;Node9 -->
<g id="edge8" class="edge">
<title>Node18&#45;&gt;Node9</title>
<g id="a_edge8"><a xlink:title=" ">
<path fill="none" stroke="#9a32cd" stroke-dasharray="5,2" d="M475.58,-70.28C411.78,-50.08 347.1,-30.98 310.46,-20.29"/>
<polygon fill="#9a32cd" stroke="#9a32cd" points="474.21,-73.84 484.8,-73.54 476.33,-67.17 474.21,-73.84"/>
</a>
</g>
<text text-anchor="middle" x="450.62" y="-42.55" font-family="Arial" font-size="11.00" fill="grey">m_usedClass</text>
</g>
</g>
</svg>
