<?xml version="1.0" encoding="UTF-8" standalone="no"?>
<!DOCTYPE svg PUBLIC "-//W3C//DTD SVG 1.1//EN"
 "http://www.w3.org/Graphics/SVG/1.1/DTD/svg11.dtd">
<!-- Generated by graphviz version 8.1.0 (0)
 -->
<!-- Title: Иерархия классов. Графический вид. Pages: 1 -->
<svg width="503pt" height="150pt"
 viewBox="0.00 0.00 503.25 149.50" xmlns="http://www.w3.org/2000/svg" xmlns:xlink="http://www.w3.org/1999/xlink">
<g id="graph0" class="graph" transform="scale(1 1) rotate(0) translate(4 145.5)">
<title>Иерархия классов. Графический вид.</title>
<!-- Node0 -->
<g id="Node000000" class="node">
<title>Node0</title>
<g id="a_Node000000"><a xlink:title=" ">
<polygon fill="#e0e0e0" stroke="#999999" points="55,-81.5 0,-81.5 0,-60 55,-60 55,-81.5"/>
<text text-anchor="middle" x="27.5" y="-67.05" font-family="Arial" font-size="11.00">QObject</text>
</a>
</g>
</g>
<!-- Node1 -->
<g id="Node000001" class="node">
<title>Node1</title>
<g id="a_Node000001"><a xlink:href="dc/d79/classElevationChart_1_1API.html" target="_top" xlink:title="Публичный интерфейс (C++) для виджета профиля высот.">
<polygon fill="white" stroke="#666666" points="165.12,-141.5 131.12,-141.5 131.12,-120 165.12,-120 165.12,-141.5"/>
<text text-anchor="middle" x="148.12" y="-127.05" font-family="Arial" font-size="11.00">API</text>
</a>
</g>
</g>
<!-- Node0&#45;&gt;Node1 -->
<g id="edge4_Node000000_Node000001" class="edge">
<title>Node0&#45;&gt;Node1</title>
<g id="a_edge4_Node000000_Node000001"><a xlink:title=" ">
<path fill="none" stroke="#63b8ff" d="M52.67,-88.04C63.96,-95.64 77.81,-104.28 91,-110.75 104,-117.12 119.57,-122.51 131.01,-126.08"/>
<polygon fill="#63b8ff" stroke="#63b8ff" points="55.07,-84.76 44.85,-81.97 51.1,-90.52 55.07,-84.76"/>
</a>
</g>
</g>
<!-- Node2 -->
<g id="Node000002" class="node">
<title>Node2</title>
<g id="a_Node000002"><a xlink:href="d6/dda/classElevationChart_1_1TypeFactory.html" target="_top" xlink:title=" ">
<polygon fill="white" stroke="#666666" points="185.75,-101.5 110.5,-101.5 110.5,-80 185.75,-80 185.75,-101.5"/>
<text text-anchor="middle" x="148.12" y="-87.05" font-family="Arial" font-size="11.00">TypeFactory</text>
</a>
</g>
</g>
<!-- Node0&#45;&gt;Node2 -->
<g id="edge5_Node000000_Node000002" class="edge">
<title>Node0&#45;&gt;Node2</title>
<g id="a_edge5_Node000000_Node000002"><a xlink:title=" ">
<path fill="none" stroke="#63b8ff" d="M65.85,-77.05C80.07,-79.44 96.26,-82.17 110.42,-84.56"/>
<polygon fill="#63b8ff" stroke="#63b8ff" points="66.86,-73.5 56.42,-75.29 65.7,-80.4 66.86,-73.5"/>
</a>
</g>
</g>
<!-- Node3 -->
<g id="Node000003" class="node">
<title>Node3</title>
<g id="a_Node000003"><a xlink:href="d0/d5a/classQAbstractItemModel.html" target="_top" xlink:title=" ">
<polygon fill="white" stroke="#666666" points="205.25,-61.5 91,-61.5 91,-40 205.25,-40 205.25,-61.5"/>
<text text-anchor="middle" x="148.12" y="-47.05" font-family="Arial" font-size="11.00">QAbstractItemModel</text>
</a>
</g>
</g>
<!-- Node0&#45;&gt;Node3 -->
<g id="edge6_Node000000_Node000003" class="edge">
<title>Node0&#45;&gt;Node3</title>
<g id="a_edge6_Node000000_Node000003"><a xlink:title=" ">
<path fill="none" stroke="#63b8ff" d="M66.07,-64.42C73.93,-63.09 82.38,-61.67 90.76,-60.25"/>
<polygon fill="#63b8ff" stroke="#63b8ff" points="65.7,-61.1 56.42,-66.21 66.86,-68 65.7,-61.1"/>
</a>
</g>
</g>
<!-- Node6 -->
<g id="Node000006" class="node">
<title>Node6</title>
<g id="a_Node000006"><a xlink:href="d7/d4d/classQQuickItem.html" target="_top" xlink:title=" ">
<polygon fill="white" stroke="#666666" points="184.25,-21.5 112,-21.5 112,0 184.25,0 184.25,-21.5"/>
<text text-anchor="middle" x="148.12" y="-7.05" font-family="Arial" font-size="11.00">QQuickItem</text>
</a>
</g>
</g>
<!-- Node0&#45;&gt;Node6 -->
<g id="edge9_Node000000_Node000006" class="edge">
<title>Node0&#45;&gt;Node6</title>
<g id="a_edge9_Node000000_Node000006"><a xlink:title=" ">
<path fill="none" stroke="#63b8ff" d="M52.67,-53.46C63.96,-45.86 77.81,-37.22 91,-30.75 97.59,-27.52 104.85,-24.54 111.89,-21.92"/>
<polygon fill="#63b8ff" stroke="#63b8ff" points="51.1,-50.98 44.85,-59.53 55.07,-56.74 51.1,-50.98"/>
</a>
</g>
</g>
<!-- Node4 -->
<g id="Node000004" class="node">
<title>Node4</title>
<g id="a_Node000004"><a xlink:href="d5/d2d/classQAbstractListModel.html" target="_top" xlink:title=" ">
<polygon fill="white" stroke="#666666" points="351,-61.5 241.25,-61.5 241.25,-40 351,-40 351,-61.5"/>
<text text-anchor="middle" x="296.12" y="-47.05" font-family="Arial" font-size="11.00">QAbstractListModel</text>
</a>
</g>
</g>
<!-- Node3&#45;&gt;Node4 -->
<g id="edge7_Node000003_Node000004" class="edge">
<title>Node3&#45;&gt;Node4</title>
<g id="a_edge7_Node000003_Node000004"><a xlink:title=" ">
<path fill="none" stroke="#63b8ff" d="M216.41,-50.75C224.73,-50.75 233.14,-50.75 241.22,-50.75"/>
<polygon fill="#63b8ff" stroke="#63b8ff" points="216.57,-47.25 206.57,-50.75 216.57,-54.25 216.57,-47.25"/>
</a>
</g>
</g>
<!-- Node5 -->
<g id="Node000005" class="node">
<title>Node5</title>
<g id="a_Node000005"><a xlink:href="d6/de1/classElevationChart_1_1RouteModel.html" target="_top" xlink:title="Модель точек пути для профиля высот.">
<polygon fill="white" stroke="#666666" points="478.38,-61.5 403.88,-61.5 403.88,-40 478.38,-40 478.38,-61.5"/>
<text text-anchor="middle" x="441.12" y="-47.05" font-family="Arial" font-size="11.00">RouteModel</text>
</a>
</g>
</g>
<!-- Node4&#45;&gt;Node5 -->
<g id="edge8_Node000004_Node000005" class="edge">
<title>Node4&#45;&gt;Node5</title>
<g id="a_edge8_Node000004_Node000005"><a xlink:title=" ">
<path fill="none" stroke="#63b8ff" d="M362.03,-50.75C376.36,-50.75 391.04,-50.75 403.75,-50.75"/>
<polygon fill="#63b8ff" stroke="#63b8ff" points="362.19,-47.25 352.19,-50.75 362.19,-54.25 362.19,-47.25"/>
</a>
</g>
</g>
<!-- Node7 -->
<g id="Node000007" class="node">
<title>Node7</title>
<g id="a_Node000007"><a xlink:href="d6/d6b/classSG_1_1ScenegraphObject.html" target="_top" xlink:title="Базовый класс для объектов Qt Quick Scenegraph.">
<polygon fill="white" stroke="#666666" points="348.75,-21.5 243.5,-21.5 243.5,0 348.75,0 348.75,-21.5"/>
<text text-anchor="middle" x="296.12" y="-7.05" font-family="Arial" font-size="11.00">ScenegraphObject</text>
</a>
</g>
</g>
<!-- Node6&#45;&gt;Node7 -->
<g id="edge10_Node000006_Node000007" class="edge">
<title>Node6&#45;&gt;Node7</title>
<g id="a_edge10_Node000006_Node000007"><a xlink:title=" ">
<path fill="none" stroke="#63b8ff" d="M195.22,-10.75C210.49,-10.75 227.59,-10.75 243.26,-10.75"/>
<polygon fill="#63b8ff" stroke="#63b8ff" points="195.47,-7.25 185.47,-10.75 195.47,-14.25 195.47,-7.25"/>
</a>
</g>
</g>
<!-- Node8 -->
<g id="Node000008" class="node">
<title>Node8</title>
<g id="a_Node000008"><a xlink:href="d2/d6b/classElevationChart_1_1ElevationChartItem.html" target="_top" xlink:title="Основной класс библиотеки.">
<polygon fill="white" stroke="#666666" points="495.25,-21.5 387,-21.5 387,0 495.25,0 495.25,-21.5"/>
<text text-anchor="middle" x="441.12" y="-7.05" font-family="Arial" font-size="11.00">ElevationChartItem</text>
</a>
</g>
</g>
<!-- Node7&#45;&gt;Node8 -->
<g id="edge11_Node000007_Node000008" class="edge">
<title>Node7&#45;&gt;Node8</title>
<g id="a_edge11_Node000007_Node000008"><a xlink:title=" ">
<path fill="none" stroke="#63b8ff" d="M359.99,-10.75C368.98,-10.75 378.15,-10.75 386.93,-10.75"/>
<polygon fill="#63b8ff" stroke="#63b8ff" points="360.16,-7.25 350.16,-10.75 360.16,-14.25 360.16,-7.25"/>
</a>
</g>
</g>
</g>
</svg>
