<?xml version="1.0" encoding="UTF-8" standalone="no"?>
<!DOCTYPE svg PUBLIC "-//W3C//DTD SVG 1.1//EN"
 "http://www.w3.org/Graphics/SVG/1.1/DTD/svg11.dtd">
<!-- Generated by graphviz version 8.0.5 (0)
 -->
<!-- Title: Иерархия классов. Графический вид. Pages: 1 -->
<svg width="274pt" height="110pt"
 viewBox="0.00 0.00 274.25 109.50" xmlns="http://www.w3.org/2000/svg" xmlns:xlink="http://www.w3.org/1999/xlink">
<g id="graph0" class="graph" transform="scale(1 1) rotate(0) translate(4 105.5)">
<title>Иерархия классов. Графический вид.</title>
<!-- Node0 -->
<g id="Node000000" class="node">
<title>Node0</title>
<g id="a_Node000000"><a xlink:title=" ">
<polygon fill="#e0e0e0" stroke="#999999" points="55,-61.5 0,-61.5 0,-40 55,-40 55,-61.5"/>
<text text-anchor="middle" x="27.5" y="-47.05" font-family="Arial" font-size="11.00">QObject</text>
</a>
</g>
</g>
<!-- Node1 -->
<g id="Node000001" class="node">
<title>Node1</title>
<g id="a_Node000001"><a xlink:href="dc/d79/classElevationChart_1_1API.html" target="_top" xlink:title="Публичный интерфейс (C++) для виджета профиля высот.">
<polygon fill="white" stroke="#666666" points="145.62,-101.5 111.62,-101.5 111.62,-80 145.62,-80 145.62,-101.5"/>
<text text-anchor="middle" x="128.62" y="-87.05" font-family="Arial" font-size="11.00">API</text>
</a>
</g>
</g>
<!-- Node0&#45;&gt;Node1 -->
<g id="edge2_Node000000_Node000001" class="edge">
<title>Node0&#45;&gt;Node1</title>
<g id="a_edge2_Node000000_Node000001"><a xlink:title=" ">
<path fill="none" stroke="#63b8ff" d="M65.38,-65.63C81.21,-72.02 98.88,-79.15 111.34,-84.18"/>
<polygon fill="#63b8ff" stroke="#63b8ff" points="66.91,-62.07 56.32,-61.57 64.29,-68.56 66.91,-62.07"/>
</a>
</g>
</g>
<!-- Node2 -->
<g id="Node000002" class="node">
<title>Node2</title>
<g id="a_Node000002"><a xlink:href="d6/dda/classElevationChart_1_1TypeFactory.html" target="_top" xlink:title=" ">
<polygon fill="white" stroke="#666666" points="166.25,-61.5 91,-61.5 91,-40 166.25,-40 166.25,-61.5"/>
<text text-anchor="middle" x="128.62" y="-47.05" font-family="Arial" font-size="11.00">TypeFactory</text>
</a>
</g>
</g>
<!-- Node0&#45;&gt;Node2 -->
<g id="edge3_Node000000_Node000002" class="edge">
<title>Node0&#45;&gt;Node2</title>
<g id="a_edge3_Node000000_Node000002"><a xlink:title=" ">
<path fill="none" stroke="#63b8ff" d="M66.27,-50.75C74.29,-50.75 82.75,-50.75 90.73,-50.75"/>
<polygon fill="#63b8ff" stroke="#63b8ff" points="66.32,-47.25 56.32,-50.75 66.32,-54.25 66.32,-47.25"/>
</a>
</g>
</g>
<!-- Node3 -->
<g id="Node000003" class="node">
<title>Node3</title>
<g id="a_Node000003"><a xlink:href="d7/d4d/classQQuickItem.html" target="_top" xlink:title=" ">
<polygon fill="white" stroke="#666666" points="164.75,-21.5 92.5,-21.5 92.5,0 164.75,0 164.75,-21.5"/>
<text text-anchor="middle" x="128.62" y="-7.05" font-family="Arial" font-size="11.00">QQuickItem</text>
</a>
</g>
</g>
<!-- Node0&#45;&gt;Node3 -->
<g id="edge4_Node000000_Node000003" class="edge">
<title>Node0&#45;&gt;Node3</title>
<g id="a_edge4_Node000000_Node000003"><a xlink:title=" ">
<path fill="none" stroke="#63b8ff" d="M65.5,-35.82C76.97,-31.19 89.39,-26.18 100.09,-21.86"/>
<polygon fill="#63b8ff" stroke="#63b8ff" points="64.29,-32.94 56.32,-39.93 66.91,-39.43 64.29,-32.94"/>
</a>
</g>
</g>
<!-- Node4 -->
<g id="Node000004" class="node">
<title>Node4</title>
<g id="a_Node000004"><a xlink:href="d1/d7c/classElevationChart_1_1ChartItem.html" target="_top" xlink:title=" ">
<polygon fill="white" stroke="#666666" points="266.25,-21.5 202.25,-21.5 202.25,0 266.25,0 266.25,-21.5"/>
<text text-anchor="middle" x="234.25" y="-7.05" font-family="Arial" font-size="11.00">ChartItem</text>
</a>
</g>
</g>
<!-- Node3&#45;&gt;Node4 -->
<g id="edge5_Node000003_Node000004" class="edge">
<title>Node3&#45;&gt;Node4</title>
<g id="a_edge5_Node000003_Node000004"><a xlink:title=" ">
<path fill="none" stroke="#63b8ff" d="M175.92,-10.75C184.69,-10.75 193.68,-10.75 201.85,-10.75"/>
<polygon fill="#63b8ff" stroke="#63b8ff" points="176,-7.25 166,-10.75 176,-14.25 176,-7.25"/>
</a>
</g>
</g>
</g>
</svg>
