<?xml version="1.0" encoding="UTF-8" standalone="no"?>
<!DOCTYPE svg PUBLIC "-//W3C//DTD SVG 1.1//EN"
 "http://www.w3.org/Graphics/SVG/1.1/DTD/svg11.dtd">
<!-- Generated by graphviz version 8.0.5 (0)
 -->
<!-- Title: Иерархия классов. Графический вид. Pages: 1 -->
<svg width="271pt" height="70pt"
 viewBox="0.00 0.00 271.25 69.50" xmlns="http://www.w3.org/2000/svg" xmlns:xlink="http://www.w3.org/1999/xlink">
<g id="graph0" class="graph" transform="scale(1 1) rotate(0) translate(4 65.5)">
<title>Иерархия классов. Графический вид.</title>
<!-- Node0 -->
<g id="Node000000" class="node">
<title>Node0</title>
<g id="a_Node000000"><a xlink:title=" ">
<polygon fill="#e0e0e0" stroke="#999999" points="55,-41.5 0,-41.5 0,-20 55,-20 55,-41.5"/>
<text text-anchor="middle" x="27.5" y="-27.05" font-family="Arial" font-size="11.00">QObject</text>
</a>
</g>
</g>
<!-- Node1 -->
<g id="Node000001" class="node">
<title>Node1</title>
<g id="a_Node000001"><a xlink:href="dc/d79/classElevationChart_1_1API.html" target="_top" xlink:title="Публичный интерфейс (C++) для виджета профиля высот.">
<polygon fill="white" stroke="#666666" points="144.12,-61.5 110.12,-61.5 110.12,-40 144.12,-40 144.12,-61.5"/>
<text text-anchor="middle" x="127.12" y="-47.05" font-family="Arial" font-size="11.00">API</text>
</a>
</g>
</g>
<!-- Node0&#45;&gt;Node1 -->
<g id="edge1_Node000000_Node000001" class="edge">
<title>Node0&#45;&gt;Node1</title>
<g id="a_edge1_Node000000_Node000001"><a xlink:title=" ">
<path fill="none" stroke="#63b8ff" d="M66.07,-38.45C81.16,-41.54 97.76,-44.94 109.68,-47.38"/>
<polygon fill="#63b8ff" stroke="#63b8ff" points="66.93,-34.85 56.43,-36.27 65.53,-41.7 66.93,-34.85"/>
</a>
</g>
</g>
<!-- Node2 -->
<g id="Node000002" class="node">
<title>Node2</title>
<g id="a_Node000002"><a xlink:href="d7/d4d/classQQuickItem.html" target="_top" xlink:title=" ">
<polygon fill="white" stroke="#666666" points="163.25,-21.5 91,-21.5 91,0 163.25,0 163.25,-21.5"/>
<text text-anchor="middle" x="127.12" y="-7.05" font-family="Arial" font-size="11.00">QQuickItem</text>
</a>
</g>
</g>
<!-- Node0&#45;&gt;Node2 -->
<g id="edge2_Node000000_Node000002" class="edge">
<title>Node0&#45;&gt;Node2</title>
<g id="a_edge2_Node000000_Node000002"><a xlink:title=" ">
<path fill="none" stroke="#63b8ff" d="M66.04,-23.06C74.07,-21.41 82.54,-19.68 90.5,-18.05"/>
<polygon fill="#63b8ff" stroke="#63b8ff" points="65.53,-19.8 56.43,-25.23 66.93,-26.65 65.53,-19.8"/>
</a>
</g>
</g>
<!-- Node3 -->
<g id="Node000003" class="node">
<title>Node3</title>
<g id="a_Node000003"><a xlink:href="d1/d7c/classElevationChart_1_1ChartItem.html" target="_top" xlink:title=" ">
<polygon fill="white" stroke="#666666" points="263.25,-21.5 199.25,-21.5 199.25,0 263.25,0 263.25,-21.5"/>
<text text-anchor="middle" x="231.25" y="-7.05" font-family="Arial" font-size="11.00">ChartItem</text>
</a>
</g>
</g>
<!-- Node2&#45;&gt;Node3 -->
<g id="edge3_Node000002_Node000003" class="edge">
<title>Node2&#45;&gt;Node3</title>
<g id="a_edge3_Node000002_Node000003"><a xlink:title=" ">
<path fill="none" stroke="#63b8ff" d="M174.34,-10.75C182.68,-10.75 191.19,-10.75 198.97,-10.75"/>
<polygon fill="#63b8ff" stroke="#63b8ff" points="174.56,-7.25 164.56,-10.75 174.56,-14.25 174.56,-7.25"/>
</a>
</g>
</g>
</g>
</svg>
