<?xml version="1.0" encoding="UTF-8" standalone="no"?>
<!DOCTYPE svg PUBLIC "-//W3C//DTD SVG 1.1//EN"
 "http://www.w3.org/Graphics/SVG/1.1/DTD/svg11.dtd">
<!-- Generated by graphviz version 8.0.5 (0)
 -->
<!-- Title: Иерархия классов. Графический вид. Pages: 1 -->
<svg width="503pt" height="190pt"
 viewBox="0.00 0.00 503.25 189.50" xmlns="http://www.w3.org/2000/svg" xmlns:xlink="http://www.w3.org/1999/xlink">
<g id="graph0" class="graph" transform="scale(1 1) rotate(0) translate(4 185.5)">
<title>Иерархия классов. Графический вид.</title>
<!-- Node0 -->
<g id="Node000000" class="node">
<title>Node0</title>
<g id="a_Node000000"><a xlink:title=" ">
<polygon fill="#e0e0e0" stroke="#999999" points="55,-101.5 0,-101.5 0,-80 55,-80 55,-101.5"/>
<text text-anchor="middle" x="27.5" y="-87.05" font-family="Arial" font-size="11.00">QObject</text>
</a>
</g>
</g>
<!-- Node1 -->
<g id="Node000001" class="node">
<title>Node1</title>
<g id="a_Node000001"><a xlink:href="dc/d79/classElevationChart_1_1API.html" target="_top" xlink:title="Публичный интерфейс (C++) для виджета профиля высот.">
<polygon fill="white" stroke="#666666" points="165.12,-181.5 131.12,-181.5 131.12,-160 165.12,-160 165.12,-181.5"/>
<text text-anchor="middle" x="148.12" y="-167.05" font-family="Arial" font-size="11.00">API</text>
</a>
</g>
</g>
<!-- Node0&#45;&gt;Node1 -->
<g id="edge4_Node000000_Node000001" class="edge">
<title>Node0&#45;&gt;Node1</title>
<g id="a_edge4_Node000000_Node000001"><a xlink:title=" ">
<path fill="none" stroke="#63b8ff" d="M44.47,-109.88C56.21,-122.9 73.16,-139.72 91,-150.75 103.49,-158.47 119.4,-163.78 131.08,-166.98"/>
<polygon fill="#63b8ff" stroke="#63b8ff" points="46.77,-108.19 37.56,-102.96 41.5,-112.8 46.77,-108.19"/>
</a>
</g>
</g>
<!-- Node2 -->
<g id="Node000002" class="node">
<title>Node2</title>
<g id="a_Node000002"><a xlink:href="df/d15/classElevationChart_1_1Researcher.html" target="_top" xlink:title=" ">
<polygon fill="white" stroke="#666666" points="184.25,-141.5 112,-141.5 112,-120 184.25,-120 184.25,-141.5"/>
<text text-anchor="middle" x="148.12" y="-127.05" font-family="Arial" font-size="11.00">Researcher</text>
</a>
</g>
</g>
<!-- Node0&#45;&gt;Node2 -->
<g id="edge5_Node000000_Node000002" class="edge">
<title>Node0&#45;&gt;Node2</title>
<g id="a_edge5_Node000000_Node000002"><a xlink:title=" ">
<path fill="none" stroke="#63b8ff" d="M65.68,-103.29C81.15,-108.5 98.95,-114.51 113.96,-119.57"/>
<polygon fill="#63b8ff" stroke="#63b8ff" points="67.01,-99.71 56.42,-99.83 64.78,-106.34 67.01,-99.71"/>
</a>
</g>
</g>
<!-- Node3 -->
<g id="Node000003" class="node">
<title>Node3</title>
<g id="a_Node000003"><a xlink:href="d6/dda/classElevationChart_1_1TypeFactory.html" target="_top" xlink:title=" ">
<polygon fill="white" stroke="#666666" points="185.75,-101.5 110.5,-101.5 110.5,-80 185.75,-80 185.75,-101.5"/>
<text text-anchor="middle" x="148.12" y="-87.05" font-family="Arial" font-size="11.00">TypeFactory</text>
</a>
</g>
</g>
<!-- Node0&#45;&gt;Node3 -->
<g id="edge6_Node000000_Node000003" class="edge">
<title>Node0&#45;&gt;Node3</title>
<g id="a_edge6_Node000000_Node000003"><a xlink:title=" ">
<path fill="none" stroke="#63b8ff" d="M66.27,-90.75C80.39,-90.75 96.4,-90.75 110.42,-90.75"/>
<polygon fill="#63b8ff" stroke="#63b8ff" points="66.42,-87.25 56.42,-90.75 66.42,-94.25 66.42,-87.25"/>
</a>
</g>
</g>
<!-- Node4 -->
<g id="Node000004" class="node">
<title>Node4</title>
<g id="a_Node000004"><a xlink:title=" ">
<polygon fill="#e0e0e0" stroke="#999999" points="205.25,-61.5 91,-61.5 91,-40 205.25,-40 205.25,-61.5"/>
<text text-anchor="middle" x="148.12" y="-47.05" font-family="Arial" font-size="11.00">QAbstractItemModel</text>
</a>
</g>
</g>
<!-- Node0&#45;&gt;Node4 -->
<g id="edge7_Node000000_Node000004" class="edge">
<title>Node0&#45;&gt;Node4</title>
<g id="a_edge7_Node000000_Node000004"><a xlink:title=" ">
<path fill="none" stroke="#63b8ff" d="M65.68,-78.21C81.15,-73 98.95,-66.99 113.96,-61.93"/>
<polygon fill="#63b8ff" stroke="#63b8ff" points="64.78,-75.16 56.42,-81.67 67.01,-81.79 64.78,-75.16"/>
</a>
</g>
</g>
<!-- Node8 -->
<g id="Node000008" class="node">
<title>Node8</title>
<g id="a_Node000008"><a xlink:href="d7/d4d/classQQuickItem.html" target="_top" xlink:title=" ">
<polygon fill="white" stroke="#666666" points="184.25,-21.5 112,-21.5 112,0 184.25,0 184.25,-21.5"/>
<text text-anchor="middle" x="148.12" y="-7.05" font-family="Arial" font-size="11.00">QQuickItem</text>
</a>
</g>
</g>
<!-- Node0&#45;&gt;Node8 -->
<g id="edge11_Node000000_Node000008" class="edge">
<title>Node0&#45;&gt;Node8</title>
<g id="a_edge11_Node000000_Node000008"><a xlink:title=" ">
<path fill="none" stroke="#63b8ff" d="M44.47,-71.62C56.21,-58.6 73.16,-41.78 91,-30.75 97.34,-26.83 104.55,-23.54 111.64,-20.82"/>
<polygon fill="#63b8ff" stroke="#63b8ff" points="41.5,-68.7 37.56,-78.54 46.77,-73.31 41.5,-68.7"/>
</a>
</g>
</g>
<!-- Node5 -->
<g id="Node000005" class="node">
<title>Node5</title>
<g id="a_Node000005"><a xlink:title=" ">
<polygon fill="#e0e0e0" stroke="#999999" points="351,-61.5 241.25,-61.5 241.25,-40 351,-40 351,-61.5"/>
<text text-anchor="middle" x="296.12" y="-47.05" font-family="Arial" font-size="11.00">QAbstractListModel</text>
</a>
</g>
</g>
<!-- Node4&#45;&gt;Node5 -->
<g id="edge8_Node000004_Node000005" class="edge">
<title>Node4&#45;&gt;Node5</title>
<g id="a_edge8_Node000004_Node000005"><a xlink:title=" ">
<path fill="none" stroke="#63b8ff" d="M216.41,-50.75C224.73,-50.75 233.14,-50.75 241.22,-50.75"/>
<polygon fill="#63b8ff" stroke="#63b8ff" points="216.57,-47.25 206.57,-50.75 216.57,-54.25 216.57,-47.25"/>
</a>
</g>
</g>
<!-- Node6 -->
<g id="Node000006" class="node">
<title>Node6</title>
<g id="a_Node000006"><a xlink:href="d4/d99/classElevationChart_1_1NotificationModel.html" target="_top" xlink:title="Модель оповещений об ошибках в маршруте.">
<polygon fill="white" stroke="#666666" points="490.38,-101.5 391.88,-101.5 391.88,-80 490.38,-80 490.38,-101.5"/>
<text text-anchor="middle" x="441.12" y="-87.05" font-family="Arial" font-size="11.00">NotificationModel</text>
</a>
</g>
</g>
<!-- Node5&#45;&gt;Node6 -->
<g id="edge9_Node000005_Node000006" class="edge">
<title>Node5&#45;&gt;Node6</title>
<g id="a_edge9_Node000005_Node000006"><a xlink:title=" ">
<path fill="none" stroke="#63b8ff" d="M347.78,-64.92C364.99,-69.73 383.96,-75.04 400.21,-79.59"/>
<polygon fill="#63b8ff" stroke="#63b8ff" points="348.91,-61.32 338.34,-62 347.03,-68.06 348.91,-61.32"/>
</a>
</g>
</g>
<!-- Node7 -->
<g id="Node000007" class="node">
<title>Node7</title>
<g id="a_Node000007"><a xlink:href="d6/de1/classElevationChart_1_1RouteModel.html" target="_top" xlink:title="Модель точек пути для профиля высот.">
<polygon fill="white" stroke="#666666" points="478.38,-61.5 403.88,-61.5 403.88,-40 478.38,-40 478.38,-61.5"/>
<text text-anchor="middle" x="441.12" y="-47.05" font-family="Arial" font-size="11.00">RouteModel</text>
</a>
</g>
</g>
<!-- Node5&#45;&gt;Node7 -->
<g id="edge10_Node000005_Node000007" class="edge">
<title>Node5&#45;&gt;Node7</title>
<g id="a_edge10_Node000005_Node000007"><a xlink:title=" ">
<path fill="none" stroke="#63b8ff" d="M362.03,-50.75C376.36,-50.75 391.04,-50.75 403.75,-50.75"/>
<polygon fill="#63b8ff" stroke="#63b8ff" points="362.19,-47.25 352.19,-50.75 362.19,-54.25 362.19,-47.25"/>
</a>
</g>
</g>
<!-- Node9 -->
<g id="Node000009" class="node">
<title>Node9</title>
<g id="a_Node000009"><a xlink:href="d6/d6b/classSG_1_1ScenegraphObject.html" target="_top" xlink:title="Базовый класс для объектов Qt Quick Scenegraph.">
<polygon fill="white" stroke="#666666" points="348.75,-21.5 243.5,-21.5 243.5,0 348.75,0 348.75,-21.5"/>
<text text-anchor="middle" x="296.12" y="-7.05" font-family="Arial" font-size="11.00">ScenegraphObject</text>
</a>
</g>
</g>
<!-- Node8&#45;&gt;Node9 -->
<g id="edge12_Node000008_Node000009" class="edge">
<title>Node8&#45;&gt;Node9</title>
<g id="a_edge12_Node000008_Node000009"><a xlink:title=" ">
<path fill="none" stroke="#63b8ff" d="M195.22,-10.75C210.49,-10.75 227.59,-10.75 243.26,-10.75"/>
<polygon fill="#63b8ff" stroke="#63b8ff" points="195.47,-7.25 185.47,-10.75 195.47,-14.25 195.47,-7.25"/>
</a>
</g>
</g>
<!-- Node10 -->
<g id="Node000010" class="node">
<title>Node10</title>
<g id="a_Node000010"><a xlink:href="d2/d6b/classElevationChart_1_1ElevationChartItem.html" target="_top" xlink:title="Основной класс библиотеки.">
<polygon fill="white" stroke="#666666" points="495.25,-21.5 387,-21.5 387,0 495.25,0 495.25,-21.5"/>
<text text-anchor="middle" x="441.12" y="-7.05" font-family="Arial" font-size="11.00">ElevationChartItem</text>
</a>
</g>
</g>
<!-- Node9&#45;&gt;Node10 -->
<g id="edge13_Node000009_Node000010" class="edge">
<title>Node9&#45;&gt;Node10</title>
<g id="a_edge13_Node000009_Node000010"><a xlink:title=" ">
<path fill="none" stroke="#63b8ff" d="M359.99,-10.75C368.98,-10.75 378.15,-10.75 386.93,-10.75"/>
<polygon fill="#63b8ff" stroke="#63b8ff" points="360.16,-7.25 350.16,-10.75 360.16,-14.25 360.16,-7.25"/>
</a>
</g>
</g>
</g>
</svg>
