<?xml version="1.0" encoding="UTF-8" standalone="no"?>
<!DOCTYPE svg PUBLIC "-//W3C//DTD SVG 1.1//EN"
 "http://www.w3.org/Graphics/SVG/1.1/DTD/svg11.dtd">
<!-- Generated by graphviz version 8.0.5 (0)
 -->
<!-- Title: Иерархия классов. Графический вид. Pages: 1 -->
<svg width="494pt" height="170pt"
 viewBox="0.00 0.00 493.50 169.50" xmlns="http://www.w3.org/2000/svg" xmlns:xlink="http://www.w3.org/1999/xlink">
<g id="graph0" class="graph" transform="scale(1 1) rotate(0) translate(4 165.5)">
<title>Иерархия классов. Графический вид.</title>
<!-- Node0 -->
<g id="Node000000" class="node">
<title>Node0</title>
<g id="a_Node000000"><a xlink:title=" ">
<polygon fill="#e0e0e0" stroke="#999999" points="55,-101.5 0,-101.5 0,-80 55,-80 55,-101.5"/>
<text text-anchor="middle" x="27.5" y="-87.05" font-family="Arial" font-size="11.00">QObject</text>
</a>
</g>
</g>
<!-- Node1 -->
<g id="Node000001" class="node">
<title>Node1</title>
<g id="a_Node000001"><a xlink:href="dc/d79/classElevationChart_1_1API.html" target="_top" xlink:title="Публичный интерфейс (C++) для виджета профиля высот.">
<polygon fill="white" stroke="#666666" points="165.12,-161.5 131.12,-161.5 131.12,-140 165.12,-140 165.12,-161.5"/>
<text text-anchor="middle" x="148.12" y="-147.05" font-family="Arial" font-size="11.00">API</text>
</a>
</g>
</g>
<!-- Node0&#45;&gt;Node1 -->
<g id="edge4_Node000000_Node000001" class="edge">
<title>Node0&#45;&gt;Node1</title>
<g id="a_edge4_Node000000_Node000001"><a xlink:title=" ">
<path fill="none" stroke="#63b8ff" d="M52.67,-108.04C63.96,-115.64 77.81,-124.28 91,-130.75 104,-137.12 119.57,-142.51 131.01,-146.08"/>
<polygon fill="#63b8ff" stroke="#63b8ff" points="55.07,-104.76 44.85,-101.97 51.1,-110.52 55.07,-104.76"/>
</a>
</g>
</g>
<!-- Node2 -->
<g id="Node000002" class="node">
<title>Node2</title>
<g id="a_Node000002"><a xlink:href="df/d15/classElevationChart_1_1Researcher.html" target="_top" xlink:title=" ">
<polygon fill="white" stroke="#666666" points="184.25,-121.5 112,-121.5 112,-100 184.25,-100 184.25,-121.5"/>
<text text-anchor="middle" x="148.12" y="-107.05" font-family="Arial" font-size="11.00">Researcher</text>
</a>
</g>
</g>
<!-- Node0&#45;&gt;Node2 -->
<g id="edge5_Node000000_Node000002" class="edge">
<title>Node0&#45;&gt;Node2</title>
<g id="a_edge5_Node000000_Node000002"><a xlink:title=" ">
<path fill="none" stroke="#63b8ff" d="M66.12,-97.09C80.73,-99.56 97.37,-102.36 111.76,-104.79"/>
<polygon fill="#63b8ff" stroke="#63b8ff" points="66.86,-93.5 56.42,-95.29 65.7,-100.4 66.86,-93.5"/>
</a>
</g>
</g>
<!-- Node3 -->
<g id="Node000003" class="node">
<title>Node3</title>
<g id="a_Node000003"><a xlink:href="d6/dda/classElevationChart_1_1TypeFactory.html" target="_top" xlink:title=" ">
<polygon fill="white" stroke="#666666" points="185.75,-81.5 110.5,-81.5 110.5,-60 185.75,-60 185.75,-81.5"/>
<text text-anchor="middle" x="148.12" y="-67.05" font-family="Arial" font-size="11.00">TypeFactory</text>
</a>
</g>
</g>
<!-- Node0&#45;&gt;Node3 -->
<g id="edge6_Node000000_Node000003" class="edge">
<title>Node0&#45;&gt;Node3</title>
<g id="a_edge6_Node000000_Node000003"><a xlink:title=" ">
<path fill="none" stroke="#63b8ff" d="M65.85,-84.45C80.07,-82.06 96.26,-79.33 110.42,-76.94"/>
<polygon fill="#63b8ff" stroke="#63b8ff" points="65.7,-81.1 56.42,-86.21 66.86,-88 65.7,-81.1"/>
</a>
</g>
</g>
<!-- Node4 -->
<g id="Node000004" class="node">
<title>Node4</title>
<g id="a_Node000004"><a xlink:title=" ">
<polygon fill="#e0e0e0" stroke="#999999" points="205.25,-41.5 91,-41.5 91,-20 205.25,-20 205.25,-41.5"/>
<text text-anchor="middle" x="148.12" y="-27.05" font-family="Arial" font-size="11.00">QAbstractItemModel</text>
</a>
</g>
</g>
<!-- Node0&#45;&gt;Node4 -->
<g id="edge7_Node000000_Node000004" class="edge">
<title>Node0&#45;&gt;Node4</title>
<g id="a_edge7_Node000000_Node000004"><a xlink:title=" ">
<path fill="none" stroke="#63b8ff" d="M52.67,-73.46C63.96,-65.86 77.81,-57.22 91,-50.75 97.59,-47.52 104.85,-44.54 111.89,-41.92"/>
<polygon fill="#63b8ff" stroke="#63b8ff" points="51.1,-70.98 44.85,-79.53 55.07,-76.74 51.1,-70.98"/>
</a>
</g>
</g>
<!-- Node5 -->
<g id="Node000005" class="node">
<title>Node5</title>
<g id="a_Node000005"><a xlink:title=" ">
<polygon fill="#e0e0e0" stroke="#999999" points="351,-41.5 241.25,-41.5 241.25,-20 351,-20 351,-41.5"/>
<text text-anchor="middle" x="296.12" y="-27.05" font-family="Arial" font-size="11.00">QAbstractListModel</text>
</a>
</g>
</g>
<!-- Node4&#45;&gt;Node5 -->
<g id="edge8_Node000004_Node000005" class="edge">
<title>Node4&#45;&gt;Node5</title>
<g id="a_edge8_Node000004_Node000005"><a xlink:title=" ">
<path fill="none" stroke="#63b8ff" d="M216.41,-30.75C224.73,-30.75 233.14,-30.75 241.22,-30.75"/>
<polygon fill="#63b8ff" stroke="#63b8ff" points="216.57,-27.25 206.57,-30.75 216.57,-34.25 216.57,-27.25"/>
</a>
</g>
</g>
<!-- Node6 -->
<g id="Node000006" class="node">
<title>Node6</title>
<g id="a_Node000006"><a xlink:href="d4/d99/classElevationChart_1_1NotificationModel.html" target="_top" xlink:title="Модель оповещений об ошибках в маршруте.">
<polygon fill="white" stroke="#666666" points="485.5,-61.5 387,-61.5 387,-40 485.5,-40 485.5,-61.5"/>
<text text-anchor="middle" x="436.25" y="-47.05" font-family="Arial" font-size="11.00">NotificationModel</text>
</a>
</g>
</g>
<!-- Node5&#45;&gt;Node6 -->
<g id="edge9_Node000005_Node000006" class="edge">
<title>Node5&#45;&gt;Node6</title>
<g id="a_edge9_Node000005_Node000006"><a xlink:title=" ">
<path fill="none" stroke="#63b8ff" d="M362.08,-40.16C370.34,-41.35 378.67,-42.56 386.6,-43.71"/>
<polygon fill="#63b8ff" stroke="#63b8ff" points="362.72,-36.57 352.32,-38.6 361.71,-43.49 362.72,-36.57"/>
</a>
</g>
</g>
<!-- Node7 -->
<g id="Node000007" class="node">
<title>Node7</title>
<g id="a_Node000007"><a xlink:href="d6/de1/classElevationChart_1_1RouteModel.html" target="_top" xlink:title="Модель точек пути для профиля высот.">
<polygon fill="white" stroke="#666666" points="473.5,-21.5 399,-21.5 399,0 473.5,0 473.5,-21.5"/>
<text text-anchor="middle" x="436.25" y="-7.05" font-family="Arial" font-size="11.00">RouteModel</text>
</a>
</g>
</g>
<!-- Node5&#45;&gt;Node7 -->
<g id="edge10_Node000005_Node000007" class="edge">
<title>Node5&#45;&gt;Node7</title>
<g id="a_edge10_Node000005_Node000007"><a xlink:title=" ">
<path fill="none" stroke="#63b8ff" d="M361.86,-21.38C374.5,-19.55 387.33,-17.69 398.66,-16.05"/>
<polygon fill="#63b8ff" stroke="#63b8ff" points="361.71,-18.01 352.32,-22.9 362.72,-24.93 361.71,-18.01"/>
</a>
</g>
</g>
</g>
</svg>
