<?xml version="1.0" encoding="UTF-8" standalone="no"?>
<!DOCTYPE svg PUBLIC "-//W3C//DTD SVG 1.1//EN"
 "http://www.w3.org/Graphics/SVG/1.1/DTD/svg11.dtd">
<!-- Generated by graphviz version 8.0.5 (0)
 -->
<!-- Title: Иерархия классов. Графический вид. Pages: 1 -->
<svg width="292pt" height="70pt"
 viewBox="0.00 0.00 292.00 69.50" xmlns="http://www.w3.org/2000/svg" xmlns:xlink="http://www.w3.org/1999/xlink">
<g id="graph0" class="graph" transform="scale(1 1) rotate(0) translate(4 65.5)">
<title>Иерархия классов. Графический вид.</title>
<!-- Node0 -->
<g id="Node000000" class="node">
<title>Node0</title>
<g id="a_Node000000"><a xlink:href="db/d9d/classElevationChart_1_1IElevationDataProvider.html" target="_top" xlink:title="Интерфейс для провайдера данных о профиле высот ландшафта.">
<polygon fill="white" stroke="#666666" points="127,-41.5 0,-41.5 0,-20 127,-20 127,-41.5"/>
<text text-anchor="middle" x="63.5" y="-27.05" font-family="Arial" font-size="11.00">IElevationDataProvider</text>
</a>
</g>
</g>
<!-- Node1 -->
<g id="Node000001" class="node">
<title>Node1</title>
<g id="a_Node000001"><a xlink:href="dd/d98/classElevationChart_1_1DEMDataProvider.html" target="_top" xlink:title="Провайдер данных о профиле высот с использованием библиотеки DEM.">
<polygon fill="white" stroke="#666666" points="275.75,-61.5 171.25,-61.5 171.25,-40 275.75,-40 275.75,-61.5"/>
<text text-anchor="middle" x="223.5" y="-47.05" font-family="Arial" font-size="11.00">DEMDataProvider</text>
</a>
</g>
</g>
<!-- Node0&#45;&gt;Node1 -->
<g id="edge1_Node000000_Node000001" class="edge">
<title>Node0&#45;&gt;Node1</title>
<g id="a_edge1_Node000000_Node000001"><a xlink:title=" ">
<path fill="none" stroke="#63b8ff" d="M138.01,-40.05C149.15,-41.46 160.44,-42.89 170.98,-44.23"/>
<polygon fill="#63b8ff" stroke="#63b8ff" points="138.76,-36.5 128.4,-38.71 137.88,-43.44 138.76,-36.5"/>
</a>
</g>
</g>
<!-- Node2 -->
<g id="Node000002" class="node">
<title>Node2</title>
<g id="a_Node000002"><a xlink:href="d3/d2f/classElevationChart_1_1RandomDataProvider.html" target="_top" xlink:title="Провайдер случайных тестовых данных о профиле высот.">
<polygon fill="white" stroke="#666666" points="284,-21.5 163,-21.5 163,0 284,0 284,-21.5"/>
<text text-anchor="middle" x="223.5" y="-7.05" font-family="Arial" font-size="11.00">RandomDataProvider</text>
</a>
</g>
</g>
<!-- Node0&#45;&gt;Node2 -->
<g id="edge2_Node000000_Node000002" class="edge">
<title>Node0&#45;&gt;Node2</title>
<g id="a_edge2_Node000000_Node000002"><a xlink:title=" ">
<path fill="none" stroke="#63b8ff" d="M138.12,-21.43C146.34,-20.39 154.63,-19.34 162.64,-18.33"/>
<polygon fill="#63b8ff" stroke="#63b8ff" points="137.88,-18.06 128.4,-22.79 138.76,-25 137.88,-18.06"/>
</a>
</g>
</g>
</g>
</svg>
